<svg id="Layer_1" data-name="Layer 1" xmlns="http://www.w3.org/2000/svg" viewBox="0 0 748 505"><defs><style>.cls-1{fill:#b58460;}.cls-1,.cls-10,.cls-11,.cls-12,.cls-13,.cls-14,.cls-4,.cls-5,.cls-6,.cls-7,.cls-9{fill-rule:evenodd;}.cls-15,.cls-2,.cls-3,.cls-8{fill:none;}.cls-2{stroke:#c29170;}.cls-14,.cls-15,.cls-2,.cls-3,.cls-8{stroke-miterlimit:22.93;stroke-width:0.57px;}.cls-3{stroke:#d79e77;}.cls-14,.cls-4{fill:#c88e68;}.cls-5{fill:#b58462;}.cls-6{fill:#d79e77;}.cls-7{fill:#c88c66;}.cls-8{stroke:#b58460;}.cls-9{fill:#d8d6d4;}.cls-10{fill:#eceae7;}.cls-11{fill:#633a34;}.cls-12{fill:#492826;}.cls-13{fill:#c29170;}.cls-14{stroke:#c88e68;}.cls-15{stroke:#b58462;}</style></defs><g id="bath"><path class="cls-1" d="M699.66,495.77l-178.1-34.26L627,352.7l120.63,20.35-.34,34Z"/><path class="cls-2" d="M604.62,477.49l84.44-114.32"/><path class="cls-2" d="M622.28,480.89,701.9,365.33"/><path class="cls-3" d="M639.92,484.19l75.32-116.7"/><path class="cls-2" d="M655.67,487.34l74.18-117.29"/><path class="cls-2" d="M674.08,490.75l70.16-118.3"/><path class="cls-2" d="M689.56,494.51l57.83-102"/><path class="cls-2" d="M587.53,474.2l89.6-113"/><path class="cls-2" d="M570.47,470.92,664.73,358.7"/><path class="cls-2" d="M553.66,467.69l98-110.82"/><path class="cls-2" d="M537.54,464.5,639.36,354.72"/><path class="cls-4" d="M746.4,250.29v98.43H624.16V306.48l1.1.15.18,0,7.64,1.13,7.83,1.15,15.63,2.31,7.81,1.15,7.85,1.17,7.81,1.15,7.82,1.14,6.66,1,5,.73,0-13.16.83-1,44.2-53.13Z"/><path class="cls-5" d="M625.44,306.66l-.2,27.66,0,4,0,4.69,0,4.48v1.25l0,2.77v3.14l0,5.05v.85l-5.52,5.1L615.89,369l-2.67,2.48-4,3.67-3.2,3-.13.13-10.27,9.52-1.5,1.4-1.7,1.57-4.06,3.77-1.56,1.44-1,.92h0l-2.22,2.06-3.15,2.91-2.08,1.95L576,406.05l-1,.94-.93.87-1.53,1.41-.71.67-.82.76-1.67,1.54-.07.08h0l-.26-29.07v-.31l-.8-87.27,8-6.57v10.29l6.68,1,8.1,1.19,6.61,1,6.83,1,5.65.83,5.91.88,5.65.83,2.62.39,1.1.15Z"/><path class="cls-3" d="M615.61,256.61v-.05"/><path class="cls-3" d="M616.11,341l-.22-35.71"/><path class="cls-3" d="M590.89,301.56l1,62.95v1"/><path class="cls-3" d="M582.79,300.37l.32,70.06,0,1.49"/><path class="cls-3" d="M597.5,302.54l1,62.9v.18"/><path class="cls-3" d="M604.33,303.55l1.31,62.83v.08"/><path class="cls-3" d="M609.2,261.88v-.07"/><path class="cls-3" d="M610,304.38l.74,40.66v.42"/><path class="cls-3" d="M621.85,251.48v0"/><path class="cls-3" d="M621.54,306.09,621.37,337"/><path class="cls-3" d="M625.26,306.63,625,334.28"/><path class="cls-3" d="M633.08,307.79l-.31,27.42v.39"/><path class="cls-3" d="M640.91,308.94l-.3,27.22v.76"/><path class="cls-3" d="M648.72,310.09l-.29,27,0,1.14"/><path class="cls-3" d="M656.54,311.25l-.3,26.79v1.53"/><path class="cls-3" d="M664.35,312.4,664.07,339l0,1.91"/><path class="cls-3" d="M672.2,313.57l-.3,26.35,0,2.29"/><path class="cls-3" d="M680,314.72l-.3,26.14,0,2.67"/><path class="cls-3" d="M687.83,315.86l-.29,25.94,0,3.06"/><path class="cls-6" d="M708.94,364.19,605.38,348.51l.38,26.08,103.78,16.55Z"/><path class="cls-7" d="M709.54,391.14l-.6-26.95L722.49,346l0,22.82Z"/><path class="cls-6" d="M625,334.28l-19.56,14.79,103.55,15.12L722.49,346Z"/><path class="cls-1" d="M605.42,351.25l0-2.18,103.55,15.12,0,2.35Z"/><path class="cls-1" d="M709,366.54l0-2.35L722.49,346v2Z"/><path class="cls-8" d="M616.41,341.82l99.87,13.33"/><path class="cls-8" d="M610.73,345.46,712.6,359.68"/><path class="cls-8" d="M605.5,356.62l103.64,16.22"/><path class="cls-8" d="M605.73,363.48l103.63,16.21"/><path class="cls-8" d="M606,370.34l103.64,16.21"/><path class="cls-8" d="M621.27,337.8l98.56,12.45"/><path class="cls-8" d="M709.14,372.84l13-18.92"/><path class="cls-8" d="M709.36,379.7l12.75-19.2"/><path class="cls-8" d="M709.43,386.53l12.67-20.61"/><path class="cls-9" d="M749.08,245.27l-48.42,58.2-.77,192.45,47.59-88.27Z"/><path class="cls-10" d="M700.66,303.47l-.16,39.88,0,4.46V353l0,5v5l0,2.14v6.38l0,6.81,0,6.82,0,4.58v.93l-.1,26.31-.12,30L700,476.14l-.07,19.19v.59l-6.47-1.35h0l0-6.93.06-11.19.07-10.91,0-5.38,0-2.4.18-30.74L694,400.4l.06-11.72,0-4.55,0-6.82v-.7l0-6.12,0-6.13V362l0-4.84,0-4.9,0-3.5V347l0-4.41.16-25.76,5,.73,0-13.16.83-1Z"/><path class="cls-11" d="M568.63,383.2l.56,29.13,28,6.11-.6-30.51Z"/><path class="cls-12" d="M597.24,418.44l-.6-30.51,19.23-20,.62,27.75Z"/><path class="cls-4" d="M590.14,364.26q-21.51,18.93-21.49,18.94l28,4.73q19.2-20,19.22-20l-25.73-3.65Z"/><path class="cls-12" d="M590.53,366.48l-17.48,15.39,22.76,3.85q15.62-16.28,15.62-16.26-20.91-3-20.92-3Z"/><path class="cls-13" d="M575.92,387.2a2.09,2.09,0,0,0,.21,1.14c.19.31.55.45,1.1.22a5.07,5.07,0,0,0,1.62-1.23c.32-.4.22-.62,0-.78a1.39,1.39,0,0,0-.76-.28,4.12,4.12,0,0,0-1.1,0,2.06,2.06,0,0,0-.85.28.68.68,0,0,0-.26.62Z"/><path class="cls-13" d="M594,369.33a2.55,2.55,0,0,0,.26,1.44c.24.4.7.57,1.38.27a6.22,6.22,0,0,0,2-1.56c.4-.5.27-.78,0-1a1.73,1.73,0,0,0-1-.36,5,5,0,0,0-1.38.05,2.78,2.78,0,0,0-1.07.35c-.23.15-.31.36-.32.78Z"/><path class="cls-13" d="M591.24,389.22a2.08,2.08,0,0,1-.21,1.14c-.19.31-.56.46-1.1.22a5,5,0,0,1-1.62-1.23c-.32-.4-.22-.62,0-.77a1.32,1.32,0,0,1,.75-.29,4.54,4.54,0,0,1,1.1,0,2.06,2.06,0,0,1,.86.28.69.69,0,0,1,.26.63Z"/><path class="cls-13" d="M608.27,370.8a2.13,2.13,0,0,1-.21,1.15c-.19.31-.55.45-1.1.22a5.1,5.1,0,0,1-1.62-1.24c-.32-.4-.22-.62,0-.77a1.32,1.32,0,0,1,.75-.29,4.66,4.66,0,0,1,1.11,0,2.06,2.06,0,0,1,.85.29.67.67,0,0,1,.26.62Z"/><path class="cls-13" d="M612.5,379.92a2.47,2.47,0,0,1-.21,1.21,1.12,1.12,0,0,1-1.1.63,3,3,0,0,1-1.62-.65.48.48,0,0,1,0-.77,1.93,1.93,0,0,1,.75-.55,5.08,5.08,0,0,1,1.1-.37,2.17,2.17,0,0,1,.86,0c.18.07.24.2.26.52Z"/><path class="cls-13" d="M583.42,397.75a2.08,2.08,0,0,0,.21,1.14.79.79,0,0,0,1.1.22,5,5,0,0,0,1.62-1.23c.33-.4.22-.62,0-.78a1.36,1.36,0,0,0-.75-.28,4.54,4.54,0,0,0-1.1,0,2.12,2.12,0,0,0-.86.28c-.18.13-.24.29-.26.62Z"/><path class="cls-13" d="M579.87,406a2.09,2.09,0,0,1-.21,1.14c-.19.31-.55.45-1.1.22a5.18,5.18,0,0,1-1.62-1.23c-.32-.4-.22-.62,0-.78a1.35,1.35,0,0,1,.76-.28,4.55,4.55,0,0,1,1.1,0,2.21,2.21,0,0,1,.85.29.68.68,0,0,1,.26.62Z"/><path class="cls-13" d="M585.08,376.66a2,2,0,0,1-.21,1.14c-.19.31-.55.46-1.1.22a5.18,5.18,0,0,1-1.62-1.23c-.32-.4-.22-.62,0-.78a1.43,1.43,0,0,1,.76-.28,4.59,4.59,0,0,1,1.1,0,2.06,2.06,0,0,1,.85.28.69.69,0,0,1,.26.63Z"/><path class="cls-13" d="M573.69,400.05a2.09,2.09,0,0,1-.21,1.14c-.19.31-.56.45-1.1.22a5.1,5.1,0,0,1-1.62-1.23c-.32-.41-.22-.63,0-.78a1.32,1.32,0,0,1,.75-.29,4.56,4.56,0,0,1,1.1,0,2.06,2.06,0,0,1,.86.29.67.67,0,0,1,.26.62Z"/><path class="cls-13" d="M603.23,382.78a1.87,1.87,0,0,0,.21,1.1c.19.29.55.35,1.1,0a6.63,6.63,0,0,0,1.62-1.54c.32-.47.22-.66,0-.78a1.19,1.19,0,0,0-.75-.14,4.87,4.87,0,0,0-1.11.25,2.68,2.68,0,0,0-.85.44A.8.8,0,0,0,603.23,382.78Z"/><path class="cls-13" d="M604.64,393.4a1.88,1.88,0,0,0,.21,1.1c.19.28.56.35,1.1,0a6.64,6.64,0,0,0,1.62-1.54c.32-.47.22-.66,0-.78a1.13,1.13,0,0,0-.75-.14,4.11,4.11,0,0,0-1.1.24,2.64,2.64,0,0,0-.86.44A.84.84,0,0,0,604.64,393.4Z"/><path class="cls-13" d="M584.86,390.08a2.09,2.09,0,0,0,.21,1.14c.19.31.56.45,1.1.22a5,5,0,0,0,1.62-1.23c.33-.4.22-.62,0-.78a1.29,1.29,0,0,0-.75-.29,5.13,5.13,0,0,0-1.1,0,2.27,2.27,0,0,0-.86.29.67.67,0,0,0-.26.62Z"/><path class="cls-13" d="M603,372.59a2.07,2.07,0,0,0,.2,1.14c.2.31.56.46,1.11.22a5.18,5.18,0,0,0,1.62-1.23c.32-.4.22-.62,0-.77a1.29,1.29,0,0,0-.75-.29,4.58,4.58,0,0,0-1.1,0,2.06,2.06,0,0,0-.85.28c-.19.13-.25.29-.26.63Z"/><path class="cls-13" d="M576.79,394.51a2.08,2.08,0,0,0,.2,1.14c.2.31.56.46,1.11.22a5.18,5.18,0,0,0,1.62-1.23c.32-.4.22-.62,0-.78a1.43,1.43,0,0,0-.76-.28,4.12,4.12,0,0,0-1.1,0,2.06,2.06,0,0,0-.85.28c-.19.13-.25.29-.26.62Z"/><path class="cls-13" d="M593.33,376.75a2.07,2.07,0,0,0,.2,1.14c.2.32.56.46,1.11.23a5.21,5.21,0,0,0,1.62-1.24c.32-.4.22-.62,0-.77a1.29,1.29,0,0,0-.75-.29,4.56,4.56,0,0,0-1.1,0,2.06,2.06,0,0,0-.85.29c-.19.12-.25.28-.26.62Z"/><path class="cls-13" d="M592.57,400.51a3,3,0,0,0,.6,1.3c.3.3.7.31,1.17-.2a7,7,0,0,0,1.18-2.19c.18-.63,0-.84-.24-1a1.09,1.09,0,0,0-.84,0,4.11,4.11,0,0,0-1.08.52,2.56,2.56,0,0,0-.75.7,1.08,1.08,0,0,0-.05.87Z"/><path class="cls-13" d="M584.29,405.06a2.08,2.08,0,0,0,.21,1.14c.19.31.56.46,1.1.22a5,5,0,0,0,1.62-1.23c.32-.4.22-.62,0-.78a1.39,1.39,0,0,0-.75-.28,4.54,4.54,0,0,0-1.1,0,2.12,2.12,0,0,0-.86.28.68.68,0,0,0-.26.62Z"/><path class="cls-13" d="M604.89,390.78a2.07,2.07,0,0,0,.84.74c.32.1.65-.07.87-.68a6.63,6.63,0,0,0,.31-2.21c0-.57-.25-.65-.45-.64a1.14,1.14,0,0,0-.68.35,5,5,0,0,0-.71.88,2.63,2.63,0,0,0-.39.87A.83.83,0,0,0,604.89,390.78Z"/><path class="cls-13" d="M604.86,401a1.91,1.91,0,0,0,.21,1.11c.19.28.56.35,1.1,0a6.49,6.49,0,0,0,1.62-1.55c.32-.46.22-.66,0-.77a1.17,1.17,0,0,0-.75-.15,4.68,4.68,0,0,0-1.1.25,2.74,2.74,0,0,0-.86.44A.83.83,0,0,0,604.86,401Z"/><path class="cls-13" d="M575,410.57a1.79,1.79,0,0,1,.21-1.08c.19-.25.56-.27,1.1.13a7.81,7.81,0,0,1,1.62,1.75c.33.51.22.69,0,.79a1,1,0,0,1-.75.06,5.4,5.4,0,0,1-1.1-.39,3.46,3.46,0,0,1-.86-.55.93.93,0,0,1-.26-.7Z"/><path class="cls-13" d="M580.18,381.26a1.77,1.77,0,0,1,.21-1.07c.19-.26.56-.27,1.1.13a7.4,7.4,0,0,1,1.62,1.75c.33.5.22.69,0,.79a1.06,1.06,0,0,1-.75.05,5,5,0,0,1-1.1-.39,3.46,3.46,0,0,1-.86-.54,1,1,0,0,1-.26-.7Z"/><path class="cls-13" d="M585.06,412.89a1.78,1.78,0,0,1,.2-1.08c.2-.25.56-.27,1.11.13a8.3,8.3,0,0,1,1.62,1.75c.32.51.22.69,0,.79a1,1,0,0,1-.75.06,5.62,5.62,0,0,1-1.1-.39,3.38,3.38,0,0,1-.85-.55.86.86,0,0,1-.26-.7Z"/><path class="cls-4" d="M574.77,387.85a2.26,2.26,0,0,0-1-.26,2.51,2.51,0,0,0-1.2.25,3.06,3.06,0,0,0-1.21,1,.72.72,0,0,0,.16,1,1.88,1.88,0,0,0,1.42.28,6.19,6.19,0,0,0,2.1-.59c.5-.3.58-.65.46-.93a1.63,1.63,0,0,0-.77-.69Z"/><path class="cls-4" d="M592.87,370.36a2.5,2.5,0,0,0-1-.26,2.47,2.47,0,0,0-1.19.25,3,3,0,0,0-1.22,1,.73.73,0,0,0,.17,1,1.89,1.89,0,0,0,1.41.27,6.06,6.06,0,0,0,2.1-.58c.51-.3.59-.65.47-.94a1.65,1.65,0,0,0-.78-.68Z"/><path class="cls-4" d="M592.39,391.69a2.19,2.19,0,0,1,1-.26,2.32,2.32,0,0,1,1.19.24,3,3,0,0,1,1.22,1,.72.72,0,0,1-.17,1,1.86,1.86,0,0,1-1.41.27,6.12,6.12,0,0,1-2.1-.58c-.5-.3-.58-.65-.47-.93a1.66,1.66,0,0,1,.78-.69Z"/><path class="cls-4" d="M611.43,376.17a3.92,3.92,0,0,1,1-.62,2.64,2.64,0,0,1,1.19-.2,1.91,1.91,0,0,1,1.22.55.82.82,0,0,1-.17,1,2.65,2.65,0,0,1-1.41.79,4.91,4.91,0,0,1-2.1.18c-.5-.1-.58-.42-.46-.76a2.67,2.67,0,0,1,.77-1Z"/><path class="cls-4" d="M583.71,390.73a2.19,2.19,0,0,0-1-.26,2.32,2.32,0,0,0-1.19.24,3,3,0,0,0-1.22,1,.72.72,0,0,0,.17,1,1.86,1.86,0,0,0,1.41.27,6.12,6.12,0,0,0,2.1-.58c.5-.3.58-.65.47-.93a1.66,1.66,0,0,0-.78-.69Z"/><path class="cls-4" d="M601.8,373.24a2.5,2.5,0,0,0-1-.26,2.47,2.47,0,0,0-1.19.25,3,3,0,0,0-1.22,1,.74.74,0,0,0,.17,1,1.91,1.91,0,0,0,1.41.27,6.06,6.06,0,0,0,2.1-.59c.51-.28.59-.64.47-.93a1.61,1.61,0,0,0-.78-.69Z"/><path class="cls-4" d="M591.21,402.28a2.19,2.19,0,0,0-1-.26,2.34,2.34,0,0,0-1.19.24,3,3,0,0,0-1.22,1,.73.73,0,0,0,.17,1,1.89,1.89,0,0,0,1.41.27,6.06,6.06,0,0,0,2.1-.58c.51-.3.59-.65.47-.93a1.61,1.61,0,0,0-.78-.69Z"/><path class="cls-5" d="M593.79,394.89a1.64,1.64,0,0,0-.54.57,1.89,1.89,0,0,0-.27.92,2.31,2.31,0,0,0,.23,1.2.57.57,0,0,0,.74.24,1.54,1.54,0,0,0,.71-.89,4.3,4.3,0,0,0,.36-1.67c0-.45-.23-.65-.48-.67a1.3,1.3,0,0,0-.76.28Z"/><path class="cls-5" d="M614.15,378.65a3.21,3.21,0,0,0-.54.76,2.55,2.55,0,0,0-.27,1,2,2,0,0,0,.23,1.12c.18.22.47.17.74,0a2.48,2.48,0,0,0,.71-1.14,5.67,5.67,0,0,0,.37-1.82c0-.45-.24-.56-.48-.49a2,2,0,0,0-.77.57Z"/><path class="cls-4" d="M611,384.84a2.09,2.09,0,0,0-1-.08,3,3,0,0,0-1.2.48,4.24,4.24,0,0,0-1.21,1.22.67.67,0,0,0,.16.94,1.81,1.81,0,0,0,1.42,0,7.39,7.39,0,0,0,2.1-1c.5-.39.58-.75.46-1a1.15,1.15,0,0,0-.77-.53Z"/><path class="cls-4" d="M611.78,395.92a1.94,1.94,0,0,0-1-.07,2.67,2.67,0,0,0-1.19.48,4,4,0,0,0-1.22,1.21.67.67,0,0,0,.17.94,1.79,1.79,0,0,0,1.41,0,7.15,7.15,0,0,0,2.1-1c.51-.39.59-.75.47-1a1.18,1.18,0,0,0-.78-.53Z"/><path class="cls-5" d="M572.86,394.58a2.47,2.47,0,0,0-.82.57,2.3,2.3,0,0,0-.55,1.07,3,3,0,0,0,0,1.57.72.72,0,0,0,.85.48,1.83,1.83,0,0,0,1.1-.92,5.81,5.81,0,0,0,.87-2c.09-.57-.13-.86-.43-.94A1.58,1.58,0,0,0,572.86,394.58Z"/><path class="cls-5" d="M591,377.09a2.41,2.41,0,0,0-.82.57,2.39,2.39,0,0,0-.56,1.08,3.21,3.21,0,0,0,0,1.57.75.75,0,0,0,.86.48,1.89,1.89,0,0,0,1.1-.92,5.89,5.89,0,0,0,.87-2c.09-.57-.13-.86-.43-.95A1.63,1.63,0,0,0,591,377.09Z"/><path class="cls-5" d="M581.89,405.05a2.33,2.33,0,0,0-.81.57,2.3,2.3,0,0,0-.56,1.07,3,3,0,0,0,0,1.57.72.72,0,0,0,.86.48,1.86,1.86,0,0,0,1.1-.92,6,6,0,0,0,.87-2c.09-.57-.13-.86-.43-.95A1.67,1.67,0,0,0,581.89,405.05Z"/><path class="cls-5" d="M587.1,375.74a2.63,2.63,0,0,0-.81.57,2.34,2.34,0,0,0-.56,1.08,3,3,0,0,0,0,1.57.75.75,0,0,0,.86.48,1.89,1.89,0,0,0,1.1-.92,5.81,5.81,0,0,0,.87-2c.09-.57-.13-.87-.43-.95A1.67,1.67,0,0,0,587.1,375.74Z"/><path class="cls-7" d="M602.83,390.74a3,3,0,0,0-.82.73,2.87,2.87,0,0,0-.56,1.19,3.2,3.2,0,0,0,0,1.57.63.63,0,0,0,.86.32,2.52,2.52,0,0,0,1.1-1.13,6.94,6.94,0,0,0,.87-2.15c.09-.58-.13-.84-.43-.87a1.75,1.75,0,0,0-1,.37Z"/><path class="cls-5" d="M602.32,395.52a3.26,3.26,0,0,0-1.06-.24,3.3,3.3,0,0,0-2.58,1.11.6.6,0,0,0,.23.88,2.47,2.47,0,0,0,1.56.25,7,7,0,0,0,2.27-.53c.53-.26.61-.59.46-.86a1.69,1.69,0,0,0-.88-.62Z"/><path class="cls-5" d="M602.46,401.45a2.94,2.94,0,0,0-.81.72,2.81,2.81,0,0,0-.56,1.19,3,3,0,0,0,0,1.57.62.62,0,0,0,.86.33,2.63,2.63,0,0,0,1.1-1.13,7.31,7.31,0,0,0,.87-2.15c.09-.59-.13-.85-.43-.87a1.86,1.86,0,0,0-1,.36Z"/><path class="cls-14" d="M574,409.61a1.3,1.3,0,0,1-.78,0,2.22,2.22,0,0,1-1-.55,4.17,4.17,0,0,1-1-1.3.71.71,0,0,1,.14-.92c.23-.16.6-.14,1.15.09a5.66,5.66,0,0,1,1.71,1.13,1,1,0,0,1,.38,1.05.93.93,0,0,1-.64.48Z"/><path class="cls-5" d="M577.72,389.52c-.22-.35-.63-.6-1-.31a3.06,3.06,0,0,0-.82,1.62c-.1.53,0,.78.31,1a1.62,1.62,0,0,0,1,.27.77.77,0,0,0,.64-.45,2.54,2.54,0,0,0,.15-.94A2.1,2.1,0,0,0,577.72,389.52Z"/><path class="cls-5" d="M596.27,372.14a.87.87,0,0,0-1.26-.39,3.81,3.81,0,0,0-1,2,1,1,0,0,0,.38,1.19,2,2,0,0,0,1.19.34,1,1,0,0,0,.78-.56,2.91,2.91,0,0,0,.19-1.15A2.58,2.58,0,0,0,596.27,372.14Z"/><path class="cls-5" d="M585.23,400.08a.72.72,0,0,0-1-.31,3.21,3.21,0,0,0-.82,1.62c-.1.53,0,.78.32,1a1.6,1.6,0,0,0,.95.27.75.75,0,0,0,.64-.45,2.5,2.5,0,0,0,.16-.93A2.12,2.12,0,0,0,585.23,400.08Z"/><path class="cls-5" d="M580.75,399c-.22-.35-.63-.6-1-.31a3,3,0,0,0-.82,1.62c-.1.53,0,.78.31,1a1.63,1.63,0,0,0,1,.27.79.79,0,0,0,.64-.45,2.54,2.54,0,0,0,.15-.94A2.1,2.1,0,0,0,580.75,399Z"/><path class="cls-7" d="M605,384.91c-.22-.44-.64-.69-1-.18a6.71,6.71,0,0,0-.82,2.57c-.1.79,0,1.12.31,1.31a1,1,0,0,0,1,.13,1.23,1.23,0,0,0,.63-.81,5.16,5.16,0,0,0,.16-1.39,3.89,3.89,0,0,0-.22-1.62Z"/><path class="cls-5" d="M605.79,395.85a.65.65,0,0,0-1-.13,3.76,3.76,0,0,0-.82,1.77c-.1.55,0,.77.32.91a1.42,1.42,0,0,0,1,.09,1,1,0,0,0,.64-.57,2.67,2.67,0,0,0,.16-1A1.8,1.8,0,0,0,605.79,395.85Z"/><path class="cls-5" d="M586.65,392.4c-.22-.35-.63-.6-1-.31a3,3,0,0,0-.82,1.62c-.1.53,0,.78.31,1a1.62,1.62,0,0,0,1,.27.79.79,0,0,0,.64-.45,2.54,2.54,0,0,0,.15-.94A2.1,2.1,0,0,0,586.65,392.4Z"/><path class="cls-5" d="M599.13,376.38c-.22-.35-.63-.6-1-.31a3,3,0,0,0-.82,1.62c-.1.53,0,.78.31,1a1.71,1.71,0,0,0,1,.27.79.79,0,0,0,.64-.45,2.54,2.54,0,0,0,.15-.94A2.1,2.1,0,0,0,599.13,376.38Z"/><path class="cls-5" d="M578.58,396.83a.71.71,0,0,0-1-.31,3.12,3.12,0,0,0-.81,1.62c-.11.53,0,.78.31,1a1.62,1.62,0,0,0,1,.27.77.77,0,0,0,.63-.45,2.5,2.5,0,0,0,.16-.93A2.12,2.12,0,0,0,578.58,396.83Z"/><path class="cls-5" d="M595.41,403.05a1,1,0,0,0-1.44-.44,4.27,4.27,0,0,0-1.15,2.3c-.14.75,0,1.1.44,1.36a2.12,2.12,0,0,0,1.36.37,1.07,1.07,0,0,0,.9-.63,3.47,3.47,0,0,0,.22-1.31,3.18,3.18,0,0,0-.3-1.65Z"/><path class="cls-5" d="M576.76,408.82a.64.64,0,0,1-1,0,4.31,4.31,0,0,1-.82-1.88c-.1-.56,0-.76.31-.87a1.39,1.39,0,0,1,1,0,1.2,1.2,0,0,1,.64.65,2.86,2.86,0,0,1,.15,1A1.78,1.78,0,0,1,576.76,408.82Z"/><path class="cls-5" d="M582,379.5a.64.64,0,0,1-1,0,4.43,4.43,0,0,1-.82-1.88c-.1-.56,0-.76.32-.87a1.36,1.36,0,0,1,.95,0,1.23,1.23,0,0,1,.64.65,2.9,2.9,0,0,1,.16,1A1.71,1.71,0,0,1,582,379.5Z"/><path class="cls-4" d="M575.05,386.22a1.93,1.93,0,0,0-1-.81,2.64,2.64,0,0,0-1.65,0,.93.93,0,0,0-.63.82c0,.27.26.44.65.52s.9,0,1.41.06a5.31,5.31,0,0,0,1.21,0c.23-.09.24-.32.06-.62Z"/><path class="cls-4" d="M593.16,368.73a1.91,1.91,0,0,0-1-.8,2.57,2.57,0,0,0-1.65,0,.9.9,0,0,0-.63.81c0,.27.26.44.64.52a12,12,0,0,0,1.42.07,5.86,5.86,0,0,0,1.2,0c.24-.1.25-.33.07-.63Z"/><path class="cls-4" d="M592.11,390.05a1.91,1.91,0,0,1,1-.8,2.61,2.61,0,0,1,1.64,0,.93.93,0,0,1,.64.81c0,.28-.26.45-.65.52a12,12,0,0,1-1.41.07,5.31,5.31,0,0,1-1.21,0c-.23-.09-.24-.33-.06-.62Z"/><path class="cls-4" d="M611.67,374.38a3.27,3.27,0,0,1,2.69-1.76c.44,0,.65.31.64.58a1.05,1.05,0,0,1-.65.75,15,15,0,0,1-1.41.59,5.09,5.09,0,0,1-1.21.44C611.5,375,611.49,374.75,611.67,374.38Z"/><path class="cls-4" d="M574.1,411.28a1.31,1.31,0,0,1-1.05.48,3.12,3.12,0,0,1-1.64-.55,1.43,1.43,0,0,1-.64-1c0-.25.26-.36.65-.31s.91.25,1.41.38a4.76,4.76,0,0,1,1.21.39.41.41,0,0,1,.06.65Z"/><path class="cls-4" d="M584.2,413.59a1.34,1.34,0,0,1-1.05.48,3.08,3.08,0,0,1-1.65-.56,1.37,1.37,0,0,1-.63-1c0-.26.26-.36.65-.31a14.57,14.57,0,0,1,1.41.38,5,5,0,0,1,1.21.39.41.41,0,0,1,.06.64Z"/><path class="cls-6" d="M575.14,392.38a1.18,1.18,0,0,0-.83-1.11,4.53,4.53,0,0,0-2.46.29,1.27,1.27,0,0,0-1,1.12,1.32,1.32,0,0,0,.57,1.35,3,3,0,0,0,1.92-.13,5,5,0,0,0,1.49-.69.75.75,0,0,0,.29-.83Z"/><path class="cls-6" d="M593.25,374.9a1.19,1.19,0,0,0-.83-1.11,4.5,4.5,0,0,0-2.46.28,1.3,1.3,0,0,0-1,1.13,1.37,1.37,0,0,0,.57,1.35,3,3,0,0,0,1.92-.13,5.23,5.23,0,0,0,1.49-.69.75.75,0,0,0,.3-.83Z"/><path class="cls-6" d="M582.65,403a1.22,1.22,0,0,0-.83-1.12,4.55,4.55,0,0,0-2.47.29,1.28,1.28,0,0,0-1,1.13,1.34,1.34,0,0,0,.57,1.34,3,3,0,0,0,1.92-.12,5.23,5.23,0,0,0,1.49-.69.76.76,0,0,0,.3-.83Z"/><path class="cls-6" d="M587.87,373.64a1.19,1.19,0,0,0-.83-1.11,4.6,4.6,0,0,0-2.46.28,1.31,1.31,0,0,0-1,1.13,1.35,1.35,0,0,0,.58,1.35,2.93,2.93,0,0,0,1.91-.13,4.85,4.85,0,0,0,1.49-.69.75.75,0,0,0,.3-.83Z"/><path class="cls-6" d="M576.4,379.79a1.19,1.19,0,0,1,1-.7,2.8,2.8,0,0,1,1.6.81,1,1,0,0,1,.26,1.14c-.15.42-.48.89-.89,1a1.78,1.78,0,0,1-1.28-.55,2.84,2.84,0,0,1-.78-.91.7.7,0,0,1,.1-.75Z"/><path class="cls-6" d="M578.19,401.87a1.19,1.19,0,0,0-.83-1.11,4.64,4.64,0,0,0-2.47.28,1.3,1.3,0,0,0-1,1.13,1.36,1.36,0,0,0,.57,1.35,3,3,0,0,0,1.92-.13,5,5,0,0,0,1.49-.69.75.75,0,0,0,.3-.83Z"/><path class="cls-6" d="M593.56,411a1.3,1.3,0,0,0,.83-1.27,5.22,5.22,0,0,0-1.21-2.43,1.4,1.4,0,0,0-1.53-.59,1.5,1.5,0,0,0-1.18,1.09,3.29,3.29,0,0,0,.85,1.93,4.56,4.56,0,0,0,1.27,1.27A.83.83,0,0,0,593.56,411Z"/><path class="cls-6" d="M576.18,396.48c-.17-.36-.44-.85-.79-.8s-.81.65-1,1.18a2,2,0,0,0,0,1.47c.17.51.47,1.08.76,1.15s.6-.38.83-.82a4,4,0,0,0,.42-1.23,1.49,1.49,0,0,0-.17-.95Z"/><path class="cls-6" d="M592.21,397.1a2.36,2.36,0,0,0-1.05-1.79,6.22,6.22,0,0,0-3.1-.81c-.87,0-1.16.35-1.21.94a2.39,2.39,0,0,0,.71,2,4.23,4.23,0,0,0,2.41.76,4.46,4.46,0,0,0,1.87-.16C592.2,397.86,592.28,397.61,592.21,397.1Z"/><path class="cls-6" d="M602.45,388.12c-.05-.38-.19-.89-.83-.95a5.08,5.08,0,0,0-2.46.76,1.61,1.61,0,0,0-1,1.31c-.06.5.1,1.1.57,1.24a3.23,3.23,0,0,0,1.91-.49,6.27,6.27,0,0,0,1.5-1,.89.89,0,0,0,.29-.9Z"/><path class="cls-6" d="M603.22,399.2c-.06-.37-.2-.89-.83-.94a5,5,0,0,0-2.47.75,1.63,1.63,0,0,0-1,1.31c-.05.5.11,1.1.57,1.24a3.17,3.17,0,0,0,1.92-.49,5.8,5.8,0,0,0,1.49-1,.9.9,0,0,0,.3-.9Z"/><path class="cls-6" d="M574.19,405.14c0,.37-.16.88-.71.88a4.4,4.4,0,0,1-2.1-.95,1.84,1.84,0,0,1-.83-1.38c0-.51.09-1.09.48-1.21a2.68,2.68,0,0,1,1.64.64,6.14,6.14,0,0,1,1.27,1.09,1.1,1.1,0,0,1,.25.92Z"/><path class="cls-5" d="M578.89,389a2,2,0,0,0,.59,1.5c.35.3.74.2,1.14-.1a2.1,2.1,0,0,0,.86-1.17.92.92,0,0,0-.6-.86,1.58,1.58,0,0,0-1.09-.19,1.05,1.05,0,0,0-.89.82Z"/><path class="cls-5" d="M597,371.56a2,2,0,0,0,.6,1.5c.35.3.74.19,1.14-.1a2.13,2.13,0,0,0,.85-1.17.92.92,0,0,0-.59-.87,1.59,1.59,0,0,0-1.09-.18,1.06,1.06,0,0,0-.9.82Z"/><path class="cls-5" d="M588.37,412.5a2.63,2.63,0,0,1,.74-1.87c.44-.37.92-.24,1.42.13a2.61,2.61,0,0,1,1.05,1.46,1.18,1.18,0,0,1-.74,1.07,1.82,1.82,0,0,1-1.35.22A1.29,1.29,0,0,1,588.37,412.5Z"/><path class="cls-5" d="M586.39,399.6a2.05,2.05,0,0,0,.6,1.51c.35.3.74.19,1.14-.11a2.07,2.07,0,0,0,.85-1.16.92.92,0,0,0-.59-.87,1.59,1.59,0,0,0-1.09-.18,1.07,1.07,0,0,0-.9.81Z"/><path class="cls-5" d="M606.18,384.06a1.7,1.7,0,0,0,.6,1.4c.35.24.74.06,1.14-.31a2.81,2.81,0,0,0,.86-1.33c.05-.4-.26-.64-.6-.77a1.43,1.43,0,0,0-1.09,0,1.31,1.31,0,0,0-.89,1Z"/><path class="cls-5" d="M606.55,395.34a1.69,1.69,0,0,0,.59,1.4c.35.23.74.05,1.14-.31a2.69,2.69,0,0,0,.86-1.34c.05-.4-.26-.63-.6-.76a1.43,1.43,0,0,0-1.09,0,1.31,1.31,0,0,0-.89,1Z"/><path class="cls-5" d="M587.82,391.92a2,2,0,0,0,.59,1.5c.35.3.74.2,1.14-.1a2.1,2.1,0,0,0,.86-1.17.93.93,0,0,0-.6-.87,1.58,1.58,0,0,0-1.09-.18,1,1,0,0,0-.89.82Z"/><path class="cls-5" d="M600.6,376.65a2,2,0,0,0,.59,1.5c.35.3.74.2,1.14-.1a2.1,2.1,0,0,0,.86-1.17.94.94,0,0,0-.6-.87,1.63,1.63,0,0,0-1.09-.18,1,1,0,0,0-.89.82Z"/><path class="cls-5" d="M579.74,396.35a2,2,0,0,0,.6,1.5c.35.3.74.2,1.14-.1a2.13,2.13,0,0,0,.85-1.17.9.9,0,0,0-.59-.86,1.59,1.59,0,0,0-1.09-.19,1.05,1.05,0,0,0-.89.82Z"/><path class="cls-5" d="M589.49,399.66a2.81,2.81,0,0,0,.6,1.86c.35.38.73.25,1.14-.13a2.66,2.66,0,0,0,.85-1.45,1.23,1.23,0,0,0-.59-1.09,1.3,1.3,0,0,0-1.09-.22,1.17,1.17,0,0,0-.9,1Z"/><path class="cls-5" d="M587.25,406.92a2,2,0,0,0,.59,1.5c.35.3.74.19,1.14-.1a2.1,2.1,0,0,0,.86-1.17.93.93,0,0,0-.6-.87,1.58,1.58,0,0,0-1.09-.18,1,1,0,0,0-.89.82Z"/><path class="cls-5" d="M607.75,390a1.73,1.73,0,0,0,.6,1.4c.35.23.74.05,1.14-.31a2.74,2.74,0,0,0,.85-1.34c.06-.4-.26-.63-.59-.76a1.43,1.43,0,0,0-1.09,0,1.34,1.34,0,0,0-.9,1Z"/><path class="cls-5" d="M581.7,394.36a1.7,1.7,0,0,0,.6,1.4c.35.23.73.05,1.14-.32a2.71,2.71,0,0,0,.85-1.33c.05-.4-.26-.64-.59-.77a1.52,1.52,0,0,0-1.09,0,1.33,1.33,0,0,0-.9,1Z"/><path class="cls-5" d="M577.93,409.66a1.47,1.47,0,0,1,.59-1.32c.35-.19.74,0,1.14.45a3.17,3.17,0,0,1,.86,1.44c.05.41-.26.61-.6.69a1.43,1.43,0,0,1-1.08-.17,1.57,1.57,0,0,1-.9-1.1Z"/><path class="cls-5" d="M583.14,380.34a1.47,1.47,0,0,1,.59-1.32c.35-.19.74,0,1.15.46a3.2,3.2,0,0,1,.85,1.43c0,.41-.26.61-.6.69a1.43,1.43,0,0,1-1.08-.17,1.55,1.55,0,0,1-.9-1.1Z"/><path class="cls-13" d="M585.9,410.13a1.45,1.45,0,0,1,.6-1.32c.35-.2.73,0,1.14.45a3.23,3.23,0,0,1,.85,1.44c0,.4-.26.61-.6.69a1.48,1.48,0,0,1-1.08-.17,1.59,1.59,0,0,1-.9-1.1Z"/><path class="cls-5" d="M581,387.07c.09.3.61.6,1,.93a5.88,5.88,0,0,1,.87,1c.24.31.46.56.7.49s.53-.47.75-.82.38-.68.21-1a2.63,2.63,0,0,0-1.19-.93,3.19,3.19,0,0,0-1.62-.37C581.27,386.45,581,386.77,581,387.07Z"/><path class="cls-5" d="M599.15,369.42c.1.32.64.63,1.05,1a7.07,7.07,0,0,1,.92,1.08c.24.34.48.6.75.52s.57-.49.8-.87.4-.72.22-1.08a2.65,2.65,0,0,0-1.27-1,3.4,3.4,0,0,0-1.74-.39c-.49.08-.84.4-.75.72Z"/><path class="cls-4" d="M590.67,414.86c.14-.47,1-.93,1.54-1.45a9.19,9.19,0,0,0,1.35-1.58c.36-.48.7-.87,1.09-.77s.83.72,1.16,1.27.59,1.07.33,1.6a4.1,4.1,0,0,1-1.85,1.45,4.89,4.89,0,0,1-2.53.56c-.73-.11-1.23-.6-1.09-1.07Z"/><path class="cls-4" d="M582,409c.09-.27.61-.41,1-.62a3.82,3.82,0,0,0,.86-.75c.24-.24.46-.42.7-.28a3.06,3.06,0,0,1,.76,1.05c.22.43.37.81.2,1.09a1.67,1.67,0,0,1-1.19.56,2.86,2.86,0,0,1-1.62-.16c-.47-.22-.79-.63-.7-.9Z"/><path class="cls-1" d="M599.94,391.11a2,2,0,0,0-.89.33c-.25.18-.38.43-.42,1.06a5,5,0,0,0,.24,2.15.62.62,0,0,0,1.11.09,4.72,4.72,0,0,0,.63-1.77,2.18,2.18,0,0,0,.07-1.16,1.59,1.59,0,0,0-.46-.47C600.12,391.22,600.13,391.1,599.94,391.11Z"/><path class="cls-4" d="M599.4,405a5.8,5.8,0,0,0-.07,2.53.94.94,0,0,0,1.38.72,2.6,2.6,0,0,0,1.43-1.67c0-.54-.65-.78-1.13-1.13a9.4,9.4,0,0,1-1-1c-.24-.18-.44-.08-.61.56Z"/><path class="cls-1" d="M599.55,410a2.25,2.25,0,0,0,.31,1.49c.24.32.57.27,1.29-.35a15.46,15.46,0,0,0,2.34-2.5c.44-.68.18-.83-.27-.77a7.8,7.8,0,0,0-1.62.59,11.78,11.78,0,0,0-1.25.57,1.5,1.5,0,0,0-.82.95Z"/><path class="cls-5" d="M602.06,384.62a7.12,7.12,0,0,0-1.24,1.58c-.12.34.22.4.53.43a1.09,1.09,0,0,0,.84-.22,2,2,0,0,0,.53-1,1,1,0,0,0,0-.75c-.09-.11-.24-.08-.36-.06a.65.65,0,0,1-.29,0Z"/><path class="cls-5" d="M609.24,376.85a8.22,8.22,0,0,0-1.92,1.56,2.66,2.66,0,0,0-.79,1.56.67.67,0,0,0,.72.74,4.21,4.21,0,0,0,1.77-.61,1.92,1.92,0,0,0,1-1,3.63,3.63,0,0,0,.08-1.22A3.06,3.06,0,0,0,610,377c-.08-.22-.22-.39-.74-.12Z"/><path class="cls-6" d="M604.38,403.75a8.6,8.6,0,0,0-.84,2.12,1,1,0,0,0,.51,1.16c.32.17.72.11,1.28-.32a5.71,5.71,0,0,0,1.54-1.83,1.14,1.14,0,0,0-.18-1.36,2.88,2.88,0,0,0-1-.65c-.33-.12-.55-.15-.72-.05S604.67,403.18,604.38,403.75Z"/><path class="cls-1" d="M608.83,399.71a8.46,8.46,0,0,0-.94,2c-.15.61,0,.9.29,1s.78-.07,1.43-.64a13.65,13.65,0,0,0,1.82-2.14c.38-.56.33-.65-.06-.7a13.67,13.67,0,0,0-1.58,0,1,1,0,0,0-1,.54Z"/><path class="cls-7" d="M613,382.3a6.73,6.73,0,0,0-1.79.39c-.43.21-.5.51-.35.82a2.52,2.52,0,0,0,1,.9,4.71,4.71,0,0,0,1.51.59,2,2,0,0,0,1.35-.12,1.23,1.23,0,0,0,.46-1,2.82,2.82,0,0,0-.22-1.23.76.76,0,0,0-.7-.38,7.09,7.09,0,0,0-1.25,0Z"/><path class="cls-13" d="M612.26,386.22a6.36,6.36,0,0,0-.66,2,1.52,1.52,0,0,0,.71,1.4,4.17,4.17,0,0,0,1.48.65c.44.11.75.09,1-.15a2.41,2.41,0,0,0,.41-1.48,8.1,8.1,0,0,0-.24-2.33c-.19-.52-.49-.52-.88-.54s-.89-.06-1.18-.07S612.51,385.74,612.26,386.22Z"/><path class="cls-5" d="M615.31,393.77a4.16,4.16,0,0,1,0,2,1.1,1.1,0,0,1-1.1.85,2.53,2.53,0,0,1-1.43-.57c-.37-.29-.56-.6-.48-.95a2.09,2.09,0,0,1,.87-1.06,4.11,4.11,0,0,1,1.41-.7C615,393.23,615.18,393.28,615.31,393.77Z"/><path class="cls-4" d="M614.39,390.92a4.88,4.88,0,0,0-1.74.29,1.34,1.34,0,0,0-.88.64.76.76,0,0,0,.09.73,1.06,1.06,0,0,0,.75.41,5.77,5.77,0,0,0,1.25,0,1.5,1.5,0,0,0,.85-.15.85.85,0,0,0,.3-.61,2.51,2.51,0,0,0,0-.82.6.6,0,0,0-.61-.54Z"/><path class="cls-6" d="M609.92,391.91a4.54,4.54,0,0,0-.79.79.75.75,0,0,0-.07.76,3.27,3.27,0,0,0,.44.93,2.34,2.34,0,0,0,.73.68,1.61,1.61,0,0,0,.8.24.91.91,0,0,0,.93-1.24,6.12,6.12,0,0,0-.67-1.39,4.55,4.55,0,0,0-.52-.83.59.59,0,0,0-.45-.2c-.12,0-.17.07-.39.27Z"/><path class="cls-5" d="M588.5,369.85a3,3,0,0,0-1.5,1.32,1.09,1.09,0,0,0,.52,1.19c.31.23.54.26.76,0a4.8,4.8,0,0,0,.61-1.16,2.57,2.57,0,0,0,.33-1C589.2,369.91,589,369.66,588.5,369.85Z"/><path class="cls-4" d="M599.3,379.41a7.26,7.26,0,0,0-2.4.23,1.27,1.27,0,0,0-1,1,3.26,3.26,0,0,0,0,1.42.68.68,0,0,0,.71.61,2.62,2.62,0,0,0,1.66-.59,5.87,5.87,0,0,0,1.45-1.78c.28-.52.24-.78-.33-.86Z"/><path class="cls-13" d="M594.66,379.09a3.35,3.35,0,0,0-1.76.89,3,3,0,0,0-.91,1.67,1.61,1.61,0,0,0,.43,1.4,1.17,1.17,0,0,0,1.35.29A3.59,3.59,0,0,0,595,381.7a4.38,4.38,0,0,0,.46-1.9.7.7,0,0,0-.82-.73Z"/><path class="cls-5" d="M590.12,381.73a7.11,7.11,0,0,0-1.49-1.29c-.46-.25-.79-.11-1.36.25a6,6,0,0,0-1.64,1.42c-.26.44,0,.74.7,1a12.23,12.23,0,0,0,2.58.56,3.27,3.27,0,0,0,1.75-.12.67.67,0,0,0,.19-.83A2.94,2.94,0,0,0,590.12,381.73Z"/><path class="cls-6" d="M693.63,460.15l-.2,34.42-53.51-10.38-1.68-34Z"/><path class="cls-5" d="M638.54,456.38l-.3-6.17,55.39,9.94,0,5.38Z"/><path class="cls-6" d="M682.42,388l-44.18,62.23,55.39,9.94.42-70.6Z"/><path class="cls-15" d="M653.27,452.9l40.42-63"/><path class="cls-15" d="M671.09,456.1l22.49-42.33"/><path class="cls-15" d="M688.14,459.67l5.3-12.48"/><path class="cls-15" d="M639.08,467.2l54.45,9.24"/><path class="cls-15" d="M639.71,479.85l52.8,9.47"/></g></svg>