<svg id="Layer_1" data-name="Layer 1" xmlns="http://www.w3.org/2000/svg" xmlns:xlink="http://www.w3.org/1999/xlink" viewBox="0 0 748 505"><defs><style>.cls-1{fill:#403b36;}.cls-2{fill:#4f4943;}.cls-3{fill:#ffe8ad;}.cls-4{fill:#665e57;}.cls-5{fill:#8c8178;}.cls-6{opacity:0.48;}.cls-7{fill:#ffdd87;}.cls-8{fill:#3d3934;}.cls-9{fill:#ffe5a3;}.cls-10{opacity:0.31;}.cls-11{fill:#e6c177;}.cls-12{opacity:0.34;}.cls-13{fill:#c4b8a1;}.cls-14{fill:#deac6b;}.cls-15{fill:#cc9d60;}.cls-16{fill:#dba762;}.cls-17{fill:#cc9854;}.cls-18{fill:#e8b36d;}.cls-19{fill:#524b46;}.cls-20{fill:#ffe6d0;}.cls-21,.cls-51{opacity:0.45;}.cls-22{fill:#ffecc7;}.cls-23{fill:#ffefe0;}.cls-24{fill:#f2cf8a;}.cls-25{fill:#8a8566;}.cls-26{fill:#8c7f73;}.cls-27{opacity:0.33;}.cls-28{opacity:0.4;}.cls-29{fill:#fff5b3;}.cls-30{fill:#73685e;}.cls-31{opacity:0.67;}.cls-32{fill:#ffe745;}.cls-33{opacity:0.54;}.cls-34{fill:#fffef7;}.cls-35{fill:#ffba30;}.cls-36{opacity:0.41;}.cls-37{fill:#d49a28;}.cls-38{fill:#b3975f;}.cls-39{fill:#d4a611;}.cls-40{opacity:0.32;}.cls-41{opacity:0.14;}.cls-42{opacity:0.49;}.cls-43{fill:#edd6c2;}.cls-44{opacity:0.44;}.cls-45{fill:#f5e7da;}.cls-46{fill:url(#radial-gradient);}.cls-47,.cls-48,.cls-49,.cls-50,.cls-51,.cls-52,.cls-53,.cls-54,.cls-55,.cls-56{isolation:isolate;}.cls-47{opacity:0.09;fill:url(#linear-gradient);}.cls-48{opacity:0.18;fill:url(#linear-gradient-2);}.cls-49{opacity:0.27;fill:url(#linear-gradient-3);}.cls-50{opacity:0.36;fill:url(#linear-gradient-4);}.cls-51{fill:url(#linear-gradient-5);}.cls-52{opacity:0.55;fill:url(#linear-gradient-6);}.cls-53{opacity:0.64;fill:url(#linear-gradient-7);}.cls-54{opacity:0.73;fill:url(#linear-gradient-8);}.cls-55{opacity:0.82;fill:url(#linear-gradient-9);}.cls-56{opacity:0.91;fill:url(#linear-gradient-10);}.cls-57{fill:url(#linear-gradient-11);}.cls-58{fill:#efe7d2;}.cls-59{fill:#b3a191;}.cls-60{fill:url(#linear-gradient-12);}.cls-61{fill:url(#linear-gradient-13);}.cls-62{fill:url(#linear-gradient-14);}.cls-63{fill:url(#linear-gradient-15);}.cls-64{fill:url(#linear-gradient-16);}.cls-65{fill:url(#radial-gradient-2);}.cls-66{fill:#6b635b;}.cls-67{fill:#40372e;}.cls-68{fill:#877d73;}.cls-69{fill:#a3978b;}.cls-70{opacity:0.47;}</style><radialGradient id="radial-gradient" cx="-441.7" cy="443.29" r="1" gradientTransform="translate(1835.22 -151.79) scale(3.31 0.54)" gradientUnits="userSpaceOnUse"><stop offset="0" stop-color="#f6d8a0"/><stop offset="0.08" stop-color="#c3ab7f"/><stop offset="0.16" stop-color="#958361"/><stop offset="0.25" stop-color="#6d6047"/><stop offset="0.34" stop-color="#4b4231"/><stop offset="0.44" stop-color="#2f2a1f"/><stop offset="0.54" stop-color="#1a1711"/><stop offset="0.66" stop-color="#0b0a07"/><stop offset="0.8" stop-color="#020201"/><stop offset="1"/></radialGradient><linearGradient id="linear-gradient" x1="81.46" y1="263.14" x2="83.69" y2="260.91" gradientTransform="translate(287 -184)" gradientUnits="userSpaceOnUse"><stop offset="0" stop-color="#656159"/><stop offset="0.12" stop-color="#77736a"/><stop offset="0.35" stop-color="#948f86"/><stop offset="0.57" stop-color="#a9a39a"/><stop offset="0.79" stop-color="#b5afa6"/><stop offset="1" stop-color="#bab4aa"/></linearGradient><linearGradient id="linear-gradient-2" x1="81.46" y1="263.14" x2="83.69" y2="260.91" xlink:href="#linear-gradient"/><linearGradient id="linear-gradient-3" x1="81.45" y1="263.1" x2="83.66" y2="260.89" xlink:href="#linear-gradient"/><linearGradient id="linear-gradient-4" x1="81.47" y1="263.11" x2="83.67" y2="260.92" xlink:href="#linear-gradient"/><linearGradient id="linear-gradient-5" x1="81.49" y1="263.11" x2="83.66" y2="260.92" xlink:href="#linear-gradient"/><linearGradient id="linear-gradient-6" x1="81.47" y1="263.08" x2="83.64" y2="260.91" xlink:href="#linear-gradient"/><linearGradient id="linear-gradient-7" x1="81.47" y1="263.08" x2="83.64" y2="260.91" xlink:href="#linear-gradient"/><linearGradient id="linear-gradient-8" x1="81.52" y1="263.1" x2="83.67" y2="260.95" xlink:href="#linear-gradient"/><linearGradient id="linear-gradient-9" x1="81.48" y1="263.06" x2="83.62" y2="260.92" xlink:href="#linear-gradient"/><linearGradient id="linear-gradient-10" x1="81.44" y1="262.99" x2="83.57" y2="260.87" xlink:href="#linear-gradient"/><linearGradient id="linear-gradient-11" x1="81.47" y1="263.02" x2="83.58" y2="260.91" xlink:href="#linear-gradient"/><linearGradient id="linear-gradient-12" x1="80.85" y1="261.7" x2="84.24" y2="261.7" gradientTransform="translate(287 -184)" gradientUnits="userSpaceOnUse"><stop offset="0.3" stop-color="#baa999"/><stop offset="0.54" stop-color="#bdaea0"/><stop offset="1" stop-color="#c3b5a9"/></linearGradient><linearGradient id="linear-gradient-13" x1="80.89" y1="261.7" x2="84.2" y2="261.7" gradientTransform="translate(287 -184)" gradientUnits="userSpaceOnUse"><stop offset="0.3" stop-color="#c2b1a1"/><stop offset="0.73" stop-color="#cec3b9"/><stop offset="1" stop-color="#d3cac2"/></linearGradient><linearGradient id="linear-gradient-14" x1="80.93" y1="261.7" x2="84.17" y2="261.7" gradientTransform="translate(287 -184)" gradientUnits="userSpaceOnUse"><stop offset="0.3" stop-color="#c9b9a9"/><stop offset="0.47" stop-color="#d1c4b8"/><stop offset="0.8" stop-color="#ddd7d1"/><stop offset="1" stop-color="#e2deda"/></linearGradient><linearGradient id="linear-gradient-15" x1="80.97" y1="261.7" x2="84.13" y2="261.7" gradientTransform="translate(287 -184)" gradientUnits="userSpaceOnUse"><stop offset="0.3" stop-color="#d0c0b0"/><stop offset="0.58" stop-color="#e0d8d0"/><stop offset="0.84" stop-color="#edebe9"/><stop offset="1" stop-color="#f2f2f2"/></linearGradient><linearGradient id="linear-gradient-16" x1="82.54" y1="262.39" x2="82.54" y2="260.97" gradientTransform="translate(287 -184)" gradientUnits="userSpaceOnUse"><stop offset="0" stop-color="#e2a45d"/><stop offset="0.5" stop-color="#6a4c2b"/><stop offset="0.84" stop-color="#1d150c"/><stop offset="1"/></linearGradient><radialGradient id="radial-gradient-2" cx="-449.68" cy="443.29" r="1" gradientTransform="translate(1925.85 -169.55) scale(3.47 0.54)" gradientUnits="userSpaceOnUse"><stop offset="0" stop-color="#f6cfa1"/><stop offset="0.08" stop-color="#c3a47f"/><stop offset="0.16" stop-color="#957d62"/><stop offset="0.25" stop-color="#6d5b47"/><stop offset="0.34" stop-color="#4b3f31"/><stop offset="0.44" stop-color="#2f281f"/><stop offset="0.54" stop-color="#1a1611"/><stop offset="0.66" stop-color="#0b0907"/><stop offset="0.8" stop-color="#020201"/><stop offset="1"/></radialGradient></defs><g id="Electricity"><path class="cls-1" d="M466.7,192.3v-1.8a4,4,0,0,0-.7-2.1,3.81,3.81,0,0,0-1.4-1.1,7,7,0,0,0-1.4-.3h-.8a4.69,4.69,0,0,0-3.6,2.1,5.23,5.23,0,0,0-.6,1.6,13.33,13.33,0,0,0,0,2v4.1a13.35,13.35,0,0,0,0,2,3.29,3.29,0,0,0,.7,1.6,3.7,3.7,0,0,0,3.1,1.3,3.4,3.4,0,0,0,1-.1,3.54,3.54,0,0,1,.6-.1,4.85,4.85,0,0,0,2.3-1.9l.1-.1a3.55,3.55,0,0,0,.4-.9,6.48,6.48,0,0,0,.2-2l.1-4.3Zm-2.4,8.4a.35.35,0,0,1-.2.1h0a.35.35,0,0,0-.2.1,1.27,1.27,0,0,1-.6.1,3.73,3.73,0,0,1-2.1-.3,3.59,3.59,0,0,1-1-.7,3.78,3.78,0,0,1-1-2.7v-6a5.54,5.54,0,0,1,.2-1.8,2.59,2.59,0,0,1,.7-1.1,3.44,3.44,0,0,1,2.1-.8,3.48,3.48,0,0,1,2.7,1.1,4.53,4.53,0,0,1,1,3v4a8.21,8.21,0,0,1-.3,3.5,2.73,2.73,0,0,1-1.3,1.5Z"/><path class="cls-2" d="M463,196.9c-2.3.8-3.9.4-4.3-.4v-.1a2.56,2.56,0,0,1,.6-3,8.87,8.87,0,0,1,5-2.1c1.7,0,2.2.7,2.5,1.6v.2c.1,1.1-1.4,3-3.8,3.8Z"/><path class="cls-3" d="M463,196.9a5.72,5.72,0,0,1-3.6.2,1.3,1.3,0,0,1-.8-1.2v-.1a3,3,0,0,1,.8-1.7,8.87,8.87,0,0,1,5-2.1h.7a1.66,1.66,0,0,1,1.5.9v.2C466.9,194.2,465.4,196.2,463,196.9Z"/><path class="cls-2" d="M462.5,161.5h-.3v25.6h.3Z"/><path class="cls-2" d="M461.3,161.7h2.2V163a1.1,1.1,0,0,1-2.2,0Z"/><path class="cls-4" d="M466.2,199.4l-.1.2-.1.1a4.48,4.48,0,0,1-2.3,1.9,1.76,1.76,0,0,1-.6.1,3.4,3.4,0,0,1-1,.1,4,4,0,0,1-3.1-1.3,3.29,3.29,0,0,1-.7-1.6,13.33,13.33,0,0,1,0-2v-4.1a13.33,13.33,0,0,1,0-2,4.43,4.43,0,0,1,4.2-3.7h.7a5.4,5.4,0,0,0-3.1,1.5,2.59,2.59,0,0,0-.7,1.1,5.54,5.54,0,0,0-.2,1.8v6a3.78,3.78,0,0,0,1,2.7,3.59,3.59,0,0,0,1,.7,3.86,3.86,0,0,0,2.1.3c.2,0,.4-.1.6-.1a.35.35,0,0,0,.2-.1h0c.1,0,.1-.1.2-.1h0c.9-.7,1.9-1.5,1.9-1.5Z"/><path class="cls-5" d="M459,189.4c-.2.2-.2.5-.3.7a2.77,2.77,0,0,0-.1.9v1.4a.6.6,0,0,0,.1.4c.1.1.2.1.2,0,.2-.2.1-.5.1-.8v-.9a2.77,2.77,0,0,1,.1-.9,1.18,1.18,0,0,0-.1-.8Z"/><path class="cls-5" d="M458.9,194.1a1.27,1.27,0,0,0,.1-.6c0-.3-.4-.3-.5,0a1.27,1.27,0,0,0,.1.6c0,.1.3.1.3,0Z"/><g class="cls-6"><path class="cls-7" d="M463,196.9a5.72,5.72,0,0,1-3.6.2,1.3,1.3,0,0,1-.8-1.2l.3-.4s1.2.9,3.8-.1c2.2-.9,2.9-2.7,2.4-3.4a1.66,1.66,0,0,1,1.5.9v.2c.3,1.1-1.2,3.1-3.6,3.8Z"/></g><path class="cls-8" d="M461.2,182.4v-4.1a13.33,13.33,0,0,0,0-2,4.42,4.42,0,0,0-.6-1.6c-.2-.3-.4-.5-.6-.8a4.69,4.69,0,0,0-2.9-1.4h-.2a4,4,0,0,0-1.9.3,3.6,3.6,0,0,0-1.4,1.1,3.14,3.14,0,0,0-.7,2.1v6.3a6.8,6.8,0,0,0,.2,2,3.13,3.13,0,0,0,.5,1,7.1,7.1,0,0,0,1.2,1.3,3.13,3.13,0,0,0,1,.5,1.76,1.76,0,0,0,.6.1,3.4,3.4,0,0,0,1,.1,4,4,0,0,0,3.1-1.3,3.29,3.29,0,0,0,.7-1.6,13.33,13.33,0,0,0,0-2Zm-.8.5a3.78,3.78,0,0,1-1,2.7,3.59,3.59,0,0,1-1,.7,3.86,3.86,0,0,1-2.1.3,3.14,3.14,0,0,1-2.3-1.7.6.6,0,0,1-.1-.4,10.75,10.75,0,0,1-.1-3.1c0-1.3-.1-2.6,0-4a4.06,4.06,0,0,1,1-3,3.86,3.86,0,0,1,2.7-1.1,2.2,2.2,0,0,1,.8.1,2.74,2.74,0,0,1,2.1,1.8,5.54,5.54,0,0,1,.2,1.8v2a25.49,25.49,0,0,0-.2,3.9Z"/><path class="cls-9" d="M461.1,180.9a.76.76,0,0,1-.2.5,5.2,5.2,0,0,1-4,.4c-1.7-.5-3.8-1.6-3.8-3.1v-.2c.1-.7.8-1.7,3.6-.9C459.8,178.4,461.1,179.8,461.1,180.9Z"/><path class="cls-2" d="M460.9,181.4a5.2,5.2,0,0,1-4,.4c-1.5-.4-3.4-1.4-3.7-2.7,0-.1-.1-.3-.1-.4v-.2c.4-.5,1.3-.9,3.4-.4,3,.9,4.3,2.3,4.4,3.3Z"/><path class="cls-2" d="M457.4,161.8h-.3v10.8h.3Z"/><path class="cls-2" d="M456.2,161.7h2.2V163a1.1,1.1,0,1,1-2.2,0Z"/><g class="cls-10"><path class="cls-2" d="M460.9,181.4a5.2,5.2,0,0,1-4,.4c-1.5-.4-3.4-1.4-3.7-2.7,2,2.3,5,2.2,5,1s-1.6-1.9-1.7-1.9C459.5,179,460.8,180.3,460.9,181.4Z"/></g><path class="cls-4" d="M460,173.9a5.6,5.6,0,0,0-1.8-.6,2.2,2.2,0,0,0-.8-.1,3.86,3.86,0,0,0-2.7,1.1,4.53,4.53,0,0,0-1,3v4a10.75,10.75,0,0,0,.1,3.1,4.93,4.93,0,0,0,1,2.1,7.1,7.1,0,0,1-1.2-1.3,3.13,3.13,0,0,1-.5-1,6.48,6.48,0,0,1-.2-2v-6.3a4,4,0,0,1,.7-2.1,3.81,3.81,0,0,1,1.4-1.1,4.22,4.22,0,0,1,1.9-.3h.2a5.8,5.8,0,0,1,2.9,1.5Z"/><path class="cls-5" d="M453.6,175.3c.2-.1.3-.5.5-.7a1.17,1.17,0,0,1,.6-.6c.2-.1.2-.3.1-.5s-.3-.2-.5-.1a2.36,2.36,0,0,0-.8.9c-.2.3-.4.8-.1,1.1,0-.1.1-.1.2-.1Z"/><path class="cls-5" d="M455.2,173.4a.35.35,0,0,0,.2.1c-.1-.1-.1-.1-.2-.1.1,0,.1.1.2.1h.1a.3.3,0,0,0,0-.6h-.1a.1.1,0,0,0-.1.1l.1-.1c-.1,0-.1,0-.2.1s-.2.3,0,.4Z"/><path class="cls-11" d="M525.3,245.5h-1.2v34.8h1.2Z"/><g class="cls-12"><path class="cls-13" d="M524.8,245.5h.5v34.8h-1.2v-2.9c.3-.2.6-.6.7-1.7V245.5Z"/></g><path class="cls-14" d="M527.1,247.6h-4.7l.1-.6.1-.8h4.2l.2.8Z"/><path class="cls-15" d="M527.1,247.6h-4.7l.1-.6H527Z"/><path class="cls-16" d="M524.7,260.7c2.6,0,4.7-.5,4.7-1.2s-2.1-1.2-4.7-1.2-4.7.5-4.7,1.2S522.1,260.7,524.7,260.7Z"/><path class="cls-17" d="M529.4,259.4c0,.7-2.1,1.2-4.7,1.2s-4.7-.5-4.7-1.2a.37.37,0,0,1,.1-.3c.5.5,2.4,1,4.6,1s4.2-.4,4.6-1A.77.77,0,0,1,529.4,259.4Z"/><path class="cls-11" d="M523.1,245.5l-6.4,34.8h-1.2l.2-.9,6.3-33.8h.7Z"/><path class="cls-11" d="M533.8,280.2h-1.2l-.2-1.3-6.1-33.5h1.1Z"/><path class="cls-18" d="M521.1,259.3a3.1,3.1,0,0,0,1.7.5,4.07,4.07,0,0,0,1.9,0c.5-.1.5-.9,0-.9s-1.2,0-1.8-.1a4.85,4.85,0,0,0-1.7,0C521.1,258.9,521,259.2,521.1,259.3Z"/><path class="cls-18" d="M525.4,259.7a.76.76,0,0,0,.5.2h.3a.55.55,0,0,0,.5-.3.45.45,0,0,0,0-.5.55.55,0,0,0-.5-.3h-.3a.76.76,0,0,0-.5.2c-.2.3-.2.5,0,.7Z"/><g class="cls-12"><path class="cls-13" d="M523.1,245.5l-6.4,34.8h-1.2l.2-.9a5.56,5.56,0,0,0,1.3-2.7c.5-2.1,5.2-28.5,5.7-31.1l.4-.1Z"/></g><g class="cls-12"><path class="cls-13" d="M533.8,280.2h-1.2l-.2-1.3a1.69,1.69,0,0,0,.4-1.2c.1-1.3-4.8-26.7-5.9-32.2h.4Z"/></g><path class="cls-4" d="M525,240.9h-.6v5.4h.6Z"/><path class="cls-4" d="M526.4,240.7v1.4a.27.27,0,0,1-.3.3h-2.9c-.1,0-.3-.1-.3-.2h0v-1.4a.27.27,0,0,1,.3-.3h2.9C526.3,240.4,526.4,240.6,526.4,240.7Z"/><path class="cls-19" d="M526.4,241.1v1a.27.27,0,0,1-.3.3h-2.9c-.1,0-.3-.1-.3-.2a14.38,14.38,0,0,0,1.8-.1c1.1-.2,1.1-.6,1.1-.6l.6-.4Z"/><path class="cls-20" d="M532,241.6H517.2a.46.46,0,0,1-.5-.6l.2-.9,3.3-13a.66.66,0,0,1,.5-.4h7.7c.2,0,.5.2.5.4l3.5,13.9C532.6,241.2,532.4,241.6,532,241.6Z"/><g class="cls-21"><path class="cls-22" d="M532,241.6H517.2a.46.46,0,0,1-.5-.6l.2-.9c1.7.2,8.3.8,10.2-1,1.6-1.6.6-8.8-.1-12.3h1.4c.2,0,.5.2.5.4l3.5,13.9c.2.2,0,.5-.4.5Z"/></g><path class="cls-23" d="M521.4,227.9c-.2.4-.3.9-.5,1.3s-.3.9-.4,1.3a19.73,19.73,0,0,0-.7,2.6c-.2.8-.4,1.7-.6,2.5-.1.4-.2.9-.3,1.3a8,8,0,0,0-.3,1.5,1,1,0,0,0,1.9.5,5.73,5.73,0,0,0,.4-1.4c.1-.4.2-.9.3-1.3.2-.9.4-1.7.6-2.6a20,20,0,0,0,.5-2.6c.1-.4.1-.9.2-1.3a7.72,7.72,0,0,0,.2-1.5.71.71,0,0,0-1.3-.3Z"/><path class="cls-24" d="M522.2,245.8a18,18,0,0,0-.6,2.2c-.1.4-.1.7-.2,1.1a1.73,1.73,0,0,0-.1,1c0,.1.2.2.3,0a1.8,1.8,0,0,0,.2-1c.1-.4.1-.7.2-1.1a14.19,14.19,0,0,0,.5-2.2c0-.2-.2-.2-.3,0Z"/><path class="cls-24" d="M521.2,250.6c-.1.1-.1.3-.2.5s-.1.4-.1.6a.26.26,0,1,0,.5.1c.1-.3.3-.9,0-1.2,0-.1-.1-.1-.2,0Z"/><path class="cls-24" d="M524.4,249.3a2.77,2.77,0,0,0-.1.9,6450829454095.26,6450829454095.26,0,0,1-.2,1.8,2.72,2.72,0,0,0,0,.9.21.21,0,0,0,.4,0,2.77,2.77,0,0,0,.1-.9v-.9a5.31,5.31,0,0,0-.1-1.8c.1-.1-.1-.1-.1,0Z"/><path class="cls-24" d="M528.4,256.1a11.27,11.27,0,0,0,.3,1.8,6.07,6.07,0,0,0,.5,1.8c.1.2.3.1.3-.1a8.58,8.58,0,0,0-.3-1.7,11.63,11.63,0,0,0-.4-1.8c-.1-.2-.4-.2-.4,0Z"/><path class="cls-25" d="M677.2,227.1a27.38,27.38,0,0,0,0-2.9c-.2-.6-1.4-1-1.7-1.8s-.5-1.3-.3-1.4,5.1-.1,5.4-.1-.1.9-.3,1.5-1.4,1.2-1.6,1.5a19.47,19.47,0,0,0-.2,3.2Z"/><path class="cls-2" d="M680,226.6h-4.3a.47.47,0,0,0-.5.5v1.5a.47.47,0,0,0,.5.5H680a.47.47,0,0,0,.5-.5v-1.5A.47.47,0,0,0,680,226.6Z"/><path class="cls-26" d="M686.6,229.5a.31.31,0,0,1-.2.1H669a.32.32,0,0,0-.3.3v61.2h-1.1V228.8a.27.27,0,0,1,.3-.3h18.3a.52.52,0,0,1,.4.2c.2.1.2.5,0,.8Z"/><path class="cls-26" d="M679.3,292.3H661.1c-.1,0-.2-.1-.1-.2l.2-.6.4-1,.1-.1h16.6a.1.1,0,0,1,.1.1l1,1.6c.1.1,0,.2-.1.2Z"/><g class="cls-27"><path class="cls-26" d="M679.3,292.3H661.1c-.1,0-.2-.1-.1-.2l.2-.6c3.9.2,12.4.6,13.9.2,1.2-.3,1.3-.9,1.2-1.3h2a.1.1,0,0,1,.1.1l1,1.6c.1.1,0,.2-.1.2Z"/></g><g class="cls-28"><path class="cls-29" d="M680.5,227.1v.5a7.8,7.8,0,0,1-2.4.3,8.08,8.08,0,0,1-2.9-.4V227a.47.47,0,0,1,.5-.5H680a.63.63,0,0,1,.5.6Z"/></g><g class="cls-27"><path class="cls-30" d="M686.6,229.5a.31.31,0,0,1-.2.1H669a.32.32,0,0,0-.3.3v60.4l-.1.1c-.6.2-.3-23.6-.2-41.9s-.5-19,.5-19.2,15.3-.1,16.3-.1c.6,0,.7-.4.7-.6h.3a.52.52,0,0,1,.4.2c.2,0,.3.4,0,.7Z"/></g><g class="cls-31"><path class="cls-32" d="M677.8,227.4a7.2,7.2,0,1,0-7.2-7.2A7.17,7.17,0,0,0,677.8,227.4Z"/></g><g class="cls-33"><path class="cls-34" d="M677.8,226.5a6.2,6.2,0,1,0-6.2-6.2A6.23,6.23,0,0,0,677.8,226.5Z"/></g><path class="cls-35" d="M259.1,217.5a1.93,1.93,0,0,1-1.9,1.5,2,2,0,0,1-2.2-1.9v-.4c.1-1,.8-1.3,1-1.7a1.55,1.55,0,0,0,.2-.8v-1.1l1.8-.4a2.44,2.44,0,0,0-.1.7,2.11,2.11,0,0,0,.3,1.7,2.82,2.82,0,0,1,.9,2.4Z"/><g class="cls-36"><path class="cls-37" d="M259.1,217.5a1.93,1.93,0,0,1-1.9,1.5,2,2,0,0,1-2.2-1.9v-.4a1.71,1.71,0,0,0,1.8,1.1c1.3-.3,1.5-1.2,1.3-1.8s-.9-.8-1-1.3-.6-.5-.9-.5v-.7l1.5-.2.1.1a2.11,2.11,0,0,0,.3,1.7,2.65,2.65,0,0,1,1,2.4Z"/></g><path class="cls-38" d="M258.1,216.9a.31.31,0,0,0-.1-.2c0-.1-.1-.2-.1-.3a14.62,14.62,0,0,1-.5-2,1.27,1.27,0,0,1-.1-.6.6.6,0,0,0-.1-.4c-.2-.1-.2.3-.2.4s-.1.3-.1.5a2.92,2.92,0,0,0-.2.9c-.1.3-.1.6-.2.9s-.1.3-.1.5-.1.3-.1.4a.1.1,0,0,0,.1.1c.1,0,.1-.1.1-.2s.1-.4.3-.3c-.1.1-.2.4-.1.5a.19.19,0,0,0,.3,0,.5.5,0,0,0,0-.6.44.44,0,0,1,.5-.1c-.1.1-.2.4-.1.5s.3,0,.4-.1a.6.6,0,0,0-.1-.4c.1,0,.1-.1.2,0a.1.1,0,0,1,.1.1,2.27,2.27,0,0,0,.1.4c-.1.1,0,.1,0,0Zm-1.3.1c-.1.2-.2,0-.2-.1s0-.1.1-.2A.19.19,0,0,1,256.8,217Zm.5,0v-.2c0-.1.1-.1.1-.2h0C257.4,216.7,257.4,217,257.3,217Zm.1-.6a.44.44,0,0,0-.3-.1.52.52,0,0,0-.4.2h-.1c-.1,0-.1,0-.2.1.2-.9.4-1.7.6-2.6,0-.1-.1-.2-.1-.4h.2c0,.1-.1.2-.1.4l.6,2.4c0-.1-.1-.1-.2,0Z"/><path class="cls-2" d="M255.4,213.4v-4.6a.47.47,0,0,1,.5-.5h2.3a.47.47,0,0,1,.5.5v4.5a.47.47,0,0,1-.5.5,16.74,16.74,0,0,0-2.3,0c-.2.1-.5-.1-.5-.4Z"/><path class="cls-39" d="M257.8,205.6v.2c-.2.7-.9.3-1.3,0-.2-.1-.2-.2-.2-.2v-.5a33.68,33.68,0,0,1,.5-3.6c.1-.2.1-.4.2-.6h.4a29.56,29.56,0,0,1,.4,4.7Z"/><g class="cls-40"><path class="cls-39" d="M257.8,205.6v.2l-.5.1-.8-.1c-.2-.1-.2-.2-.2-.2v-.5a1.85,1.85,0,0,0,.9-.9,2.55,2.55,0,0,0-.4-2.6c.1-.2.1-.4.2-.6h.4a26.68,26.68,0,0,1,.4,4.6Z"/></g><path class="cls-2" d="M257.3,164h-.4v37h.4Z"/><path class="cls-2" d="M261.1,209.8h-8l.3-.6.5-1a1.15,1.15,0,0,1,1.1-.6h4.1a1.15,1.15,0,0,1,1.1.6Z"/><path class="cls-2" d="M258.8,208h-1.2l-2.3.1.2-.5.5-1.5.1-.3h1.5l.8,1.9Z"/><g class="cls-41"><path class="cls-2" d="M261.1,209.8h-8l.3-.6a5.13,5.13,0,0,1,1.8-.8,21.86,21.86,0,0,0,2.5-.4c.1,0,.2-.1.3-.2a.37.37,0,0,0,.1-.3,1.73,1.73,0,0,0-1.9-1.5l.1-.3h1.5l.9,1.9h.6a1.15,1.15,0,0,1,1.1.6l.7,1.6Z"/></g><path class="cls-2" d="M258.5,164.1v2.4a.58.58,0,0,1-.6.6h-1.5a.65.65,0,0,1-.6-.6v-2.4Z"/><g class="cls-41"><path class="cls-2" d="M258.5,164.1v2.4a.58.58,0,0,1-.6.6h-1.5a.65.65,0,0,1-.6-.6v-.2a1.48,1.48,0,0,0,1.3-.1c.5-.2.5-1.3.4-2.1Z"/></g><g class="cls-42"><path class="cls-43" d="M257,224.6a8,8,0,1,0-8-8A8,8,0,0,0,257,224.6Z"/></g><g class="cls-44"><path class="cls-45" d="M262.3,214c-.1.8.2,1.7.2,3.1a5.22,5.22,0,0,1-1.4,3.2,6.77,6.77,0,0,1-2.9,1.8c-.3.1-1.9.2-1.7.8.2.4,1.2.4,1.6.4a4.92,4.92,0,0,0,2.1-.4,6.37,6.37,0,0,0,3.4-3.8,7.5,7.5,0,0,0,.3-3c-.1-.5-.4-2.7-1.3-2.4Z"/></g><g class="cls-44"><path class="cls-45" d="M256.8,210.4a1.4,1.4,0,0,0-.9-.3,3.75,3.75,0,0,0-1.1.1,4.9,4.9,0,0,0-2,1.1,6.19,6.19,0,0,0-2.2,3.9,2.6,2.6,0,0,0,.7,2.4c.1.1.2,0,.3-.1a4.82,4.82,0,0,0,0-1.2,4.87,4.87,0,0,1,.1-1.2,5.12,5.12,0,0,1,1-2.1,9.34,9.34,0,0,1,1.8-1.6,3.7,3.7,0,0,1,1.1-.5,1.27,1.27,0,0,1,.6-.1,1.27,1.27,0,0,0,.6-.1q.15-.3,0-.3Z"/></g><path class="cls-35" d="M279.7,219.5a1.93,1.93,0,0,1-1.9,1.5,2,2,0,0,1-2.2-1.9v-.4c.1-1,.8-1.3,1-1.7a1.55,1.55,0,0,0,.2-.8v-1.1l1.8-.4a2.44,2.44,0,0,0-.1.7,2.11,2.11,0,0,0,.3,1.7,2.82,2.82,0,0,1,.9,2.4Z"/><g class="cls-36"><path class="cls-37" d="M279.7,219.5a1.93,1.93,0,0,1-1.9,1.5,2,2,0,0,1-2.2-1.9v-.4a1.71,1.71,0,0,0,1.8,1.1c1.3-.3,1.5-1.2,1.3-1.8s-.9-.8-1-1.3-.6-.5-.9-.5v-.7l1.5-.2.1.1a2.11,2.11,0,0,0,.3,1.7,2.65,2.65,0,0,1,1,2.4Z"/></g><path class="cls-38" d="M278.7,218.9a.31.31,0,0,0-.1-.2c0-.1-.1-.2-.1-.3a14.62,14.62,0,0,1-.5-2,1.27,1.27,0,0,1-.1-.6.6.6,0,0,0-.1-.4c-.2-.1-.2.3-.2.4s-.1.3-.1.5a2.92,2.92,0,0,0-.2.9c-.1.3-.1.6-.2.9s-.1.3-.1.5-.1.3-.1.4a.1.1,0,0,0,.1.1c.1,0,.1-.1.1-.2s.1-.4.3-.3c-.1.1-.2.4-.1.5a.19.19,0,0,0,.3,0,.5.5,0,0,0,0-.6.44.44,0,0,1,.5-.1c-.1.1-.2.4-.1.5s.3,0,.4-.1a.6.6,0,0,0-.1-.4c.1,0,.1-.1.2,0a.1.1,0,0,1,.1.1,2.27,2.27,0,0,0,.1.4c-.1.2,0,.1,0,0Zm-1.3.1c-.1.2-.2,0-.2-.1s0-.1.1-.2A.19.19,0,0,1,277.4,219Zm.4,0v-.2c0-.1.1-.1.1-.2h0C278,218.7,278,219,277.8,219Zm.2-.6a.44.44,0,0,0-.3-.1.52.52,0,0,0-.4.2h-.1c-.1,0-.1,0-.2.1.2-.9.4-1.7.6-2.6,0-.1-.1-.2-.1-.4h.2c0,.1-.1.2-.1.4l.6,2.4c0-.1-.1,0-.2,0Z"/><path class="cls-2" d="M276,215.4v-4.6a.47.47,0,0,1,.5-.5h2.3a.47.47,0,0,1,.5.5v4.5a.47.47,0,0,1-.5.5,16.74,16.74,0,0,0-2.3,0c-.2.1-.5-.1-.5-.4Z"/><path class="cls-39" d="M278.4,207.6v.2c-.2.7-.9.3-1.3,0-.2-.1-.2-.2-.2-.2v-.5a33.68,33.68,0,0,1,.5-3.6c.1-.2.1-.4.2-.6h.4c-.1,0,.5,3.2.4,4.7Z"/><g class="cls-40"><path class="cls-39" d="M278.4,207.6v.2l-.5.1-.8-.1c-.2-.1-.2-.2-.2-.2v-.5a1.85,1.85,0,0,0,.9-.9,2.55,2.55,0,0,0-.4-2.6c.1-.2.1-.4.2-.6h.4c-.1-.1.5,3.1.4,4.6Z"/></g><path class="cls-2" d="M277.9,166h-.4v37h.4Z"/><path class="cls-2" d="M281.7,211.8h-8l.3-.6.5-1a1.15,1.15,0,0,1,1.1-.6h4.1a1.15,1.15,0,0,1,1.1.6Z"/><path class="cls-2" d="M279.4,210h-3.5l.2-.5.6-1.5.1-.4h1.5l.9,1.9Z"/><g class="cls-41"><path class="cls-2" d="M281.7,211.8h-8l.3-.6a5.13,5.13,0,0,1,1.8-.8,21.86,21.86,0,0,0,2.5-.4c.1,0,.2-.1.3-.2a.37.37,0,0,0,.1-.3,1.73,1.73,0,0,0-1.9-1.5l.1-.3h1.5l.9,1.9h.6a1.15,1.15,0,0,1,1.1.6l.7,1.6Z"/></g><path class="cls-2" d="M279.1,166.1v2.4a.58.58,0,0,1-.6.6H277a.58.58,0,0,1-.6-.6v-2.4Z"/><g class="cls-41"><path class="cls-2" d="M279.1,166.1v2.4a.58.58,0,0,1-.6.6H277a.58.58,0,0,1-.6-.6v-.2a1.48,1.48,0,0,0,1.3-.1c.5-.2.5-1.3.4-2.1Z"/></g><g class="cls-42"><path class="cls-43" d="M277.6,226.6a8,8,0,1,0-8-8A8,8,0,0,0,277.6,226.6Z"/></g><g class="cls-44"><path class="cls-45" d="M282.9,216c-.1.8.2,1.7.2,3.1a5.22,5.22,0,0,1-1.4,3.2,6.77,6.77,0,0,1-2.9,1.8c-.3.1-1.9.2-1.7.8.2.4,1.2.4,1.6.4a4.92,4.92,0,0,0,2.1-.4,6.37,6.37,0,0,0,3.4-3.8,7.5,7.5,0,0,0,.3-3c-.1-.5-.4-2.7-1.3-2.4Z"/></g><g class="cls-44"><path class="cls-45" d="M277.4,212.4a1.4,1.4,0,0,0-.9-.3,3.75,3.75,0,0,0-1.1.1,5.77,5.77,0,0,0-4.2,4.9,2.6,2.6,0,0,0,.7,2.4c.1.1.2,0,.3-.1a4.82,4.82,0,0,0,0-1.2,4.87,4.87,0,0,1,.1-1.2,5.12,5.12,0,0,1,1-2.1,9.34,9.34,0,0,1,1.8-1.6,5.36,5.36,0,0,1,1.1-.5,1.27,1.27,0,0,1,.6-.1,1.27,1.27,0,0,0,.6-.1c.1-.1.1-.2,0-.2Z"/></g><path class="cls-35" d="M300.1,221.2a1.93,1.93,0,0,1-1.9,1.5,2,2,0,0,1-2.2-1.9v-.4c.1-1,.8-1.3,1-1.7a1.55,1.55,0,0,0,.2-.8v-1.1l1.8-.4a2.44,2.44,0,0,0-.1.7,2.11,2.11,0,0,0,.3,1.7,3,3,0,0,1,.9,2.4Z"/><g class="cls-36"><path class="cls-37" d="M300.1,221.2a1.93,1.93,0,0,1-1.9,1.5,2,2,0,0,1-2.2-1.9v-.4a1.71,1.71,0,0,0,1.8,1.1c1.3-.3,1.5-1.2,1.3-1.8s-.9-.8-1-1.3-.6-.5-.9-.5v-.7l1.5-.2.1.1a2.11,2.11,0,0,0,.3,1.7,2.84,2.84,0,0,1,1,2.4Z"/></g><path class="cls-38" d="M299.1,220.7a.31.31,0,0,0-.1-.2c0-.1-.1-.2-.1-.3a14.62,14.62,0,0,1-.5-2,1.27,1.27,0,0,1-.1-.6.6.6,0,0,0-.1-.4c-.2-.1-.2.3-.2.4s-.1.3-.1.5a2.92,2.92,0,0,0-.2.9c-.1.3-.1.6-.2.9s-.1.3-.1.5-.1.3-.1.4a.1.1,0,0,0,.1.1c.1,0,.1-.1.1-.2s.1-.4.3-.3c-.1.1-.2.4-.1.5a.19.19,0,0,0,.3,0,.5.5,0,0,0,0-.6c.1-.1.4-.2.5-.1-.1.1-.2.4-.1.5s.3,0,.4-.1a.6.6,0,0,0-.1-.4c.1,0,.1-.1.2,0a.1.1,0,0,1,.1.1,2.27,2.27,0,0,0,.1.4c-.1.1,0,.1,0,0Zm-1.3,0c-.1.2-.2,0-.2-.1s0-.1.1-.2C297.8,220.5,297.9,220.6,297.8,220.7Zm.5,0v-.2c0-.1.1-.1.1-.2h0C298.4,220.5,298.4,220.8,298.3,220.7Zm.1-.5a.44.44,0,0,0-.3-.1.52.52,0,0,0-.4.2h-.1c-.1,0-.1,0-.2.1.2-.9.4-1.7.6-2.6,0-.1-.1-.2-.1-.4h.2c0,.1-.1.2-.1.4l.6,2.4c0-.1-.1-.1-.2,0Z"/><path class="cls-2" d="M296.4,217.2v-4.6a.47.47,0,0,1,.5-.5h2.3a.47.47,0,0,1,.5.5v4.5a.47.47,0,0,1-.5.5,16.74,16.74,0,0,0-2.3,0c-.2.1-.4-.1-.5-.4Z"/><path class="cls-39" d="M298.8,209.4v.2c-.2.7-.9.3-1.3,0-.2-.1-.2-.2-.2-.2v-.5a33.68,33.68,0,0,1,.5-3.6c.1-.2.1-.4.2-.6h.4a29.56,29.56,0,0,1,.4,4.7Z"/><g class="cls-40"><path class="cls-39" d="M298.8,209.4v.2l-.5.1-.8-.1c-.2-.1-.2-.2-.2-.2v-.5a1.85,1.85,0,0,0,.9-.9,2.55,2.55,0,0,0-.4-2.6c.1-.2.1-.4.2-.6h.4a26.68,26.68,0,0,1,.4,4.6Z"/></g><path class="cls-2" d="M298.3,167.8h-.4v37h.4Z"/><path class="cls-2" d="M302.1,213.5h-8l.3-.6.5-1a1.15,1.15,0,0,1,1.1-.6h4.1a1.15,1.15,0,0,1,1.1.6Z"/><path class="cls-2" d="M299.8,211.7h-3.5l.2-.5.6-1.5.1-.3h1.5l.9,1.9Z"/><g class="cls-41"><path class="cls-2" d="M302.1,213.5h-8l.3-.6a5.13,5.13,0,0,1,1.8-.8,21.86,21.86,0,0,0,2.5-.4c.1,0,.2-.1.3-.2a.37.37,0,0,0,.1-.3,1.73,1.73,0,0,0-1.9-1.5l.1-.3h1.5l.9,1.9h.6a1.15,1.15,0,0,1,1.1.6l.7,1.6Z"/></g><path class="cls-2" d="M299.5,167.9v2.4a.65.65,0,0,1-.6.6h-1.5a.58.58,0,0,1-.6-.6v-2.4Z"/><g class="cls-41"><path class="cls-2" d="M299.5,167.9v2.4a.65.65,0,0,1-.6.6h-1.5a.58.58,0,0,1-.6-.6v-.2a1.48,1.48,0,0,0,1.3-.1c.5-.2.5-1.3.4-2.1Z"/></g><g class="cls-42"><path class="cls-43" d="M298.1,228.4a8,8,0,1,0-8-8A8,8,0,0,0,298.1,228.4Z"/></g><g class="cls-44"><path class="cls-45" d="M303.3,217.8c-.1.8.2,1.7.2,3.1a5.22,5.22,0,0,1-1.4,3.2,6.77,6.77,0,0,1-2.9,1.8c-.3.1-1.9.2-1.7.8.2.4,1.2.4,1.6.4a4.92,4.92,0,0,0,2.1-.4,6.37,6.37,0,0,0,3.4-3.8,7.5,7.5,0,0,0,.3-3c-.1-.5-.4-2.7-1.3-2.4Z"/></g><g class="cls-44"><path class="cls-45" d="M297.8,214.1a1.4,1.4,0,0,0-.9-.3,3.75,3.75,0,0,0-1.1.1,4.9,4.9,0,0,0-2,1.1,6.19,6.19,0,0,0-2.2,3.9,2.6,2.6,0,0,0,.7,2.4c.1.1.2,0,.3-.1a4.82,4.82,0,0,0,0-1.2,4.87,4.87,0,0,1,.1-1.2,5.12,5.12,0,0,1,1-2.1,9.34,9.34,0,0,1,1.8-1.6,3.7,3.7,0,0,1,1.1-.5,1.27,1.27,0,0,1,.6-.1,1.27,1.27,0,0,0,.6-.1.19.19,0,0,0,0-.3Z"/></g><path class="cls-46" d="M372.8,78.8c0-.3-1.5-.5-3.3-.5s-3.3.2-3.3.5,1.5.5,3.3.5S372.8,79.1,372.8,78.8Z"/><path class="cls-47" d="M371.4,78.4h-3.7v-.1l.3-.6.3-.6.1-.1h2.4l.1.1.3.6.2.7Z"/><path class="cls-48" d="M371.4,78.4h-3.7v-.1l.3-.6.3-.6.1-.1h2.4l.1.1.3.6.2.7Z"/><path class="cls-49" d="M371.3,78.4h-3.7v-.1l.3-.6.3-.6.1-.1h2.4l.1.1.3.6.3.6v.1Z"/><path class="cls-50" d="M371.3,78.4h-3.6v-.1l.3-.6.3-.6.1-.1h2.4l.1.1.3.6.1.7Z"/><path class="cls-51" d="M371.3,78.4h-3.6v-.1l.3-.6.3-.6.1-.1h2.3l.1.1.3.6.2.7Z"/><path class="cls-52" d="M371.3,78.4h-3.6v-.1l.3-.6.3-.6.1-.1h2.3l.1.1.3.6.2.7Z"/><path class="cls-53" d="M371.3,78.4h-3.6v-.1l.3-.6.3-.6.1-.1h2.3l.1.1.3.6.2.7Z"/><path class="cls-54" d="M371.3,78.4h-3.5v-.1l.3-.6.3-.6.1-.1h2.3l.1.1.3.6.1.7Z"/><path class="cls-55" d="M371.2,78.4h-3.5v-.1l.3-.6.3-.6.1-.1h2.3l.1.1.3.6.1.7Z"/><path class="cls-56" d="M371.2,78.4h-3.5v-.1l.2-.6.2-.6.1-.1h2.2l.1.1.2.6.5.7Z"/><path class="cls-57" d="M371.2,78.4h-3.4v-.1l.2-.6.2-.6.1-.1h2.2l.1.1.2.6.4.7Z"/><path class="cls-58" d="M371.1,78.1h-3v.3c0,.1.1.1.2.1H371c.1,0,.1,0,.2-.1v-.3Z"/><path class="cls-58" d="M370.6,77.2h-2.1V77l.1-.1h1.8a.1.1,0,0,1,.1.1v.1l.1.1Z"/><path class="cls-59" d="M371.2,78.4h-3.4v-.1l.2-.6.2-.6.1-.1h2.2l.1.1.2.6.4.7Z"/><path class="cls-60" d="M368.3,77.1h0l.1-.1h2.3v.1l.2.6.2.6v.1h-3.5v-.1l.2-.6.5-.6Z"/><path class="cls-61" d="M368.4,77.1h0a.31.31,0,0,1,.2-.1h2.1v.1l.2.6.2.6v.1h-3.4v-.1l.2-.6.5-.6Z"/><path class="cls-62" d="M368.4,77.2h0c0-.1.1-.1,0,0a.31.31,0,0,1,.2-.1h2.1v.1l.2.5.2.5v.1h-3.3v-.1l.2-.5.4-.5Z"/><path class="cls-63" d="M368,78.3l.5-1.1v-.1h2.2v.1l.5,1.1Z"/><path class="cls-64" d="M371.2,78.4h-3.4v-.1l.2-.6.2-.6.1-.1h2.2l.1.1.2.6.4.7Z"/><path class="cls-65" d="M369.5,78.9c1.9,0,3.5-.2,3.5-.5s-1.6-.5-3.5-.5-3.5.2-3.5.5S367.6,78.9,369.5,78.9Z"/><path class="cls-66" d="M370.2,58.4h-.3V72h.3Z"/><path class="cls-2" d="M381.4,82.7H358.7l.3-.4a.77.77,0,0,1,.1-.3,21.89,21.89,0,0,1,1.6-4.1c.6-.8,6.8-3.2,7.3-3.8a3.43,3.43,0,0,0,.3-1.8v-.5l1.8-.1,1.8.1s-.2,1.7.3,2.3l.1.1c.3.2,1.2.7,2.2,1.2,2,.9,4.6,2.1,5,2.6a26.74,26.74,0,0,1,1.7,4.4l.2.3Z"/><path class="cls-2" d="M367.6,57.4l5.1.6-.1.5a1,1,0,0,1-1.1.9l-3.1-.4a1,1,0,0,1-.9-1.1Z"/><path class="cls-39" d="M371.9,71.6h-3.7c-.1,0-.2-.1-.2-.3l.1-.2.4-1.1a.79.79,0,0,1,.8-.5h1.6a.89.89,0,0,1,.8.5l.5,1.3c-.1.2-.2.4-.3.3Z"/><path class="cls-67" d="M381.4,82.7H358.7l.3-.4a.77.77,0,0,1,.1-.3c3.7.2,14.3.3,15.7-2,1.1-1.8.3-3.7-.3-4.8,2,.9,4.6,2.1,5,2.6a26.74,26.74,0,0,1,1.7,4.4Z"/><path class="cls-2" d="M381.8,82.5H358.3a.32.32,0,0,0-.3.3v.3a.32.32,0,0,0,.3.3h23.5a.32.32,0,0,0,.3-.3v-.3A.27.27,0,0,0,381.8,82.5Z"/><path class="cls-68" d="M358.8,83.2a11.48,11.48,0,0,0,1.9.1h1.9c.1-.1.2-.1.2-.3s0-.3-.2-.3a3.08,3.08,0,0,0-1-.1h-.9a12.1,12.1,0,0,0-1.9.1.25.25,0,0,0,0,.5Z"/><path class="cls-68" d="M363.4,83.3h.5a.75.75,0,0,0,.5-.1.3.3,0,0,0,0-.4.9.9,0,0,0-.5-.1h-.5A.31.31,0,0,0,363.4,83.3Z"/><path class="cls-66" d="M373.4,77.8a2.62,2.62,0,0,0-.9-.5,19.67,19.67,0,0,0-2.4-.3,16,16,0,0,0-3.1,0c-1.1,0-2.2,0-3.2.1-.8.1-2,.3-2.4,1.2-.2.5.1.9.6,1.1a9,9,0,0,0,3.6.5h0a57.18,57.18,0,0,0,5.9-.2c.7-.1,1.7-.2,2-1,.3-.3.1-.6-.1-.9Z"/><path class="cls-69" d="M362.6,78.8a2.74,2.74,0,0,0,1.3.2h3.3a.8.8,0,1,0,0-1.6h-3.3a3,3,0,0,0-1.3.2.75.75,0,0,0,0,1.2Z"/><path class="cls-67" d="M372.3,74.1h0c-.9-.2-1-1.1-1.8-1.6a2.94,2.94,0,0,0-2.2-.2v-.5l1.8-.1,1.8.1a3.77,3.77,0,0,0,.4,2.3Z"/><g class="cls-70"><path class="cls-39" d="M371.9,71.6h-3.7c-.1,0-.2-.1-.2-.3l.1-.2c.7,0,2.6-.1,2.7-.5s-.2-.9-.3-1.2h.3a.89.89,0,0,1,.8.5l.5,1.3c0,.3-.1.4-.2.4Z"/></g><path class="cls-69" d="M368.8,78.9a1.45,1.45,0,0,0,.7.2h.6a.87.87,0,0,0,.6-.8.84.84,0,0,0-.6-.8h-.6a1,1,0,0,0-.7.2.67.67,0,0,0,0,1.2Z"/></g></svg>