<svg id="Layer_1" data-name="Layer 1" xmlns="http://www.w3.org/2000/svg" viewBox="0 0 748 505"><defs><style>.cls-1{fill:#a3c9c4;}.cls-1,.cls-2,.cls-3,.cls-4,.cls-5{fill-rule:evenodd;}.cls-2{fill:#633a34;}.cls-3{fill:#8d554a;}.cls-4{fill:#a85d51;}.cls-5{fill:#492826;}</style></defs><g id="Finishing"><path class="cls-1" d="M747.4,246.4,699,304.6l-.8,192.5,47.6-88.3Z"/><path class="cls-2" d="M575.6,288l50.7-42.6.1-14.5,121,15.4L699,304.6Z"/><path class="cls-3" d="M686.3,197.3l11.9,102.3,4.2-4.7-.5-99.6-11.1-.6-4.5,2.6Z"/><path class="cls-3" d="M725.1,163.9l11,91.6,3.9-4.2-.5-89.5-10.3-.5-4.1,2.6Z"/><path class="cls-4" d="M698.6,198.2l-12.2-.9L685.5,298l12.7,1.6Z"/><path class="cls-4" d="M736.4,164.5l-11.3-.8-.7,90.5,11.7,1.4Z"/><path class="cls-5" d="M.6,265.6l220.3,37.8L248,290.3l-53-7.6-9.3,4.4L99.2,272.4,98,229.2Z"/><path class="cls-3" d="M22.5,180.3,31,263.6l7.2-2.7-.6-81.6-8.7-.6-6.4,1.6Z"/><path class="cls-4" d="M31.3,181l-8.8-.7v81.9l8.5,1.4Z"/><path class="cls-1" d="M183.2,170.1l-46.9-6.7-1.1-45.9a366.41,366.41,0,0,1-37.6-4.2H96l3.3,159.1,86.5,14.7Z"/><path class="cls-5" d="M128.3,115.9q-66.75-7.05-66.8-7Q160.65.9,160.6.9L301.9,7.8q-27.3,37.05-27.3,37c-55.6-5.8-57.1-1.4-81.4-6.3Q128.25,115.9,128.3,115.9Z"/></g></svg>