<svg id="Layer_1" data-name="Layer 1" xmlns="http://www.w3.org/2000/svg" viewBox="0 0 748 505"><defs><style>.cls-1{fill:#a85d51;}.cls-1,.cls-11,.cls-13,.cls-2,.cls-3,.cls-4,.cls-7,.cls-8{fill-rule:evenodd;}.cls-2,.cls-5{fill:#0c0c17;}.cls-3{fill:#86c0d7;}.cls-4{fill:#52a6c3;}.cls-10,.cls-12,.cls-14,.cls-15,.cls-6,.cls-9{fill:none;stroke-miterlimit:22.93;}.cls-6{stroke:#0c0c17;stroke-width:3px;}.cls-7{fill:#d8d6d4;}.cls-8{fill:#8d554a;}.cls-9{stroke:#8d554a;stroke-width:0.57px;}.cls-10{stroke:#d8d6d4;}.cls-10,.cls-12,.cls-14{stroke-width:1.5px;}.cls-11{fill:#cbcbcb;}.cls-12{stroke:#cbcbcb;}.cls-13{fill:#eceae7;}.cls-14{stroke:red;}.cls-15{stroke:#003398;}</style></defs><g id="Heating"><path class="cls-1" d="M488,329.87a54.51,54.51,0,0,1,31.7-.17H520v70.72q-12.74,6.72-31.93,0Z"/><path class="cls-2" d="M487.82,329.25c0,2,7.17,3.67,16,3.67,8.17,0,15.08-1.57,16-3.39,0,0,0-1.11,0-3.94,0-2-7.17-3.65-16-3.65s-16,1.63-16,3.65v3.66Z"/><path class="cls-2" d="M504.32,406.65c11.11-.54,14.15-2.47,15.65-6.22q-14,6.75-31.93,0C489.15,403.87,494,406.08,504.32,406.65Z"/><path class="cls-3" d="M387.2,385.11l-18.15-2.53,0,6.63,38.55,6.41-.22-4.84-20.19-3.19Z"/><path class="cls-4" d="M387.2,385.11l-18.15-2.53,7.46-5,17.75,2.13Z"/><path class="cls-5" d="M380.23,370.34H381a3.82,3.82,0,0,1,3.81,3.81v2.64A3.82,3.82,0,0,1,381,380.6h-.75a3.82,3.82,0,0,1-3.81-3.81v-2.64A3.82,3.82,0,0,1,380.23,370.34Z"/><path class="cls-4" d="M330.73,307.69l6.3,52.07,40.12,14.63a12.47,12.47,0,0,0,7.19.34q14-6.25,12.2-5.42L424,350.94a10.19,10.19,0,0,0,2.77-7.23q.81-36.75.8-36.74c.29-4.18-.76-6.68-3.13-7.52q-64.34-8.54-62.6-10.23l-31.16,18.47Z"/><path class="cls-3" d="M394.42,317.62l-63.69-9.93q.7,46.71.69,46.87.31,4.15,6.67,5.44l57.22,9.61c2.1-.16,3.17-1.63,3.25-4.45q-.51-43.61-.52-43.61c0-2.37-1.19-3.68-3.62-3.92Z"/><path class="cls-6" d="M402.3,400.11c4.75,17.83,31,13.83,31.55-.3"/><path class="cls-4" d="M407.88,391l-20.66-3.42,7-5.75,15.88,2Z"/><path class="cls-7" d="M400.9,411.18l-.55-78.07L433.3,310l.29,76.74L430.91,389V315.81L403.5,335.33l.74,72.72Z"/><path class="cls-8" d="M424.16,353.21l10.06-6,20.5,2.29-5.24,6.86Z"/><path class="cls-1" d="M474,356.31,447.44,352l-.22,54.31L474,410.63Z"/><path class="cls-8" d="M448.69,327.26l-15.07-1.54,6.74-4.35,14.56,1.06.15,28.1-6.22-.39Z"/><path class="cls-8" d="M474,356.31,447.44,352l14.14-8.88,23,3.41v54.71L474,410.63Z"/><path class="cls-9" d="M449.82,406.76l.44-50.27,20.31,3.11.5,50.55"/><path class="cls-10" d="M403.5,335.33l32.43,44"/><path class="cls-1" d="M447.62,356l-23.46-2.82,1.19,49,22.35,3.31Z"/><path class="cls-1" d="M448.69,327.26l-15.07-1.54.6,21.48,14.86,1.66Z"/><path class="cls-11" d="M400.39,333.11,324.2,321l1,75.54,5,1-.6-70.5,65.1,9.69.86,73.44,5.34,1.07Z"/><path class="cls-12" d="M327.12,323.12l70.66,85.61"/><path class="cls-12" d="M328.93,395.52l65.77-58.85"/><path class="cls-10" d="M403.13,406.5l27.78-90.69"/><path class="cls-13" d="M330.9,318.74,324.2,321l76.15,12.16L433.3,310l-5.73-.66,0,1.92,1.48.19-28.64,19.14-69.55-10.75Z"/><path class="cls-4" d="M387.22,387.59l7-5.74.06-2.13-7.06,5.39Z"/><path class="cls-14" d="M478.65,345.86c0-1.19,0-1.79,0-1.79a1.59,1.59,0,0,1,1.61-1.71l7.29.47"/><path class="cls-15" d="M477.26,407.77c4.63.83,9.26,1.66,11.64,2.06s2.53.37,3.38-.39,2.41-2.27,4-3.77"/></g></svg>