<svg id="Layer_1" data-name="Layer 1" xmlns="http://www.w3.org/2000/svg" xmlns:xlink="http://www.w3.org/1999/xlink" viewBox="0 0 748 505"><defs><style>.cls-1,.cls-12,.cls-14,.cls-15,.cls-16,.cls-19,.cls-23,.cls-24,.cls-29,.cls-35,.cls-39,.cls-41,.cls-42,.cls-44,.cls-51,.cls-52,.cls-53{fill:none;}.cls-2{clip-path:url(#clip-path);}.cls-3,.cls-49{fill:#eceae7;}.cls-11,.cls-13,.cls-17,.cls-18,.cls-20,.cls-21,.cls-22,.cls-26,.cls-27,.cls-28,.cls-3,.cls-30,.cls-31,.cls-32,.cls-33,.cls-34,.cls-36,.cls-4,.cls-40,.cls-43,.cls-45,.cls-46,.cls-47,.cls-48,.cls-49,.cls-5,.cls-6,.cls-7,.cls-8,.cls-9{fill-rule:evenodd;}.cls-4{fill:#989898;}.cls-5{fill:#b2b2b2;}.cls-6{fill:#a85d51;}.cls-10,.cls-7{fill:#0c0c17;}.cls-48,.cls-8{fill:#86c0d7;}.cls-9{fill:#52a6c3;}.cls-11,.cls-38,.cls-47{fill:#d8d6d4;}.cls-12,.cls-16{stroke:#0c0c17;}.cls-12,.cls-14,.cls-15,.cls-16,.cls-19,.cls-23,.cls-24,.cls-29,.cls-34,.cls-35,.cls-37,.cls-39,.cls-40,.cls-41,.cls-42,.cls-44,.cls-45,.cls-47,.cls-48,.cls-49,.cls-51,.cls-52,.cls-53{stroke-miterlimit:22.93;}.cls-12{stroke-width:3px;}.cls-13{fill:#8d554a;}.cls-14{stroke:#8d554a;}.cls-14,.cls-23,.cls-24,.cls-29,.cls-34,.cls-35,.cls-37,.cls-39,.cls-40,.cls-41,.cls-45,.cls-47,.cls-48,.cls-49{stroke-width:0.57px;}.cls-15{stroke:#d8d6d4;}.cls-15,.cls-16,.cls-19,.cls-42,.cls-53{stroke-width:1.5px;}.cls-17,.cls-37{fill:#cbcbcb;}.cls-18{fill:#e5e5e5;}.cls-19,.cls-37,.cls-44{stroke:#cbcbcb;}.cls-20,.cls-55{fill:#fff;}.cls-21{fill:#005a4d;}.cls-22{fill:#b58460;}.cls-23{stroke:#c29170;}.cls-24{stroke:#d79e77;}.cls-25,.cls-32,.cls-34{fill:#c88e68;}.cls-26{fill:#b58462;}.cls-27,.cls-50{fill:#d79e77;}.cls-28{fill:#c88c66;}.cls-29{stroke:#b58460;}.cls-30,.cls-45{fill:#633a34;}.cls-31,.cls-40{fill:#492826;}.cls-33{fill:#c29170;}.cls-34{stroke:#c88e68;}.cls-35{stroke:#b58462;}.cls-36{fill:#fbedd2;}.cls-39{stroke:#000;}.cls-40,.cls-41,.cls-45{stroke:#633a34;}.cls-42,.cls-47,.cls-49{stroke:#989898;}.cls-43{fill:#98745a;}.cls-44{stroke-width:2px;}.cls-46{fill:url(#linear-gradient);}.cls-48{stroke:#fff;}.cls-51{stroke:#003398;}.cls-52,.cls-53{stroke:red;}.cls-54{fill:#f60;}</style><clipPath id="clip-path"><rect class="cls-1" width="748" height="505"/></clipPath><linearGradient id="linear-gradient" x1="473.62" y1="30.2" x2="492.98" y2="30.2" gradientTransform="matrix(1, 0, 0, -1, 0, 244)" gradientUnits="userSpaceOnUse"><stop offset="0" stop-color="#421712"/><stop offset="1" stop-color="#ec6907"/></linearGradient></defs><g class="cls-2"><path class="cls-3" d="M27.2,375.2l-.6-8.7L698.5,495.6l.1,9.4Z"/><path class="cls-4" d="M698.6,495.6,26.9,366.9l192.8-82.1,526.8,88.5-.3,33.9Z"/><path class="cls-5" d="M361.2,368.4l-2.4-96.8,197.6,27.8,1.2,102.7Z"/><path class="cls-6" d="M488,329.8a55.19,55.19,0,0,1,31.7-.2h.2v70.5c-8.5,4.5-19.1,4.5-31.9,0V329.8Z"/><path class="cls-7" d="M487.8,329.2c0,2,7.2,3.7,16,3.7,8.2,0,15.1-1.6,16.1-3.4v-3.9c0-2-7.2-3.6-16-3.6s-16,1.6-16,3.6l-.1,3.6Z"/><path class="cls-7" d="M504.3,406.3c11.1-.5,14.1-2.5,15.6-6.2-9.3,4.5-20,4.5-31.9,0C489.1,403.5,493.9,405.8,504.3,406.3Z"/><path class="cls-8" d="M387.1,384.9l-18.2-2.5V389l38.6,6.4-.2-4.8-20.2-3.2Z"/><path class="cls-9" d="M387.1,384.9l-18.2-2.5,7.5-5,17.7,2.1Z"/><path class="cls-10" d="M380.1,370.1h.8a3.8,3.8,0,0,1,3.8,3.8v2.6a3.8,3.8,0,0,1-3.8,3.8h-.8a3.8,3.8,0,0,1-3.8-3.8v-2.6A3.8,3.8,0,0,1,380.1,370.1Z"/><path class="cls-3" d="M298.6,304.5l-5-.9,1.6,106.8,5,.9Z"/><path class="cls-11" d="M298.6,304.5l1.6,106.8,60.9-43-2.4-96.8Z"/><path class="cls-9" d="M330.6,307.7l6.3,51.9c26.7,9.7,40.1,14.6,40.1,14.6a12.44,12.44,0,0,0,7.2.3c9.3-4.2,13.4-6,12.2-5.4,18.3-12.2,27.5-18.3,27.5-18.3a10.21,10.21,0,0,0,2.8-7.2c.5-24.4.8-36.6.8-36.6.3-4.2-.8-6.7-3.1-7.5q-64.35-8.55-62.6-10.2c-20.8,12.2-31.2,18.4-31.2,18.4Z"/><path class="cls-12" d="M335.3,312.6c-8.4.9-17.5,7.5-8.9,25.8"/><path class="cls-8" d="M394.3,317.6l-63.7-9.9c.5,31,.7,46.6.7,46.7.2,2.8,2.4,4.6,6.7,5.4,38.2,6.4,57.2,9.6,57.2,9.6,2.1-.2,3.2-1.6,3.3-4.4-.3-29-.5-43.5-.5-43.5,0-2.4-1.2-3.7-3.7-3.9Z"/><path class="cls-12" d="M402.2,399.8c4.7,17.8,31,13.8,31.6-.3"/><path class="cls-9" d="M407.8,390.7l-20.7-3.4,7-5.7,15.9,2Z"/><path class="cls-11" d="M400.8,410.8l-.5-77.8,33-23,.3,76.5-2.7,2.2V315.8l-27.4,19.5.8,72.5Z"/><path class="cls-13" d="M424.1,353.1l10.1-6,20.5,2.3-5.2,6.8Z"/><path class="cls-6" d="M474,356.1l-26.6-4.3-.2,54.1,26.8,4.3V356.1Z"/><path class="cls-13" d="M448.6,327.2l-15.1-1.5,6.7-4.4,14.6,1.1.1,28-6.2-.4Z"/><path class="cls-13" d="M474,356.1l-26.6-4.3,14.1-8.8,23,3.4V401l-10.6,9.3V356.1Z"/><path class="cls-14" d="M449.7,406.4l.4-50.1,20.3,3.1.5,50.4"/><path class="cls-15" d="M403.4,335.2l32.5,43.9"/><path class="cls-6" d="M447.5,355.9,424,353.1l1.2,48.8,22.4,3.3Z"/><path class="cls-6" d="M448.6,327.2l-15.1-1.5.6,21.4,14.9,1.7Z"/><path class="cls-7" d="M443.2,325.5c2.5,0,4.5-.8,4.5-1.7s-2-1.7-4.5-1.7-4.5.8-4.5,1.7S440.7,325.5,443.2,325.5Z"/><path class="cls-16" d="M427.5,307c11.1-2.1,16.3,3.5,15.7,16.8"/><path class="cls-17" d="M400.3,333l-76.2-12.1,1,75.3,5,1-.6-70.3,65.1,9.7.9,73.2,5.3,1.1Z"/><path class="cls-18" d="M332.1,395.3l-2,1.9-.6-70.3,2.1.3Z"/><path class="cls-19" d="M327,323.1l70.7,85.3"/><path class="cls-19" d="M328.8,395.2l65.8-58.6"/><path class="cls-15" d="M403,406.2l27.8-90.4"/><path class="cls-3" d="M330.8,318.7l-6.7,2.2L400.3,333l33-23-5.7-.7-.1,1.9,1.5.2-28.6,19.1-69.6-10.7Z"/><path class="cls-9" d="M387.1,387.3l7-5.7.1-2.1-7,5.4Z"/><path class="cls-20" d="M296.6,330.3c-5.9-.7-5.1-3.7-2.6-3.7,2.5.6,4.2.9,4.2.9a3.73,3.73,0,0,0,2.5-.8c10.9-6.3,16.3-9.4,16.3-9.4,1.5-.7,2.3-.3,2.3,1.2q.6,80.55.6,80.6c-.5.8-1.5.9-2.8.4q-.45-78-.5-78c.2-.9-.6-.7-2.5.6-8.2,5-12.4,7.6-12.4,7.6a6.56,6.56,0,0,1-5.1.6Z"/><path class="cls-3" d="M189.1,177.6l-.2-11.6,28.1,3.8.2,11.9Z"/><path class="cls-11" d="M217.2,181.7l-.2-11.9,59.4-21v10.9Z"/><path class="cls-20" d="M189.4,196.8l.2,13,5.8-1.7,65.2,7.4-.1-14.6-6,2.5L192.3,196Z"/><path class="cls-7" d="M211.1,356.5c-4.8,0-9.1,5.7-9.5,12.6s3,12.6,7.8,12.6,9-5.7,9.5-12.6S215.9,356.5,211.1,356.5Z"/><path class="cls-5" d="M212.4,378.1c3,0,5.5-4.4,5.5-9.7s-2.5-9.7-5.5-9.7-5.5,4.4-5.5,9.7S209.4,378.1,212.4,378.1Z"/><path class="cls-21" d="M257.6,298.8q-53.85-11.85-84.9,29.4-28.5,10.5-23.1,33.9l.3,3c-.1,1,1.3,2.2,4.3,3.7,2.3,1.4,4.1,1.5,5.4.4a96.07,96.07,0,0,0,22.4,3.7c1.6,2,4.3,2.8,8,2.5q9.6-.6,11.7-2.4,55.35-35.55,55.2-33.1c1.3-11.3,4.6-16.8,10-16.3,2.9,1,4.8,3.6,5.8,7.8,1.9-18.3-3.2-29.1-15.1-32.6Z"/><path class="cls-3" d="M48.8,371.1l-22.1-4.6-4.2-97.8,198.9,32.5,2.2,103.3L206,401.1l-1.8-94.6L45.4,281.8Z"/><path class="cls-11" d="M45.4,281.8l3.4,89.3,6.5-2.7-3.2-85.5Z"/><path class="cls-17" d="M204.2,306.3,52.1,282.9,15.2,314.1l159,30.9,30.1-31.1Z"/><path class="cls-7" d="M227,330.3a27.42,27.42,0,0,1,11.8-20.6,44.81,44.81,0,0,1,3,12.6C231.9,327.6,227,330.3,227,330.3Z"/><path class="cls-11" d="M228,297.1l-6.6,4.2,2.2,103.3,6.8-3.6Z"/><path class="cls-18" d="M15.7,317.1l-.5-2.9,159,30.9L204.3,314v3.3l-29.9,30.3Z"/><path class="cls-22" d="M698.6,495.6,520.4,461.5,625.8,353l120.7,20.3-.3,33.9Z"/><path class="cls-23" d="M603.5,477.4,688,363.5"/><path class="cls-23" d="M621.2,480.8l79.6-115.2"/><path class="cls-24" d="M638.8,484.1l75.3-116.3"/><path class="cls-23" d="M654.6,487.2l74.2-116.9"/><path class="cls-23" d="M673,490.6l70.2-117.9"/><path class="cls-23" d="M688.5,494.4l57.8-101.7"/><path class="cls-23" d="M586.4,474.1,676,361.5"/><path class="cls-23" d="M569.3,470.9,663.6,359"/><path class="cls-23" d="M552.5,467.7l98.1-110.5"/><path class="cls-23" d="M536.4,464.5,638.2,355.1"/><path class="cls-25" d="M745.3,251H623v98.1H745.3Z"/><path class="cls-26" d="M623.9,360.8,568,412.4l-1-116.2,57.8-47.4Z"/><path class="cls-24" d="M615,341.4l-.5-84.1"/><path class="cls-24" d="M590.7,365.8,589.3,278"/><path class="cls-24" d="M582,372.2l-.4-88"/><path class="cls-24" d="M574,379.6l-.8-88.1"/><path class="cls-24" d="M597.3,365.9l-1.5-93.4"/><path class="cls-24" d="M604.5,366.8l-2.1-99.6"/><path class="cls-24" d="M609.6,345.8l-1.5-83.4"/><path class="cls-24" d="M620.3,337.4l.5-85.3"/><path class="cls-24" d="M623.8,334.7l.9-81.3"/><path class="cls-24" d="M631.7,336l.9-81.3"/><path class="cls-24" d="M639.5,337.3l.9-81.3"/><path class="cls-24" d="M647.3,338.6l.9-81.3"/><path class="cls-24" d="M655.1,340l.9-81.3"/><path class="cls-24" d="M662.9,341.3l.9-81.3"/><path class="cls-24" d="M670.8,342.6l.9-81.3"/><path class="cls-24" d="M678.6,343.9l.9-81.3"/><path class="cls-24" d="M686.4,345.2l.9-81.3"/><path class="cls-24" d="M694.2,346.5l.9-81.3"/><path class="cls-27" d="M707.8,364.5,604.2,348.9l.4,26,103.8,16.5Z"/><path class="cls-28" d="M708.4,391.4l-.6-26.9,13.6-18.1v22.8Z"/><path class="cls-27" d="M623.8,334.7l-19.6,14.7,103.6,15.1,13.6-18.1Z"/><path class="cls-22" d="M604.3,351.6v-2.2l103.6,15.1.1,2.3Z"/><path class="cls-22" d="M707.9,366.8l-.1-2.3,13.6-18.1v2Z"/><path class="cls-29" d="M615.3,342.2l99.9,13.3"/><path class="cls-29" d="M609.6,345.8,711.5,360"/><path class="cls-29" d="M604.4,357,708,373.1"/><path class="cls-29" d="M604.6,363.8,708.3,380"/><path class="cls-29" d="M604.8,370.6l103.7,16.2"/><path class="cls-29" d="M620.2,338.2l98.6,12.4"/><path class="cls-29" d="M708,373.1l13-18.9"/><path class="cls-29" d="M708.3,380,721,360.9"/><path class="cls-29" d="M708.3,386.8,721,366.3"/><path class="cls-11" d="M748,246l-48.4,58-.8,191.8,47.6-88Z"/><path class="cls-3" d="M693.5,303.1l6.1.9-.8,191.8-6.5-1.3Z"/><path class="cls-3" d="M576.1,299V287.5L699.6,304l-.1,13.1Z"/><path class="cls-30" d="M567.5,383.4l.5,29,28.1,6.1-.6-30.4Z"/><path class="cls-31" d="M596.1,418.6l-.6-30.4,19.2-19.9.6,27.7Z"/><path class="cls-32" d="M589,364.6c-14.3,12.6-21.5,18.9-21.5,18.9,9.9,1.7,19.3,3.2,28,4.7l19.2-19.9c-17.1-2.5-25.7-3.7-25.7-3.7Z"/><path class="cls-31" d="M589.4,366.8c-11.7,10.2-17.5,15.3-17.5,15.3,8.1,1.4,15.6,2.6,22.8,3.8l15.6-16.2c-13.9-1.9-20.9-2.9-20.9-2.9Z"/><path class="cls-33" d="M574.8,387.4a2.15,2.15,0,0,0,.2,1.1.76.76,0,0,0,1.1.2,4,4,0,0,0,1.6-1.2c.3-.4.2-.6,0-.8s-.4-.2-.8-.3h-1.1a4.65,4.65,0,0,0-.9.3c0,.3-.1.4-.1.7Z"/><path class="cls-33" d="M592.9,369.6a2.38,2.38,0,0,0,.3,1.4c.2.4.7.6,1.4.3a5.26,5.26,0,0,0,2-1.6c.4-.5.3-.8.1-1a1.88,1.88,0,0,0-.9-.4,3.44,3.44,0,0,0-1.4.1,8.11,8.11,0,0,0-1.1.3,1.09,1.09,0,0,0-.4.9Z"/><path class="cls-33" d="M590.1,389.4a2.15,2.15,0,0,1-.2,1.1.76.76,0,0,1-1.1.2,4,4,0,0,1-1.6-1.2c-.3-.4-.2-.6,0-.8s.4-.2.8-.3h1.1a4.65,4.65,0,0,1,.9.3c0,.3.1.4.1.7Z"/><path class="cls-33" d="M607.1,371.1a2.15,2.15,0,0,1-.2,1.1.76.76,0,0,1-1.1.2,4,4,0,0,1-1.6-1.2c-.3-.4-.2-.6,0-.8s.4-.2.8-.3h1.1a4.65,4.65,0,0,1,.9.3,1.48,1.48,0,0,1,.1.7Z"/><path class="cls-33" d="M611.4,380.2a2.74,2.74,0,0,1-.2,1.2,1.15,1.15,0,0,1-1.1.6,2.58,2.58,0,0,1-1.6-.6c-.3-.3-.2-.5,0-.8a2.76,2.76,0,0,1,.8-.6,3.58,3.58,0,0,1,1.1-.4,1.35,1.35,0,0,1,.9,0,2.18,2.18,0,0,1,.1.6Z"/><path class="cls-33" d="M582.3,398a2.15,2.15,0,0,0,.2,1.1.76.76,0,0,0,1.1.2,4,4,0,0,0,1.6-1.2c.3-.4.2-.6,0-.8s-.4-.2-.8-.3h-1.1a4.65,4.65,0,0,0-.9.3,5.64,5.64,0,0,0-.1.7Z"/><path class="cls-33" d="M578.7,406.1a2.15,2.15,0,0,1-.2,1.1.76.76,0,0,1-1.1.2,4,4,0,0,1-1.6-1.2c-.3-.4-.2-.6,0-.8s.4-.2.8-.3h1.1a4.65,4.65,0,0,1,.9.3,1.7,1.7,0,0,1,.1.7Z"/><path class="cls-33" d="M584,376.9a2.15,2.15,0,0,1-.2,1.1.76.76,0,0,1-1.1.2,4,4,0,0,1-1.6-1.2c-.3-.4-.2-.6,0-.8s.4-.2.8-.3H583a4.65,4.65,0,0,1,.9.3,1.7,1.7,0,0,0,.1.7Z"/><path class="cls-33" d="M572.6,400.2a2.15,2.15,0,0,1-.2,1.1.76.76,0,0,1-1.1.2,4,4,0,0,1-1.6-1.2c-.3-.4-.2-.6,0-.8s.4-.2.8-.3h1.1a4.65,4.65,0,0,1,.9.3,1.7,1.7,0,0,0,.1.7Z"/><path class="cls-33" d="M602.1,383a2.15,2.15,0,0,0,.2,1.1c.2.3.6.3,1.1,0a5.8,5.8,0,0,0,1.6-1.5c.3-.5.2-.7,0-.8a1,1,0,0,0-.8-.1,5.16,5.16,0,0,0-1.1.2,3.92,3.92,0,0,0-.9.4C602.2,382.5,602.1,382.7,602.1,383Z"/><path class="cls-33" d="M603.5,393.6a2.15,2.15,0,0,0,.2,1.1c.2.3.6.3,1.1,0a5.8,5.8,0,0,0,1.6-1.5c.3-.5.2-.7,0-.8a1,1,0,0,0-.8-.1,5.16,5.16,0,0,0-1.1.2,3.92,3.92,0,0,0-.9.4C603.6,393.1,603.5,393.3,603.5,393.6Z"/><path class="cls-33" d="M583.7,390.3a2.15,2.15,0,0,0,.2,1.1.76.76,0,0,0,1.1.2,4,4,0,0,0,1.6-1.2c.3-.4.2-.6,0-.8s-.4-.2-.8-.3h-1.1a4.65,4.65,0,0,0-.9.3c0,.2-.1.4-.1.7Z"/><path class="cls-33" d="M601.8,372.9a2.15,2.15,0,0,0,.2,1.1.76.76,0,0,0,1.1.2,4,4,0,0,0,1.6-1.2c.3-.4.2-.6,0-.8s-.4-.2-.8-.3h-1.1a4.65,4.65,0,0,0-.9.3c0,.2-.1.4-.1.7Z"/><path class="cls-33" d="M575.7,394.7a2.15,2.15,0,0,0,.2,1.1.76.76,0,0,0,1.1.2,4,4,0,0,0,1.6-1.2c.3-.4.2-.6,0-.8s-.4-.2-.8-.3h-1.1a4.65,4.65,0,0,0-.9.3,1.48,1.48,0,0,0-.1.7Z"/><path class="cls-33" d="M592.2,377a2.15,2.15,0,0,0,.2,1.1.76.76,0,0,0,1.1.2,4,4,0,0,0,1.6-1.2c.3-.4.2-.6,0-.8s-.4-.2-.8-.3h-1.1a4.65,4.65,0,0,0-.9.3c0,.2-.1.4-.1.7Z"/><path class="cls-33" d="M591.4,400.7a3.1,3.1,0,0,0,.6,1.3c.3.3.7.3,1.2-.2a5.9,5.9,0,0,0,1.2-2.2.79.79,0,0,0-.2-1,1.1,1.1,0,0,0-.8,0,9.74,9.74,0,0,0-1.1.5,5.72,5.72,0,0,0-.8.7.94.94,0,0,0-.1.9Z"/><path class="cls-33" d="M583.2,405.2a2.15,2.15,0,0,0,.2,1.1.76.76,0,0,0,1.1.2,4,4,0,0,0,1.6-1.2c.3-.4.2-.6,0-.8s-.4-.2-.8-.3h-1.1a1.9,1.9,0,0,0-.9.3,1.7,1.7,0,0,0-.1.7Z"/><path class="cls-33" d="M603.8,391a1.78,1.78,0,0,0,.8.7c.3.1.6-.1.9-.7a8.33,8.33,0,0,0,.3-2.2c0-.6-.2-.6-.5-.6a1.33,1.33,0,0,0-.7.3,7.05,7.05,0,0,0-.7.9,3.55,3.55,0,0,0-.4.9A1.33,1.33,0,0,0,603.8,391Z"/><path class="cls-33" d="M603.7,401.2a2.15,2.15,0,0,0,.2,1.1c.2.3.6.3,1.1,0a5.8,5.8,0,0,0,1.6-1.5c.3-.5.2-.7,0-.8a1,1,0,0,0-.8-.1,5.16,5.16,0,0,0-1.1.2,3.92,3.92,0,0,0-.9.4C603.8,400.7,603.7,400.9,603.7,401.2Z"/><path class="cls-33" d="M573.8,410.7a2.15,2.15,0,0,1,.2-1.1c.2-.3.6-.3,1.1.1a6.37,6.37,0,0,1,1.6,1.7c.3.5.2.7,0,.8a1.72,1.72,0,0,1-.8.1,7.6,7.6,0,0,1-1.1-.4c-.4-.2-.7-.4-.9-.5a2.64,2.64,0,0,0-.1-.7Z"/><path class="cls-33" d="M579.1,381.5a2.15,2.15,0,0,1,.2-1.1c.2-.3.6-.3,1.1.1a6.37,6.37,0,0,1,1.6,1.7c.3.5.2.7,0,.8a1.72,1.72,0,0,1-.8.1,7.6,7.6,0,0,1-1.1-.4c-.4-.2-.7-.4-.9-.5a1.29,1.29,0,0,1-.1-.7Z"/><path class="cls-33" d="M583.9,413a2.15,2.15,0,0,1,.2-1.1c.2-.3.6-.3,1.1.1a6.37,6.37,0,0,1,1.6,1.7c.3.5.2.7,0,.8a1.72,1.72,0,0,1-.8.1,7.6,7.6,0,0,1-1.1-.4c-.4-.2-.7-.4-.9-.5a2.64,2.64,0,0,0-.1-.7Z"/><path class="cls-32" d="M573.6,388.1a2.93,2.93,0,0,0-1-.3,3,3,0,0,0-1.2.2,2.41,2.41,0,0,0-1.2,1,.78.78,0,0,0,.2,1,2.42,2.42,0,0,0,1.4.3,6.46,6.46,0,0,0,2.1-.6c.5-.3.6-.6.5-.9s-.4-.5-.8-.7Z"/><path class="cls-32" d="M591.7,370.7a2.93,2.93,0,0,0-1-.3,3,3,0,0,0-1.2.2,2.41,2.41,0,0,0-1.2,1,.78.78,0,0,0,.2,1,2.42,2.42,0,0,0,1.4.3,6.46,6.46,0,0,0,2.1-.6c.5-.3.6-.6.5-.9a1.14,1.14,0,0,0-.8-.7Z"/><path class="cls-32" d="M591.3,391.9a2.93,2.93,0,0,1,1-.3,3,3,0,0,1,1.2.2,2.41,2.41,0,0,1,1.2,1,.78.78,0,0,1-.2,1,2.42,2.42,0,0,1-1.4.3,6.46,6.46,0,0,1-2.1-.6c-.5-.3-.6-.6-.5-.9s.5-.5.8-.7Z"/><path class="cls-32" d="M610.3,376.4a2.07,2.07,0,0,1,1-.6,4.3,4.3,0,0,1,1.2-.2c.5.1,1,.2,1.2.5a.8.8,0,0,1-.2,1,3,3,0,0,1-1.4.8,5.32,5.32,0,0,1-2.1.2.57.57,0,0,1-.5-.8c.2-.2.5-.6.8-.9Z"/><path class="cls-32" d="M582.6,390.9a2.93,2.93,0,0,0-1-.3,3,3,0,0,0-1.2.2,2.41,2.41,0,0,0-1.2,1,.78.78,0,0,0,.2,1,2.42,2.42,0,0,0,1.4.3,6.46,6.46,0,0,0,2.1-.6c.5-.3.6-.6.5-.9a5.72,5.72,0,0,0-.8-.7Z"/><path class="cls-32" d="M600.7,373.5a2.93,2.93,0,0,0-1-.3,3,3,0,0,0-1.2.2,2.41,2.41,0,0,0-1.2,1,.78.78,0,0,0,.2,1,2.42,2.42,0,0,0,1.4.3,6.46,6.46,0,0,0,2.1-.6c.5-.3.6-.6.5-.9a2.7,2.7,0,0,0-.8-.7Z"/><path class="cls-32" d="M590.1,402.5a2.93,2.93,0,0,0-1-.3,3,3,0,0,0-1.2.2,2.41,2.41,0,0,0-1.2,1,.78.78,0,0,0,.2,1,2.42,2.42,0,0,0,1.4.3,4.69,4.69,0,0,0,2.1-.6c.5-.3.6-.6.5-.9a1.78,1.78,0,0,0-.8-.7Z"/><path class="cls-26" d="M592.7,395.1c-.2.2-.4.3-.5.6a4.65,4.65,0,0,0-.3.9,4.3,4.3,0,0,0,.2,1.2.53.53,0,0,0,.7.2c.3-.1.5-.4.7-.9a5.26,5.26,0,0,0,.4-1.7c0-.5-.2-.6-.5-.7a2.51,2.51,0,0,0-.7.4Z"/><path class="cls-26" d="M613,378.9a2.18,2.18,0,0,0-.5.8c-.1.3-.2.6-.3,1a3.09,3.09,0,0,0,.2,1.1.48.48,0,0,0,.7,0,2.33,2.33,0,0,0,.7-1.1,7.42,7.42,0,0,0,.4-1.8c0-.5-.2-.6-.5-.5s-.4.3-.7.5Z"/><path class="cls-32" d="M609.9,385.1a3.08,3.08,0,0,0-1-.1,3.85,3.85,0,0,0-1.2.5,3.43,3.43,0,0,0-1.2,1.2.63.63,0,0,0,.2.9c.3.2.7.2,1.4,0a6.81,6.81,0,0,0,2.1-1c.5-.4.6-.7.5-1a2.18,2.18,0,0,0-.8-.5Z"/><path class="cls-32" d="M610.7,396.1a3.08,3.08,0,0,0-1-.1,3.85,3.85,0,0,0-1.2.5,3.43,3.43,0,0,0-1.2,1.2.63.63,0,0,0,.2.9c.3.2.7.2,1.4,0a6.81,6.81,0,0,0,2.1-1c.5-.4.6-.7.5-1a2.18,2.18,0,0,0-.8-.5Z"/><path class="cls-26" d="M571.7,394.8a1.56,1.56,0,0,0-.8.6,5.42,5.42,0,0,0-.6,1.1,2.9,2.9,0,0,0,0,1.6.87.87,0,0,0,.9.5,1.77,1.77,0,0,0,1.1-.9,5.9,5.9,0,0,0,.9-2c.1-.6-.1-.9-.4-.9A.9.9,0,0,0,571.7,394.8Z"/><path class="cls-26" d="M589.8,377.4a1.56,1.56,0,0,0-.8.6,5.42,5.42,0,0,0-.6,1.1,2.9,2.9,0,0,0,0,1.6.87.87,0,0,0,.9.5,1.77,1.77,0,0,0,1.1-.9,5.9,5.9,0,0,0,.9-2c.1-.6-.1-.9-.4-.9C590.6,377.1,590.2,377.2,589.8,377.4Z"/><path class="cls-26" d="M580.8,405.2a1.56,1.56,0,0,0-.8.6,5.42,5.42,0,0,0-.6,1.1,2.89,2.89,0,0,0,0,1.6.87.87,0,0,0,.9.5,1.77,1.77,0,0,0,1.1-.9,5.9,5.9,0,0,0,.9-2c.1-.6-.1-.9-.4-.9A1.39,1.39,0,0,0,580.8,405.2Z"/><path class="cls-26" d="M586,376a1.56,1.56,0,0,0-.8.6,5.42,5.42,0,0,0-.6,1.1,2.9,2.9,0,0,0,0,1.6.87.87,0,0,0,.9.5,1.77,1.77,0,0,0,1.1-.9,5.9,5.9,0,0,0,.9-2c.1-.6-.1-.9-.4-.9A1.39,1.39,0,0,0,586,376Z"/><path class="cls-28" d="M601.7,391a2.7,2.7,0,0,0-.8.7,6.66,6.66,0,0,0-.6,1.2,2.89,2.89,0,0,0,0,1.6.59.59,0,0,0,.9.3,2.79,2.79,0,0,0,1.1-1.1,7.37,7.37,0,0,0,.9-2.1c.1-.6-.1-.8-.4-.9a1.43,1.43,0,0,0-1.1.3Z"/><path class="cls-26" d="M601.2,395.7a4.25,4.25,0,0,0-1.1-.2,3.18,3.18,0,0,0-1.3.2,3.32,3.32,0,0,0-1.3.9.65.65,0,0,0,.2.9,3,3,0,0,0,1.6.3,15.54,15.54,0,0,0,2.3-.5c.5-.3.6-.6.5-.9A2.18,2.18,0,0,0,601.2,395.7Z"/><path class="cls-26" d="M601.3,401.6a2.7,2.7,0,0,0-.8.7,6.66,6.66,0,0,0-.6,1.2,2.89,2.89,0,0,0,0,1.6.59.59,0,0,0,.9.3c.4-.1.7-.5,1.1-1.1a7.37,7.37,0,0,0,.9-2.1c.1-.5-.1-.8-.4-.9a6.15,6.15,0,0,0-1.1.3Z"/><path class="cls-34" d="M572.8,409.8a1.1,1.1,0,0,1-.8,0,2.19,2.19,0,0,1-1-.6,4.12,4.12,0,0,1-1-1.3c-.2-.4-.1-.8.1-.9s.6-.1,1.2.1a5,5,0,0,1,1.7,1.1c.4.4.5.8.4,1s-.3.5-.6.6Z"/><path class="cls-26" d="M576.6,389.7c-.2-.3-.6-.6-1-.3a3,3,0,0,0-.8,1.6c-.1.5,0,.8.3,1a1.93,1.93,0,0,0,1,.3.63.63,0,0,0,.6-.5c.1-.2.1-.6.2-.9A5.27,5.27,0,0,0,576.6,389.7Z"/><path class="cls-26" d="M595.1,372.4a1,1,0,0,0-1.3-.4,3.2,3.2,0,0,0-1,2c-.1.7.1,1,.4,1.2a1.68,1.68,0,0,0,1.2.3,1.24,1.24,0,0,0,.8-.6,3.59,3.59,0,0,0,.2-1.1,2.54,2.54,0,0,0-.3-1.4Z"/><path class="cls-26" d="M584.1,400.3c-.2-.3-.6-.6-1-.3a3,3,0,0,0-.8,1.6c-.1.5,0,.8.3,1a1.93,1.93,0,0,0,1,.3.63.63,0,0,0,.6-.5c.1-.2.1-.6.2-.9A4.22,4.22,0,0,0,584.1,400.3Z"/><path class="cls-26" d="M579.6,399.2c-.2-.3-.6-.6-1-.3a3,3,0,0,0-.8,1.6c-.1.5,0,.8.3,1a1.93,1.93,0,0,0,1,.3.63.63,0,0,0,.6-.5c.1-.2.1-.6.2-.9A1.68,1.68,0,0,0,579.6,399.2Z"/><path class="cls-28" d="M603.9,385.1c-.2-.4-.6-.7-1-.2a6.63,6.63,0,0,0-.8,2.6c-.1.8,0,1.1.3,1.3a.92.92,0,0,0,1,.1,1,1,0,0,0,.6-.8c.1-.4.1-.8.2-1.4a9,9,0,0,0-.3-1.6Z"/><path class="cls-26" d="M604.7,396.1a.6.6,0,0,0-1-.1,3.33,3.33,0,0,0-.8,1.8q-.15.75.3.9a1.73,1.73,0,0,0,1,.1.9.9,0,0,0,.6-.6c.1-.3.1-.6.2-1C604.9,396.8,604.9,396.3,604.7,396.1Z"/><path class="cls-26" d="M585.5,392.6c-.2-.3-.6-.6-1-.3a3,3,0,0,0-.8,1.6c-.1.5,0,.8.3,1a1.93,1.93,0,0,0,1,.3.63.63,0,0,0,.6-.5c.1-.2.1-.6.2-.9A1.8,1.8,0,0,0,585.5,392.6Z"/><path class="cls-26" d="M598,376.6c-.2-.3-.6-.6-1-.3a3,3,0,0,0-.8,1.6c-.1.5,0,.8.3,1a1.93,1.93,0,0,0,1,.3.63.63,0,0,0,.6-.5c.1-.2.1-.6.2-.9A5.27,5.27,0,0,0,598,376.6Z"/><path class="cls-26" d="M577.4,397c-.2-.3-.6-.6-1-.3a3,3,0,0,0-.8,1.6c-.1.5,0,.8.3,1a1.93,1.93,0,0,0,1,.3.63.63,0,0,0,.6-.5c.1-.2.1-.6.2-.9A1.8,1.8,0,0,0,577.4,397Z"/><path class="cls-26" d="M594.3,403.2a.94.94,0,0,0-1.4-.4,5,5,0,0,0-1.2,2.3,1.41,1.41,0,0,0,.4,1.4,2.3,2.3,0,0,0,1.4.4,1.15,1.15,0,0,0,.9-.6,2.55,2.55,0,0,0,.2-1.3,3.43,3.43,0,0,0-.3-1.8Z"/><path class="cls-26" d="M575.6,409c-.2.3-.6.4-1,0a4.06,4.06,0,0,1-.8-1.9c-.1-.6,0-.8.3-.9a1.7,1.7,0,0,1,1,0,1.17,1.17,0,0,1,.6.6c.1.3.1.6.2,1A3.5,3.5,0,0,1,575.6,409Z"/><path class="cls-26" d="M580.9,379.8c-.2.3-.6.4-1,0a4.06,4.06,0,0,1-.8-1.9c-.1-.6,0-.8.3-.9a1.7,1.7,0,0,1,1,0,1.17,1.17,0,0,1,.6.6c.1.3.1.6.2,1A4.22,4.22,0,0,1,580.9,379.8Z"/><path class="cls-32" d="M573.9,386.5a2.09,2.09,0,0,0-1-.8,2.89,2.89,0,0,0-1.6,0,.94.94,0,0,0-.6.8c0,.3.3.4.6.5s.9,0,1.4.1a4.65,4.65,0,0,0,1.2,0q.3-.15,0-.6Z"/><path class="cls-32" d="M592,369a2.09,2.09,0,0,0-1-.8,2.89,2.89,0,0,0-1.6,0,.94.94,0,0,0-.6.8c0,.3.3.4.6.5s.9,0,1.4.1a4.65,4.65,0,0,0,1.2,0c.2,0,.2-.3,0-.6Z"/><path class="cls-32" d="M591,390.3a2.09,2.09,0,0,1,1-.8,2.89,2.89,0,0,1,1.6,0,.94.94,0,0,1,.6.8c0,.3-.3.4-.6.5s-.9,0-1.4.1a4.65,4.65,0,0,1-1.2,0q-.3-.15,0-.6Z"/><path class="cls-32" d="M610.5,374.7a3.54,3.54,0,0,1,1-1.2,4,4,0,0,1,1.6-.6.58.58,0,0,1,.6.6c0,.3-.3.5-.6.8s-.9.4-1.4.6a5.4,5.4,0,0,1-1.2.4C610.4,375.3,610.4,375,610.5,374.7Z"/><path class="cls-32" d="M573,411.4a1.37,1.37,0,0,1-1,.5,2.45,2.45,0,0,1-1.6-.6,1.37,1.37,0,0,1-.6-1c0-.3.3-.4.6-.3a10.26,10.26,0,0,1,1.4.4,2.78,2.78,0,0,1,1.2.4c.1.2.2.4,0,.6Z"/><path class="cls-32" d="M583.1,413.7a1.37,1.37,0,0,1-1,.5,2.45,2.45,0,0,1-1.6-.6,1.56,1.56,0,0,1-.6-1c0-.3.3-.4.6-.3a10.26,10.26,0,0,1,1.4.4,2.78,2.78,0,0,1,1.2.4c.1.2.2.4,0,.6Z"/><path class="cls-27" d="M574,392.6a1.27,1.27,0,0,0-.8-1.1,4.44,4.44,0,0,0-2.5.3c-.7.3-.9.6-1,1.1a1.14,1.14,0,0,0,.6,1.3,3.13,3.13,0,0,0,1.9-.1,7.11,7.11,0,0,0,1.5-.7.63.63,0,0,0,.3-.8Z"/><path class="cls-27" d="M592.1,375.2a1.27,1.27,0,0,0-.8-1.1,4.44,4.44,0,0,0-2.5.3c-.7.3-.9.6-1,1.1a1.14,1.14,0,0,0,.6,1.3,3.13,3.13,0,0,0,1.9-.1,5.29,5.29,0,0,0,1.5-.7.67.67,0,0,0,.3-.8Z"/><path class="cls-27" d="M581.5,403.1a1.27,1.27,0,0,0-.8-1.1,4.44,4.44,0,0,0-2.5.3c-.7.3-.9.6-1,1.1a1.14,1.14,0,0,0,.6,1.3,3.13,3.13,0,0,0,1.9-.1,5.29,5.29,0,0,0,1.5-.7.63.63,0,0,0,.3-.8Z"/><path class="cls-27" d="M586.7,373.9a1.27,1.27,0,0,0-.8-1.1,4.44,4.44,0,0,0-2.5.3c-.7.3-.9.6-1,1.1a1.14,1.14,0,0,0,.6,1.3,3.13,3.13,0,0,0,1.9-.1,7.11,7.11,0,0,0,1.5-.7c.4-.2.4-.4.3-.8Z"/><path class="cls-27" d="M575.3,380a1.26,1.26,0,0,1,1-.7,2.72,2.72,0,0,1,1.6.8,1,1,0,0,1,.3,1.1c-.2.4-.5.9-.9,1a1.57,1.57,0,0,1-1.3-.6,2.17,2.17,0,0,1-.8-.9.63.63,0,0,1,.1-.7Z"/><path class="cls-27" d="M577.1,402.1a1.27,1.27,0,0,0-.8-1.1,4.44,4.44,0,0,0-2.5.3c-.7.3-.9.6-1,1.1a1.14,1.14,0,0,0,.6,1.3,3.13,3.13,0,0,0,1.9-.1,7.11,7.11,0,0,0,1.5-.7.83.83,0,0,0,.3-.8Z"/><path class="cls-27" d="M592.4,411.2a1.18,1.18,0,0,0,.8-1.3,6,6,0,0,0-1.2-2.4,1.44,1.44,0,0,0-1.5-.6,1.5,1.5,0,0,0-1.2,1.1c-.1.6.4,1.3.8,1.9a5.24,5.24,0,0,0,1.3,1.3A.9.9,0,0,0,592.4,411.2Z"/><path class="cls-27" d="M575,396.7c-.2-.4-.4-.9-.8-.8a1.78,1.78,0,0,0-1,1.2,2,2,0,0,0,0,1.5c.2.5.5,1.1.8,1.1s.6-.4.8-.8a3.37,3.37,0,0,0,.4-1.2,1.16,1.16,0,0,0-.2-1Z"/><path class="cls-27" d="M591.1,397.3a2.39,2.39,0,0,0-1-1.8,6.81,6.81,0,0,0-3.1-.8c-.9,0-1.2.3-1.2.9a2.38,2.38,0,0,0,.7,2,4.9,4.9,0,0,0,2.4.8,3.57,3.57,0,0,0,1.9-.2C591.2,398,591.1,397.8,591.1,397.3Z"/><path class="cls-27" d="M601.3,388.4c-.1-.4-.2-.9-.8-.9a4.32,4.32,0,0,0-2.5.8,1.75,1.75,0,0,0-1,1.3,1,1,0,0,0,.6,1.2,3.61,3.61,0,0,0,1.9-.5,4.83,4.83,0,0,0,1.5-1,.86.86,0,0,0,.3-.9Z"/><path class="cls-27" d="M602.1,399.4c-.1-.4-.2-.9-.8-.9a5,5,0,0,0-2.5.7,1.75,1.75,0,0,0-1,1.3,1,1,0,0,0,.6,1.2,3.61,3.61,0,0,0,1.9-.5,4.83,4.83,0,0,0,1.5-1,.63.63,0,0,0,.3-.8Z"/><path class="cls-27" d="M573.1,405.3c0,.4-.2.9-.7.9a5.33,5.33,0,0,1-2.1-.9,1.73,1.73,0,0,1-.8-1.4c0-.5.1-1.1.5-1.2s1.1.3,1.6.6a8.12,8.12,0,0,1,1.3,1.1,2.39,2.39,0,0,1,.2.9Z"/><path class="cls-26" d="M577.8,389.3a1.72,1.72,0,0,0,.6,1.5c.3.3.7.2,1.1-.1a2.55,2.55,0,0,0,.9-1.2c.1-.4-.3-.7-.6-.9a1.39,1.39,0,0,0-1.1-.2c-.4.1-.9.4-.9.9Z"/><path class="cls-26" d="M595.9,371.8a1.72,1.72,0,0,0,.6,1.5c.3.3.7.2,1.1-.1a2.55,2.55,0,0,0,.9-1.2c.1-.4-.3-.7-.6-.9a1.39,1.39,0,0,0-1.1-.2c-.4.2-.9.5-.9.9Z"/><path class="cls-26" d="M587.2,412.7a2.64,2.64,0,0,1,.7-1.9c.4-.4.9-.2,1.4.1a3.38,3.38,0,0,1,1.1,1.4c.1.5-.3.8-.7,1.1a2,2,0,0,1-1.3.2A1.29,1.29,0,0,1,587.2,412.7Z"/><path class="cls-26" d="M585.3,399.8a1.72,1.72,0,0,0,.6,1.5c.4.3.7.2,1.1-.1a2.55,2.55,0,0,0,.9-1.2c.1-.4-.3-.7-.6-.9a1.39,1.39,0,0,0-1.1-.2c-.4.2-.9.4-.9.9Z"/><path class="cls-26" d="M605.1,384.3a1.54,1.54,0,0,0,.6,1.4c.3.2.7.1,1.1-.3a3.4,3.4,0,0,0,.9-1.3c.1-.4-.3-.6-.6-.8a2,2,0,0,0-1.1,0c-.4.2-.9.5-.9,1Z"/><path class="cls-26" d="M605.4,395.5a1.54,1.54,0,0,0,.6,1.4c.3.2.7.1,1.1-.3a3.4,3.4,0,0,0,.9-1.3c.1-.4-.3-.6-.6-.8a2,2,0,0,0-1.1,0,1.76,1.76,0,0,0-.9,1Z"/><path class="cls-26" d="M586.7,392.1a1.72,1.72,0,0,0,.6,1.5c.3.3.7.2,1.1-.1a2.55,2.55,0,0,0,.9-1.2c.1-.4-.3-.7-.6-.9a1.39,1.39,0,0,0-1.1-.2,1.59,1.59,0,0,0-.9.9Z"/><path class="cls-26" d="M599.5,376.9a1.72,1.72,0,0,0,.6,1.5c.3.3.7.2,1.1-.1a2.55,2.55,0,0,0,.9-1.2c.1-.4-.3-.7-.6-.9a1.39,1.39,0,0,0-1.1-.2c-.4.2-.9.4-.9.9Z"/><path class="cls-26" d="M578.6,396.6a1.72,1.72,0,0,0,.6,1.5c.4.3.7.2,1.1-.1a2.55,2.55,0,0,0,.9-1.2c.1-.4-.3-.7-.6-.9a1.39,1.39,0,0,0-1.1-.2,1.18,1.18,0,0,0-.9.9Z"/><path class="cls-26" d="M588.4,399.9a2.56,2.56,0,0,0,.6,1.9c.4.4.7.2,1.1-.1a3.69,3.69,0,0,0,.9-1.4c.1-.4-.3-.9-.6-1.1a1.39,1.39,0,0,0-1.1-.2c-.4-.1-.9.2-.9.9Z"/><path class="cls-26" d="M586.1,407.1a1.72,1.72,0,0,0,.6,1.5c.3.3.7.2,1.1-.1a2.55,2.55,0,0,0,.9-1.2c.1-.4-.3-.7-.6-.9a1.39,1.39,0,0,0-1.1-.2c-.4.2-.8.4-.9.9Z"/><path class="cls-26" d="M606.6,390.2a1.54,1.54,0,0,0,.6,1.4c.3.2.7.1,1.1-.3a3.4,3.4,0,0,0,.9-1.3c.1-.4-.3-.6-.6-.8a2,2,0,0,0-1.1,0,1.5,1.5,0,0,0-.9,1Z"/><path class="cls-26" d="M580.6,394.6a1.54,1.54,0,0,0,.6,1.4c.3.2.7.1,1.1-.3a3.4,3.4,0,0,0,.9-1.3c.1-.4-.3-.6-.6-.8a2,2,0,0,0-1.1,0,1.17,1.17,0,0,0-.9,1Z"/><path class="cls-26" d="M576.8,409.8a1.29,1.29,0,0,1,.6-1.3c.4-.2.7,0,1.1.5a3.69,3.69,0,0,1,.9,1.4c.1.4-.3.6-.6.7a1.17,1.17,0,0,1-1.1-.2,1.67,1.67,0,0,1-.9-1.1Z"/><path class="cls-26" d="M582,380.6a1.29,1.29,0,0,1,.6-1.3c.3-.2.7,0,1.1.5a3.69,3.69,0,0,1,.9,1.4c.1.4-.3.6-.6.7a1.17,1.17,0,0,1-1.1-.2,1.67,1.67,0,0,1-.9-1.1Z"/><path class="cls-33" d="M584.8,410.3a1.29,1.29,0,0,1,.6-1.3c.4-.2.7,0,1.1.5a3.69,3.69,0,0,1,.9,1.4c.1.4-.3.6-.6.7a1.17,1.17,0,0,1-1.1-.2c-.4-.2-.9-.6-.9-1.1Z"/><path class="cls-26" d="M579.9,387.3c.1.3.6.6,1,.9a8.12,8.12,0,0,1,.9,1c.2.3.5.6.7.5a5.93,5.93,0,0,0,.8-.8c.2-.4.4-.7.2-1a2.37,2.37,0,0,0-1.2-.9,3.43,3.43,0,0,0-1.6-.4C580.1,386.7,579.8,387,579.9,387.3Z"/><path class="cls-26" d="M598,369.7c.1.3.6.6,1,1a7.29,7.29,0,0,1,.9,1.1c.2.3.5.6.8.5a1.8,1.8,0,0,0,.8-.9c.2-.4.4-.7.2-1.1a4,4,0,0,0-3-1.4c-.4.2-.8.5-.7.8Z"/><path class="cls-32" d="M589.5,415c.1-.5.9-.9,1.5-1.4a6.1,6.1,0,0,0,1.3-1.6c.4-.5.7-.9,1.1-.8s.8.7,1.2,1.3.6,1.1.3,1.6a4.26,4.26,0,0,1-1.9,1.4,4.83,4.83,0,0,1-2.5.6c-.6-.1-1.1-.6-1-1.1Z"/><path class="cls-32" d="M580.9,409.1c.1-.3.6-.4,1-.6a7.05,7.05,0,0,0,.9-.7c.2-.2.5-.4.7-.3a4.87,4.87,0,0,1,.8,1c.2.4.4.8.2,1.1a1.71,1.71,0,0,1-1.2.6,2.19,2.19,0,0,1-1.6-.2c-.6-.2-.9-.6-.8-.9Z"/><path class="cls-22" d="M598.8,391.3a1.9,1.9,0,0,0-.9.3c-.3.2-.4.4-.4,1.1a6.82,6.82,0,0,0,.2,2.1.62.62,0,0,0,1.1.1,4.78,4.78,0,0,0,.6-1.8c.1-.6.2-.9.1-1.1a1.21,1.21,0,0,0-.5-.5C599,391.4,599,391.3,598.8,391.3Z"/><path class="cls-32" d="M598.3,405.2a5.24,5.24,0,0,0-.1,2.5.94.94,0,0,0,1.4.7c.6-.3,1.4-1.1,1.4-1.7s-.6-.8-1.1-1.1a4.64,4.64,0,0,1-1-1c-.2-.2-.4-.1-.6.6Z"/><path class="cls-22" d="M598.4,410.1a2.39,2.39,0,0,0,.3,1.5c.2.3.6.3,1.3-.3a13.38,13.38,0,0,0,2.3-2.5c.4-.7.2-.8-.3-.8a10.41,10.41,0,0,0-1.6.6,6.66,6.66,0,0,0-1.2.6,1.23,1.23,0,0,0-.8.9Z"/><path class="cls-26" d="M600.9,384.9a4.68,4.68,0,0,0-1.2,1.6c-.1.3.2.4.5.4a1.08,1.08,0,0,0,.8-.2,2.62,2.62,0,0,0,.5-.9,1.1,1.1,0,0,0,0-.8c-.1-.2-.2-.1-.4-.1Z"/><path class="cls-26" d="M608.1,377.1a9,9,0,0,0-1.9,1.6,2.68,2.68,0,0,0-.8,1.6.63.63,0,0,0,.7.7,4.76,4.76,0,0,0,1.8-.6,2.4,2.4,0,0,0,1-1,4.87,4.87,0,0,0,.1-1.2,2.22,2.22,0,0,0-.1-.9c-.1-.3-.3-.4-.8-.2Z"/><path class="cls-27" d="M603.3,403.9a6,6,0,0,0-.8,2.1,1.36,1.36,0,0,0,.5,1.2c.3.2.7.1,1.3-.3a4.28,4.28,0,0,0,1.5-1.8,1.18,1.18,0,0,0-.2-1.4,2.66,2.66,0,0,0-1-.6c-.3-.1-.5-.2-.7-.1A1.71,1.71,0,0,0,603.3,403.9Z"/><path class="cls-22" d="M607.7,399.9a7.22,7.22,0,0,0-.9,2c-.2.6,0,.9.3,1s.8-.1,1.4-.6a15.62,15.62,0,0,0,1.8-2.1c.4-.6.3-.6-.1-.7h-1.6c-.4-.1-.6-.1-.9.4Z"/><path class="cls-28" d="M611.9,382.6a8,8,0,0,0-1.8.4c-.4.2-.5.5-.3.8a3,3,0,0,0,1,.9,4.71,4.71,0,0,0,1.5.6,1.84,1.84,0,0,0,1.3-.1,1.6,1.6,0,0,0,.5-1,4.3,4.3,0,0,0-.2-1.2c-.2-.3-.4-.3-.7-.4a2.85,2.85,0,0,0-1.3,0Z"/><path class="cls-33" d="M611.1,386.5a11.76,11.76,0,0,0-.7,2,1.61,1.61,0,0,0,.7,1.4,4,4,0,0,0,1.5.6c.4.1.8.1,1-.2a2.23,2.23,0,0,0,.4-1.5,14,14,0,0,0-.2-2.3c-.2-.5-.5-.5-.9-.5s-.9-.1-1.2-.1S611.4,386,611.1,386.5Z"/><path class="cls-26" d="M614.2,394a4.49,4.49,0,0,1,0,2c-.2.6-.6.9-1.1.8a2.51,2.51,0,0,1-1.4-.6c-.4-.3-.6-.6-.5-.9a2.7,2.7,0,0,1,.9-1.1,6.07,6.07,0,0,1,1.4-.7C613.8,393.4,614.1,393.5,614.2,394Z"/><path class="cls-32" d="M613.3,391.1a5.55,5.55,0,0,0-1.7.3,1.71,1.71,0,0,0-.9.6.62.62,0,0,0,.1.7c.1.2.4.3.8.4a2.43,2.43,0,0,0,1.2,0c.4,0,.7,0,.9-.2a.6.6,0,0,0,.3-.6v-.8c-.2-.1-.3-.3-.7-.4Z"/><path class="cls-27" d="M608.8,392.1a6,6,0,0,0-.8.8.78.78,0,0,0-.1.8,3.55,3.55,0,0,0,.4.9,4.62,4.62,0,0,0,.7.7,1.2,1.2,0,0,0,.8.2.91.91,0,0,0,.7-.3,1,1,0,0,0,.2-1,4.59,4.59,0,0,0-.7-1.4,3.78,3.78,0,0,0-.5-.8.55.55,0,0,0-.5-.2c.1.1,0,.1-.2.3Z"/><path class="cls-26" d="M587.4,370.1a3.18,3.18,0,0,0-1.5,1.3,1.08,1.08,0,0,0,.5,1.2c.3.2.5.3.8,0a5.42,5.42,0,0,0,.6-1.1,2.65,2.65,0,0,0,.3-1C588.1,370.2,587.9,370,587.4,370.1Z"/><path class="cls-32" d="M598.2,379.7a6.7,6.7,0,0,0-2.4.2c-.7.2-.9.5-1,1a3.3,3.3,0,0,0,0,1.4.66.66,0,0,0,.7.6,2.89,2.89,0,0,0,1.7-.6,6.26,6.26,0,0,0,1.5-1.8c.1-.5.1-.7-.5-.8Z"/><path class="cls-33" d="M593.5,379.3a3.39,3.39,0,0,0-1.8.9,3.15,3.15,0,0,0-.9,1.7,1.59,1.59,0,0,0,.4,1.4,1.26,1.26,0,0,0,1.3.3c.5-.2.9-.9,1.3-1.6a5.37,5.37,0,0,0,.5-1.9.74.74,0,0,0-.8-.8Z"/><path class="cls-26" d="M589,382a9.34,9.34,0,0,0-1.5-1.3c-.5-.2-.8-.1-1.4.3a5.71,5.71,0,0,0-1.6,1.4c-.3.4,0,.7.7,1a19.8,19.8,0,0,0,2.6.6,3.35,3.35,0,0,0,1.8-.1.63.63,0,0,0,.2-.8A3.32,3.32,0,0,0,589,382Z"/><path class="cls-27" d="M692.5,460.1l-.2,34.3-53.5-10.3-1.7-33.9Z"/><path class="cls-26" d="M637.4,456.4l-.3-6.2,55.4,9.9v5.4Z"/><path class="cls-27" d="M681.3,388.2l-44.2,62,55.4,9.9.4-70.4Z"/><path class="cls-35" d="M652.2,452.9l40.4-62.8"/><path class="cls-35" d="M670,456.1l22.5-42.2"/><path class="cls-35" d="M687,459.7l5.3-12.4"/><path class="cls-35" d="M638,467.2l54.5,9.2"/><path class="cls-35" d="M638.6,479.8l52.8,9.4"/><path class="cls-36" d="M185.4,360.1c-2.4.1-3.2-.6-2.5-2.1a6.42,6.42,0,0,1,5.7-4.2l8.6-.3q2.55-.3,2.7,1.5c-.5,3.6-2.2,5.3-5.1,5.2-6.2-.1-9.4-.1-9.4-.1Z"/><path class="cls-36" d="M149.8,351.2c.2,1.1,2.2,2.5,6.2,3.2,2,.4,2.8-2.4,1.8-4.1-3-4-5-5.6-6.1-4.8A7.37,7.37,0,0,0,149.8,351.2Z"/><path class="cls-7" d="M184.1,368.1c1.6-.1,3.1.8,4.4,2.6-9.9,1.2-19,.6-28.5-2.9-7.1-2.6-7.7-5.7-4.4-4.6a148,148,0,0,0,28.5,4.9Z"/><path class="cls-7" d="M265.1,323.3c-4.8,0-9,5.7-9.5,12.6s3,12.6,7.8,12.6,9.1-5.7,9.5-12.6S269.9,323.3,265.1,323.3Z"/><path class="cls-5" d="M266.4,344.9c3,0,5.5-4.4,5.5-9.7s-2.5-9.7-5.5-9.7-5.5,4.4-5.5,9.7S263.4,344.9,266.4,344.9Z"/><path class="cls-7" d="M160.8,352.8a9.8,9.8,0,0,0,.7,2.7,3.43,3.43,0,0,0,2,1.7,11.07,11.07,0,0,0,3,.5c.7,0,.9-.2,1-.9a6.31,6.31,0,0,0-.2-2.7c-.2-.8-.7-1.1-1.7-1.4a24.18,24.18,0,0,0-3.6-1c-.9-.2-1.1-.2-1.2,0S160.7,352.1,160.8,352.8Z"/><path class="cls-7" d="M178.5,355.2a8.09,8.09,0,0,1-.8,2.5,2.59,2.59,0,0,1-2.3,1.1,13.83,13.83,0,0,1-3.6-.3c-.9-.2-1.1-.4-1.2-1.1a5.76,5.76,0,0,1,.2-2.6c.3-.7.8-.9,2-1a30.84,30.84,0,0,1,4.3,0c1.1.1,1.4.1,1.5.3a7.47,7.47,0,0,1-.1,1.1Z"/><path class="cls-7" d="M252.4,304.7c-6.6,2.9-9.9,4.4-9.9,4.4a54.76,54.76,0,0,1,2.7,10.6c7.1-4,10.7-5.9,10.7-5.9C255.6,309.7,254.4,306.7,252.4,304.7Z"/><path class="cls-7" d="M257.7,302.6l-4.2,1.8a13.06,13.06,0,0,1,3.7,8.3c3.1-2.1,4.6-3.1,4.6-3.1C261.1,305.9,259.7,303.5,257.7,302.6Z"/><path class="cls-3" d="M35.3,270.8,0,265.2l.3,4,35,5.9Z"/><path class="cls-31" d="M507.2,241.7c-.6.8-.5,2.2.4,4.1l19.3,1.5c.1-2.4.2-3.5.2-3.6-13.2-1.3-19.9-2-19.9-2Z"/><path class="cls-17" d="M525.3,81.7,358.7,78.5l-.9,130,197.7,25.3-1.4-110.6Z"/><path class="cls-27" d="M193.8,282.6l86.4,12.3,70.4-36.6,145.3,17.8-12.7,8.4,75.3,9.9L557.4,234,425.3,218.6l-41.7,29.6L311,237.6l-20.5,12.2-98.7-21.4Z"/><path class="cls-17" d="M194.8,247.2v-2.3l31.9,4.5-2.4,2Z"/><path class="cls-17" d="M224.2,251.4l.6,29.4,2.4-2.3-.6-29.1Z"/><path class="cls-20" d="M194.8,247.2l.6,29.2,29.4,4.4-.6-29.4Z"/><path class="cls-31" d="M554.5,155.8l-25.3-2.5,1.2,83.1,3.7-1.6L533,157.1l21.6,2.3Z"/><path class="cls-8" d="M555.6,241.8l-1-82.5L533,157l.4,79.8Z"/><path class="cls-9" d="M555.6,241.8l-22.2-4.9,21.2-77.6Z"/><path class="cls-13" d="M528.6,273.3c-19.8-16.2-29.7-24.2-29.7-24.2,1-2.4,2.9-3.5,5.8-3.5,14.8,1.2,22.2,1.7,22.2,1.7,17.9-12.2,26.9-18.3,26.9-18.3l-21-2.4A3,3,0,0,1,536,224c13,1.3,19.5,1.9,19.5,1.9.3,21.3.4,32,.4,32-12.8,9.1-19.3,13.7-19.3,13.7a12.58,12.58,0,0,1-8,1.7Z"/><path class="cls-6" d="M503.7,247.8c-2.8-.5-4.4,0-4.8,1.3,0,12.3-.1,18.5-.1,18.5.2,1.7,1.6,2.7,4.3,2.8l24.5,3a3.62,3.62,0,0,0,4.1-3.2c.3-11.3.4-16.9.4-16.9-.2-1.8-1.4-2.9-3.6-3.2C512,248.5,503.7,247.8,503.7,247.8Z"/><path class="cls-30" d="M526.9,247.4c-9.2-1.4-13.8-1.7-13.9-1.1,10-6.6,16.7-10.4,20-11.6-.1-5.4-.2-8.1-.2-8.1l21,2.4c-17.9,12.2-26.9,18.3-26.9,18.4Z"/><path class="cls-3" d="M262.9,49.5l-3.9-.2,1.5,103.1,4,.7Z"/><path class="cls-22" d="M421.8,163.2,276.5,148.7l37.8-11.8,62.8,6.7,49.5-19.4,65.9,7.4Z"/><path class="cls-5" d="M464.3,99.9a6.62,6.62,0,0,0-1.5-.1l-.3,30.9a7.75,7.75,0,0,1-7.1,6.2c4.1,2,9.5,2,16.4.1-3.8-.4-6.1-2.5-7.1-6.2C464.6,130.8,464.5,120.5,464.3,99.9Z"/><path class="cls-20" d="M490.9,101.2l1.6,30.4-.2-33.3-51.1,19.3.7,36.5,1.1-34.7Z"/><path class="cls-20" d="M378.2,109.3l-1.1,34.3L376,108.2l48-16.3v9.9l-1.2-7.3Z"/><path class="cls-31" d="M426.5,125.7c-9.2,1.2-15.7-1-19.7-6.4-7.8-9.1-8.4-14.8-1.9-17.1,5.6-1.6,10.3-1.1,14.1,1.6,3.2,2.6,2.9,6-1,10.3-3,2.9-3.3,5.4-1,7.5,2.1.6,4-1,5.7-4.9,1.7-4.3,4.6-6.6,8.1-4.9,7.9,3.8,3.5,11.1-4.3,13.9Z"/><path class="cls-37" d="M416.5,125.4H415V137h1.5Z"/><path class="cls-37" d="M432.3,135.4H399.8v2.1h32.5Z"/><path class="cls-38" d="M417.3,135.9h-2.6v3.4h2.6Z"/><path class="cls-30" d="M407.8,115.4c-2.7.3-4.6,1.8-2.6,6.4,3.1,5.6,10.2,6.9,21.3,3.8-6.1.4-10.2-1.6-12.3-5.9-.9-2.8-3.1-4.3-6.4-4.3Z"/><path class="cls-11" d="M421.8,175.4,362,168.2l.9,77.1,17.6,2.6Z"/><path class="cls-5" d="M374.6,186.9l4.6-1.6,17.7,1-3.7,1.9Z"/><path class="cls-5" d="M374.7,193.6l-5.1,1.4,8.4.9,3.5-1.8Z"/><path class="cls-5" d="M369.6,201.8l-4.6,1.6,12,1.9v-2.6Z"/><path class="cls-5" d="M377.1,223.1V226l-14.5-2.4v-3Z"/><path class="cls-5" d="M362.7,232.6v-2.9l14.5,2.5v3Z"/><path class="cls-39" d="M362,168.2l.4,45.2"/><path class="cls-11" d="M626.5,102.2l-59.7,22.4.1,171.6L626.7,245Z"/><path class="cls-30" d="M576.1,287.4l50.7-42.5.2-14.4L748,246l-48.4,58Z"/><path class="cls-20" d="M608.1,131.9c-1.1.5-1.6.7-1.6.7.2,7.7.3,11.6.3,11.6q-.15,1.2-2.1,1.5c-15.5,3.5-23.3,5.3-23.3,5.3-1,.3-1.4,1.3-1.4,3q-.45,130.5-.5,130.6c1-.3,1.6-.8,1.6-1.4q.9-128.85.9-128.9a1.2,1.2,0,0,1,1.2-1.5c15.2-3.7,22.8-5.6,22.8-5.6a3,3,0,0,0,2.5-3c-.2-8.2-.4-12.3-.4-12.3Z"/><path class="cls-13" d="M686.9,197l11.9,102,4.2-4.7-.5-99.3-11.1-.6-4.5,2.6Z"/><path class="cls-13" d="M725.7,163.7l11,91.3,3.9-4.2-.5-89.2-10.3-.5-4.1,2.6Z"/><path class="cls-6" d="M699.2,197.9,687,197l-.8,100.4,12.7,1.6Z"/><path class="cls-6" d="M737,164.2l-11.3-.8-.7,90.2,11.7,1.4Z"/><path class="cls-31" d="M624.3,247.3,582.9,282l-.2-93.6,41.1-23.9Z"/><path class="cls-8" d="M583.4,190.4l4.8-2.7.2,78.9-5.5,4.1Z"/><path class="cls-8" d="M602.1,179.3l-11.6,7.2v78.4L603,254.8Z"/><path class="cls-28" d="M191.7,246.4l5.2-2.5,52.8,8.1-.2-29.4L197,215.5l-7.3,3.2-.2,29.6Z"/><path class="cls-31" d="M582.9,282v-8l34.2-27.3,7.1.5Z"/><path class="cls-8" d="M616.8,171.5l-12.6,7,.9,74.9,12-9Z"/><path class="cls-9" d="M588.4,266.5l-.2-78.9-5.3,83Z"/><path class="cls-9" d="M602.9,254.9l-.9-75.6L590.5,265Z"/><path class="cls-9" d="M617.1,244.4l-.4-72.9-11.6,81.9Z"/><path class="cls-4" d="M590.5,178.7a4.69,4.69,0,0,1-3.5-4.3q67.05,6.45,111.1,10.5c-.4,3-.5,4.2-.5,3.6q-107.1-9.75-107.1-9.8Z"/><path class="cls-26" d="M698.9,184.3h-8.3l-.3,12.2,8.6.5Z"/><path class="cls-26" d="M698.8,197l39.4-35.4.1-6.4-39.4,29.1Z"/><path class="cls-27" d="M739.9,152.1l-4.6,2.3.3,4.6,4.6-3Z"/><path class="cls-26" d="M735.3,154.4l.3,4.6-112.1-9.6.2-5.6Z"/><path class="cls-27" d="M735.3,154.4,623.6,143.8l5.9-1.8,110.4,10.1Z"/><path class="cls-27" d="M734,157.2l-4.5,2.4.3,5,4.6-3.3Z"/><path class="cls-26" d="M729.5,159.7l.3,5L619,154.3l.2-6Z"/><path class="cls-27" d="M729.5,159.7,619.1,148.3l5.8-1.9L734,157.2Z"/><path class="cls-27" d="M728.2,161.9l-4.4,2.6.3,5.3,4.5-3.5Z"/><path class="cls-26" d="M723.7,164.5l.3,5.3-108.8-11,.2-6.3Z"/><path class="cls-27" d="M723.7,164.5l-108.3-12,5.7-2.1,107.1,11.5Z"/><path class="cls-27" d="M721.3,167.3l-4.5,2.6.3,5.4,4.5-3.6Z"/><path class="cls-26" d="M716.8,169.9l.3,5.4L606.2,164.1l.2-6.4Z"/><path class="cls-27" d="M716.8,169.9,606.3,157.6l5.8-2.1,109.2,11.7Z"/><path class="cls-27" d="M714.7,172.1l-4.7,2.8.3,5.6,4.7-3.7Z"/><path class="cls-26" d="M710,174.9l.3,5.6L594.5,168.8l.2-6.7Z"/><path class="cls-27" d="M710,174.9,594.6,162.1l6.1-2.2,114,12.2Z"/><path class="cls-27" d="M707.4,177.5l-4.9,2.8.3,5.8,4.9-3.8Z"/><path class="cls-26" d="M702.5,180.3l.3,5.8-119-12,.2-6.9Z"/><path class="cls-27" d="M702.5,180.3,584,167.1l6.2-2.2,117.2,12.6Z"/><path class="cls-40" d="M594,165.8c-5,1.2-7.4,1.8-7.4,1.8,69.3,7,103.9,10.6,103.9,10.6,1.3-2,2-1.9,2.3.5,3.4.3,5.1.5,5.1.5.7-6.8,1.5-9.2,2.3-7,3,.2,4.6.2,4.6.2.6-6.7,1.2-8.7,2-5.8l5.1.3c.3-6.1.9-7.9,1.8-5.5,3.3.1,4.9.1,4.9.1.5-4.1.7-6.2.7-6.2-66-5.7-99.1-8.5-99.1-8.5-.5.5-.8,2-.9,4.7-4.3-.5-6.4-.8-6.4-.8-.9,0-1.6,1.8-2,5.4l-6.8-.6q-1.2.45-1.5,6.3c-4.2-.5-6.3-.8-6.3-.8-1.2.4-2,2-2.3,4.8Z"/><path class="cls-41" d="M591.1,166.5,692,176.8"/><path class="cls-41" d="M699.6,171.4,596.4,160.9"/><path class="cls-41" d="M604.3,155.3l101.9,9.9"/><path class="cls-41" d="M613.1,150.5l100.1,9.7"/><path class="cls-3" d="M241,288.6l1.6,9.1,56.1,11-.1-4.2L280.5,301l-.4-6.1-31.6-5.3Z"/><path class="cls-3" d="M294,302.9l.2,5.2,34,5-.2-5.9Z"/><path class="cls-31" d="M1,265.1l220.4,37.6,27.1-13.1-53-7.6-9.3,4.4L99.7,271.7l-1.2-43Z"/><path class="cls-13" d="M22.9,180l8.5,83,7.2-2.7L37.9,179l-8.7-.6L22.9,180Z"/><path class="cls-42" d="M13.4,174.3l.1,10.6,10.9,9"/><path class="cls-6" d="M31.7,180.7l-8.8-.7v81.6l8.5,1.4Z"/><path class="cls-11" d="M221.4,302.7l1.2,8.6L248.7,299l-.2-9.4Z"/><path class="cls-26" d="M27.6,173.3l-3.8.3v7.1l3.9.3v-7.7Z"/><path class="cls-43" d="M27.6,173.3V181l70.2-22-.3-6.4Z"/><path class="cls-26" d="M15.7,173.9l1.4,4.4,80.1-35.2.1-5.8Z"/><path class="cls-30" d="M97.5,153.5,30.8,172.3l66.4-29.2Z"/><path class="cls-11" d="M8.6,174l91.5-41.6-.1,4L9.4,176.7Z"/><path class="cls-31" d="M11.4,172.7l86.2-39.2.3-4.1L6.2,172Z"/><path class="cls-11" d="M258.9,49.2,188,44.8l-1,91.3,73.3,6.9Z"/><path class="cls-17" d="M187.1,136.1l1.1-100.5-63.7,65.9,11.7,41.8,9.9,4.1Z"/><path class="cls-4" d="M133.3,147.4l10.8,13.1,73,9.3L264.5,153l-4-.7-.1-9.3-73.3-6.9Z"/><path class="cls-3" d="M135.2,98.4h-39l3.6,173.4,86.5,14.7-2.5-116.6-46.9-6.7Z"/><path class="cls-3" d="M128.7,116.1l-42.6-2.7L84,116.9l41.2,3.2Z"/><path class="cls-22" d="M187,219.8l10-4.2-.1,28.3-7.4,4.5Z"/><path class="cls-11" d="M183.7,169.9l2.5,116.6,9.3-4.4-.9-40.2-4.6,2-.9-77.6L144,160.6l-1.7-65-7.2,2.9,1.6,64.8Z"/><path class="cls-3" d="M190,241.3v2.6l4.6-2Z"/><path class="cls-44" d="M87,116.3l.3,6.1,14.3,5.5,2,144.5"/><path class="cls-3" d="M568.1,412.5l-1.2-287.8-12.8-6.3,3.7,291.9Z"/><path class="cls-3" d="M483.5,291.6l-.3-7.1,73,9.5.1,7.7Z"/><path class="cls-5" d="M280.3,294.8l.2,6.2,71.2-37.3,136.4,17.6,7.8-5.2L350.1,258.3Z"/><path class="cls-3" d="M298.6,304.5,280.5,301l71.2-37.3,136.7,17.4-5.2,3.4.2,4.5L358.7,271.5Z"/><path class="cls-30" d="M62.1,107.6l3.3,3.4,63.4,5.1,2.5-2.8Z"/><path class="cls-31" d="M184.2,192.5l-.1-4.3-50.5-6,1.9,58.7,49.9,8-.1-4.8-46.2-6.7-1.7-51Z"/><path class="cls-8" d="M184.2,192.5l-38.8-4.9.8,46.7,38.8,5.6Z"/><path class="cls-45" d="M185.3,244.2l-46.2-6.7,7.1-3.2,38.8,5.6Z"/><path class="cls-45" d="M139.1,237.5l7.1-3.2-.8-46.7-8-1Z"/><path class="cls-45" d="M163.2,189.8l1.3,47.1,5,.7-1.1-47.2Z"/><path class="cls-9" d="M146.2,234.3l17-44.5,1.3,47.1Z"/><path class="cls-9" d="M185,239.9l-15.4-2.2,14.6-45.2Z"/><path class="cls-17" d="M283.2,160.3l1.2,89.3,4.1.9L309,238.3l38.4,5.6-.4-77.6Z"/><path class="cls-4" d="M371.8,169.4,333,165l14.2,36,15.2,10.9,2.5-.8v-7.6l4.6-1.6V195l5.1-1.4-.1-6.6,4.6-1.6-.2-7h-3V173h-4.6Z"/><path class="cls-5" d="M357.2,167.6l1.6,99.8,4.3-2.3L362,168.2Z"/><path class="cls-4" d="M418.2,175.7l5.5.2,89,8.3,3.3-2.4-93.1-8.9Z"/><path class="cls-3" d="M421.8,163.2,276.5,148.7v10.9l70.6,6.7.5,99.5,11.2,1.6-1.6-99.8,64.6,7.8V163.2Z"/><path class="cls-11" d="M421.8,175.4V163.3l70.7-31.6.2,8.8Z"/><path class="cls-11" d="M423.3,224.3l-41.6,24.6-.3-51.7,42.3-21.3Z"/><path class="cls-3" d="M381.4,197.2l.3,51.7-4.5-.7-.3-51.9Z"/><path class="cls-4" d="M418.2,175.7,377,196.4l4.4.8,42.3-21.3Z"/><path class="cls-4" d="M442.8,224.3l-.1-43.8,13.3,1.4v44.6Z"/><path class="cls-17" d="M456,181.9l-9.3-.9-.1,44,9.3,1.6V181.9Z"/><path class="cls-3" d="M423.3,224.3l.4-48.4,89,8.3-.7,52.4Zm23.4.6,9.3,1.6V181.9l-13.3-1.4.1,43.8,3.9.6Z"/><path class="cls-11" d="M512.7,184.3l-.7,52.3,3.7-1.9.2-52.8Z"/><path class="cls-20" d="M500.8,200.6l-34.5-2.5-.1,28.4,34.4,4.4Z"/><path class="cls-4" d="M495.8,204.6l-24.9-1.8-.4,19.9,25.1,2.9Z"/><path class="cls-46" d="M492.9,206.9,474,205.3l-.3,15.3,19.4,1.7Z"/><path class="cls-47" d="M291,249l-.3-72.8,15.1-6.3.3,70.1Z"/><path class="cls-31" d="M468.6,263.6l-48-6.9,29.2-18.1,46.5,5.4Z"/><path class="cls-30" d="M423.6,224.7l-7.7-.6.4,11.7,7.9,1.4Z"/><path class="cls-7" d="M420.8,200.5,406,207l1.1,25.5,14.5-8.4Z"/><path class="cls-31" d="M409.4,237.9l14.5-9-7.7-.7-15.8,8.5Z"/><path class="cls-30" d="M409.1,232.2l-8.6-.7.5,13.1,8.8,1.6Z"/><path class="cls-7" d="M393.2,225.1a12,12,0,0,1-1.3,2.5,4.11,4.11,0,0,0-.5,2.9,27.13,27.13,0,0,0,.9,5.1c.4,1.3.8,1.5.7,2.1a10.89,10.89,0,0,0-.6,2.8,11.37,11.37,0,0,0,.8,4.3,2.8,2.8,0,0,0,1.2,1.5c.3.2.4.5.2.7s-.7.2-1.1.2a2,2,0,0,0-1.1.2,1.4,1.4,0,0,0-.3.9c0,.3.1.4,1.3.5a33.78,33.78,0,0,0,4.5,0c1.1-.1,1.1-.6.5-.9a17.6,17.6,0,0,0-2-.9c-.5-.3-.4-.5-.4-.7a.5.5,0,0,0-.1-.7,3.38,3.38,0,0,1-1.7-1.4,7.63,7.63,0,0,1-.6-3.4,3.34,3.34,0,0,1,.6-2.3,1.4,1.4,0,0,1,1.4-.5,1.77,1.77,0,0,1,.8,1.4,9.63,9.63,0,0,1,0,2.4,21.11,21.11,0,0,0-.3,2.1c0,.6.1,1.2.3,1.3s.6-.3.9-1.3a36.52,36.52,0,0,0,.7-4c.2-1.3.3-2.1-.2-2.7a3.73,3.73,0,0,0-2.3-1c-.8-.1-1.2-.1-1.6-1.3a15.72,15.72,0,0,1-.8-4.9c0-1.4.6-1.9,1.3-1.4a10.4,10.4,0,0,1,2.5,2.6,10.8,10.8,0,0,1,1.3,1.8c.3.6.5,1.4.7,1.5s.4-.8.2-2.2a35.74,35.74,0,0,0-1.1-4.7c-.4-1.3-.6-1.8-.6-1.3s.4,2,.4,2.8-.6.9-1.2.1a7.46,7.46,0,0,1-1.4-3c-.1-.8.4-1,.9-1s.9.3,1.1.1a3.13,3.13,0,0,0,.1-1.8,5.3,5.3,0,0,0-.6-2.2c-.3-.4-.6,0-1.4-.2s-2.2-.9-3-1-.9.3-.8.9a5.6,5.6,0,0,0,.8,2c.3.9.9,1.4.9,2.1Z"/><path class="cls-31" d="M506.5,157.1c-13.3-.9-19.9-1.4-19.9-1.4v13c13.3.9,20,1.1,20,1.1,0-8.2-.1-12.7-.1-12.7Z"/><path class="cls-27" d="M505.3,158.1c-11-.7-17.5-1.2-17.5-1.2,0,6.8.1,10.5.1,10.5,11.1.8,17.6,1.3,17.6,1.3-.1-6.9-.2-10.6-.2-10.6Z"/><path class="cls-27" d="M217.2,181.7,191.5,178l.9,18.1,62.2,7.4-.3-35.5Z"/><path class="cls-33" d="M254.1,167.9l.3,35.5,6-2.5-.4-35.2Z"/><path class="cls-33" d="M192.3,178l-3.1-.5.3,19.2,3.3-.8Z"/><path class="cls-23" d="M220.2,199.3l-.4-18.6"/><path class="cls-23" d="M236.7,174.4l.6,26.9"/><path class="cls-23" d="M205.3,179.9l.2,17.6"/><path class="cls-13" d="M189.7,216.9l-.1-7.1,5.8-1.7,65.2,7.4-11.2,5.1-52.5-6.7Z"/><path class="cls-30" d="M197,213.9l-7.3,2.9v1.8l7.3-3.2,52.5,7.1-.1-2Z"/><path class="cls-31" d="M260.6,215.6l-11.2,5.1.1,2,11-5.4Z"/><path class="cls-22" d="M260.6,217.2l-11,5.4.2,29.4,10.7-7.6Z"/><path class="cls-29" d="M220.5,218.7v28.8"/><path class="cls-29" d="M234.1,220.5l-.3,29"/><path class="cls-29" d="M208.3,217l-.2,28.5"/><path class="cls-3" d="M276.5,159.6l-16.4,6.1.3,78.6,24,5.2-1.2-89.3Z"/><path class="cls-17" d="M300.9,251.6c-.2-1.4-.8-1.7-1.6-.9-.1,11.5-.1,17.3-.1,17.3a1.38,1.38,0,0,0,1.6.2C300.8,257.1,300.9,251.6,300.9,251.6Z"/><path class="cls-20" d="M297.6,234.8c7.5.2,7.5.5,15,.6a109.78,109.78,0,0,0-1.2,20.2,113.92,113.92,0,0,0-14.9-4.1C296.1,243.9,295.7,242.7,297.6,234.8Z"/><path class="cls-5" d="M294.6,251.4c6.8,2.4,16.7,2.4,16.7,2.4,0,.3,1.1,1.8-.4,2-3,.5-11.4,1.8-14.6,1.9-4.8.1-9.1-2-11.2-5.2-.9-1.4-1.2-2.1-.1-2.2C292,249.4,294.6,251.4,294.6,251.4Z"/><path class="cls-5" d="M309.5,255.8l1.9-.3c1,10.6,1.4,15.9,1.4,15.9-.1.7-.7.9-1.6.5-1.1-10.7-1.7-16.1-1.7-16.1Z"/><path class="cls-17" d="M295.8,257.9a6,6,0,0,0-.7-.3l.6,16.5c.9.6,1.6.5,2-.2-.4-10.8-.5-16.2-.5-16.2C296.3,257.8,295.8,257.9,295.8,257.9Z"/><path class="cls-17" d="M285.8,253c-.2-1.4-.8-1.7-1.6-.9-.1,11.5-.1,17.3-.1,17.3a1.38,1.38,0,0,0,1.6.2C285.8,258.5,285.8,253,285.8,253Z"/><path class="cls-31" d="M258.1,239.8l59.1,5.3-17.9,9.7-59.6-6.7Z"/><path class="cls-3" d="M299.3,254.8l-59.6-6.7.5,29.2,3,.5-.3-26.5,53.5,6.1,1,26,3.3.1Z"/><path class="cls-5" d="M317.2,245.1l-17.9,9.7,1.3,28.7,2-1.1-.9-26.4,13.9-7.8.6,27.5,2-1.1Z"/><path class="cls-4" d="M315.5,248.2l-1.8,1,.7,25.8,1.8.7Z"/><path class="cls-5" d="M245,251.6l-2.1-.4.2,26.6,1.9-1.4Z"/><path class="cls-17" d="M272.2,261.6c.2-1.4.8-1.7,1.6-.9.1,11.5.1,17.3.1,17.3a1.38,1.38,0,0,1-1.6.2Z"/><path class="cls-20" d="M275.8,246.1c-8-1-8.1-.9-15.4-1.8a112.15,112.15,0,0,1,1.3,21.2c10.4,1.5,15.6,2.3,15.6,2.3.3-7.6.4-13.8-1.5-21.7Z"/><path class="cls-17" d="M277.5,259.5c-.1,5.5-.2,8.3-.2,8.3,7.1-3.5,10.7-5.3,10.7-5.3,1.6-.5,1.2-2.1.1-2.2a60.38,60.38,0,0,0-10.6-.8Z"/><path class="cls-5" d="M263.6,265.8l-1.9-.3c-1,10.6-1.4,15.9-1.4,15.9.1.7.7.9,1.6.5,1.1-10.8,1.7-16.1,1.7-16.1Z"/><path class="cls-17" d="M277.3,267.8a6,6,0,0,1,.7-.3l-.6,16.5c-.9.6-1.6.5-2-.2.4-10.8.5-16.2.5-16.2.9.1,1.4.2,1.4.2Z"/><path class="cls-17" d="M287.3,262.8c.2-1.4.8-1.7,1.6-.9.1,11.5.1,17.3.1,17.3a1.36,1.36,0,0,1-1.6.2C287.3,268.3,287.3,262.8,287.3,262.8Z"/><path class="cls-17" d="M244.3,260.2c.2-1.4.8-1.7,1.6-.9.1,11.5.1,17.3.1,17.3a1.38,1.38,0,0,1-1.6.2C244.4,265.7,244.3,260.2,244.3,260.2Z"/><path class="cls-20" d="M247.9,244.7c-8-1-8.1-.9-15.4-1.8a112.15,112.15,0,0,1,1.3,21.2c10.4,1.5,15.6,2.3,15.6,2.3.3-7.6.4-13.8-1.5-21.7Z"/><path class="cls-17" d="M249.6,258.1c-.1,5.5-.2,8.3-.2,8.3,7.1-3.5,10.7-5.3,10.7-5.3,1.6-.5,1.2-2.1.1-2.2a60.38,60.38,0,0,0-10.6-.8Z"/><path class="cls-5" d="M235.7,264.4l-1.9-.3c-1,10.6-1.4,15.9-1.4,15.9.1.7.7.9,1.6.5,1.1-10.8,1.7-16.2,1.7-16.1Z"/><path class="cls-17" d="M249.4,266.3a6,6,0,0,1,.7-.3l-.6,16.5c-.9.6-1.6.5-2-.2.4-10.8.5-16.2.5-16.2a7.21,7.21,0,0,0,1.4.2Z"/><path class="cls-17" d="M259.4,261.4c.2-1.4.8-1.7,1.6-.9.1,11.5.1,17.3.1,17.3a1.36,1.36,0,0,1-1.6.2C259.4,266.9,259.4,261.4,259.4,261.4Z"/><path class="cls-31" d="M442.3,222.5c-.2-.1-.3-.1.6-.1s2.8-.2,3.9-.2,1.3.1,1.5.4a1.52,1.52,0,0,1,.4.8c0,.3-.1.5-.9.9s-2.3,1-2.9,1.3-.6.3-.5,0a3.42,3.42,0,0,0,.1-1.1c0-.4.1-.7-.1-1a1.83,1.83,0,0,0-1-.7A8.11,8.11,0,0,1,442.3,222.5Z"/><path class="cls-30" d="M444.6,223.3c-.2-.1-.3-.1.8-.1s3.4-.2,4.6-.2,1.5.1,1.8.4a1.77,1.77,0,0,1,.5.8c0,.3-.2.5-1.1.9s-2.7,1-3.5,1.3-.7.3-.6,0a3.42,3.42,0,0,0,.1-1.1c0-.4.1-.7-.2-1a2,2,0,0,0-1.2-.7,4.91,4.91,0,0,0-1.2-.3Z"/><path class="cls-30" d="M445,220.7c-.2-.1-.3-.1.7-.1s3-.2,4.2-.2,1.4.1,1.6.4a1.52,1.52,0,0,1,.4.8c0,.3-.2.5-1,.9s-2.4,1-3.2,1.3-.6.3-.6,0a3.42,3.42,0,0,0,.1-1.1c0-.4.1-.7-.2-1a2.1,2.1,0,0,0-1.1-.7A1.9,1.9,0,0,0,445,220.7Z"/><path class="cls-31" d="M448.4,224a.77.77,0,0,0-.3-.1c.1-.1.3-.2,1.3-.3a30,30,0,0,1,4.3-.3,2.32,2.32,0,0,1,1.8.7,1.38,1.38,0,0,1,.5.9c0,.3-.2.5-1.1.9s-2.7,1-3.5,1.3-.7.3-.6,0a1.21,1.21,0,0,0-.1-1c-.2-.3-.5-.5-.7-.8a7,7,0,0,0-.6-.9c-.4-.2-.8-.3-1-.4Z"/><path class="cls-31" d="M448.4,221.5c-.2-.1-.3-.1-.2-.1s.2-.2,1.2-.3a24.33,24.33,0,0,1,3.8-.3c1.1.1,1.4.4,1.6.7a2,2,0,0,1,.5.9c0,.3-.2.5-1,.9s-2.4,1-3.2,1.3-.6.3-.6,0a1.21,1.21,0,0,0-.1-1c-.1-.3-.5-.5-.7-.8s-.3-.7-.6-.9a.87.87,0,0,0-.7-.4Z"/><path class="cls-27" d="M443.1,222.8c-.5-.2-1.1-.4-1.4-.2s-.4.8-.4,1.4a2.2,2.2,0,0,0,.5,1.6,3.37,3.37,0,0,0,1.7.5c.6,0,.9,0,1-.5a2.89,2.89,0,0,0-.3-1.8C444.1,223.1,443.7,223,443.1,222.8Z"/><path class="cls-33" d="M445.6,223.5a2.65,2.65,0,0,0-1.7-.2c-.4.2-.4.8-.4,1.4a1.91,1.91,0,0,0,.6,1.6,4.65,4.65,0,0,0,2.1.5c.7,0,1.1,0,1.2-.5a2.34,2.34,0,0,0-.3-1.8c-.3-.7-.9-.8-1.5-1Z"/><path class="cls-33" d="M445.9,220.9c-.6-.2-1.2-.4-1.5-.2s-.4.8-.4,1.4a1.91,1.91,0,0,0,.6,1.6,4.14,4.14,0,0,0,1.9.5c.6,0,1,0,1.1-.5a2.89,2.89,0,0,0-.3-1.8A2.07,2.07,0,0,0,445.9,220.9Z"/><path class="cls-27" d="M449.4,223.9a1.71,1.71,0,0,0-1.7.1,1.84,1.84,0,0,0-.5,1.5,1.91,1.91,0,0,0,.6,1.6,4.65,4.65,0,0,0,2.1.5c.7,0,1.1,0,1.1-.4a5.8,5.8,0,0,0-.6-1.7c-.2-.7-.5-1.4-1-1.6Z"/><path class="cls-27" d="M449.3,221.3a1.36,1.36,0,0,0-1.5.1c-.4.3-.4.9-.4,1.5a1.91,1.91,0,0,0,.6,1.6,3,3,0,0,0,1.9.5c.6,0,1,0,1-.4a5.8,5.8,0,0,0-.6-1.7c-.3-.7-.5-1.3-1-1.6Z"/><path class="cls-11" d="M264.5,153,262.9,49.5l29.9-18.8,66,47.9,1.2,63.3L314.4,137Z"/><path class="cls-5" d="M292.7,30.6,291,32.7l65.8,45.6L489,85.6l5.6-8.5-67.9-39Z"/><path class="cls-22" d="M412.3,46.2l4.1-5.8,60,46.7-.3,5.7-4,.1Z"/><path class="cls-5" d="M362.1,212l2.8-1,12.1,1.8V216l-14.6-2.5Z"/><path class="cls-31" d="M130,114.6c-44.6-4.7-66.8-7-66.8-7Q162.2.05,162.3,0L303.6,6.9,276.3,43.8c-55.6-5.8-57.2-1.4-81.4-6.3q-65,77.1-64.9,77.1Z"/><path class="cls-3" d="M194.9,37.5l-6.2,7.4,88.2,5.4-.3-7.8Z"/><path class="cls-11" d="M276.6,42.6l.3,7.8,28.4-35.2,14.1,9.2,10.3.9L303.6,7Z"/><path class="cls-22" d="M430.6,40.4l.1,11.6,160.6,92.8,13.8-7.8Z"/><path class="cls-38" d="M498.5,37.8h-11a1.79,1.79,0,0,0-1.8,1.8V54.7a1.79,1.79,0,0,0,1.8,1.8h11a1.79,1.79,0,0,0,1.8-1.8V39.6A1.68,1.68,0,0,0,498.5,37.8Z"/><path class="cls-31" d="M295.3,27.6l3.3-4.3,129.6,8.2,226.9,69.8,2.5,4.2L602,137.7,426,34.5Z"/><path class="cls-3" d="M484.1,80.7l.2,1.6,70.2,40.8L594,103.9l-.2-3.1L530.5,65Z"/><path class="cls-9" d="M502.1,77.2l-12.8,4.1,65.6,37.5,11.1-5.5Z"/><path class="cls-9" d="M517.7,72.2l-11.3,3.5L569,112l10.5-4.8Z"/><path class="cls-9" d="M531.2,67.1l-10.1,3.6,62,35,8.9-4.1Z"/><path class="cls-17" d="M484.3,82.3l-.3-1.7L554.6,121l39.3-20,.1,2.7L554.5,123Z"/><path class="cls-3" d="M169.6,137.2q-6-.9-6.6-8.1c0-1.5.6-2.2,1.7-2.1a1.69,1.69,0,0,1,1.3-1.7c3-.7,4.4-1.1,4.4-1.1,7.7.4,11.5.5,11.5.5,1.8.4,2.6,1.1,2.4,2.2a2.48,2.48,0,0,1-1.1,2.3c-2.1,6.3-6.7,9-13.6,8Z"/><path class="cls-17" d="M143.2,129.5l-.1-2.3,29.3,3.2-2.2,2.1Z"/><path class="cls-17" d="M170.3,132.5l.5,29.4,2.2-2.4-.5-29Z"/><path class="cls-20" d="M143.2,129.5l.6,29.2,27,3.2-.5-29.4Z"/><path class="cls-22" d="M198.5,110.9l-10.6,2.5,55.7,4.9,10.4-3.8Z"/><path class="cls-22" d="M254,114.6l-10.4,3.8.1,4.5,10.3-4.5Z"/><path class="cls-27" d="M188.4,117.6l-.5-4.1,55.7,4.9.1,4.5Z"/><path class="cls-20" d="M202.2,104.5c-2.2.3-3.3,1.3-3.4,2.9.1,3.2,2,5.1,5.8,5.7a17.66,17.66,0,0,0,9.6-1.9c1.1.2,1.8.1,1.9-.4,0-2.5.1-3.7.1-3.7.1-1.2-.5-1.8-1.7-1.8-8.2-.6-12.3-.8-12.3-.8Z"/><path class="cls-20" d="M228.3,106.7c-2.2.3-3.3,1.3-3.4,2.9.1,3.2,2,5.1,5.8,5.7a17.66,17.66,0,0,0,9.6-1.9c1.1.2,1.8.1,1.9-.4,0-2.5.1-3.7.1-3.7.1-1.2-.5-1.8-1.7-1.8-8.3-.5-12.3-.8-12.3-.8Z"/><path class="cls-4" d="M204.2,107.4c-4.3-.7-4.9-1.4-1.7-2,6.9.5,10.3.8,10.3.8C212,107.5,209.2,107.9,204.2,107.4Z"/><path class="cls-4" d="M230.3,109.6c-4.3-.8-4.9-1.4-1.7-2,6.9.5,10.3.8,10.3.8C238.1,109.7,235.2,110.1,230.3,109.6Z"/><path class="cls-4" d="M209,104.9c0-3.2.1-4.7.1-4.7-.3-1.7-1.4-2.5-3.3-2.2a3.63,3.63,0,0,0-2.3,1.8c-.1.8-.2,1.3-.2,1.3.3.4.9.5,1.9.1a4.18,4.18,0,0,0,.1-.7c-.1-1.3,2.2-1.4,2.4-.2v4.6a1.48,1.48,0,0,0,1.3,0Z"/><path class="cls-4" d="M235.1,107.2c0-3.2.1-4.7.1-4.7-.3-1.7-1.4-2.5-3.3-2.2a3.63,3.63,0,0,0-2.3,1.8c-.1.8-.2,1.3-.2,1.3.3.4.9.5,1.9.1a4.18,4.18,0,0,0,.1-.7c-.1-1.3,2.2-1.4,2.4-.2v4.6a2.85,2.85,0,0,0,1.3,0Z"/><path class="cls-4" d="M163.4,127.6a1.41,1.41,0,0,1,1.2-.6c9.8,1.5,16.2,1.5,19.3.1C180.6,129.8,173.8,130,163.4,127.6Z"/><path class="cls-48" d="M196.1,72.8a2.11,2.11,0,0,1,2.2-1.9c34.8,2.7,52.2,4.1,52.2,4.1,1.5.3,2.3,1,2.4,2.2,0,9.1-.1,13.6-.1,13.6-.2,1.7-1.1,2.5-2.8,2.3l-50-4.2c-2.4,0-3.6-.8-3.8-2.3,0-9.2-.1-13.8-.1-13.8Z"/><path class="cls-20" d="M214,90.1c-6.5-.5-9.7-.8-9.7-.8,6.5-5.7,11-7.7,13.3-6.1,1.7,1.3,4.6.8,8.9-1.7l11.3-7,5,.3c-7.6,5.5-11.4,8.2-11.4,8.2-3.7,3.6-8.3,4.9-13.8,3.8q-1.65-1-3.6,3.3Z"/><path class="cls-31" d="M176.7,59.2,147.8,93.6l-.1,21.7,29.6-8Z"/><path class="cls-8" d="M159.5,79.5,149,92l.1,18.9,10.9-3Z"/><path class="cls-8" d="M174.7,61.5,163.5,74.9v31.6l11.5-2.9Z"/><path class="cls-20" d="M252.6,136.6c-18-1.8-26.6-2.6-26.6-2.6-3-.3-7,.5-12.1,2.4-21.4,6.5-32.1,9.7-32.1,9.7-1.3.8-1.3,1.6-.2,2.5.2,11.2.4,16.7.4,16.7,23.3,3,35,4.4,35,4.4l37-13.1c0-11.8-.1-17.7-.1-17.7,1.2-1.1.7-1.9-1.3-2.3Z"/><path class="cls-17" d="M219.3,147.9c-19.8,1-28-.3-24.5-3.8,16.9-5.2,25.4-7.9,25.4-7.9a15,15,0,0,1,7.9-.3c9.3.7,14,1.1,14,1.1,2.8.5,2.8,1.6,0,3.1l-22.8,7.8Z"/><path class="cls-8" d="M219.3,147.9c-10.8.5-18.2.4-22-.4l23.9-7.4a15,15,0,0,1,7.9-.3l11.3.9-21.1,7.2Z"/><path class="cls-3" d="M213,155.3c-20.9-4.4-31.3-6.7-31.3-6.7,20.7,2.9,31,4.3,31,4.3,4,.9,7.5.8,10.4-.4L254,139c-19.9,10.3-29.8,15.5-29.8,15.5C221.2,156.1,217.5,156.4,213,155.3Z"/><path class="cls-49" d="M264.5,153l-1.2-81,21.5-4.8.9,78.7Z"/><path class="cls-49" d="M287.5,145.4,286.3,67l20.8-4.7.9,76.2Z"/><path class="cls-31" d="M326,80.7l-11,3.2.5,13.2,10.7-3.5Z"/><path class="cls-31" d="M326.5,101l-11,3.2.5,13.2,10.7-3.5Z"/><path class="cls-20" d="M316.6,85.1l.2,10.1,7.7-2.9V83Z"/><path class="cls-20" d="M317.2,105.4l.2,10.1,7.7-2.9v-9.3Z"/><path class="cls-3" d="M295.3,27.6l1.4.1L426,34.5l70.9,41.9-2.3.8-67.9-39-134-7.5Z"/><path class="cls-4" d="M319.3,24.4l-20.7-1.1,6.6-8.1Z"/><path class="cls-22" d="M650.1,111l-58.9,33.7,10.9-7,55-31.9Z"/><path class="cls-22" d="M312.4,39.7l3.2-5.6L378.9,79l-.1,5.7-4,.3Z"/><path class="cls-22" d="M345.1,41.8l4.1-5.8,62,45.4-.1,5.7-4,.2Z"/><path class="cls-22" d="M378.8,43.6l4.1-5.8,60,46.7-.3,5.7-4,.1Z"/><path class="cls-33" d="M292.6,52.7l-.2-14.3,140.4,9,.7,14.5Z"/><path class="cls-50" d="M315.6,34.1h-4.1v5.8h4.1Z"/><path class="cls-50" d="M349.3,36h-4.1v5.8h4.1Z"/><path class="cls-50" d="M382.9,37.8h-4.1v5.8h4.1Z"/><path class="cls-50" d="M416.5,40.3h-4.1v5.8h4.1Z"/><path class="cls-20" d="M343.5,110.5l-2,29.3-.4-33.7,31.1,29.4Z"/><path class="cls-31" d="M507.8,241.8c-.1,2.7-.2,4-.2,4l19.3,1.5c.5-1.8.8-2.7.8-2.7-13.3-1.8-19.9-2.8-19.9-2.8Z"/><path class="cls-10" d="M497.6,38.5h-9.4a.65.65,0,0,0-.6.6h0a.65.65,0,0,0,.6.6h9.4a.65.65,0,0,0,.6-.6h0A.58.58,0,0,0,497.6,38.5Z"/><path class="cls-17" d="M328,307.1l51.9-31.3-.2,5.5L327.9,313Z"/><path class="cls-3" d="M358.2,271.5l-58,32.2,27.8,3.5,51.9-31.3Z"/><path class="cls-3" d="M367.8,279.2l-9-7.6,129.1,16.9-6.8,6.2Z"/><path class="cls-3" d="M481.1,293.9l-107.8-14,.1,5.3L480.8,300Z"/><path class="cls-17" d="M481,294.6l7.7-7.4-.5,5-7.5,7.8Z"/><path class="cls-21" d="M472.6,86.8H454.1c.2,7.7.3,11.5.3,11.5,5.5,2.2,11.6,2.1,18.3-.1C472.7,90.7,472.6,86.8,472.6,86.8Z"/><path class="cls-20" d="M463.4,87.8c5.1,0,9.2-.4,9.2-.9s-4.1-.9-9.2-.9-9.2.4-9.2.9S458.3,87.8,463.4,87.8Z"/><path class="cls-27" d="M306.8,288.5A22.12,22.12,0,0,1,295,291c-.2-1.5.3-2.2,1.6-2.2a28.21,28.21,0,0,0,9.6-2.1c9-5.1,13.6-7.6,13.6-7.6a1.71,1.71,0,0,0-.6-1.8,2.13,2.13,0,0,1,1.8-1.1c1.3,1.4,1.3,2.7.2,4-9.6,5.5-14.4,8.3-14.4,8.3Z"/><path class="cls-27" d="M296.7,297.7c-7.3-.9-10.9-1.3-10.9-1.3a2.59,2.59,0,0,1,.9-2.5c6.6.9,9.9,1.3,9.9,1.3,6.4.1,10.9-.9,13.7-2.8,18.1-9.8,27.2-14.7,27.2-14.7,1.6-1.1,1.9-2,.9-2.9-1.6-.6-5-1.2-10.1-2-.2-1,.2-1.5,1.3-1.7,6.5,1.5,9.8,2.2,9.8,2.2a2.92,2.92,0,0,1,2.2,2.9,6.9,6.9,0,0,1-2.9,3.4c-18.3,10.3-27.5,15.5-27.5,15.5a23,23,0,0,1-14.5,2.6Z"/><path class="cls-27" d="M356.4,272.9c-14.8-2.4-21.9-3.5-21.9-3.5,0-1,.4-1.5,1.3-1.5,13.2,1.9,19.8,2.9,19.8,2.9,2.4.5,4.3,1,5.1,2.3s-.5,3.4-3.4,5.1l-38.1,21.9c-.9.3-1.4.2-1.7-.2a.89.89,0,0,1,.3-1.3c26.9-15.3,39.9-23.1,39.9-23.1a1.34,1.34,0,0,0,.1-2A2.85,2.85,0,0,0,356.4,272.9Z"/><path class="cls-27" d="M380.1,263.5c.5-1.4.1-2-1.2-1.7l-16.5,9.6c-.9.7-1.1,1.8-.9,3.2.4,1.3,4.5,2.7,12.2,4.3l66.8,9.9c18.2,2.5,27.3,3.7,27.3,3.7,10.2,1.1,16.9-.3,20-4.2a3.19,3.19,0,0,0-2.1-.4q-2.55,3.3-12.3,3.3c-24.7-3.2-37-4.7-37-4.7L373.9,277c-6.5-1-9.7-2.1-9.6-3.2,0-.8.5-1.3,1.4-1.7,9.6-5.7,14.4-8.6,14.4-8.6Z"/><path class="cls-27" d="M392.9,264.6c-.1-1-.5-1.4-1.4-1.2-6.9,4.4-10.4,6.5-10.4,6.5-3,2.5-1.7,4.3,3.9,5.3l67.6,10.2c11.2,2.2,18.7,2.2,22.8.1,7.8-5.2,11.8-7.8,11.8-7.8a2.46,2.46,0,0,0-2-1c-7.3,4.7-10.9,7.1-10.9,7.1a24,24,0,0,1-12.2.7Q395.2,275,395.2,275l-10.4-1.8c-3.2-.4-3.9-1.1-2-2.3C389.5,266.7,392.9,264.6,392.9,264.6Z"/><path class="cls-27" d="M406.5,266.4a1.32,1.32,0,0,0-1.3-1.3c-2.9,1.8-4.3,2.7-4.3,2.7-1.5,1.2-2,2.4-1.6,3.6.1,1.4,5,2.8,14.8,4.2,23.2,3.3,34.8,4.9,34.8,4.9a67.29,67.29,0,0,0,12.9.7,24.06,24.06,0,0,0,11.9-4.9c.1-1.2-.4-1.8-1.6-1.6-2.9,1.8-4.3,2.8-4.3,2.8-3.4,1.7-8.7,2.3-15.7,1.7-31.1-4.5-46.6-6.7-46.6-6.7-2.5-.2-3.8-.8-3.8-1.7-.2-.8,1.3-2.2,4.8-4.4Z"/><path class="cls-27" d="M433.8,274.1c-11.1-1-16.7-3-16.5-6.3a2.35,2.35,0,0,1,2.3-.1c.3,2.3,5.7,3.8,16.1,4.5,9.5,1.1,16.4,1.1,20.6,0a2.32,2.32,0,0,1,2.4,1c-5.3,2.4-11.9,2-24.9.9Z"/><path class="cls-51" d="M171.2,159.3h.3c.1,0,.2.1.2,1.4s-.1,3.8-.1,5.1,0,1.5.1,1.6.2.2,2.5.4,7.1.3,9.4.5a16.65,16.65,0,0,1,2.6.2c.1.1.3.2.7,18.7s1,55.5,1.2,74.2.3,19.1.3,19.4a1.14,1.14,0,0,0,.3.6c.2.2.5.3,11.3,2s31.9,4.7,46.6,6.8,22.8,3.3,27,3.9,4.4.6,4.6.8a1.51,1.51,0,0,1,.4.9,13.8,13.8,0,0,1,0,2.1c-.1,1.1-.2,2.6-.2,3.6a5.38,5.38,0,0,0,.1,1.6c.1.3.2.5,3,1s8.4,1.4,16.1,2.6,17.7,2.6,22.9,3.4,5.7.8,6.2.9,1,0,8.5-4.5,22.2-13.3,29.7-17.9,7.9-4.8,8.1-4.9a.6.6,0,0,1,.4-.1,3.44,3.44,0,0,1,.9.1c.4.1.8.2,10.1,1.5s27.4,3.8,45.2,6.3,35.4,5,44.3,6.3,9.2,1.4,9.4,1.4.2.2.3,6.3.2,18.2.3,24.4.1,6.6.2,6.8a1,1,0,0,0,.4.5,4.12,4.12,0,0,0,.9.2c.5,0,1.3.1,2.1.1"/><path class="cls-51" d="M225,277.8a.78.78,0,0,1,.4.4c.1.1.1.3.1,1.7s.1,4.3.1,7.1"/><path class="cls-52" d="M214.5,112.7c-.1,4.2-.1,6.3-.1,6.3-.2,1.5.9,2.1,3.5,1.8,24.3,2.1,36.5,3.1,36.5,3.1,1.8.1,2.8.3,3,.7a1.7,1.7,0,0,1,0,1l.6,37.5c-12.4,4.7-18.7,7-18.7,7q-5.4,2.4-5.1-3.6c-.4-15.7-.7-23.6-.7-23.6"/><path class="cls-52" d="M240,122.6V115"/><path class="cls-52" d="M257.4,163.4c12.8-4.4,19.1-6.6,19.1-6.6q73.65,7,73.7,7.1c2.3.1,3.1,1.2,2.7,3.3.2,70,.2,105.1.2,105.1-.6,3.7,1.8,5.3,7.3,4.8l122.7,17.4q6.75.75,9.3,3c1,1.1,1.4,2.8,1.2,5.3.2,11.8.3,19.8.3,19.8"/><path class="cls-52" d="M496.3,322.3c-.3-21.3-.3-35.2-.3-35.2,9.5-7.5,12.5-9.2,14.5-10.8s1.4-2.4-1.6-2.7c-26.4-3.3-39.7-4.9-39.7-4.9-3.6-.4-3.3-1.6,1-3.5q39.15-26.1,39.1-26.1c-.1-26.5-.1-37.5-.1-37.5-6.9-.4-8.3-.4-8.3-.4"/><path class="cls-52" d="M171.3,134.5c-1.9.7-2.8,1.1-2.8,1.1.1,18.3.2,27.4.2,27.4q-.15,2,4.2,1.8l15.2,1.2"/><path class="cls-52" d="M187.8,166c.8.1,1.1,1,.8,2.9L191,275.4c-.2,2.7,2,4.1,6.5,4.1C253.1,287.9,281,292,281,292a1.85,1.85,0,0,1,.9,1.7c-.2,4.5-.2,6.7-.2,6.7q0,1.35,2.4,1.2l40.5,6.3a6.17,6.17,0,0,0,4.8-1q43.35-25.5,43.3-25.5a2.52,2.52,0,0,1,2.1,0q108.9,15.45,108.9,15.5c3.5.5,5.2.8,5.2.8,2.1.4,3.1,2,3,4.7.1,12.4.1,20.5.1,20.5"/><path class="cls-53" d="M478.6,345.7v-1.8a1.55,1.55,0,0,1,1.6-1.7c4.8.3,7.3.5,7.3.5"/><path class="cls-10" d="M533.7,321.7h-7.1a2.9,2.9,0,0,0-2.9,2.9V333a2.9,2.9,0,0,0,2.9,2.9h7.1a2.9,2.9,0,0,0,2.9-2.9v-8.4A2.9,2.9,0,0,0,533.7,321.7Z"/><path class="cls-10" d="M551.6,335.9h-7.1a2.9,2.9,0,0,0-2.9,2.9v8.4a2.9,2.9,0,0,0,2.9,2.9h7.1a2.9,2.9,0,0,0,2.9-2.9v-8.4A2.9,2.9,0,0,0,551.6,335.9Z"/><path class="cls-52" d="M502.9,289.5c-3.3,2.8-4.9,4.1-4.9,4.1-2,3,1.2,4.7,9.4,5.1l16.7,2.2c2.9.2,4.2,2,3.9,5.5,0,8-.1,12-.1,12"/><path class="cls-52" d="M527.3,340.4c.1,6.1.1,9.2.1,9.2.4,1.3-1,1.7-4.3,1.3-3.9-.3-5.8-.5-5.8-.5"/><path class="cls-27" d="M501.2,292.2c-1.2-.8-1.9-1.2-1.9-1.2l3.3-2.4a1.59,1.59,0,0,1,1.3,1.3c-1.8,1.5-2.7,2.3-2.7,2.3Z"/><path class="cls-10" d="M528.1,318.4h-.5a1.11,1.11,0,0,0-1.1,1.1v1.3a1.11,1.11,0,0,0,1.1,1.1h.5a1.11,1.11,0,0,0,1.1-1.1v-1.3A1,1,0,0,0,528.1,318.4Z"/><path class="cls-10" d="M546,332.6h-.5a1.11,1.11,0,0,0-1.1,1.1V335a1.11,1.11,0,0,0,1.1,1.1h.5a1.11,1.11,0,0,0,1.1-1.1v-1.3A1.11,1.11,0,0,0,546,332.6Z"/><path class="cls-10" d="M526.9,335.4h1.4a2,2,0,0,1,2,2v1a2,2,0,0,1-2,2h-1.4a2,2,0,0,1-2-2v-1A2,2,0,0,1,526.9,335.4Z"/><path class="cls-10" d="M533.2,318.4h-.5a1.11,1.11,0,0,0-1.1,1.1v1.3a1.11,1.11,0,0,0,1.1,1.1h.5a1.11,1.11,0,0,0,1.1-1.1v-1.3A1.11,1.11,0,0,0,533.2,318.4Z"/><path class="cls-10" d="M551.1,332.7h-.5a1.11,1.11,0,0,0-1.1,1.1v1.3a1.11,1.11,0,0,0,1.1,1.1h.5a1.11,1.11,0,0,0,1.1-1.1v-1.3A1.11,1.11,0,0,0,551.1,332.7Z"/><path class="cls-54" d="M535.8,336h-5.5v4.7h5.5Z"/><path class="cls-20" d="M525.8,326.4c.8,0,1.5-.9,1.5-2s-.7-2-1.5-2-1.5.9-1.5,2S525,326.4,525.8,326.4Z"/><path class="cls-20" d="M543.7,340.7c.8,0,1.5-.9,1.5-2s-.7-2-1.5-2-1.5.9-1.5,2S542.9,340.7,543.7,340.7Z"/><path class="cls-20" d="M531.8,326.8c.8,0,1.5-.9,1.5-2s-.7-2-1.5-2-1.5.9-1.5,2S531,326.8,531.8,326.8Z"/><path class="cls-20" d="M549.8,341.1c.8,0,1.5-.9,1.5-2s-.7-2-1.5-2-1.5.9-1.5,2S548.9,341.1,549.8,341.1Z"/><path class="cls-55" d="M534.4,352.5h-1.1a6.17,6.17,0,0,0-6.2,6.2v5.9a6.23,6.23,0,0,0,6.2,6.2h1.1a6.17,6.17,0,0,0,6.2-6.2v-5.9A6.23,6.23,0,0,0,534.4,352.5Z"/><path class="cls-52" d="M518.1,370.2l32,4.5c1.2.1,1.8-.5,1.7-1.8-.1-15.2-.2-22.8-.2-22.8"/><path class="cls-52" d="M488.2,82.7l-3.3,1.8c-.7.5.5,1.7,3.4,3.5q66,37.5,65.8,37.5a6.88,6.88,0,0,1,3.2,2.7,7.12,7.12,0,0,1,.1,1.6V326.4c0,.9.1,2-1,1.8-2.8-.1-3.7-.1-3.7-.1-2-.2-1.8,1.4-1.8,4.5"/><path class="cls-51" d="M500.7,226.8c2.3.3,4.6.6,5.8.7s1.3.2,1.2,2-.2,5.5-.3,7.4-.2,1.8-7.3,6.5-21.4,14.4-28.9,19.5-8.3,5.8-8.6,6.3,0,.7,6.9,1.7,20.4,2.6,27.3,3.5,7.4.9,7.6,1.1.1.5-2.8,2.6-8.8,6-11.8,8.3-3,2.7-3.1,10.3v29.7c0,7.5.1,7.8.3,8a4.37,4.37,0,0,0,1,.6"/><path class="cls-51" d="M477.2,407.4c4.6.8,9.3,1.7,11.6,2.1s2.5.4,3.4-.4,2.4-2.3,4-3.8"/><path class="cls-51" d="M514.1,290.5a36.27,36.27,0,0,0-4.3,4c-.7.9-.3,1.3,3.6,1.8s11.5,1.3,15.5,1.9,4.4,1,4.5,4.4-.1,9.6-.3,15.8"/><path class="cls-27" d="M511.1,291.8c.5-.4,1.4-1.2,1.8-1.6s.5-.4.7-.4a2.35,2.35,0,0,1,.8.2c.2.1.4.2.4.4a.6.6,0,0,1,.1.4c0,.1,0,.2-.4.7s-1.3,1.2-1.7,1.6l-.4.4-.3-.1a6.72,6.72,0,0,1-1.2-.6c-.3-.2-.4-.2-.4-.3s.1-.3.6-.7Z"/><path class="cls-51" d="M532.6,340.7c-.1,3.9-.1,7.9-.2,11.8"/><path class="cls-51" d="M533,370.8c.2,7.9.3,15.8.4,20.1s0,4.7,0,5.1a1.48,1.48,0,0,1-.1.7c-.1.2-.2.3-2.9-.1s-7.9-1.4-13.1-2.4"/><path class="cls-51" d="M517.4,397c9.6,1.5,19.1,3.1,24,3.7s5,.5,5-8-.2-25.5-.3-42.5"/><path class="cls-51" d="M517.3,400.2c14.8,2.2,29.6,4.3,44.4,6.5"/><path class="cls-51" d="M545.4,332.6a54.57,54.57,0,0,1,.6-8c.4-1.8,1-2.3,3.3-2.3a81.69,81.69,0,0,1,8.5.9c2.2.3,2.7.3,2.8-4s-.2-12.9-.3-45.8-.2-89.8-.3-118.6-.2-29.4-.3-29.9,0-.9,1.8-1.9,5.2-2.6,8.6-4.2"/><path class="cls-51" d="M589.8,96.1c.1-.2.2-.4,1.3.1a33.76,33.76,0,0,1,4.1,2.4c1,.7,1.1.8,1.1,1.1v1.2"/></g></svg>