<svg id="Layer_1" data-name="Layer 1" xmlns="http://www.w3.org/2000/svg" xmlns:xlink="http://www.w3.org/1999/xlink" viewBox="0 0 748 505"><defs><style>.cls-1,.cls-43{fill:#eaeaea;}.cls-1,.cls-11,.cls-15,.cls-16,.cls-18,.cls-19,.cls-2,.cls-20,.cls-24,.cls-25,.cls-27,.cls-28,.cls-29,.cls-3,.cls-30,.cls-34,.cls-37,.cls-39,.cls-4,.cls-40,.cls-41,.cls-42,.cls-43,.cls-5,.cls-6,.cls-7,.cls-9{fill-rule:evenodd;}.cls-2{fill:#989898;}.cls-3{fill:#b2b2b2;}.cls-4{fill:#727272;}.cls-5,.cls-8{fill:#0d0d0d;}.cls-42,.cls-6{fill:#b1b1b1;}.cls-7{fill:#909090;}.cls-32,.cls-41,.cls-9{fill:#d6d6d6;}.cls-10,.cls-12,.cls-13,.cls-14,.cls-17,.cls-21,.cls-22,.cls-26,.cls-33,.cls-35,.cls-36,.cls-38,.cls-45,.cls-46,.cls-47{fill:none;}.cls-10,.cls-14{stroke:#0d0d0d;}.cls-10,.cls-12,.cls-13,.cls-14,.cls-17,.cls-21,.cls-22,.cls-26,.cls-30,.cls-31,.cls-33,.cls-34,.cls-35,.cls-36,.cls-38,.cls-39,.cls-41,.cls-42,.cls-43,.cls-45,.cls-46,.cls-47{stroke-miterlimit:22.93;}.cls-10{stroke-width:3px;}.cls-11{fill:#656565;}.cls-12{stroke:#656565;}.cls-12,.cls-21,.cls-22,.cls-26,.cls-30,.cls-31,.cls-33,.cls-34,.cls-35,.cls-39,.cls-41,.cls-42,.cls-43{stroke-width:0.57px;}.cls-13{stroke:#d6d6d6;}.cls-13,.cls-14,.cls-17,.cls-36,.cls-47{stroke-width:1.5px;}.cls-15,.cls-31{fill:#cbcbcb;}.cls-16{fill:#e5e5e5;}.cls-17,.cls-31,.cls-38{stroke:#cbcbcb;}.cls-18,.cls-49{fill:#fff;}.cls-19,.cls-34{fill:#323232;}.cls-20{fill:#8f8f8f;}.cls-21{stroke:#9c9c9c;}.cls-22{stroke:#ababab;}.cls-23,.cls-28,.cls-30{fill:#9b9b9b;}.cls-24,.cls-44{fill:#ababab;}.cls-25{fill:#9a9a9a;}.cls-26{stroke:#8f8f8f;}.cls-27,.cls-39{fill:#464646;}.cls-29{fill:#9c9c9c;}.cls-30{stroke:#9b9b9b;}.cls-33{stroke:#000;}.cls-34,.cls-35,.cls-39{stroke:#464646;}.cls-36,.cls-41,.cls-43{stroke:#989898;}.cls-37{fill:#7c7c7c;}.cls-38{stroke-width:2px;}.cls-40{fill:url(#linear-gradient);}.cls-42{stroke:#fff;}.cls-45{stroke:#2f2f2f;}.cls-46,.cls-47{stroke:#4d4d4d;}.cls-48{fill:#898989;}</style><linearGradient id="linear-gradient" x1="186.47" y1="370.04" x2="205.82" y2="370.04" gradientTransform="matrix(1, 0, 0, -1, 287, 584)" gradientUnits="userSpaceOnUse"><stop offset="0" stop-color="#232323"/><stop offset="1" stop-color="#868686"/></linearGradient></defs><path class="cls-1" d="M27.22,375.91l-.59-8.69L698.35,496.75l.09,9.37Z"/><path class="cls-2" d="M698.35,496.75,26.9,367.59l192.77-82.38L746.27,374l-.34,34Z"/><path class="cls-3" d="M361,369.07l-2.42-97.14,197.55,27.85,1.21,103Z"/><path class="cls-4" d="M487.83,330.36a54.32,54.32,0,0,1,31.69-.17h.23V400.9q-12.74,6.74-31.92,0Z"/><path class="cls-5" d="M487.61,329.73c0,2,7.16,3.67,16,3.67,8.18,0,15.09-1.57,16-3.38,0,0,0-1.12,0-3.94,0-2-7.16-3.66-16-3.66s-16,1.64-16,3.66v3.64Z"/><path class="cls-5" d="M504.11,407.13c11.11-.55,14.14-2.48,15.64-6.23q-14,6.75-31.92,0C488.93,404.34,493.78,406.56,504.11,407.13Z"/><path class="cls-6" d="M387,385.6l-18.16-2.53,0,6.61,38.54,6.41-.22-4.83L387,388.06Z"/><path class="cls-7" d="M387,385.6l-18.16-2.53,7.46-5L394,380.21Z"/><path class="cls-8" d="M380,370.81h.76a3.82,3.82,0,0,1,3.81,3.81v2.64a3.82,3.82,0,0,1-3.81,3.81H380a3.82,3.82,0,0,1-3.81-3.81v-2.64A3.82,3.82,0,0,1,380,370.81Z"/><path class="cls-1" d="M298.52,305l-5-.89,1.58,107.11,5,.94Z"/><path class="cls-9" d="M298.52,305l1.6,107.15L361,369.07l-2.42-97.14Z"/><path class="cls-7" d="M330.51,308.16l6.3,52.07,40.12,14.64a12.56,12.56,0,0,0,7.19.33q14-6.26,12.2-5.42l27.5-18.36a10.24,10.24,0,0,0,2.78-7.24q.79-36.74.79-36.74c.3-4.17-.75-6.68-3.13-7.52q-64.33-8.54-62.6-10.23L330.5,308.16Z"/><path class="cls-10" d="M335.14,313.06c-8.44.93-17.5,7.48-8.89,25.93"/><path class="cls-6" d="M394.21,318.09l-63.7-9.93q.71,46.71.69,46.87.32,4.17,6.68,5.45l57.21,9.6c2.1-.15,3.17-1.63,3.25-4.44q-.51-43.62-.52-43.62c0-2.37-1.19-3.68-3.61-3.91Z"/><path class="cls-10" d="M402.1,400.58c4.74,17.83,31,13.83,31.55-.3"/><path class="cls-7" d="M407.66,391.49,387,388.06l7-5.74,15.87,2Z"/><path class="cls-9" d="M400.69,411.65l-.56-78.07,32.95-23.09.3,76.73-2.69,2.24V316.29l-27.41,19.52.74,72.72Z"/><path class="cls-11" d="M423.94,353.69l10.06-6L454.5,350l-5.23,6.85Z"/><path class="cls-4" d="M473.82,356.8l-26.6-4.29L447,406.83l26.82,4.27Z"/><path class="cls-11" d="M448.48,327.75l-15.08-1.54,6.74-4.37,14.56,1.07.15,28.11-6.22-.39Z"/><path class="cls-11" d="M473.82,356.8l-26.6-4.29,14.14-8.87,23,3.41v54.71l-10.55,9.34Z"/><path class="cls-12" d="M449.6,407.24,450,357l20.32,3.11.49,50.55"/><path class="cls-13" d="M403.28,335.81l32.43,44"/><path class="cls-4" d="M447.4,356.51l-23.46-2.82,1.19,48.94L447.48,406Z"/><path class="cls-4" d="M448.48,327.75l-15.08-1.54.6,21.47,14.87,1.66Z"/><path class="cls-5" d="M443.1,326c2.49,0,4.52-.76,4.52-1.7s-2-1.7-4.52-1.7-4.53.77-4.53,1.7S440.61,326,443.1,326Z"/><path class="cls-14" d="M427.4,307.44q16.62-3.17,15.7,16.86"/><path class="cls-15" d="M400.17,333.6,324,321.44,325,397l5,1-.59-70.5,65.09,9.7.87,73.43,5.34,1.06Z"/><path class="cls-16" d="M332,396.07,330,398l-.59-70.5,2.14.33Z"/><path class="cls-17" d="M326.9,323.6l70.66,85.61"/><path class="cls-17" d="M328.71,396l65.77-58.83"/><path class="cls-13" d="M402.93,407l27.76-90.69"/><path class="cls-1" d="M330.68,319.22,324,321.44l76.14,12.14,32.95-23.09-5.73-.67,0,1.91,1.48.2-28.63,19.15-69.54-10.76Z"/><path class="cls-7" d="M387,388.06l7-5.74.05-2.11L387,385.6Z"/><path class="cls-18" d="M296.46,330.86c-5.87-.66-5.1-3.73-2.61-3.76,2.5.6,4.22.95,4.22.95a3.64,3.64,0,0,0,2.45-.78l16.35-9.45c1.53-.7,2.29-.3,2.28,1.19q.62,80.88.61,80.88c-.54.76-1.47.87-2.83.38q-.46-78.27-.47-78.28.36-1.35-2.5.65l-12.37,7.59a6.25,6.25,0,0,1-5.14.63Z"/><path class="cls-1" d="M189.07,177.64l-.2-11.66L217,169.79l.16,11.94Z"/><path class="cls-9" d="M217.15,181.73,217,169.79l59.41-21.06v10.9Z"/><path class="cls-18" d="M189.32,196.93l.19,13.06,5.82-1.69,65.15,7.45-.07-14.69-6,2.48-62.13-7.44Z"/><path class="cls-5" d="M211,357.09c-4.78,0-9,5.68-9.51,12.68s3,12.68,7.82,12.68,9-5.68,9.51-12.68S215.82,357.09,211,357.09Z"/><path class="cls-3" d="M212.36,378.78c3,0,5.51-4.4,5.51-9.77s-2.48-9.78-5.51-9.78-5.51,4.4-5.51,9.78S209.32,378.78,212.36,378.78Z"/><path class="cls-19" d="M257.54,299.3q-53.88-11.94-84.9,29.5-28.45,10.49-23.08,34l.26,3c-.11,1,1.35,2.21,4.34,3.69,2.28,1.4,4.08,1.53,5.43.36A93.41,93.41,0,0,0,182,373.54c1.6,2,4.27,2.84,8,2.56q9.6-.63,11.71-2.38,55.28-35.66,55.17-33.2,2-17.06,10-16.37,4.29,1.5,5.75,7.77,2.81-27.39-15-32.62Z"/><path class="cls-1" d="M48.76,371.79l-22.13-4.57-4.2-98.12,198.88,32.65,2.14,103.65L205.89,402l-1.74-94.88L45.34,282.24Z"/><path class="cls-9" d="M45.34,282.24l3.42,89.55,6.48-2.71-3.15-85.79Z"/><path class="cls-15" d="M204.13,306.73l-152-23.44L15.21,314.63l159,31,30.12-31.19Z"/><path class="cls-5" d="M226.94,330.85a27.54,27.54,0,0,1,11.81-20.72,43.91,43.91,0,0,1,3,12.6Z"/><path class="cls-9" d="M227.9,297.51l-6.59,4.24,2.14,103.65,6.76-3.58Z"/><path class="cls-16" d="M15.72,317.6l-.51-3,159,31,30.12-31.19,0,3.35-29.87,30.34Z"/><path class="cls-20" d="M698.35,496.75,520.24,462.49l105.41-108.8L746.27,374l-.34,34Z"/><path class="cls-21" d="M603.31,478.47l84.43-114.31"/><path class="cls-21" d="M621,481.86l79.61-115.54"/><path class="cls-22" d="M638.62,485.17l75.31-116.71"/><path class="cls-21" d="M654.37,488.33,728.55,371"/><path class="cls-21" d="M672.78,491.72l70.15-118.29"/><path class="cls-21" d="M688.26,495.5l57.81-102"/><path class="cls-21" d="M586.22,475.17l89.61-113"/><path class="cls-21" d="M569.17,471.89l94.25-112.2"/><path class="cls-21" d="M552.36,468.67l98-110.81"/><path class="cls-21" d="M536.24,465.49l101.82-109.8"/><path class="cls-23" d="M745.09,251.28H622.85v98.41H745.09Z"/><path class="cls-20" d="M623.72,361.5l-55.83,51.81-1.06-116.65,57.75-47.53Z"/><path class="cls-22" d="M614.8,341.94l-.5-84.39"/><path class="cls-22" d="M590.56,366.47l-1.35-88.12"/><path class="cls-22" d="M581.82,372.91l-.42-88.24"/><path class="cls-22" d="M573.78,380.3,573,291.93"/><path class="cls-22" d="M597.17,366.61l-1.46-93.71"/><path class="cls-22" d="M604.32,367.44l-2.07-99.94"/><path class="cls-22" d="M609.42,346.44l-1.53-83.64"/><path class="cls-22" d="M620.07,338l.48-85.53"/><path class="cls-22" d="M623.65,335.27l.91-81.54"/><path class="cls-22" d="M631.47,336.59l.9-81.54"/><path class="cls-22" d="M639.28,337.91l.91-81.54"/><path class="cls-22" d="M647.1,339.23l.91-81.54"/><path class="cls-22" d="M654.93,340.54l.9-81.53"/><path class="cls-22" d="M662.74,341.87l.91-81.53"/><path class="cls-22" d="M670.56,343.19l.91-81.53"/><path class="cls-22" d="M678.37,344.51l.91-81.53"/><path class="cls-22" d="M686.2,345.83l.9-81.53"/><path class="cls-22" d="M694,347.15l.91-81.52"/><path class="cls-24" d="M707.64,365.17,604.08,349.5l.36,26.06,103.78,16.57Z"/><path class="cls-25" d="M708.22,392.13l-.58-27L721.18,347l0,22.81Z"/><path class="cls-24" d="M623.65,335.27,604.08,350l103.56,15.13L721.18,347Z"/><path class="cls-20" d="M604.12,352.24l0-2.2,103.56,15.13.05,2.35Z"/><path class="cls-20" d="M707.69,367.52l-.05-2.35L721.18,347v2Z"/><path class="cls-26" d="M615.11,342.8,715,356.14"/><path class="cls-26" d="M609.42,346.44l101.86,14.23"/><path class="cls-26" d="M604.18,357.61l103.64,16.2"/><path class="cls-26" d="M604.42,364.47l103.63,16.2"/><path class="cls-26" d="M604.65,371.31l103.63,16.22"/><path class="cls-26" d="M620,338.78l98.56,12.44"/><path class="cls-26" d="M707.82,373.82l13-18.93"/><path class="cls-26" d="M708.05,380.67l12.75-19.19"/><path class="cls-26" d="M708.12,387.5l12.66-20.59"/><path class="cls-9" d="M747.77,246.25l-48.42,58.21-.76,192.44,47.57-88.27Z"/><path class="cls-1" d="M693.27,303.55l6.08.91-.76,192.44-6.48-1.35Z"/><path class="cls-1" d="M576,299.43V287.85l123.4,16.61-.06,13.17Z"/><path class="cls-27" d="M567.33,384.18l.56,29.13,28,6.1-.59-30.49Z"/><path class="cls-19" d="M595.93,419.41l-.59-30.5,19.21-20,.62,27.75Z"/><path class="cls-28" d="M588.82,365.24l-21.49,18.93,28,4.73,19.22-20-25.72-3.65Z"/><path class="cls-19" d="M589.23,367.45l-17.48,15.4,22.76,3.85,15.62-16.27-20.92-3Z"/><path class="cls-29" d="M574.62,388.18a2.08,2.08,0,0,0,.2,1.14c.2.31.56.45,1.11.22a5.34,5.34,0,0,0,1.62-1.23c.32-.41.22-.63,0-.78a1.35,1.35,0,0,0-.76-.29,4.58,4.58,0,0,0-1.1,0,2.06,2.06,0,0,0-.85.29.67.67,0,0,0-.26.62Z"/><path class="cls-29" d="M592.71,370.3a2.61,2.61,0,0,0,.26,1.44c.25.4.7.57,1.39.27a6.15,6.15,0,0,0,2-1.55c.4-.51.28-.78.05-1a1.69,1.69,0,0,0-.94-.37,5,5,0,0,0-1.39.06,2.8,2.8,0,0,0-1.06.34c-.23.16-.31.37-.32.78Z"/><path class="cls-29" d="M589.94,390.2a2.09,2.09,0,0,1-.21,1.14c-.19.31-.56.45-1.1.22a5,5,0,0,1-1.62-1.23c-.33-.4-.22-.62,0-.78a1.36,1.36,0,0,1,.75-.29,5.11,5.11,0,0,1,1.1,0,2.27,2.27,0,0,1,.86.29c.18.13.24.28.26.62Z"/><path class="cls-29" d="M607,371.79a2.08,2.08,0,0,1-.21,1.14c-.19.31-.55.46-1.1.22a5,5,0,0,1-1.62-1.23c-.32-.4-.22-.62,0-.77a1.32,1.32,0,0,1,.75-.29,4.56,4.56,0,0,1,1.1,0,2.06,2.06,0,0,1,.86.28.69.69,0,0,1,.26.63Z"/><path class="cls-29" d="M611.19,380.9a2.47,2.47,0,0,1-.2,1.22,1.12,1.12,0,0,1-1.1.63,3,3,0,0,1-1.62-.65.48.48,0,0,1,0-.77,2,2,0,0,1,.75-.56,5.67,5.67,0,0,1,1.1-.36,2,2,0,0,1,.86,0c.18.07.24.2.25.52Z"/><path class="cls-29" d="M582.12,398.74a2.09,2.09,0,0,0,.21,1.14c.19.31.56.45,1.1.22a5,5,0,0,0,1.62-1.23c.33-.4.22-.62,0-.78a1.36,1.36,0,0,0-.75-.28,4.09,4.09,0,0,0-1.1,0,2.12,2.12,0,0,0-.86.28.68.68,0,0,0-.26.62Z"/><path class="cls-29" d="M578.56,406.94a2.08,2.08,0,0,1-.21,1.14c-.19.32-.56.46-1.1.23a5,5,0,0,1-1.62-1.24c-.33-.4-.22-.62,0-.77a1.29,1.29,0,0,1,.75-.29,4.54,4.54,0,0,1,1.1,0,2.11,2.11,0,0,1,.86.29c.18.12.24.28.26.62Z"/><path class="cls-29" d="M583.78,377.64a2.09,2.09,0,0,1-.21,1.14c-.19.31-.55.45-1.1.22a5.18,5.18,0,0,1-1.62-1.23c-.32-.4-.22-.62,0-.78a1.25,1.25,0,0,1,.75-.28,4.64,4.64,0,0,1,1.11,0,2.21,2.21,0,0,1,.85.29.67.67,0,0,1,.26.62Z"/><path class="cls-29" d="M572.37,401a2,2,0,0,1-.2,1.15c-.2.31-.56.45-1.1.22a5,5,0,0,1-1.62-1.24c-.33-.4-.22-.62,0-.77a1.29,1.29,0,0,1,.75-.29,4.58,4.58,0,0,1,1.1,0,2,2,0,0,1,.86.29c.18.12.24.28.25.62Z"/><path class="cls-29" d="M601.92,383.76a1.88,1.88,0,0,0,.2,1.1c.2.28.56.35,1.1,0a6.64,6.64,0,0,0,1.62-1.54c.33-.47.22-.67,0-.78a1.11,1.11,0,0,0-.75-.14,4.28,4.28,0,0,0-1.1.24,2.86,2.86,0,0,0-.86.44A.83.83,0,0,0,601.92,383.76Z"/><path class="cls-29" d="M603.34,394.38a1.91,1.91,0,0,0,.21,1.11c.19.28.55.35,1.1,0a6.49,6.49,0,0,0,1.62-1.55c.32-.46.22-.66,0-.77a1.19,1.19,0,0,0-.75-.15,4.57,4.57,0,0,0-1.1.25,2.64,2.64,0,0,0-.86.44A.83.83,0,0,0,603.34,394.38Z"/><path class="cls-29" d="M583.55,391.07a2.09,2.09,0,0,0,.21,1.14c.19.31.55.45,1.1.22a5.22,5.22,0,0,0,1.62-1.23c.32-.41.22-.63,0-.78a1.32,1.32,0,0,0-.76-.29,4.59,4.59,0,0,0-1.1,0,2.06,2.06,0,0,0-.85.29.67.67,0,0,0-.26.62Z"/><path class="cls-29" d="M601.66,373.57a2.08,2.08,0,0,0,.2,1.14c.2.31.56.45,1.1.22a5.12,5.12,0,0,0,1.63-1.23c.32-.4.21-.62,0-.78a1.29,1.29,0,0,0-.75-.28,4.12,4.12,0,0,0-1.1,0,2.17,2.17,0,0,0-.86.28c-.18.13-.24.28-.25.62Z"/><path class="cls-29" d="M575.47,395.49a2.09,2.09,0,0,0,.21,1.14c.19.31.56.45,1.1.22a5.1,5.1,0,0,0,1.62-1.23c.33-.41.22-.63,0-.78a1.29,1.29,0,0,0-.75-.29,4.58,4.58,0,0,0-1.1,0,2.16,2.16,0,0,0-.86.29c-.18.13-.24.28-.26.62Z"/><path class="cls-29" d="M592,377.74a2.08,2.08,0,0,0,.21,1.14c.19.31.56.46,1.1.22a5,5,0,0,0,1.62-1.23c.32-.4.22-.62,0-.78a1.39,1.39,0,0,0-.75-.28,4.54,4.54,0,0,0-1.1,0,2.12,2.12,0,0,0-.86.28c-.18.13-.24.29-.26.63Z"/><path class="cls-29" d="M591.26,401.49a2.89,2.89,0,0,0,.6,1.29c.29.3.7.31,1.16-.19a6.77,6.77,0,0,0,1.18-2.19c.18-.64,0-.84-.23-1a1.09,1.09,0,0,0-.84,0,4.11,4.11,0,0,0-1.08.52,2.44,2.44,0,0,0-.75.7,1.08,1.08,0,0,0,0,.87Z"/><path class="cls-29" d="M583,406.05a2.18,2.18,0,0,0,.2,1.14c.2.31.56.46,1.11.22a5.18,5.18,0,0,0,1.62-1.23c.32-.4.22-.62,0-.78a1.43,1.43,0,0,0-.76-.28,4.12,4.12,0,0,0-1.1,0,2.06,2.06,0,0,0-.85.28c-.19.13-.25.29-.26.62Z"/><path class="cls-29" d="M603.57,391.75a2,2,0,0,0,.85.74c.32.11.64-.06.87-.67a7.25,7.25,0,0,0,.31-2.22c0-.57-.25-.65-.46-.63a1.1,1.1,0,0,0-.67.35,4.3,4.3,0,0,0-.72.88,2.61,2.61,0,0,0-.38.87A.83.83,0,0,0,603.57,391.75Z"/><path class="cls-29" d="M603.55,402a1.94,1.94,0,0,0,.2,1.1c.2.29.56.35,1.11,0a6.63,6.63,0,0,0,1.62-1.54c.32-.46.22-.66,0-.78a1.3,1.3,0,0,0-.76-.14,4.91,4.91,0,0,0-1.1.25,2.68,2.68,0,0,0-.85.44A.8.8,0,0,0,603.55,402Z"/><path class="cls-29" d="M573.66,411.56a1.79,1.79,0,0,1,.21-1.08c.19-.26.55-.27,1.1.13a7.62,7.62,0,0,1,1.62,1.75c.32.51.22.69,0,.79a1.08,1.08,0,0,1-.76.06,5.85,5.85,0,0,1-1.1-.39,3.38,3.38,0,0,1-.85-.55.9.9,0,0,1-.26-.7Z"/><path class="cls-29" d="M578.87,382.24a1.79,1.79,0,0,1,.21-1.08c.19-.26.55-.27,1.1.13A8.07,8.07,0,0,1,581.8,383c.32.51.22.69,0,.79a1.06,1.06,0,0,1-.75.06,5.69,5.69,0,0,1-1.11-.39,3.38,3.38,0,0,1-.85-.55.9.9,0,0,1-.26-.7Z"/><path class="cls-29" d="M583.75,413.87a1.79,1.79,0,0,1,.21-1.08c.2-.26.56-.27,1.1.13a7.4,7.4,0,0,1,1.62,1.75c.33.51.23.69,0,.79a1.06,1.06,0,0,1-.75.05,5,5,0,0,1-1.1-.39,3.36,3.36,0,0,1-.86-.54.93.93,0,0,1-.26-.7Z"/><path class="cls-28" d="M573.45,388.82a2.45,2.45,0,0,0-2.15,0,3,3,0,0,0-1.22,1,.73.73,0,0,0,.17,1,1.86,1.86,0,0,0,1.41.27,6.06,6.06,0,0,0,2.1-.58c.51-.3.59-.65.47-.94a1.65,1.65,0,0,0-.78-.68Z"/><path class="cls-28" d="M591.56,371.34a2.19,2.19,0,0,0-1-.26,2.45,2.45,0,0,0-1.19.25,3,3,0,0,0-1.22,1,.73.73,0,0,0,.17,1,1.86,1.86,0,0,0,1.41.28,6.13,6.13,0,0,0,2.1-.59c.5-.29.58-.65.47-.93a1.66,1.66,0,0,0-.78-.69Z"/><path class="cls-28" d="M591.09,392.66a2.33,2.33,0,0,1,1-.26,2.45,2.45,0,0,1,1.19.25,3,3,0,0,1,1.22,1,.74.74,0,0,1-.17,1,1.91,1.91,0,0,1-1.41.27,6.13,6.13,0,0,1-2.1-.59c-.5-.29-.58-.64-.47-.93a1.59,1.59,0,0,1,.78-.68Z"/><path class="cls-28" d="M610.12,377.15a3.78,3.78,0,0,1,1-.63,2.49,2.49,0,0,1,1.19-.19,1.9,1.9,0,0,1,1.22.54.85.85,0,0,1-.17,1,2.76,2.76,0,0,1-1.41.79,5.09,5.09,0,0,1-2.1.18c-.51-.1-.59-.43-.47-.76a2.82,2.82,0,0,1,.78-1Z"/><path class="cls-28" d="M582.39,391.71a2.32,2.32,0,0,0-1-.25,2.36,2.36,0,0,0-1.19.24,3,3,0,0,0-1.22,1,.73.73,0,0,0,.17,1,1.9,1.9,0,0,0,1.42.27,6.19,6.19,0,0,0,2.1-.58c.5-.3.58-.65.46-.94a1.65,1.65,0,0,0-.78-.68Z"/><path class="cls-28" d="M600.5,374.22a2.19,2.19,0,0,0-1-.26,2.34,2.34,0,0,0-1.19.24,3,3,0,0,0-1.22,1,.73.73,0,0,0,.17,1,1.86,1.86,0,0,0,1.41.27,6.06,6.06,0,0,0,2.1-.58c.51-.29.59-.65.47-.93a1.61,1.61,0,0,0-.78-.69Z"/><path class="cls-28" d="M589.9,403.26a2.5,2.5,0,0,0-1-.26,2.45,2.45,0,0,0-1.19.25,3,3,0,0,0-1.22,1,.73.73,0,0,0,.17,1,1.91,1.91,0,0,0,1.41.27,6.29,6.29,0,0,0,2.1-.58c.51-.3.58-.65.47-.94a1.59,1.59,0,0,0-.78-.68Z"/><path class="cls-20" d="M592.49,395.86a1.83,1.83,0,0,0-.54.57,1.92,1.92,0,0,0-.28.92,2.45,2.45,0,0,0,.24,1.21.56.56,0,0,0,.74.23,1.51,1.51,0,0,0,.71-.88,4.34,4.34,0,0,0,.36-1.67c0-.46-.23-.65-.48-.68a1.31,1.31,0,0,0-.76.29Z"/><path class="cls-20" d="M612.84,379.63a3.47,3.47,0,0,0-.54.77,2.5,2.5,0,0,0-.28,1,2,2,0,0,0,.24,1.13c.18.22.46.17.74,0a2.55,2.55,0,0,0,.71-1.15,5.37,5.37,0,0,0,.36-1.81c0-.45-.23-.56-.48-.49a1.92,1.92,0,0,0-.76.57Z"/><path class="cls-28" d="M609.71,385.83a2.12,2.12,0,0,0-1-.08,2.84,2.84,0,0,0-1.19.48,4,4,0,0,0-1.21,1.22.65.65,0,0,0,.16.93,1.73,1.73,0,0,0,1.42,0,7.12,7.12,0,0,0,2.1-1c.5-.39.58-.75.46-1a1.18,1.18,0,0,0-.77-.53Z"/><path class="cls-28" d="M610.47,396.91a2.06,2.06,0,0,0-1-.08,2.88,2.88,0,0,0-1.19.48,4,4,0,0,0-1.22,1.22.67.67,0,0,0,.17.94,1.78,1.78,0,0,0,1.41,0,7.15,7.15,0,0,0,2.1-1c.51-.39.58-.75.47-1a1.17,1.17,0,0,0-.78-.53Z"/><path class="cls-20" d="M571.56,395.56a2.68,2.68,0,0,0-.82.57,2.44,2.44,0,0,0-.56,1.08,3.21,3.21,0,0,0,0,1.57.75.75,0,0,0,.86.48,1.87,1.87,0,0,0,1.1-.92,5.81,5.81,0,0,0,.87-2c.09-.57-.13-.87-.43-.94A1.56,1.56,0,0,0,571.56,395.56Z"/><path class="cls-20" d="M589.65,378.07a2.33,2.33,0,0,0-.81.57,2.3,2.3,0,0,0-.56,1.07,3,3,0,0,0,0,1.57.73.73,0,0,0,.85.48,1.87,1.87,0,0,0,1.11-.92,6,6,0,0,0,.86-2c.09-.57-.12-.85-.42-.94A1.61,1.61,0,0,0,589.65,378.07Z"/><path class="cls-20" d="M580.58,406a2.8,2.8,0,0,0-.82.57,2.34,2.34,0,0,0-.55,1.08,3,3,0,0,0,0,1.57.72.72,0,0,0,.85.48,1.87,1.87,0,0,0,1.1-.92,5.81,5.81,0,0,0,.87-2c.09-.57-.13-.85-.43-.94A1.57,1.57,0,0,0,580.58,406Z"/><path class="cls-20" d="M585.8,376.72a2.33,2.33,0,0,0-.81.57,2.3,2.3,0,0,0-.56,1.07,3,3,0,0,0,0,1.57.73.73,0,0,0,.86.48,1.88,1.88,0,0,0,1.1-.92,5.55,5.55,0,0,0,.86-2c.1-.57-.12-.87-.42-.95A1.67,1.67,0,0,0,585.8,376.72Z"/><path class="cls-25" d="M601.53,391.71a3,3,0,0,0-.82.73,2.93,2.93,0,0,0-.56,1.19,3.2,3.2,0,0,0,0,1.57.62.62,0,0,0,.86.32,2.54,2.54,0,0,0,1.1-1.12,7,7,0,0,0,.87-2.15c.09-.59-.13-.85-.43-.87a1.81,1.81,0,0,0-1,.36Z"/><path class="cls-20" d="M601,396.5a3,3,0,0,0-2.36,0,3.06,3.06,0,0,0-1.28.9.6.6,0,0,0,.23.88,2.53,2.53,0,0,0,1.56.26,6.64,6.64,0,0,0,2.26-.54c.54-.25.61-.58.47-.85A1.69,1.69,0,0,0,601,396.5Z"/><path class="cls-20" d="M601.15,402.42a3.36,3.36,0,0,0-.82.73,2.8,2.8,0,0,0-.55,1.19,3,3,0,0,0,0,1.57.61.61,0,0,0,.85.32,2.47,2.47,0,0,0,1.1-1.13,6.85,6.85,0,0,0,.87-2.15c.09-.58-.13-.84-.43-.87a1.93,1.93,0,0,0-1,.37Z"/><path class="cls-30" d="M572.66,410.59a1.38,1.38,0,0,1-.78,0,2.26,2.26,0,0,1-1-.56,4,4,0,0,1-1-1.29.7.7,0,0,1,.14-.92c.23-.16.59-.15,1.15.09a5.82,5.82,0,0,1,1.71,1.12c.41.42.48.79.38,1a.91.91,0,0,1-.64.48Z"/><path class="cls-20" d="M576.41,390.5a.71.71,0,0,0-1-.31,3,3,0,0,0-.81,1.62c-.11.53,0,.77.31.95a1.63,1.63,0,0,0,1,.28.78.78,0,0,0,.63-.46,2.43,2.43,0,0,0,.16-.93A2.07,2.07,0,0,0,576.41,390.5Z"/><path class="cls-20" d="M595,373.12c-.27-.43-.79-.74-1.25-.39a3.71,3.71,0,0,0-1,2,1,1,0,0,0,.37,1.19,2,2,0,0,0,1.19.33.91.91,0,0,0,.78-.55,3.14,3.14,0,0,0,.2-1.16A2.48,2.48,0,0,0,595,373.12Z"/><path class="cls-20" d="M583.92,401.06c-.22-.35-.63-.6-1-.31a3,3,0,0,0-.82,1.62c-.1.53,0,.78.31,1a1.65,1.65,0,0,0,1,.27.79.79,0,0,0,.64-.45,2.54,2.54,0,0,0,.15-.94A2.1,2.1,0,0,0,583.92,401.06Z"/><path class="cls-20" d="M579.45,400a.7.7,0,0,0-1-.31,3.06,3.06,0,0,0-.82,1.62c-.1.53,0,.78.31,1a1.62,1.62,0,0,0,1,.27.75.75,0,0,0,.64-.45,2.52,2.52,0,0,0,.15-.93A2.12,2.12,0,0,0,579.45,400Z"/><path class="cls-25" d="M603.72,385.88c-.22-.44-.64-.68-1-.18a7.19,7.19,0,0,0-.82,2.58c-.1.79,0,1.12.32,1.31a1,1,0,0,0,1,.13,1.29,1.29,0,0,0,.63-.82,5.51,5.51,0,0,0,.16-1.38,3.87,3.87,0,0,0-.22-1.62Z"/><path class="cls-20" d="M604.49,396.82a.65.65,0,0,0-1-.13,3.75,3.75,0,0,0-.82,1.78c-.1.54,0,.76.31.9a1.45,1.45,0,0,0,1,.1,1,1,0,0,0,.64-.57,2.73,2.73,0,0,0,.15-1A1.92,1.92,0,0,0,604.49,396.82Z"/><path class="cls-20" d="M585.35,393.39c-.22-.35-.63-.6-1-.31a3,3,0,0,0-.82,1.62c-.1.53,0,.77.31.95a1.63,1.63,0,0,0,1,.28.75.75,0,0,0,.63-.46,2.25,2.25,0,0,0,.16-.93A2.07,2.07,0,0,0,585.35,393.39Z"/><path class="cls-20" d="M597.82,377.35a.71.71,0,0,0-1-.31,3.12,3.12,0,0,0-.81,1.62.8.8,0,0,0,.31,1,1.62,1.62,0,0,0,1,.27.73.73,0,0,0,.63-.45,2.32,2.32,0,0,0,.16-.93A2.12,2.12,0,0,0,597.82,377.35Z"/><path class="cls-20" d="M577.28,397.81c-.23-.35-.64-.6-1-.32a3.12,3.12,0,0,0-.82,1.63c-.1.53,0,.77.31.95a1.68,1.68,0,0,0,1,.28.78.78,0,0,0,.63-.46,2.26,2.26,0,0,0,.15-.93A2.15,2.15,0,0,0,577.28,397.81Z"/><path class="cls-20" d="M594.11,404a1,1,0,0,0-1.44-.44,4.27,4.27,0,0,0-1.15,2.3c-.14.75.05,1.1.44,1.36a2.24,2.24,0,0,0,1.36.37,1.07,1.07,0,0,0,.9-.63,3.47,3.47,0,0,0,.22-1.31,3.16,3.16,0,0,0-.3-1.65Z"/><path class="cls-20" d="M575.46,409.8a.64.64,0,0,1-1,0,4.42,4.42,0,0,1-.82-1.88c-.1-.56,0-.77.31-.87a1.33,1.33,0,0,1,1,0,1.2,1.2,0,0,1,.64.65,2.82,2.82,0,0,1,.15,1A1.81,1.81,0,0,1,575.46,409.8Z"/><path class="cls-20" d="M580.67,380.49a.64.64,0,0,1-1,0,4.31,4.31,0,0,1-.82-1.88c-.1-.56,0-.76.31-.87a1.39,1.39,0,0,1,1,0,1.23,1.23,0,0,1,.64.65,2.86,2.86,0,0,1,.15,1A1.78,1.78,0,0,1,580.67,380.49Z"/><path class="cls-28" d="M573.75,387.2a2,2,0,0,0-1-.8,2.64,2.64,0,0,0-1.65,0,.92.92,0,0,0-.63.82c0,.27.26.44.65.51a11.85,11.85,0,0,0,1.41.07,5.21,5.21,0,0,0,1.2,0c.24-.09.25-.33.07-.62Z"/><path class="cls-28" d="M591.84,369.71a1.93,1.93,0,0,0-1.05-.81,2.62,2.62,0,0,0-1.64,0,.94.94,0,0,0-.64.82c0,.27.26.44.65.52a12.12,12.12,0,0,0,1.41.06,5.3,5.3,0,0,0,1.21,0c.23-.09.25-.32.06-.62Z"/><path class="cls-28" d="M590.81,391a1.93,1.93,0,0,1,1.05-.81,2.69,2.69,0,0,1,1.64,0,.94.94,0,0,1,.64.82c0,.27-.26.44-.65.52a10.25,10.25,0,0,1-1.41.06,4.76,4.76,0,0,1-1.21,0c-.23-.09-.25-.32-.06-.62Z"/><path class="cls-28" d="M610.35,375.37a3.23,3.23,0,0,1,1-1.19,3.18,3.18,0,0,1,1.65-.57c.44,0,.65.31.63.58a1,1,0,0,1-.64.75,14.23,14.23,0,0,1-1.42.59,5.37,5.37,0,0,1-1.2.44C610.18,376,610.17,375.73,610.35,375.37Z"/><path class="cls-28" d="M572.79,412.26a1.34,1.34,0,0,1-1,.48,3.17,3.17,0,0,1-1.65-.56,1.37,1.37,0,0,1-.63-1c0-.26.26-.36.65-.31s.9.25,1.41.38a5.62,5.62,0,0,1,1.21.38.42.42,0,0,1,.06.65Z"/><path class="cls-28" d="M582.89,414.57a1.37,1.37,0,0,1-1,.48,3.14,3.14,0,0,1-1.65-.56,1.36,1.36,0,0,1-.63-1c0-.26.25-.36.64-.31s.91.24,1.42.37a4.8,4.8,0,0,1,1.2.39.42.42,0,0,1,.07.65Z"/><path class="cls-24" d="M573.83,393.37a1.2,1.2,0,0,0-.83-1.11,4.6,4.6,0,0,0-2.46.28c-.69.28-.93.64-1,1.13a1.36,1.36,0,0,0,.57,1.35,3,3,0,0,0,1.92-.13,5,5,0,0,0,1.49-.69.75.75,0,0,0,.3-.83Z"/><path class="cls-24" d="M591.93,375.88a1.19,1.19,0,0,0-.83-1.12,4.53,4.53,0,0,0-2.46.29,1.28,1.28,0,0,0-1,1.13,1.33,1.33,0,0,0,.57,1.34,2.89,2.89,0,0,0,1.92-.13,5,5,0,0,0,1.49-.68.77.77,0,0,0,.3-.83Z"/><path class="cls-24" d="M581.34,403.93a1.19,1.19,0,0,0-.83-1.12,4.62,4.62,0,0,0-2.46.28,1.29,1.29,0,0,0-1,1.13,1.33,1.33,0,0,0,.57,1.35,3,3,0,0,0,1.92-.13,5,5,0,0,0,1.49-.69.75.75,0,0,0,.3-.82Z"/><path class="cls-24" d="M586.55,374.62a1.2,1.2,0,0,0-.82-1.12,4.55,4.55,0,0,0-2.47.29,1.28,1.28,0,0,0-1,1.13,1.33,1.33,0,0,0,.57,1.34,2.89,2.89,0,0,0,1.92-.13,5,5,0,0,0,1.49-.68.77.77,0,0,0,.3-.83Z"/><path class="cls-24" d="M575.1,380.76a1.19,1.19,0,0,1,1-.7,2.75,2.75,0,0,1,1.6.82A1,1,0,0,1,578,382a1.45,1.45,0,0,1-.89,1,1.83,1.83,0,0,1-1.29-.56,2.81,2.81,0,0,1-.77-.91.7.7,0,0,1,.1-.75Z"/><path class="cls-24" d="M576.87,402.86a1.17,1.17,0,0,0-.83-1.11,4.62,4.62,0,0,0-2.46.28,1.28,1.28,0,0,0-1,1.13,1.35,1.35,0,0,0,.57,1.35,3,3,0,0,0,1.92-.13,5,5,0,0,0,1.49-.69.75.75,0,0,0,.3-.83Z"/><path class="cls-24" d="M592.26,412a1.31,1.31,0,0,0,.83-1.27,5.2,5.2,0,0,0-1.21-2.44,1.39,1.39,0,0,0-1.53-.58,1.49,1.49,0,0,0-1.18,1.09,3.29,3.29,0,0,0,.85,1.93,4.7,4.7,0,0,0,1.27,1.27A.84.84,0,0,0,592.26,412Z"/><path class="cls-24" d="M574.88,397.47c-.17-.36-.44-.86-.79-.8s-.81.64-1,1.18a2.07,2.07,0,0,0,0,1.47c.17.51.47,1.08.76,1.14s.6-.37.83-.81a4,4,0,0,0,.42-1.23,1.49,1.49,0,0,0-.17-.95Z"/><path class="cls-24" d="M590.9,398.08a2.33,2.33,0,0,0-1-1.79,6.37,6.37,0,0,0-3.1-.82c-.87,0-1.17.35-1.22.95a2.47,2.47,0,0,0,.71,2,4.19,4.19,0,0,0,2.42.75,4.44,4.44,0,0,0,1.86-.15C590.88,398.83,591,398.58,590.9,398.08Z"/><path class="cls-24" d="M601.14,389.1c0-.38-.2-.9-.83-1a5.1,5.1,0,0,0-2.46.75,1.64,1.64,0,0,0-1,1.31c0,.51.11,1.1.57,1.25a3.19,3.19,0,0,0,1.92-.5,5.8,5.8,0,0,0,1.49-1,.88.88,0,0,0,.3-.89Z"/><path class="cls-24" d="M601.91,400.18c0-.38-.19-.9-.82-.95a5.17,5.17,0,0,0-2.47.75,1.64,1.64,0,0,0-1,1.31c0,.51.1,1.11.57,1.25a3.19,3.19,0,0,0,1.92-.5,5.8,5.8,0,0,0,1.49-1,.88.88,0,0,0,.3-.89Z"/><path class="cls-24" d="M572.88,406.12c0,.37-.17.88-.71.88a4.32,4.32,0,0,1-2.1-.95,1.81,1.81,0,0,1-.83-1.39c0-.5.09-1.09.48-1.2s1.07.26,1.63.63a6.49,6.49,0,0,1,1.27,1.09,1.09,1.09,0,0,1,.26.92Z"/><path class="cls-20" d="M577.57,390a2,2,0,0,0,.6,1.5c.35.3.74.19,1.14-.1a2.2,2.2,0,0,0,.86-1.17.93.93,0,0,0-.6-.87,1.59,1.59,0,0,0-1.09-.18,1,1,0,0,0-.89.82Z"/><path class="cls-20" d="M595.68,372.53a2,2,0,0,0,.6,1.51c.35.29.73.19,1.14-.11a2.14,2.14,0,0,0,.85-1.16.93.93,0,0,0-.59-.87,1.59,1.59,0,0,0-1.09-.18,1.05,1.05,0,0,0-.9.81Z"/><path class="cls-20" d="M587.07,413.49a2.57,2.57,0,0,1,.74-1.87c.44-.37.92-.24,1.42.13a2.61,2.61,0,0,1,1,1.46,1.19,1.19,0,0,1-.74,1.07,1.91,1.91,0,0,1-1.35.22A1.29,1.29,0,0,1,587.07,413.49Z"/><path class="cls-20" d="M585.08,400.58a2,2,0,0,0,.59,1.5c.35.3.74.2,1.14-.1a2.1,2.1,0,0,0,.86-1.17.92.92,0,0,0-.6-.86,1.58,1.58,0,0,0-1.09-.19,1.05,1.05,0,0,0-.89.82Z"/><path class="cls-20" d="M604.88,385a1.73,1.73,0,0,0,.6,1.4c.35.23.74.05,1.14-.31a2.88,2.88,0,0,0,.86-1.34c0-.4-.26-.63-.6-.76a1.47,1.47,0,0,0-1.09,0,1.34,1.34,0,0,0-.89,1Z"/><path class="cls-20" d="M605.23,396.33a1.73,1.73,0,0,0,.6,1.4c.35.23.74,0,1.14-.31a2.74,2.74,0,0,0,.85-1.34c.06-.4-.25-.63-.59-.76a1.47,1.47,0,0,0-1.09,0,1.37,1.37,0,0,0-.9,1Z"/><path class="cls-20" d="M586.52,392.91a2,2,0,0,0,.59,1.5c.35.3.74.19,1.14-.1a2.1,2.1,0,0,0,.86-1.17.93.93,0,0,0-.6-.87,1.58,1.58,0,0,0-1.09-.18,1,1,0,0,0-.89.82Z"/><path class="cls-20" d="M599.28,377.63a2,2,0,0,0,.6,1.5c.35.3.74.19,1.14-.11a2.07,2.07,0,0,0,.85-1.16.9.9,0,0,0-.59-.87,1.59,1.59,0,0,0-1.09-.18,1,1,0,0,0-.89.82Z"/><path class="cls-20" d="M578.44,397.33a2,2,0,0,0,.6,1.5c.35.3.74.2,1.14-.1a2.13,2.13,0,0,0,.85-1.17.9.9,0,0,0-.59-.87,1.59,1.59,0,0,0-1.09-.18,1.06,1.06,0,0,0-.9.82Z"/><path class="cls-20" d="M588.19,400.65a2.76,2.76,0,0,0,.6,1.86c.34.38.73.25,1.13-.13a2.62,2.62,0,0,0,.86-1.45,1.2,1.2,0,0,0-.6-1.09,1.28,1.28,0,0,0-1.08-.22,1.16,1.16,0,0,0-.9,1Z"/><path class="cls-20" d="M586,407.89a2,2,0,0,0,.59,1.5c.35.3.74.2,1.14-.1a2.1,2.1,0,0,0,.86-1.17.92.92,0,0,0-.6-.86,1.59,1.59,0,0,0-1.09-.19,1,1,0,0,0-.89.82Z"/><path class="cls-20" d="M606.44,391a1.69,1.69,0,0,0,.59,1.4c.35.23.74.05,1.14-.32a2.67,2.67,0,0,0,.86-1.33c.05-.4-.26-.64-.6-.77a1.5,1.5,0,0,0-1.08,0,1.31,1.31,0,0,0-.9,1Z"/><path class="cls-20" d="M580.38,395.33a1.71,1.71,0,0,0,.6,1.4c.35.23.74,0,1.14-.31a2.76,2.76,0,0,0,.86-1.34c0-.4-.26-.63-.6-.76a1.43,1.43,0,0,0-1.09,0,1.31,1.31,0,0,0-.89,1Z"/><path class="cls-20" d="M576.63,410.64a1.45,1.45,0,0,1,.59-1.32c.35-.2.74,0,1.14.45a3.21,3.21,0,0,1,.86,1.44c0,.4-.26.61-.6.69a1.51,1.51,0,0,1-1.09-.17,1.58,1.58,0,0,1-.89-1.1Z"/><path class="cls-20" d="M581.84,381.33a1.47,1.47,0,0,1,.59-1.32c.35-.19.74,0,1.14.45a3.22,3.22,0,0,1,.86,1.44c.05.4-.26.61-.6.69a1.46,1.46,0,0,1-1.09-.17,1.6,1.6,0,0,1-.89-1.1Z"/><path class="cls-29" d="M584.59,411.11a1.48,1.48,0,0,1,.59-1.33c.35-.19.74,0,1.14.46a3.16,3.16,0,0,1,.86,1.44c.05.4-.26.6-.6.68a1.45,1.45,0,0,1-1.09-.17,1.54,1.54,0,0,1-.89-1.1Z"/><path class="cls-20" d="M579.72,388.05c.09.29.61.59,1,.93a5.85,5.85,0,0,1,.87,1c.23.31.45.56.7.5s.53-.47.75-.82.38-.69.21-1a2.62,2.62,0,0,0-1.2-.94,3,3,0,0,0-1.62-.36C580,387.43,579.63,387.75,579.72,388.05Z"/><path class="cls-20" d="M597.83,370.39c.11.33.65.64,1,1a6.2,6.2,0,0,1,.92,1.09c.25.34.48.6.75.52s.57-.49.81-.87.4-.73.22-1.09a2.77,2.77,0,0,0-1.27-1,3.52,3.52,0,0,0-1.74-.39c-.49.08-.84.41-.75.74Z"/><path class="cls-28" d="M589.37,415.85c.14-.47.94-.93,1.54-1.45a9.19,9.19,0,0,0,1.35-1.58c.36-.48.7-.87,1.09-.77s.83.71,1.16,1.27.59,1.06.33,1.6a4.15,4.15,0,0,1-1.86,1.45,4.85,4.85,0,0,1-2.52.56c-.73-.11-1.23-.6-1.09-1.07Z"/><path class="cls-28" d="M580.7,409.94c.09-.27.61-.42,1-.62a3.49,3.49,0,0,0,.87-.76c.23-.23.45-.41.7-.27a2.87,2.87,0,0,1,.75,1c.22.43.38.81.21,1.09A1.69,1.69,0,0,1,583,411a2.84,2.84,0,0,1-1.62-.16c-.47-.22-.79-.63-.7-.9Z"/><path class="cls-20" d="M598.62,392.1a2.05,2.05,0,0,0-.88.33c-.26.18-.39.42-.43,1.06a5,5,0,0,0,.25,2.15.61.61,0,0,0,1.1.09,4.56,4.56,0,0,0,.64-1.77,2.15,2.15,0,0,0,.06-1.16c-.1-.23-.34-.36-.45-.48S598.82,392.09,598.62,392.1Z"/><path class="cls-28" d="M598.09,406a5.61,5.61,0,0,0-.08,2.52,1,1,0,0,0,1.39.73,2.6,2.6,0,0,0,1.42-1.67c0-.55-.64-.78-1.12-1.13a10.85,10.85,0,0,1-1-1c-.23-.19-.44-.08-.61.55Z"/><path class="cls-20" d="M598.23,410.94a2.31,2.31,0,0,0,.31,1.49c.25.32.57.27,1.3-.35a15.38,15.38,0,0,0,2.33-2.5c.44-.68.18-.83-.27-.77a7.64,7.64,0,0,0-1.62.59c-.5.22-.88.36-1.24.56a1.47,1.47,0,0,0-.82,1Z"/><path class="cls-20" d="M600.76,385.61a6.9,6.9,0,0,0-1.24,1.58c-.12.34.22.4.53.43a1.1,1.1,0,0,0,.84-.22,2,2,0,0,0,.53-.95,1,1,0,0,0,0-.75c-.09-.12-.25-.08-.36-.06a.65.65,0,0,1-.29,0Z"/><path class="cls-20" d="M607.93,377.82a8.14,8.14,0,0,0-1.92,1.57,2.61,2.61,0,0,0-.79,1.55.66.66,0,0,0,.71.74,4.25,4.25,0,0,0,1.78-.61,1.92,1.92,0,0,0,1-1,3.36,3.36,0,0,0,.07-1.22,3.58,3.58,0,0,0-.07-.88c-.08-.22-.22-.39-.74-.11Z"/><path class="cls-24" d="M603.08,404.73a8.69,8.69,0,0,0-.84,2.11,1,1,0,0,0,.5,1.17c.33.17.73.1,1.29-.33a5.8,5.8,0,0,0,1.54-1.82,1.16,1.16,0,0,0-.18-1.37,2.67,2.67,0,0,0-1-.64c-.32-.12-.54-.16-.71-.06S603.37,404.16,603.08,404.73Z"/><path class="cls-20" d="M607.53,400.68a8.35,8.35,0,0,0-.94,2c-.15.61,0,.89.29,1s.78-.08,1.42-.65a12.82,12.82,0,0,0,1.83-2.14c.38-.56.33-.64-.06-.7a11.81,11.81,0,0,0-1.58,0,1,1,0,0,0-1,.53Z"/><path class="cls-25" d="M611.69,383.29a6.36,6.36,0,0,0-1.79.39c-.43.21-.51.5-.35.82a2.48,2.48,0,0,0,1,.9,4.86,4.86,0,0,0,1.52.59,2.09,2.09,0,0,0,1.35-.12,1.19,1.19,0,0,0,.45-1,2.73,2.73,0,0,0-.22-1.24.74.74,0,0,0-.7-.37,6.15,6.15,0,0,0-1.24,0Z"/><path class="cls-29" d="M611,387.2a6.5,6.5,0,0,0-.66,2.05,1.52,1.52,0,0,0,.71,1.4,4.17,4.17,0,0,0,1.48.65c.44.1.75.09,1-.15a2.36,2.36,0,0,0,.4-1.48,7.9,7.9,0,0,0-.23-2.34c-.19-.52-.49-.52-.88-.53s-.89-.06-1.18-.08S611.21,386.72,611,387.2Z"/><path class="cls-20" d="M614,394.76a4.16,4.16,0,0,1,0,2,1.11,1.11,0,0,1-1.1.85,2.58,2.58,0,0,1-1.43-.57c-.38-.29-.56-.6-.48-.95a2.09,2.09,0,0,1,.87-1.06,4.11,4.11,0,0,1,1.41-.7C613.64,394.22,613.88,394.27,614,394.76Z"/><path class="cls-28" d="M613.07,391.91a5,5,0,0,0-1.73.28,1.37,1.37,0,0,0-.88.65.71.71,0,0,0,.09.73,1.06,1.06,0,0,0,.75.41,6.35,6.35,0,0,0,1.24,0,1.54,1.54,0,0,0,.86-.15.85.85,0,0,0,.3-.61,2.82,2.82,0,0,0,0-.82.6.6,0,0,0-.61-.54Z"/><path class="cls-24" d="M608.6,392.88a5.36,5.36,0,0,0-.79.79.79.79,0,0,0-.06.77,3.54,3.54,0,0,0,.44.93,2.27,2.27,0,0,0,.72.67,1.56,1.56,0,0,0,.81.25.92.92,0,0,0,.93-1.24,5.93,5.93,0,0,0-.67-1.39,6,6,0,0,0-.52-.83.67.67,0,0,0-.46-.21c-.11,0-.16.08-.38.28Z"/><path class="cls-20" d="M587.2,370.82a3,3,0,0,0-1.5,1.32c-.2.52.21,1,.52,1.2s.54.25.76,0a4.37,4.37,0,0,0,.61-1.15,2.61,2.61,0,0,0,.33-1C587.9,370.89,587.7,370.64,587.2,370.82Z"/><path class="cls-28" d="M598,380.39a7,7,0,0,0-2.4.23,1.25,1.25,0,0,0-1,1,3.31,3.31,0,0,0,0,1.43.68.68,0,0,0,.71.61,2.64,2.64,0,0,0,1.66-.6,5.75,5.75,0,0,0,1.45-1.78c.27-.51.24-.77-.33-.85Z"/><path class="cls-29" d="M593.35,380.06a3.3,3.3,0,0,0-1.77.9,2.92,2.92,0,0,0-.9,1.67,1.64,1.64,0,0,0,.42,1.4,1.16,1.16,0,0,0,1.35.28,3.51,3.51,0,0,0,1.26-1.63,4.35,4.35,0,0,0,.45-1.9.69.69,0,0,0-.81-.73Z"/><path class="cls-20" d="M588.82,382.72a7.47,7.47,0,0,0-1.49-1.3c-.46-.24-.79-.11-1.36.26a6,6,0,0,0-1.64,1.42c-.26.44,0,.73.7,1a12.27,12.27,0,0,0,2.57.56,3.25,3.25,0,0,0,1.75-.12.66.66,0,0,0,.2-.83A3,3,0,0,0,588.82,382.72Z"/><path class="cls-24" d="M692.32,461.12l-.21,34.43-53.49-10.38-1.7-34Z"/><path class="cls-20" d="M637.23,457.35l-.31-6.17,55.4,9.94,0,5.38Z"/><path class="cls-24" d="M681.12,389l-44.2,62.23,55.4,9.94.43-70.59Z"/><path class="cls-26" d="M652,453.88l40.41-63"/><path class="cls-26" d="M669.79,457.08l22.48-42.32"/><path class="cls-26" d="M686.84,460.64l5.29-12.46"/><path class="cls-26" d="M637.77,468.18l54.46,9.24"/><path class="cls-26" d="M638.4,480.82l52.81,9.48"/><path class="cls-6" d="M185.36,360.72c-2.36.09-3.19-.61-2.48-2.08a6.43,6.43,0,0,1,5.74-4.22l8.58-.29c1.68-.19,2.58.31,2.71,1.46-.48,3.6-2.19,5.34-5.12,5.18-6.28,0-9.42-.06-9.42-.06Z"/><path class="cls-6" d="M149.77,351.83c.18,1.08,2.16,2.54,6.19,3.18,2,.36,2.76-2.45,1.79-4.12q-4.44-6.08-6.1-4.81A7.4,7.4,0,0,0,149.77,351.83Z"/><path class="cls-5" d="M184.08,368.77c1.62-.06,3.09.79,4.4,2.61-9.86,1.24-18.95.63-28.49-2.91-7.05-2.61-7.73-5.71-4.42-4.64,7.83,2.36,17.1,4,28.49,4.94Z"/><path class="cls-5" d="M265,323.86c-4.78,0-9,5.68-9.51,12.68s3,12.67,7.82,12.67,9-5.67,9.51-12.67S269.81,323.86,265,323.86Z"/><path class="cls-3" d="M266.35,345.55c3,0,5.51-4.4,5.51-9.78s-2.47-9.77-5.51-9.77-5.5,4.4-5.5,9.77S263.32,345.55,266.35,345.55Z"/><path class="cls-5" d="M160.74,353.47a10,10,0,0,0,.72,2.72,3.13,3.13,0,0,0,1.95,1.68,10.63,10.63,0,0,0,3,.55c.74,0,.92-.17,1-.87a7.54,7.54,0,0,0-.15-2.7c-.22-.76-.66-1.06-1.69-1.44a33.22,33.22,0,0,0-3.56-1c-.92-.21-1.13-.17-1.25,0S160.64,352.77,160.74,353.47Z"/><path class="cls-5" d="M178.42,355.84a7.18,7.18,0,0,1-.84,2.53,2.79,2.79,0,0,1-2.34,1.15,14.32,14.32,0,0,1-3.56-.27c-.88-.2-1.1-.42-1.2-1.15a6.43,6.43,0,0,1,.18-2.65c.27-.7.79-.9,2-1s3.16-.08,4.26,0,1.36.13,1.49.3.13.42,0,1.09Z"/><path class="cls-5" d="M252.29,305.16c-6.6,2.91-9.89,4.38-9.89,4.38a53.82,53.82,0,0,1,2.74,10.63l10.66-5.94q-.5-6.06-3.51-9.06Z"/><path class="cls-5" d="M257.67,303l-4.17,1.8a13.1,13.1,0,0,1,3.69,8.3l4.64-3.14Q260.65,304.49,257.67,303Z"/><path class="cls-1" d="M35.23,271.2,0,265.59l.26,4,35,6Z"/><path class="cls-19" d="M507.07,242c-.64.79-.51,2.16.42,4.11l19.25,1.51c.13-2.35.19-3.55.19-3.57L507.07,242Z"/><path class="cls-15" d="M525.17,81.44,358.65,78.23l-.94,130.44,197.61,25.45-1.41-111Z"/><path class="cls-24" d="M193.73,283l86.43,12.34,70.34-36.67L495.75,276.5l-12.67,8.44,75.26,10-1.14-60.59L425.12,218.86l-41.66,29.76L310.85,237.9l-20.53,12.21-98.7-21.42Z"/><path class="cls-15" d="M194.7,247.52l0-2.34,31.86,4.55-2.36,2Z"/><path class="cls-15" d="M224.15,251.72l.57,29.5,2.37-2.32-.58-29.17Z"/><path class="cls-18" d="M194.7,247.52l.64,29.29,29.38,4.41-.57-29.5Z"/><path class="cls-19" d="M554.36,155.78,529,153.31l1.17,83.42,3.73-1.63-1.13-78,21.61,2.26Z"/><path class="cls-6" d="M555.45,242.11l-1-82.72-21.61-2.27.42,80.09Z"/><path class="cls-7" d="M555.45,242.11l-22.23-4.9,21.19-77.82Z"/><path class="cls-11" d="M528.48,273.7q-29.67-24.31-29.67-24.33c.95-2.4,2.87-3.55,5.75-3.48l22.18,1.74,26.91-18.4-21-2.45a3,3,0,0,1,3.15-2.63l19.48,1.93q.4,32.08.4,32.08l-19.27,13.77a12,12,0,0,1-7.91,1.77Z"/><path class="cls-4" d="M503.58,248.06c-2.77-.45-4.36,0-4.77,1.31q-.06,18.56-.07,18.55c.17,1.75,1.61,2.7,4.3,2.81l24.51,3c2.21.15,3.58-.92,4.11-3.17q.4-17,.4-17c-.24-1.86-1.43-2.92-3.55-3.16Z"/><path class="cls-27" d="M526.74,247.64c-9.2-1.38-13.84-1.74-13.94-1.11q15-9.89,20-11.66c-.15-5.39-.21-8.1-.21-8.1l21,2.45-26.91,18.4Z"/><path class="cls-1" d="M262.79,49.09l-3.94-.24,1.54,103.47,4,.67Z"/><path class="cls-20" d="M421.66,163.26,276.4,148.73l37.8-11.88L377,143.62l49.53-19.49,65.87,7.44Z"/><path class="cls-3" d="M464.2,99.67a13,13,0,0,0-1.54-.09q-.32,31-.32,31a7.65,7.65,0,0,1-7.11,6.2q6.12,3,16.4.1a7.67,7.67,0,0,1-7.12-6.21S464.41,120.35,464.2,99.67Z"/><path class="cls-18" d="M490.74,101l1.64,30.53-.21-33.37L441.1,117.59l.7,36.63,1.09-34.85Z"/><path class="cls-18" d="M378.06,109.17,377,143.62l-1.06-35.53L424,91.72v10l-1.25-7.3Z"/><path class="cls-24" d="M472.49,86.38H454q.34,11.6.35,11.59,8.26,3.24,18.34,0Z"/><path class="cls-18" d="M463.27,87.35c5.09,0,9.24-.4,9.24-.89s-4.15-.89-9.24-.89-9.25.4-9.25.89S458.17,87.35,463.27,87.35Z"/><path class="cls-19" d="M426.36,125.58q-13.74,1.74-19.68-6.44Q395,105.49,404.82,102q8.37-2.46,14.06,1.62c3.19,2.6,2.86,6-1,10.36q-4.47,4.39-1,7.49c2.12.59,4-1,5.69-4.87,1.66-4.34,4.6-6.64,8.07-4.93,7.88,3.87,3.56,11.15-4.3,14Z"/><path class="cls-31" d="M416.37,125.33h-1.5v11.56h1.5Z"/><path class="cls-31" d="M432.15,135.32H399.61v2.14h32.54Z"/><path class="cls-32" d="M417.16,135.83h-2.64v3.46h2.64Z"/><path class="cls-27" d="M407.71,115.29c-2.67.27-4.6,1.82-2.63,6.44q4.64,8.49,21.29,3.85-9.15.56-12.27-5.93-1.47-4.4-6.39-4.35Z"/><path class="cls-9" d="M421.66,175.45l-59.78-7.2.86,77.31,17.55,2.59Z"/><path class="cls-3" d="M374.51,187l4.62-1.61,17.71,1-3.71,1.87Z"/><path class="cls-3" d="M374.57,193.69l-5.09,1.39,8.41.88,3.51-1.77Z"/><path class="cls-3" d="M369.48,201.91l-4.63,1.6,12,1.9,0-2.6Z"/><path class="cls-3" d="M377,223.25l0,2.92-14.49-2.38,0-3Z"/><path class="cls-3" d="M362.59,232.87l0-2.89L377,232.5v3Z"/><path class="cls-33" d="M361.88,168.25l.42,45.37"/><path class="cls-9" d="M626.31,102l-59.64,22.52.16,172.13,59.78-51.4Z"/><path class="cls-27" d="M576,287.85l50.66-42.59.15-14.46,121,15.45-48.42,58.21Z"/><path class="cls-18" d="M607.94,131.84l-1.65.72.3,11.6c-.14.77-.84,1.27-2.1,1.49L581.24,151c-1,.35-1.41,1.33-1.37,3q-.47,131-.47,131c1-.31,1.56-.76,1.62-1.36q.87-129.33.88-129.33a1.27,1.27,0,0,1,1.17-1.5q22.77-5.56,22.76-5.58c1.68-.51,2.51-1.51,2.5-3l-.39-12.36Z"/><path class="cls-11" d="M686.73,197.08l11.88,102.31,4.18-4.67-.51-99.62-11.13-.61-4.42,2.61Z"/><path class="cls-11" d="M725.45,163.72l11,91.59,3.87-4.19-.48-89.48-10.29-.55-4.08,2.64Z"/><path class="cls-4" d="M698.94,198l-12.21-.93-.8,100.72,12.66,1.58Z"/><path class="cls-4" d="M736.77,164.25l-11.32-.83-.74,90.48,11.72,1.41Z"/><path class="cls-19" d="M624.06,247.61l-41.32,34.76-.15-93.88,41.11-24Z"/><path class="cls-6" d="M583.18,190.46,588,187.7l.22,79.21L582.73,271Z"/><path class="cls-6" d="M601.89,179.38l-11.63,7.27,0,78.69,12.45-10.1Z"/><path class="cls-25" d="M191.63,246.69l5.2-2.56,52.82,8.14-.2-29.47-52.52-7.09-7.29,3.21-.19,29.74Z"/><path class="cls-19" d="M582.74,282.37v-8L617,246.92l7.08.48Z"/><path class="cls-6" d="M616.61,171.53l-12.57,7,.93,75.17,12-9.06Z"/><path class="cls-7" d="M588.21,266.91,588,187.7,582.73,271Z"/><path class="cls-7" d="M602.74,255.24l-.85-75.86-11.6,86Z"/><path class="cls-7" d="M617,244.63l-.34-73.1L605,253.69Z"/><path class="cls-2" d="M590.31,178.77a4.71,4.71,0,0,1-3.46-4.28q67,6.49,111.08,10.54c-.36,3.05-.53,4.25-.49,3.62L590.3,178.77Z"/><path class="cls-20" d="M698.68,184.36h-8.32L690,196.63l8.58.48Z"/><path class="cls-20" d="M698.61,197.11,738,161.53l.09-6.38-39.43,29.21Z"/><path class="cls-24" d="M739.68,152.1l-4.6,2.28.27,4.64,4.6-3.08Z"/><path class="cls-20" d="M735.08,154.38l.27,4.64-112.09-9.67.16-5.56Z"/><path class="cls-24" d="M735.08,154.38,623.42,143.79l5.88-1.8L739.68,152.1Z"/><path class="cls-24" d="M733.8,157.23l-4.54,2.45.27,5,4.54-3.29Z"/><path class="cls-20" d="M729.26,159.68l.27,5-110.75-10.4.15-6Z"/><path class="cls-24" d="M729.26,159.68,618.93,148.3l5.81-2L733.8,157.23Z"/><path class="cls-24" d="M728,161.92l-4.46,2.59.25,5.29,4.46-3.49Z"/><path class="cls-20" d="M723.51,164.51l.25,5.29L615,158.78l.16-6.35Z"/><path class="cls-24" d="M723.51,164.51,615.2,152.43l5.7-2.05L728,161.92Z"/><path class="cls-24" d="M721.11,167.27l-4.55,2.65.27,5.39,4.55-3.55Z"/><path class="cls-20" d="M716.56,169.92l.27,5.39L606,164.08l.16-6.48Z"/><path class="cls-24" d="M716.56,169.92,606.14,157.6l5.81-2.08,109.16,11.75Z"/><path class="cls-24" d="M714.51,172.2,709.77,175l.28,5.64,4.74-3.72Z"/><path class="cls-20" d="M709.77,175l.28,5.64L594.29,168.85l.16-6.75Z"/><path class="cls-24" d="M709.77,175,594.45,162.1l6.08-2.19,114,12.29Z"/><path class="cls-24" d="M707.2,177.51l-4.87,2.84.28,5.8,4.89-3.83Z"/><path class="cls-20" d="M702.33,180.35l.28,5.8-119-12.07.16-7Z"/><path class="cls-24" d="M702.33,180.35,583.79,167.13l6.24-2.24L707.2,177.51Z"/><path class="cls-34" d="M593.83,165.83l-7.44,1.82,103.87,10.6c1.27-2.05,2-1.88,2.29.51l5.08.45c.69-6.84,1.48-9.2,2.35-7.05,3,.16,4.58.23,4.64.22.58-6.77,1.24-8.71,2-5.86l5.15.26c.34-6.1.93-8,1.81-5.56l4.94.08.72-6.22-99-8.56c-.49.44-.79,2-.92,4.72l-6.42-.76q-1.41-.06-2,5.4l-6.81-.56c-.81.3-1.31,2.41-1.55,6.35l-6.27-.77c-1.31.48-2.14,2.12-2.46,4.93Z"/><path class="cls-35" d="M590.88,166.55l100.92,10.3"/><path class="cls-35" d="M699.44,171.39,596.29,160.9"/><path class="cls-35" d="M604.1,155.34,706,165.25"/><path class="cls-35" d="M612.89,150.49l100.05,9.73"/><path class="cls-1" d="M240.88,289l1.65,9.15,56.06,11.07-.07-4.18-18.08-3.54-.4-6.08-31.57-5.33Z"/><path class="cls-1" d="M293.94,303.34l.26,5.2,34,5-.22-5.95Z"/><path class="cls-19" d="M1,265.43l220.32,37.75,27.13-13.11-53-7.63-9.31,4.44L99.67,272.17,98.44,229Z"/><path class="cls-11" d="M22.86,180.08l8.52,83.28,7.16-2.72L37.9,179l-8.74-.56Z"/><path class="cls-36" d="M13.35,174.3l.06,10.63L24.29,194"/><path class="cls-4" d="M31.67,180.75l-8.81-.67V262l8.51,1.39Z"/><path class="cls-9" d="M221.34,303.18l1.24,8.65,26.07-12.34-.18-9.42Z"/><path class="cls-20" d="M27.58,173.31l-3.82.33,0,7.13,3.86.32Z"/><path class="cls-37" d="M27.58,173.31v7.78L97.74,159l-.3-6.45Z"/><path class="cls-20" d="M15.67,174l1.44,4.43,80-35.26.13-5.86Z"/><path class="cls-27" d="M97.49,153.48,30.75,172.37l66.38-29.24Z"/><path class="cls-9" d="M8.6,174.08l91.47-41.78-.1,4L9.39,176.8Z"/><path class="cls-19" d="M11.44,172.8l86.18-39.37.25-4.11L6.23,172Z"/><path class="cls-9" d="M258.85,48.85,188,44.41,187,136,260.26,143Z"/><path class="cls-15" d="M187,136l1.12-100.82-63.64,66.14,11.74,42,9.93,4.16Z"/><path class="cls-2" d="M133.29,147.39l10.76,13.12L217,169.79,264.4,153l-4-.67-.13-9.36L187,136Z"/><path class="cls-1" d="M135.13,98.15h-39l3.58,174,86.49,14.71-2.54-117L136.7,163.2Z"/><path class="cls-1" d="M128.66,115.92,86.09,113.2l-2.15,3.51,41.23,3.22Z"/><path class="cls-20" d="M186.91,220l10-4.25-.1,28.42-7.38,4.53Z"/><path class="cls-9" d="M183.62,169.91l2.54,117,9.31-4.44-.88-40.37L190,244.12l-.85-77.88-45.07-5.73-1.68-65.28-7.24,2.92,1.57,65Z"/><path class="cls-1" d="M190,241.52l0,2.6,4.62-2.05Z"/><path class="cls-38" d="M87,116.19l.29,6.12,14.33,5.51,2,145"/><path class="cls-1" d="M567.89,413.31l-1.22-288.78-12.83-6.34L557.56,411Z"/><path class="cls-1" d="M483.38,292l-.3-7.09,73,9.51.09,7.74Z"/><path class="cls-3" d="M280.24,295.29l.2,6.19L351.59,264,488,281.7l7.79-5.2L350,258.63Z"/><path class="cls-1" d="M298.52,305l-18.08-3.53L351.59,264,488.24,281.5l-5.16,3.44.2,4.56L358.62,271.93Z"/><path class="cls-27" d="M62,107.4l3.28,3.41,63.36,5.11,2.53-2.84Z"/><path class="cls-19" d="M184.11,192.6l-.09-4.33-50.49-6,1.89,58.88,49.93,8.08-.11-4.77L139,237.76l-1.74-51.14Z"/><path class="cls-6" d="M184.11,192.6l-38.79-4.95.78,46.89,38.8,5.6Z"/><path class="cls-39" d="M185.24,244.45,139,237.76l7.08-3.22,38.8,5.6Z"/><path class="cls-39" d="M139,237.76l7.08-3.22-.78-46.89-8-1Z"/><path class="cls-39" d="M163.12,189.92l1.36,47.27,5,.72-1.07-47.32Z"/><path class="cls-7" d="M146.1,234.54l17-44.62,1.36,47.27Z"/><path class="cls-7" d="M184.9,240.14l-15.41-2.23,14.62-45.31Z"/><path class="cls-15" d="M283.14,160.27l1.23,89.56,4.1.89L309,238.52l38.34,5.65-.39-77.8Z"/><path class="cls-2" d="M371.72,169.43,333,165l14.17,36.07L362.37,212l2.48-.86v-7.65l4.63-1.6v-6.83l5.09-1.39L374.5,187l4.63-1.61-.19-7h-3V173h-4.63Z"/><path class="cls-3" d="M357.07,167.66l1.56,100.13,4.33-2.32-1.08-97.22Z"/><path class="cls-2" d="M418,175.76l5.55.22,89,8.38,3.28-2.4-93.09-8.88Z"/><path class="cls-1" d="M421.66,163.26,276.4,148.73v10.9L347,166.37l.51,99.83,11.17,1.59-1.56-100.13,64.59,7.79Z"/><path class="cls-9" d="M421.66,175.45V163.26l70.72-31.7.19,8.82Z"/><path class="cls-9" d="M423.19,224.54l-41.58,24.69-.34-51.9L423.59,176Z"/><path class="cls-1" d="M381.27,197.33l.34,51.9-4.51-.66-.26-52.07Z"/><path class="cls-2" d="M418,175.76l-41.2,20.74,4.43.83L423.59,176Z"/><path class="cls-2" d="M442.66,224.5l-.09-43.93,13.33,1.36V226.7Z"/><path class="cls-15" d="M455.9,181.93l-9.26-.94-.08,44.16,9.34,1.55Z"/><path class="cls-1" d="M423.19,224.54l.39-48.56,89,8.38L511.9,237Zm23.35.61,9.35,1.55V181.93l-13.34-1.36.09,43.92,3.9.64Z"/><path class="cls-9" d="M512.58,184.36l-.68,52.45,3.72-1.86.24-53Z"/><path class="cls-18" d="M500.68,200.79l-34.5-2.53-.1,28.53,34.4,4.41Z"/><path class="cls-2" d="M495.6,204.74l-24.88-1.84-.39,20,25.08,2.91Z"/><path class="cls-40" d="M492.7,207l-18.91-1.62-.32,15.38,19.35,1.73Z"/><path class="cls-41" d="M290.92,249.27l-.31-73L305.68,170l.28,70.34Z"/><path class="cls-19" d="M468.49,264l-48-6.87,29.2-18.18,46.48,5.45Z"/><path class="cls-27" d="M423.51,224.91l-7.68-.62.44,11.71,7.85,1.38Z"/><path class="cls-5" d="M420.7,200.6l-14.79,6.48L407,232.7l14.51-8.38Z"/><path class="cls-19" d="M409.22,238.2l14.5-9.07-7.74-.74-15.81,8.49Z"/><path class="cls-27" d="M408.93,232.39l-8.63-.68.49,13.15,8.83,1.57Z"/><path class="cls-5" d="M393,225.34a8.89,8.89,0,0,1-1.32,2.52,4.24,4.24,0,0,0-.55,2.91,28,28,0,0,0,.88,5.12c.39,1.28.78,1.5.71,2.06a14.6,14.6,0,0,0-.63,2.85,11.71,11.71,0,0,0,.8,4.32,3.17,3.17,0,0,0,1.21,1.54c.28.25.4.51.22.66a2.1,2.1,0,0,1-1.09.21,1.81,1.81,0,0,0-1.05.18,1.2,1.2,0,0,0-.28.88c0,.29.09.43,1.27.53a25.47,25.47,0,0,0,4.54,0c1.12-.17,1.07-.56.55-.92a21.7,21.7,0,0,0-2-.93c-.48-.26-.43-.46-.35-.67s.22-.41-.15-.66a3.7,3.7,0,0,1-1.67-1.36,7.75,7.75,0,0,1-.58-3.43,3.91,3.91,0,0,1,.56-2.34,1.22,1.22,0,0,1,1.37-.45,1.86,1.86,0,0,1,.8,1.44,8.63,8.63,0,0,1,0,2.44c-.09.8-.29,1.51-.34,2.15s.07,1.19.29,1.28.57-.3.85-1.33a33.16,33.16,0,0,0,.69-4c.17-1.27.26-2.12-.23-2.69a4.18,4.18,0,0,0-2.31-1c-.75-.13-1.21-.12-1.65-1.27a16.06,16.06,0,0,1-.83-4.89c0-1.4.56-1.88,1.35-1.45a11.6,11.6,0,0,1,2.54,2.59,7.84,7.84,0,0,1,1.31,1.85c.27.61.47,1.45.66,1.48s.39-.78.21-2.18a30.81,30.81,0,0,0-1.14-4.66c-.4-1.26-.64-1.78-.57-1.29a15.13,15.13,0,0,1,.35,2.79c-.09.79-.62.86-1.25.14a7.25,7.25,0,0,1-1.43-3c-.11-.85.39-1,.86-1s.94.28,1.14.05a3,3,0,0,0,.1-1.83,6.24,6.24,0,0,0-.56-2.2c-.26-.35-.59,0-1.43-.23s-2.2-.88-2.95-1-.91.29-.83.9a4.71,4.71,0,0,0,.84,2c.47.64,1.09,1.16,1,1.9Z"/><path class="cls-19" d="M506.3,157.12l-19.87-1.36v13c13.28,1,20,1.06,20,1.06,0-8.28-.14-12.71-.14-12.71Z"/><path class="cls-24" d="M505.12,158.07c-11-.75-17.53-1.15-17.53-1.15,0,6.85.07,10.5.07,10.5l17.6,1.25c0-6.89-.13-10.6-.13-10.6Z"/><path class="cls-24" d="M217.15,181.73,191.41,178l.86,18.12,62.13,7.44L254.07,168Z"/><path class="cls-29" d="M254.07,168l.33,35.58,6-2.48L260,165.73Z"/><path class="cls-29" d="M192.19,178.1l-3.12-.46.25,19.29,3.32-.78Z"/><path class="cls-21" d="M220.13,199.44l-.36-18.69"/><path class="cls-21" d="M236.66,174.45l.6,27"/><path class="cls-21" d="M205.18,180l.2,17.69"/><path class="cls-11" d="M189.61,217.07l-.1-7.08,5.82-1.69,65.15,7.45-11.14,5.08-52.45-6.71Z"/><path class="cls-27" d="M196.89,214.12l-7.28,2.95,0,1.86,7.29-3.22,52.52,7.09-.11-2Z"/><path class="cls-19" d="M260.48,215.75l-11.14,5.08.11,2,11-5.4Z"/><path class="cls-20" d="M260.48,217.4l-11,5.4.2,29.47,10.66-7.66Z"/><path class="cls-26" d="M220.42,218.89l0,28.89"/><path class="cls-26" d="M234,220.65l-.33,29.14"/><path class="cls-26" d="M208.18,217.23,208,245.87"/><path class="cls-1" d="M276.4,159.63,260,165.73l.29,78.88,24.06,5.21-1.23-89.55Z"/><path class="cls-15" d="M300.77,252c-.25-1.39-.77-1.7-1.57-.93-.08,11.55-.12,17.31-.12,17.31a1.36,1.36,0,0,0,1.6.17C300.73,257.47,300.77,252,300.77,252Z"/><path class="cls-18" d="M297.46,235c7.49.16,7.49.51,15,.56a103.27,103.27,0,0,0-1.16,20.27,101.49,101.49,0,0,0-14.92-4.07C296,244.21,295.56,243,297.46,235Z"/><path class="cls-3" d="M294.52,251.73c6.83,2.4,16.72,2.44,16.72,2.44,0,.3,1.08,1.76-.39,2a139.85,139.85,0,0,1-14.58,1.9c-4.76.1-9.12-2-11.24-5.17-.92-1.36-1.2-2.08-.14-2.23C291.93,249.71,294.52,251.73,294.52,251.73Z"/><path class="cls-3" d="M309.39,256.14l1.9-.29,1.44,16c-.12.74-.66.91-1.63.51l-1.71-16.19Z"/><path class="cls-15" d="M295.72,258.17l-.67-.32q.58,16.56.58,16.56c.95.56,1.61.48,2-.23L297.09,258C296.18,258.09,295.72,258.17,295.72,258.17Z"/><path class="cls-15" d="M285.72,253.26c-.25-1.39-.76-1.7-1.57-.93-.08,11.55-.12,17.31-.12,17.31a1.36,1.36,0,0,0,1.6.17C285.68,258.78,285.72,253.26,285.72,253.26Z"/><path class="cls-19" d="M258.05,240l59.09,5.34-17.94,9.72-59.56-6.76Z"/><path class="cls-1" d="M299.2,255.09l-59.56-6.75.48,29.3,3,.51-.33-26.61,53.44,6.1,1,26.05,3.29.15Z"/><path class="cls-3" d="M317.14,245.37l-17.94,9.72,1.26,28.75,2-1.07-.93-26.54,13.86-7.79.65,27.54,2-1.06Z"/><path class="cls-2" d="M315.41,248.44l-1.84,1,.7,25.84,1.79.66Z"/><path class="cls-3" d="M244.94,251.9l-2.12-.36.2,26.7,1.9-1.44Z"/><path class="cls-15" d="M272.12,261.92c.25-1.39.77-1.7,1.57-.93l.12,17.31a1.38,1.38,0,0,1-1.6.17Z"/><path class="cls-18" d="M275.74,246.4c-8-1-8.1-.89-15.43-1.8a113,113,0,0,1,1.29,21.25c10.38,1.51,15.56,2.28,15.56,2.28.39-7.57.48-13.78-1.43-21.73Z"/><path class="cls-15" d="M277.38,259.82c-.14,5.53-.22,8.31-.22,8.31l10.7-5.29c1.57-.51,1.2-2.09.14-2.23a64,64,0,0,0-10.63-.79Z"/><path class="cls-3" d="M263.52,266.13l-1.91-.28-1.44,16c.12.74.66.91,1.64.49l1.71-16.2Z"/><path class="cls-15" d="M277.18,268.13l.67-.34c-.39,11-.58,16.58-.58,16.58-.95.56-1.61.48-2-.24q.56-16.22.55-16.21l1.36.19Z"/><path class="cls-15" d="M287.17,263.19c.25-1.39.77-1.7,1.57-.93l.12,17.31a1.38,1.38,0,0,1-1.6.17C287.21,268.71,287.17,263.19,287.17,263.19Z"/><path class="cls-15" d="M244.24,260.48c.25-1.39.77-1.7,1.57-.93l.12,17.31a1.38,1.38,0,0,1-1.6.17C244.28,266,244.24,260.48,244.24,260.48Z"/><path class="cls-18" d="M247.85,245c-8-1-8.11-.9-15.43-1.8a111.92,111.92,0,0,1,1.28,21.24l15.57,2.28c.39-7.57.48-13.78-1.44-21.72Z"/><path class="cls-15" d="M249.5,258.38c-.14,5.53-.22,8.31-.22,8.31L260,261.4c1.57-.5,1.2-2.09.14-2.23a64,64,0,0,0-10.63-.79Z"/><path class="cls-3" d="M235.62,264.69l-1.9-.28-1.44,16c.12.74.66.91,1.63.49l1.71-16.2Z"/><path class="cls-15" d="M249.28,266.69l.68-.34c-.39,11-.58,16.58-.58,16.58-.95.56-1.61.48-2-.23l.54-16.22,1.36.2Z"/><path class="cls-15" d="M259.29,261.75c.25-1.39.77-1.7,1.57-.93.08,11.55.12,17.31.12,17.31a1.38,1.38,0,0,1-1.6.17C259.33,267.27,259.29,261.75,259.29,261.75Z"/><path class="cls-19" d="M442.15,222.75c-.19-.05-.27-.05.64-.11s2.8-.18,3.85-.16,1.28.14,1.49.37a1.45,1.45,0,0,1,.37.83c0,.27-.14.51-.94.91s-2.26,1-2.93,1.27-.59.27-.55,0a9.16,9.16,0,0,0,.09-1.08,1.48,1.48,0,0,0-.14-1,2.61,2.61,0,0,0-1-.75A4.14,4.14,0,0,0,442.15,222.75Z"/><path class="cls-27" d="M444.47,223.47c-.25-.05-.32-.05.77-.1s3.35-.18,4.62-.17,1.55.14,1.79.38a1.3,1.3,0,0,1,.46.83c0,.27-.17.5-1.15.91s-2.7,1-3.52,1.27-.71.27-.65,0a6.93,6.93,0,0,0,.11-1.07,1.32,1.32,0,0,0-.17-1,3.09,3.09,0,0,0-1.2-.75,5.9,5.9,0,0,0-1.07-.33Z"/><path class="cls-27" d="M444.87,220.91c-.22,0-.3,0,.69-.11s3-.18,4.16-.16,1.39.14,1.61.37a1.45,1.45,0,0,1,.41.83c0,.27-.15.51-1,.91s-2.43,1-3.16,1.27-.64.27-.59,0a8.78,8.78,0,0,0,.09-1.07,1.37,1.37,0,0,0-.15-1,2.85,2.85,0,0,0-1.06-.75A4.67,4.67,0,0,0,444.87,220.91Z"/><path class="cls-19" d="M448.22,224.26c-.25,0-.33,0-.28-.1s.26-.17,1.35-.32a25.87,25.87,0,0,1,4.25-.28,2.21,2.21,0,0,1,1.82.72,1.73,1.73,0,0,1,.5.92c0,.27-.16.5-1.14.91s-2.71,1-3.52,1.27-.71.27-.65,0a1.55,1.55,0,0,0-.09-1c-.17-.33-.51-.53-.74-.82a7.77,7.77,0,0,0-.62-.92,1.81,1.81,0,0,0-.9-.39Z"/><path class="cls-19" d="M448.24,221.7c-.22,0-.3,0-.24-.11s.23-.16,1.22-.32A20.79,20.79,0,0,1,453,221a1.85,1.85,0,0,1,1.62.71,1.78,1.78,0,0,1,.45.92c0,.27-.16.51-1,.91s-2.43,1-3.17,1.27-.63.27-.58,0a1.85,1.85,0,0,0-.08-1,5,5,0,0,0-.66-.82,8.34,8.34,0,0,0-.56-.92,1.59,1.59,0,0,0-.8-.38Z"/><path class="cls-24" d="M443,223c-.52-.19-1.09-.42-1.4-.24s-.38.78-.35,1.38a2,2,0,0,0,.53,1.56,3,3,0,0,0,1.71.47c.56,0,.92,0,1-.5a3,3,0,0,0-.28-1.86A2,2,0,0,0,443,223Z"/><path class="cls-29" d="M445.51,223.71c-.62-.18-1.31-.42-1.69-.24s-.44.78-.42,1.38a1.94,1.94,0,0,0,.63,1.57,4.14,4.14,0,0,0,2.06.46c.66,0,1.1,0,1.25-.5a2.59,2.59,0,0,0-.34-1.86,2.49,2.49,0,0,0-1.52-.81Z"/><path class="cls-29" d="M445.79,221.14c-.55-.18-1.18-.41-1.51-.23s-.41.78-.38,1.37a2,2,0,0,0,.57,1.57,3.52,3.52,0,0,0,1.85.47c.6,0,1,0,1.13-.51a2.87,2.87,0,0,0-.3-1.85A2.12,2.12,0,0,0,445.79,221.14Z"/><path class="cls-24" d="M449.25,224.06a1.59,1.59,0,0,0-1.66.08,1.79,1.79,0,0,0-.45,1.51,1.92,1.92,0,0,0,.64,1.57,4.23,4.23,0,0,0,2.06.47c.66,0,1.1,0,1.14-.4a4.53,4.53,0,0,0-.65-1.68,3.3,3.3,0,0,0-1.09-1.54Z"/><path class="cls-24" d="M449.16,221.49a1.34,1.34,0,0,0-1.49.08,1.9,1.9,0,0,0-.4,1.52,2.07,2.07,0,0,0,.57,1.56,3.22,3.22,0,0,0,1.85.47c.6,0,1,0,1-.4a5.43,5.43,0,0,0-.58-1.67,3.37,3.37,0,0,0-1-1.55Z"/><path class="cls-9" d="M264.4,153l-1.61-103.9,29.85-18.9,66,48,1.16,63.54-45.61-4.92Z"/><path class="cls-3" d="M292.64,30.19l-1.71,2.13,65.83,45.79,132.16,7.35,5.53-8.58L426.56,37.72Z"/><path class="cls-20" d="M412.17,45.86l4.11-5.8,60,46.89-.31,5.68-4,.13Z"/><path class="cls-3" d="M362,212.12l2.81-1L376.92,213l0,3.19-14.64-2.52Z"/><path class="cls-19" d="M129.94,114.51l-66.83-7q99.11-108,99.11-108L303.48,6.41q-27.28,37-27.27,37c-55.64-5.8-57.15-1.42-81.42-6.31Z"/><path class="cls-1" d="M194.81,37.06l-6.2,7.46L276.75,50l-.26-7.79Z"/><path class="cls-9" d="M276.49,42.17l.26,7.79L305.1,14.69,319.22,24l10.27.87-26-18.36Z"/><path class="cls-20" d="M430.46,40l.09,11.66,160.54,93.05,13.78-7.83Z"/><path class="cls-32" d="M498.38,37.43h-11a1.84,1.84,0,0,0-1.84,1.84v15.1a1.84,1.84,0,0,0,1.84,1.84h11a1.85,1.85,0,0,0,1.84-1.84V39.27A1.84,1.84,0,0,0,498.38,37.43Z"/><path class="cls-19" d="M295.22,27.21l3.33-4.37L428.11,31.1l226.86,70,2.51,4.19-55.54,32.34L425.83,34.08Z"/><path class="cls-1" d="M484,80.47l.16,1.54,70.23,40.9,39.5-19.29-.15-3.08-63.28-36Z"/><path class="cls-7" d="M502,76.89l-12.8,4.18,65.59,37.66,11.12-5.56Z"/><path class="cls-7" d="M517.56,71.89l-11.28,3.55,62.53,36.44,10.5-4.79Z"/><path class="cls-7" d="M531,66.77,521,70.36l62,35.14,8.93-4.11Z"/><path class="cls-15" d="M484.12,82l-.26-1.69,70.56,40.53,39.29-20.07.13,2.68-39.49,19.45Z"/><path class="cls-1" d="M169.56,137.16c-4-.59-6.2-3.3-6.59-8.14,0-1.51.57-2.21,1.72-2.11a1.63,1.63,0,0,1,1.28-1.67l4.44-1.09,11.51.55c1.83.36,2.62,1.08,2.39,2.19a2.64,2.64,0,0,1-1.06,2.3q-3.33,9.38-13.7,8Z"/><path class="cls-15" d="M143.18,129.44l0-2.33,29.31,3.21-2.17,2.09Z"/><path class="cls-15" d="M170.28,132.41l.52,29.47,2.19-2.41-.54-29.15Z"/><path class="cls-18" d="M143.18,129.44l.6,29.28,27,3.16-.52-29.47Z"/><path class="cls-20" d="M198.41,110.77l-10.56,2.56,55.67,5,10.39-3.8Z"/><path class="cls-20" d="M253.91,114.48l-10.39,3.8.15,4.52L254,118.32Z"/><path class="cls-24" d="M188.37,117.48l-.52-4.15,55.67,5,.15,4.52Z"/><path class="cls-18" d="M202.17,104.32c-2.15.35-3.28,1.31-3.37,2.86q.09,4.86,5.75,5.76a17.6,17.6,0,0,0,9.57-1.87c1.13.22,1.75.09,1.87-.41,0-2.48,0-3.72,0-3.72.06-1.25-.51-1.86-1.73-1.83l-12.14-.8Z"/><path class="cls-18" d="M228.24,106.54c-2.16.35-3.28,1.31-3.38,2.86q.1,4.86,5.76,5.76a17.69,17.69,0,0,0,9.57-1.87c1.12.22,1.75.09,1.86-.42,0-2.47,0-3.72,0-3.72.07-1.24-.5-1.85-1.72-1.82-8.1-.53-12.14-.81-12.14-.81Z"/><path class="cls-2" d="M204.13,107.24c-4.32-.76-4.89-1.4-1.7-2l10.34.82C212,107.35,209.08,107.73,204.13,107.24Z"/><path class="cls-2" d="M230.19,109.45q-6.47-1.12-1.7-2l10.35.81C238,109.57,235.14,110,230.19,109.45Z"/><path class="cls-2" d="M209,104.76c0-3.2.05-4.67.05-4.67-.29-1.75-1.39-2.48-3.29-2.24a3.54,3.54,0,0,0-2.28,1.78c-.13.84-.21,1.25-.21,1.25.31.43.93.47,1.88.13.09-.5.13-.75.13-.75-.07-1.31,2.18-1.37,2.38-.19,0,3.29,0,4.59,0,4.59a1.4,1.4,0,0,0,1.31.09Z"/><path class="cls-2" d="M235,107c0-3.2.06-4.67.06-4.67-.29-1.75-1.39-2.49-3.3-2.24a3.57,3.57,0,0,0-2.28,1.78c-.13.84-.21,1.25-.21,1.25.32.43.94.47,1.88.13.09-.5.13-.75.13-.75-.06-1.31,2.18-1.37,2.39-.19,0,3.29,0,4.59,0,4.59A1.43,1.43,0,0,0,235,107Z"/><path class="cls-2" d="M163.31,127.49a1.34,1.34,0,0,1,1.18-.58q14.64,2.26,19.25,0Q178.91,131.06,163.31,127.49Z"/><path class="cls-42" d="M196,72.56a2.15,2.15,0,0,1,2.19-1.94l52.22,4.07c1.48.27,2.28,1,2.41,2.24l-.06,13.65A2.28,2.28,0,0,1,250,92.89l-50-4.21c-2.39,0-3.65-.77-3.79-2.29-.12-9.21-.17-13.83-.17-13.83Z"/><path class="cls-18" d="M213.93,89.84,204.19,89q9.83-8.52,13.25-6.11c1.66,1.35,4.63.78,8.89-1.74q11.34-7,11.33-7l5,.32-11.41,8.25q-5.53,5.44-13.76,3.77-1.61-1-3.59,3.31Z"/><path class="cls-19" d="M176.6,58.84,147.68,93.33l-.13,21.76,29.57-8Z"/><path class="cls-6" d="M159.49,79.24,149,91.81l.08,19,10.86-3Z"/><path class="cls-6" d="M174.6,61.22,163.35,74.64l0,31.71,11.49-2.86Z"/><path class="cls-18" d="M252.52,136.53C234.53,134.74,226,134,226,134q-4.42-.51-12,2.45l-32,9.72q-1.89,1.19-.23,2.48c.23,11.23.35,16.72.35,16.72q35,4.44,35,4.46l37-13.11L253.9,139q1.59-1.8-1.36-2.43Z"/><path class="cls-15" d="M219.21,147.88q-29.67,1.5-24.52-3.83L220,136.17a15.21,15.21,0,0,1,8-.34l14,1.1q4.26.8,0,3.09l-22.75,7.88Z"/><path class="cls-6" d="M219.21,147.88q-16.22.83-22-.4l23.87-7.42a15.11,15.11,0,0,1,7.95-.34l11.25.88-21.05,7.28Z"/><path class="cls-1" d="M213,155.31l-31.32-6.7,31,4.3q6,1.36,10.37-.43L253.9,139l-29.77,15.52Q219.69,156.89,213,155.31Z"/><path class="cls-43" d="M264.4,153l-1.26-81.27,21.53-4.83.92,79Z"/><path class="cls-43" d="M287.38,145.34l-1.21-78.69L307,62l.89,76.44Z"/><path class="cls-19" d="M325.85,80.47l-11,3.23L315.39,97l10.67-3.49Z"/><path class="cls-19" d="M326.38,100.85l-11,3.21.52,13.29,10.67-3.49Z"/><path class="cls-18" d="M316.56,84.89,316.74,95l7.72-2.88,0-9.31Z"/><path class="cls-18" d="M317.09,105.25l.18,10.09,7.72-2.88,0-9.33Z"/><path class="cls-1" d="M295.22,27.21l1.44.09,129.17,6.78,70.88,42-2.26.76L426.56,37.72,292.64,30.19Z"/><path class="cls-2" d="M319.22,24l-20.67-1.12,6.55-8.15Z"/><path class="cls-20" d="M649.94,110.88l-58.85,33.8,10.85-7,55-32Z"/><path class="cls-20" d="M312.33,39.34l3.2-5.62,63.2,45-.06,5.77-4,.27Z"/><path class="cls-20" d="M345,41.38l4.12-5.83,62,45.54L411,86.77l-4,.22Z"/><path class="cls-20" d="M378.63,43.21l4.11-5.8,59.94,46.88L442.37,90l-4,.13Z"/><path class="cls-29" d="M292.54,52.4l-.18-14.33,140.35,9,.74,14.52Z"/><path class="cls-44" d="M315.53,33.72h-4.12v5.83h4.12Z"/><path class="cls-44" d="M349.14,35.55H345v5.83h4.12Z"/><path class="cls-44" d="M382.75,37.37h-4.12v5.84h4.12Z"/><path class="cls-44" d="M416.32,39.88H412.2v5.83h4.12Z"/><path class="cls-18" d="M343.38,110.35l-2,29.43-.4-33.85,31.13,29.46Z"/><path class="cls-19" d="M507.68,242.07c-.14,2.7-.2,4.05-.2,4.05l19.25,1.51c.51-1.78.76-2.68.76-2.68l-19.82-2.89Z"/><path class="cls-8" d="M497.44,38.09h-9.35a.56.56,0,0,0-.57.57h0a.56.56,0,0,0,.57.57h9.35a.56.56,0,0,0,.57-.57h0A.56.56,0,0,0,497.44,38.09Z"/><path class="cls-15" d="M327.91,307.62l51.84-31.37-.24,5.53-51.68,31.74Z"/><path class="cls-1" d="M358.12,271.87l-58,32.25,27.75,3.5,51.84-31.37Z"/><path class="cls-1" d="M367.64,279.56l-9-7.63,129.05,16.92-6.78,6.2Z"/><path class="cls-1" d="M480.93,294.3l-107.81-14,.14,5.34,107.36,14.86Z"/><path class="cls-15" d="M480.89,295.05l7.68-7.42-.5,5.06-7.45,7.78Z"/><path class="cls-24" d="M306.73,288.9A22.14,22.14,0,0,1,295,291.46c-.2-1.53.34-2.25,1.64-2.17a26.9,26.9,0,0,0,9.58-2.11l13.55-7.66a1.57,1.57,0,0,0-.58-1.76,2,2,0,0,1,1.76-1.14c1.27,1.4,1.35,2.72.24,4l-14.44,8.29Z"/><path class="cls-24" d="M296.57,298.18l-10.9-1.28a2.34,2.34,0,0,1,.94-2.46l9.92,1.31q9.54.09,13.69-2.78l27.19-14.77c1.57-1.09,1.88-2.05.95-2.88a67.69,67.69,0,0,0-10.11-2c-.21-1,.23-1.54,1.33-1.67l9.8,2.22a3,3,0,0,1,2.23,2.91,6.87,6.87,0,0,1-2.93,3.42q-27.51,15.53-27.52,15.51a24.26,24.26,0,0,1-14.59,2.47Z"/><path class="cls-24" d="M356.26,273.23l-21.9-3.52c0-1,.43-1.48,1.27-1.47l19.76,2.91c2.37.53,4.3,1.05,5.05,2.29.83,1.45-.53,3.4-3.35,5.08l-38.11,22c-.86.31-1.43.25-1.73-.21a.88.88,0,0,1,.32-1.31c26.84-15.37,39.9-23.16,39.9-23.16a1.36,1.36,0,0,0,.11-2A2.8,2.8,0,0,0,356.26,273.23Z"/><path class="cls-24" d="M380,263.86c.49-1.45.08-2-1.24-1.71q-16.47,9.66-16.46,9.67a3.12,3.12,0,0,0-.87,3.24q.61,1.92,12.16,4.32l66.75,10,27.29,3.74q15.27,1.59,20-4.23a3.29,3.29,0,0,0-2.06-.37c-1.69,2.17-5.78,3.26-12.3,3.29l-37-4.76-62.48-9.5q-9.74-1.5-9.56-3.24c0-.75.45-1.31,1.4-1.67l14.3-8.72Z"/><path class="cls-24" d="M392.77,264.9c0-1-.52-1.41-1.39-1.21L381,270.27q-4.54,3.76,3.86,5.35l67.6,10.26q16.71,3.33,22.76.11L487,278.2a2.42,2.42,0,0,0-2-1l-10.92,7.08a23.36,23.36,0,0,1-12.16.72L395,275.52l-10.37-1.83c-3.21-.37-3.89-1.13-2-2.3Z"/><path class="cls-24" d="M406.4,266.73a1.39,1.39,0,0,0-1.25-1.34l-4.27,2.72c-1.45,1.2-2,2.39-1.61,3.6.11,1.39,5,2.78,14.77,4.17l34.77,4.88a69.64,69.64,0,0,0,12.89.7,24.24,24.24,0,0,0,11.93-4.93c.13-1.24-.38-1.78-1.56-1.65-2.91,1.85-4.35,2.79-4.35,2.79q-5.16,2.58-15.65,1.68L405.5,272.6c-2.51-.23-3.76-.79-3.76-1.7-.42-.53,1.15-1.93,4.69-4.19Z"/><path class="cls-24" d="M433.7,274.53q-16.72-1.45-16.51-6.27a2.19,2.19,0,0,1,2.28-.05q.46,3.5,16,4.54c9.55,1.08,16.4,1.08,20.6,0a2.41,2.41,0,0,1,2.42,1c-5.24,2.26-11.83,1.9-24.83.79Z"/><path class="cls-45" d="M171.14,159.26a1,1,0,0,1,.29,0c.09,0,.19.09.19,1.37s-.07,3.8-.09,5.14,0,1.49.09,1.62.15.24,2.54.4,7.05.33,9.44.45,2.47.16,2.61.23.34.2.72,18.81,1,55.72,1.24,74.48.29,19.16.34,19.42a.77.77,0,0,0,.34.55c.19.16.5.35,11.25,2s31.91,4.7,46.57,6.81,22.78,3.28,27,3.88,4.39.62,4.56.78a1.3,1.3,0,0,1,.37.86,12.41,12.41,0,0,1,0,2.14c-.05,1.09-.15,2.65-.19,3.62a6.12,6.12,0,0,0,.05,1.63c.08.27.21.46,3,1s8.38,1.4,16.11,2.57,17.65,2.65,22.87,3.41,5.73.84,6.24.87,1,0,8.53-4.5,22.21-13.39,29.73-18,7.89-4.81,8.09-4.92a.44.44,0,0,1,.36-.06c.17,0,.52,0,.91.09s.84.16,10.12,1.46l45.21,6.37c17.82,2.51,35.37,5,44.29,6.3s9.23,1.36,9.41,1.45.23.18.32,6.29.2,18.22.28,24.45.09,6.6.15,6.85a.75.75,0,0,0,.38.46,1.88,1.88,0,0,0,.85.16c.51,0,1.32,0,2.14.06"/><path class="cls-45" d="M224.94,278.22a2,2,0,0,1,.39.38c.09.13.12.27.14,1.75s.08,4.32.13,7.15"/><path class="cls-46" d="M214.42,112.59c-.07,4.22-.11,6.34-.11,6.34-.23,1.47.93,2.08,3.47,1.85l36.49,3.15c1.82.07,2.83.29,3,.69a1.73,1.73,0,0,1,0,1q.58,37.58.58,37.57-18.66,7.07-18.66,7c-3.63,1.65-5.34.44-5.15-3.6L233.42,143"/><path class="cls-46" d="M239.89,122.44v-7.6"/><path class="cls-46" d="M257.27,163.4l19.12-6.61Q350,163.92,350,163.93c2.26.06,3.15,1.18,2.67,3.34l.24,105.42q-.88,5.58,7.28,4.82L482.9,294.94q6.75.72,9.31,3c1,1.08,1.42,2.86,1.2,5.32.22,11.84.35,19.91.35,19.91"/><path class="cls-46" d="M496.1,322.86c-.3-21.34-.33-35.27-.33-35.27,9.49-7.53,12.46-9.24,14.51-10.87s1.4-2.4-1.62-2.68L469,269.11q-5.46-.62,1-3.51,39.09-26.24,39.09-26.22c-.08-26.56-.11-37.67-.11-37.67-6.85-.4-8.27-.37-8.27-.37"/><path class="cls-46" d="M171.27,134.39l-2.83,1.12q.18,27.48.17,27.49c-.13,1.32,1.27,1.93,4.19,1.85L188,166.09"/><path class="cls-46" d="M187.73,166.07c.84.08,1.1,1.05.79,3l2.37,106.9c-.19,2.71,2,4.08,6.52,4.13l83.46,12.37a1.86,1.86,0,0,1,.9,1.73l-.24,6.77c0,.89.81,1.31,2.39,1.24l40.5,6.37a6.42,6.42,0,0,0,4.76-1L372.47,282a2.45,2.45,0,0,1,2.1,0l108.85,15.58,5.18.8q3.11.64,3,4.75c.08,12.48.13,20.53.13,20.53"/><path class="cls-47" d="M478.43,346.34c0-1.2,0-1.79,0-1.79a1.59,1.59,0,0,1,1.6-1.71l7.29.46"/><path class="cls-8" d="M533.52,322.2h-7.08a2.94,2.94,0,0,0-2.94,2.95v8.47a2.93,2.93,0,0,0,2.94,2.94h7.08a2.94,2.94,0,0,0,2.94-2.94v-8.47A3,3,0,0,0,533.52,322.2Z"/><path class="cls-8" d="M551.43,336.5h-7.08a2.94,2.94,0,0,0-2.94,2.94v8.48a2.94,2.94,0,0,0,2.94,2.94h7.08a2.94,2.94,0,0,0,2.94-2.94v-8.48A2.94,2.94,0,0,0,551.43,336.5Z"/><path class="cls-46" d="M502.73,289.89l-4.91,4.16q-2.94,4.57,9.36,5.13l16.71,2.18q4.33.24,3.94,5.52,0,12.06-.05,12.06"/><path class="cls-46" d="M527.14,341c.09,6.16.13,9.23.13,9.23.41,1.26-1,1.69-4.29,1.3l-5.85-.52"/><path class="cls-24" d="M501.07,292.62l-1.85-1.21,3.29-2.36a1.53,1.53,0,0,1,1.3,1.32l-2.75,2.25Z"/><path class="cls-8" d="M527.91,318.87h-.55a1.1,1.1,0,0,0-1.1,1.1v1.3a1.1,1.1,0,0,0,1.1,1.1h.55a1.1,1.1,0,0,0,1.1-1.1V320A1.11,1.11,0,0,0,527.91,318.87Z"/><path class="cls-8" d="M545.83,333.17h-.54a1.11,1.11,0,0,0-1.11,1.1v1.3a1.11,1.11,0,0,0,1.11,1.1h.54a1.1,1.1,0,0,0,1.1-1.1v-1.3A1.1,1.1,0,0,0,545.83,333.17Z"/><path class="cls-8" d="M526.69,336h1.41a2,2,0,0,1,2,2v1a2,2,0,0,1-2,2h-1.41a2,2,0,0,1-2-2v-1A2,2,0,0,1,526.69,336Z"/><path class="cls-8" d="M533,319h-.54a1.1,1.1,0,0,0-1.1,1.1v1.3a1.1,1.1,0,0,0,1.1,1.1H533a1.11,1.11,0,0,0,1.11-1.1v-1.3A1.11,1.11,0,0,0,533,319Z"/><path class="cls-8" d="M551,333.25h-.54a1.11,1.11,0,0,0-1.11,1.1v1.29a1.11,1.11,0,0,0,1.11,1.1H551a1.1,1.1,0,0,0,1.1-1.1v-1.29A1.1,1.1,0,0,0,551,333.25Z"/><path class="cls-48" d="M535.59,336.56H530.1v4.75h5.49Z"/><path class="cls-18" d="M525.64,327c.81,0,1.49-.9,1.49-2s-.68-2-1.49-2-1.49.9-1.49,2S524.82,327,525.64,327Z"/><path class="cls-18" d="M543.55,341.28c.81,0,1.49-.89,1.49-2s-.68-2-1.49-2-1.49.89-1.49,2S542.73,341.28,543.55,341.28Z"/><path class="cls-18" d="M531.68,327.39c.81,0,1.49-.9,1.49-2s-.68-2-1.49-2-1.49.89-1.49,2S530.86,327.39,531.68,327.39Z"/><path class="cls-18" d="M549.59,341.68c.82,0,1.49-.89,1.49-2s-.67-2-1.49-2-1.49.9-1.49,2S548.77,341.68,549.59,341.68Z"/><path class="cls-49" d="M534.24,353.12h-1.07a6.24,6.24,0,0,0-6.25,6.24v5.88a6.25,6.25,0,0,0,6.25,6.24h1.07a6.25,6.25,0,0,0,6.25-6.24v-5.88A6.24,6.24,0,0,0,534.24,353.12Z"/><path class="cls-46" d="M517.91,370.91l32,4.56c1.23.08,1.79-.5,1.66-1.76l-.18-22.85"/><path class="cls-46" d="M488,82.43l-3.31,1.84c-.69.5.45,1.67,3.43,3.47q66,37.56,65.81,37.67a6.83,6.83,0,0,1,3.16,2.67,4.18,4.18,0,0,1,.08,1.59q0,197.25,0,197.24c0,.9,0,2-1,1.84-2.8-.09-3.67-.05-3.67-.05-2-.16-1.84,1.36-1.79,4.56"/><path class="cls-45" d="M500.5,227.05l5.76.74c1.18.16,1.26.16,1.22,2s-.21,5.55-.31,7.38-.17,1.76-7.32,6.54-21.37,14.4-28.89,19.56-8.33,5.86-8.59,6.33,0,.7,6.91,1.66,20.35,2.65,27.31,3.52,7.44.94,7.63,1.1.15.47-2.82,2.58-8.84,6.07-11.82,8.29-3,2.69-3.08,10.29,0,22.28,0,29.77.1,7.79.32,8a3.61,3.61,0,0,0,1,.59"/><path class="cls-45" d="M477,408.24c4.63.83,9.26,1.66,11.64,2.06s2.53.38,3.39-.39,2.41-2.26,4-3.77"/><path class="cls-45" d="M514,290.94a35.77,35.77,0,0,0-4.26,4c-.7.95-.34,1.31,3.63,1.85s11.51,1.3,15.5,1.9,4.42,1,4.52,4.38-.1,9.6-.32,15.85"/><path class="cls-24" d="M510.93,292.22c.46-.44,1.37-1.22,1.83-1.6s.52-.39.73-.37a4,4,0,0,1,.83.17.64.64,0,0,1,.43.38,1.18,1.18,0,0,1,.06.4c0,.11,0,.23-.42.67s-1.28,1.23-1.69,1.62l-.43.38-.28-.14c-.29-.15-.86-.43-1.17-.6s-.39-.21-.4-.29,0-.18.49-.62Z"/><path class="cls-45" d="M532.45,341.31c-.06,3.95-.11,7.9-.18,11.87"/><path class="cls-45" d="M532.79,371.47c.16,7.94.31,15.89.38,20.12s0,4.73,0,5.06a1.53,1.53,0,0,1-.13.68c-.09.17-.24.32-2.93-.11s-7.9-1.4-13.13-2.38"/><path class="cls-45" d="M517.2,397.79c9.55,1.53,19.1,3.08,24,3.76s5,.53,5-8.05-.16-25.61-.31-42.64"/><path class="cls-45" d="M517.2,401l44.34,6.48"/><path class="cls-45" d="M545.29,333.17a62.9,62.9,0,0,1,.61-8c.36-1.81,1-2.34,3.25-2.32s6.25.64,8.45.94,2.68.29,2.78-4-.16-13-.33-45.93-.22-90.12-.33-119-.24-29.49-.28-30,0-.9,1.78-1.89,5.17-2.6,8.59-4.19"/><path class="cls-45" d="M589.61,95.93c.11-.2.21-.4,1.26.12S594,97.8,595,98.47s1.09.77,1.11,1.07,0,.76,0,1.24"/></svg>