<svg id="Layer_1" data-name="Layer 1" xmlns="http://www.w3.org/2000/svg" viewBox="0 0 748 505"><defs><style>.cls-1{fill:#e81a42;fill-rule:evenodd;}</style></defs><g id="warm_floor" data-name="warm floor"><path class="cls-1" d="M306.74,288.83A22.1,22.1,0,0,1,295,291.39c-.21-1.53.33-2.24,1.63-2.17a26.9,26.9,0,0,0,9.58-2.11l13.56-7.66a1.58,1.58,0,0,0-.59-1.76,2,2,0,0,1,1.77-1.14c1.27,1.4,1.34,2.72.23,4l-14.44,8.29Z"/><path class="cls-1" d="M296.57,298.11l-10.9-1.28a2.34,2.34,0,0,1,.94-2.46l9.92,1.31q9.54.09,13.69-2.78l27.19-14.77c1.57-1.09,1.88-2.05.95-2.88a67.69,67.69,0,0,0-10.11-2c-.21-1,.23-1.54,1.33-1.67l9.8,2.22a3,3,0,0,1,2.23,2.91,6.87,6.87,0,0,1-2.93,3.42q-27.51,15.53-27.52,15.51a24.26,24.26,0,0,1-14.59,2.47Z"/><path class="cls-1" d="M356.26,273.15l-21.9-3.53c0-1,.43-1.47,1.27-1.46l19.76,2.9c2.37.54,4.3,1.05,5.05,2.3.83,1.45-.53,3.39-3.35,5.08l-38.11,22c-.86.31-1.43.24-1.72-.21a.87.87,0,0,1,.31-1.31c26.84-15.37,39.9-23.16,39.9-23.16a1.36,1.36,0,0,0,.11-2A2.8,2.8,0,0,0,356.26,273.15Z"/><path class="cls-1" d="M380,263.79c.49-1.45.08-2-1.24-1.71q-16.47,9.66-16.46,9.67a3.14,3.14,0,0,0-.87,3.24q.61,1.92,12.16,4.32l66.75,10L467.63,293q15.27,1.59,20-4.23a3.29,3.29,0,0,0-2.06-.37c-1.69,2.17-5.78,3.26-12.3,3.29l-37-4.76-62.48-9.5c-6.49-1-9.68-2.09-9.56-3.24,0-.75.45-1.31,1.4-1.67L380,263.81Z"/><path class="cls-1" d="M392.78,264.83c0-1-.52-1.41-1.38-1.21L381,270.2q-4.54,3.76,3.87,5.35l67.59,10.26q16.72,3.33,22.76.11L487,278.13a2.43,2.43,0,0,0-2-1l-10.93,7.08a23.35,23.35,0,0,1-12.16.72L395,275.44l-10.36-1.82c-3.22-.37-3.89-1.13-2-2.3Z"/><path class="cls-1" d="M406.42,266.66a1.41,1.41,0,0,0-1.26-1.34L400.9,268c-1.46,1.2-2,2.39-1.61,3.59q.15,2.1,14.76,4.18l34.78,4.88a70.46,70.46,0,0,0,12.88.7,24.31,24.31,0,0,0,11.94-4.93c.13-1.24-.39-1.78-1.57-1.65-2.9,1.85-4.34,2.79-4.34,2.79q-5.17,2.58-15.66,1.68l-46.57-6.75c-2.5-.24-3.76-.79-3.76-1.7-.41-.53,1.16-1.93,4.69-4.19Z"/><path class="cls-1" d="M433.71,274.45c-11.14-1-16.65-3.06-16.51-6.28a2.21,2.21,0,0,1,2.28-.05q.47,3.5,16,4.55,14.31,1.62,20.6,0a2.43,2.43,0,0,1,2.42,1c-5.25,2.27-11.83,1.91-24.84.79Z"/></g></svg>