<svg id="Layer_1" data-name="Layer 1" xmlns="http://www.w3.org/2000/svg" viewBox="0 0 748 505"><defs><style>.cls-1,.cls-2{fill:none;stroke-miterlimit:22.93;}.cls-1{stroke:red;}.cls-2{stroke:#003398;}</style></defs><g id="water"><path class="cls-1" d="M214.39,112.46c-.06,4.23-.1,6.34-.1,6.34-.24,1.48.92,2.09,3.46,1.86l36.5,3.14c1.81.07,2.82.29,3,.69a1.73,1.73,0,0,1,0,1q.59,37.59.58,37.58l-18.66,7.05q-5.44,2.46-5.15-3.61l-.66-23.64"/><path class="cls-1" d="M239.86,122.31v-7.59"/><path class="cls-1" d="M257.24,163.27q19.14-6.6,19.12-6.61L350,163.8c2.25.07,3.15,1.18,2.67,3.35q.22,105.42.23,105.41c-.58,3.72,1.84,5.33,7.29,4.83l122.68,17.43q6.74.72,9.3,3c1,1.07,1.43,2.85,1.21,5.31.22,11.85.35,19.91.35,19.91"/><path class="cls-1" d="M496.07,322.72c-.3-21.34-.32-35.26-.32-35.26,9.48-7.53,12.45-9.25,14.5-10.88s1.4-2.4-1.62-2.68L469,269q-5.46-.62,1-3.51L509,239.24c-.08-26.56-.1-37.67-.1-37.67-6.86-.4-8.27-.37-8.27-.37"/><path class="cls-1" d="M171.24,134.27l-2.82,1.11q.17,27.5.17,27.49c-.13,1.32,1.27,1.93,4.18,1.85L187.94,166"/><path class="cls-1" d="M187.7,165.93c.85.08,1.11,1,.79,2.95q2.38,106.91,2.38,106.9c-.2,2.71,2,4.09,6.52,4.13l83.46,12.37a1.88,1.88,0,0,1,.89,1.74c-.16,4.51-.23,6.76-.23,6.76,0,.9.8,1.31,2.38,1.25l40.51,6.35a6.35,6.35,0,0,0,4.75-1l43.29-25.54a2.46,2.46,0,0,1,2.1,0l108.85,15.58,5.19.8q3.09.64,3,4.74c.08,12.49.13,20.54.13,20.54"/><path class="cls-1" d="M502.71,289.75l-4.92,4.16q-2.93,4.57,9.36,5.13l16.71,2.18q4.33.24,3.94,5.52,0,12.06,0,12.06"/><path class="cls-1" d="M488,82.29l-3.31,1.84c-.68.51.46,1.67,3.44,3.47q66,37.58,65.8,37.67a7,7,0,0,1,3.17,2.67,4.43,4.43,0,0,1,.07,1.59l0,197.24c0,.91,0,2-1,1.84-2.8-.09-3.67-.05-3.67-.05-2-.16-1.84,1.36-1.79,4.56"/><path class="cls-2" d="M500.48,226.93l5.75.74c1.18.15,1.26.15,1.22,2s-.21,5.54-.31,7.37-.17,1.77-7.31,6.55-21.37,14.4-28.89,19.56-8.34,5.86-8.6,6.32,0,.7,6.91,1.66,20.35,2.66,27.31,3.53,7.44.93,7.64,1.1.14.46-2.83,2.58-8.84,6.06-11.82,8.28-3,2.7-3.07,10.29,0,22.28,0,29.77.09,7.79.31,8a3.6,3.6,0,0,0,1,.58"/><path class="cls-2" d="M513.94,290.8a37.45,37.45,0,0,0-4.26,4c-.7.95-.34,1.31,3.63,1.86s11.51,1.29,15.5,1.89,4.42,1,4.52,4.38-.1,9.6-.32,15.85"/><path class="cls-2" d="M545.26,333a64.82,64.82,0,0,1,.61-8c.36-1.81,1-2.34,3.25-2.32s6.25.64,8.45.94,2.69.3,2.79-4-.17-13-.34-45.93-.22-90.12-.32-119-.25-29.49-.29-30,0-.9,1.78-1.89,5.17-2.6,8.59-4.19"/></g></svg>