<svg width="207" height="170" viewBox="0 0 207 170" fill="none" xmlns="http://www.w3.org/2000/svg">
<path fill-rule="evenodd" clip-rule="evenodd" d="M1 114.223L102.787 163.048L102.874 169.065L1.01943 120.342L1 114.223Z" fill="#B3B3B3" stroke="black" stroke-width="0.57" stroke-miterlimit="22.93"/>
<path fill-rule="evenodd" clip-rule="evenodd" d="M102.787 163.048L103.054 169.162L205.642 122.824L206.094 49.5479L200.606 52.1896L200.412 94.6187L196.745 96.4883L196.498 120.051L102.787 163.048Z" fill="#808080" stroke="black" stroke-width="0.57" stroke-miterlimit="22.93"/>
<path fill-rule="evenodd" clip-rule="evenodd" d="M7.21114 117.2L1 114.223L1.45163 47.6489L8.75542 50.3684L7.21114 117.2Z" fill="#B3B3B3" stroke="black" stroke-width="0.57" stroke-miterlimit="22.93"/>
<path fill-rule="evenodd" clip-rule="evenodd" d="M8.75533 50.3686L1.45154 47.6491L104.545 1L206.094 49.5479L200.606 52.1897L104.841 6.12819L8.75533 50.3686Z" fill="#CCCCCC" stroke="black" stroke-width="0.57" stroke-miterlimit="22.93"/>
<path fill-rule="evenodd" clip-rule="evenodd" d="M200.606 52.1899L104.841 6.12842L102.665 74.5335L196.498 120.051L196.745 96.5663L200.412 94.6189L200.606 52.1899Z" fill="#EDEBE8" stroke="black" stroke-width="0.57" stroke-miterlimit="22.93"/>
<path fill-rule="evenodd" clip-rule="evenodd" d="M186.863 6.28369C188.097 6.30797 189.554 6.58478 191.219 7.54146C192.89 8.49814 194.764 10.1347 195.891 11.8635C197.013 13.5972 197.377 15.428 197.401 17.5502C197.426 19.6724 197.11 22.0908 195.949 24.2129C194.789 26.3351 192.788 28.1659 191.787 29.0789C191.12 29.6876 190.816 31.4277 190.874 34.2994C190.962 38.6069 191.132 47.217 191.229 51.573C191.326 55.9291 191.35 56.0262 190.938 56.4973C190.525 56.9683 189.67 57.8182 189.243 58.2455C188.958 58.5272 188.77 57.4863 188.679 55.1229C188.543 51.573 188.276 44.4781 188.092 39.2722C187.907 34.0663 187.81 30.7495 187.98 28.773C188.15 26.7965 188.592 26.1603 189.408 24.4072C190.224 22.6492 191.423 19.7695 191.666 17.1957C191.909 14.6219 191.205 12.354 190.301 10.7806C189.398 9.20715 188.301 8.32817 187.179 7.82798C186.057 7.32778 184.911 7.20638 184.314 7.08497C183.716 6.96357 183.668 6.84216 184.144 6.66733C184.624 6.49251 185.63 6.26427 186.863 6.28855V6.28369Z" fill="#666666" stroke="black" stroke-width="0.57" stroke-miterlimit="22.93"/>
<path fill-rule="evenodd" clip-rule="evenodd" d="M189.485 28.8071C193.351 26.8986 196.036 22.7271 196.036 17.8903C196.036 11.2518 190.986 5.86621 184.755 5.86621C178.525 5.86621 173.474 12.2279 173.474 17.8903C173.474 23.5527 175.985 26.6267 179.647 28.6129C179.637 29.283 179.627 29.9532 179.622 30.2883C179.622 30.5117 179.443 30.6136 179.083 30.5942C178.549 30.5651 177.476 30.5117 176.942 30.4825C176.586 30.4631 176.403 30.7545 176.393 31.3566C176.378 32.2599 176.349 34.0664 176.33 34.9697C176.32 35.5719 176.485 35.881 176.825 35.8972C177.335 35.9215 178.35 35.9749 178.875 36.0041C179.399 36.0283 179.423 36.0283 179.482 36.5917C179.54 37.155 179.622 38.2816 179.666 38.845C179.695 39.2205 179.784 39.4358 179.933 39.4908C180.157 39.5734 180.608 39.7434 180.851 39.8454C181.089 39.9425 181.118 39.9716 180.919 40.1999C180.72 40.4232 180.297 40.8457 180.089 41.0594C179.946 41.2019 179.996 41.3832 180.239 41.6033C180.598 41.9335 181.322 42.5988 181.686 42.9291C181.926 43.1492 182.047 43.337 182.05 43.4924C182.05 43.7255 182.065 44.1868 182.07 44.4345C182.07 44.6822 182.07 44.7065 181.72 44.9056C181.366 45.1047 180.662 45.4689 180.312 45.6534C180.076 45.7764 180.08 45.8898 180.327 45.9934C180.691 46.1488 181.424 46.4596 181.793 46.615C182.036 46.7186 182.157 46.9209 182.157 47.222V49.0237C182.157 49.3247 182.039 49.5077 181.803 49.5724C181.448 49.6695 180.744 49.8686 180.395 49.9658C180.158 50.0305 180.05 50.2086 180.069 50.5C180.098 50.937 180.152 51.8111 180.181 52.2482C180.2 52.5396 180.331 52.7176 180.574 52.7824C180.938 52.8795 181.672 53.0786 182.041 53.1757C182.284 53.2405 182.41 53.4007 182.42 53.6565C182.434 54.0353 182.463 54.7977 182.478 55.1765C182.488 55.429 182.413 55.5844 182.254 55.6427C182.017 55.7253 181.536 55.8952 181.298 55.9827C181.139 56.0377 181.341 56.3469 181.905 56.9102C182.75 57.7552 184.44 59.4452 185.285 60.2901C185.848 60.8535 186.35 60.9328 186.79 60.5281C187.451 59.9211 188.776 58.7119 189.466 58.0903C190.156 57.4687 190.214 57.4444 190.112 52.661C190.01 47.8776 189.748 38.3448 189.617 33.5759L189.485 28.8071ZM184.377 10.5331C187.29 10.5331 189.651 13.8499 189.651 17.9437C189.651 22.0375 187.29 25.3543 184.377 25.3543C181.463 25.3543 179.103 22.0375 179.103 17.9437C179.103 13.8499 181.463 10.5331 184.377 10.5331Z" fill="#CCCCCC" stroke="black" stroke-width="0.57" stroke-miterlimit="22.93"/>
<path fill-rule="evenodd" clip-rule="evenodd" d="M183.964 10.5522C181.244 10.8485 179.103 14.0439 179.103 17.9435C179.103 21.843 181.206 24.9801 183.886 25.3249C182.483 23.9166 181.531 21.1534 181.531 17.9774C181.531 14.8015 182.517 11.9363 183.964 10.5571V10.5522Z" fill="#666666" stroke="black" stroke-width="0.57" stroke-miterlimit="22.93"/>
<path fill-rule="evenodd" clip-rule="evenodd" d="M181.696 28.4813C181.705 28.6561 181.739 29.0252 181.754 29.2048C181.764 29.3279 182.011 29.3878 182.497 29.3845C183.221 29.3845 184.673 29.3748 185.401 29.3699C186.13 29.3651 186.139 29.3699 186.149 29.2C186.159 29.03 186.178 28.6998 186.183 28.5298C186.189 28.4197 186.193 28.3647 186.193 28.3647C186.193 28.3647 186.202 28.3744 185.828 28.4618C185.455 28.5492 184.697 28.7046 183.949 28.6998C183.201 28.6949 182.458 28.5201 182.079 28.423C181.701 28.3259 181.681 28.3064 181.691 28.4813H181.696Z" fill="#666666"/>
<path fill-rule="evenodd" clip-rule="evenodd" d="M181.235 36.2857C181.215 35.2028 181.225 33.5031 181.249 32.6193C181.274 31.7354 181.308 31.6626 182.264 31.6626C183.221 31.6626 185.086 31.7354 186.018 31.7694C186.64 31.7921 186.972 33.1745 187.014 35.9167C187.072 40.0299 187.193 48.2515 187.237 52.5153C187.281 56.7791 187.242 57.0802 187.164 57.2162C187.086 57.3473 186.965 57.3133 186.781 53.2583C186.601 49.2033 186.358 41.1226 186.198 37.0093C186.042 32.8961 185.97 32.7504 185.872 32.663C185.775 32.5707 185.654 32.5367 185.018 32.5076C184.382 32.4784 183.231 32.4542 182.604 32.4639C181.978 32.4784 181.881 32.5222 181.808 32.5999C181.735 32.6727 181.686 32.7698 181.618 33.7265C181.55 34.6832 181.458 36.4994 181.385 37.1744C181.312 37.8495 181.259 37.3784 181.235 36.2906V36.2857Z" fill="#666666"/>
<path fill-rule="evenodd" clip-rule="evenodd" d="M183.779 37.1887C183.833 41.1709 183.983 48.766 184.075 52.6462C184.173 56.5263 184.211 56.6963 184.275 56.8031C184.338 56.9099 184.425 56.9536 184.401 54.2342C184.381 51.5195 184.25 46.0465 184.211 42.3655C184.168 38.6845 184.211 36.7954 184.158 35.4453C184.105 34.0953 183.954 33.2795 183.862 33.0561C183.765 32.8327 183.726 33.2018 183.779 37.1839V37.1887Z" fill="#666666"/>
<path fill-rule="evenodd" clip-rule="evenodd" d="M104.841 6.12842L8.02218 49.9317L7.21118 117.2L103.904 73.8148L104.841 6.12842Z" fill="#D9D7D5" stroke="black" stroke-width="0.57" stroke-miterlimit="22.93"/>
<path fill-rule="evenodd" clip-rule="evenodd" d="M102.666 74.5332L7.21118 117.2L102.787 163.048L196.498 120.051L102.666 74.5332Z" fill="#B68562" stroke="black" stroke-width="0.57" stroke-miterlimit="22.93"/>
<path fill-rule="evenodd" clip-rule="evenodd" d="M67.9578 116.141L67.9141 110.217L117.414 133.978L117.283 139.893L67.9578 116.141Z" fill="#C98D66" stroke="black" stroke-width="0.57" stroke-miterlimit="22.93"/>
<path fill-rule="evenodd" clip-rule="evenodd" d="M67.8364 110.042L128.947 82.2402L168.739 102.573L165.301 108.241L117.414 133.979L67.8364 110.042Z" fill="#C98F68" stroke="black" stroke-width="0.57" stroke-miterlimit="22.93"/>
<path fill-rule="evenodd" clip-rule="evenodd" d="M126.189 73.6302C126.699 72.1247 127.665 69.9054 128.185 67.6376C128.705 65.3697 128.768 63.0533 128.802 61.8975C128.824 61.127 128.844 60.7417 128.86 60.7417C128.884 60.7417 128.933 60.7417 136.266 64.2382C143.599 67.7347 158.211 74.7228 165.52 78.2193C170.392 80.5503 172.828 81.7158 172.828 81.7158C172.828 81.7158 172.828 81.7158 172.814 82.993C172.799 84.2653 172.77 86.81 172.731 89.8015C172.697 92.7929 172.654 96.2311 172.09 99.7908C171.527 103.355 170.439 107.041 169.9 108.882C169.538 110.112 166.965 108.895 162.184 105.23C155.011 99.7325 140.666 88.7428 133.371 83.0707C126.077 77.4035 125.83 77.0587 125.733 76.4905C125.635 75.9223 125.684 75.1356 126.194 73.6302H126.189Z" fill="#D89F77" stroke="black" stroke-width="0.57" stroke-miterlimit="22.93"/>
<path fill-rule="evenodd" clip-rule="evenodd" d="M117.283 139.894L117.414 133.979L171.105 109.45L171.08 115.646L117.283 139.894Z" fill="#C98F68" stroke="black" stroke-width="0.57" stroke-miterlimit="22.93"/>
<path fill-rule="evenodd" clip-rule="evenodd" d="M115.335 80.0549C106.958 84.1293 92.2246 91.302 84.4691 95.2744C76.7137 99.2517 75.9319 100.034 75.5045 100.718C75.082 101.403 75.014 101.991 74.9509 103.326C74.8878 104.662 74.8198 106.75 74.9849 107.823C75.15 108.896 75.5385 108.964 82.9054 112.645C90.2723 116.326 104.613 123.63 111.883 127.248C119.152 130.866 119.347 130.803 120.022 130.808C120.697 130.812 121.853 130.895 130.094 127.491C138.335 124.086 153.656 117.2 161.853 113.519C170.051 109.833 171.124 109.353 171.624 108.158C172.119 106.963 172.037 105.065 172.314 103.132C172.586 101.199 173.212 99.2371 173.528 98.2513C173.738 97.5973 171.49 96.0757 166.782 93.6864C159.721 90.1073 145.6 82.9444 137.922 79.0691C130.244 75.1938 129.006 74.6062 127.374 74.8053C125.742 74.9996 123.722 75.9805 115.345 80.0549H115.335Z" fill="white" stroke="black" stroke-width="0.57" stroke-miterlimit="22.93"/>
<path fill-rule="evenodd" clip-rule="evenodd" d="M182.822 115.117L162.533 105.166L175.839 99.6641L196.148 109.381L182.822 115.117Z" fill="#D89F77" stroke="black" stroke-width="0.57" stroke-miterlimit="22.93"/>
<path fill-rule="evenodd" clip-rule="evenodd" d="M126.417 45.9205L113.165 39.3306L113.16 51.3498L126.344 57.4298L126.417 45.9205Z" fill="#6AC1AC" stroke="black" stroke-width="0.57" stroke-miterlimit="22.93"/>
<path fill-rule="evenodd" clip-rule="evenodd" d="M189.539 94.046L176.286 87.4561L175.99 99.1305L189.364 105.565L189.539 94.046Z" fill="#6AC1AC" stroke="black" stroke-width="0.57" stroke-miterlimit="22.93"/>
<path fill-rule="evenodd" clip-rule="evenodd" d="M126.417 45.9203L113.165 39.3304L118.579 36.6206L131.541 43.0648L126.417 45.9203Z" fill="#6AC1AC" stroke="black" stroke-width="0.57" stroke-miterlimit="22.93"/>
<path fill-rule="evenodd" clip-rule="evenodd" d="M189.539 94.0458L176.286 87.4559L181.701 84.7461L194.715 91.0204L189.539 94.0458Z" fill="#6AC1AC" stroke="black" stroke-width="0.57" stroke-miterlimit="22.93"/>
<path fill-rule="evenodd" clip-rule="evenodd" d="M126.417 45.9199L126.344 57.4292L130.953 54.3892L131.541 43.0645L126.417 45.9199Z" fill="#005A4D" stroke="black" stroke-width="0.57" stroke-miterlimit="22.93"/>
<path fill-rule="evenodd" clip-rule="evenodd" d="M189.539 94.0459L189.417 105.482L194.623 102.268L194.677 91.0981L189.539 94.0459Z" fill="#005A4D" stroke="black" stroke-width="0.57" stroke-miterlimit="22.93"/>
<path fill-rule="evenodd" clip-rule="evenodd" d="M100.067 62.9365L89.2768 67.919L89.1166 80.8998L100.417 87.0235L118.395 78.5639L118.473 71.5952L100.067 62.9365Z" fill="#B68560" stroke="black" stroke-width="0.57" stroke-miterlimit="22.93"/>
<path fill-rule="evenodd" clip-rule="evenodd" d="M100.067 62.9365L89.2769 67.919L106.779 76.8011L118.473 71.5952L100.067 62.9365Z" fill="#D89F77" stroke="black" stroke-width="0.57" stroke-miterlimit="22.93"/>
<path fill-rule="evenodd" clip-rule="evenodd" d="M121.386 44.9538C119.017 43.2493 116.04 43.3318 114.738 45.1384C113.437 46.9449 114.311 49.7955 116.681 51.5C119.051 53.2046 122.027 53.122 123.329 51.3155C124.63 49.509 123.756 46.6584 121.386 44.9538Z" stroke="black" stroke-width="0.57" stroke-miterlimit="22.93"/>
<path fill-rule="evenodd" clip-rule="evenodd" d="M184.508 93.0744C182.138 91.3699 179.161 91.4524 177.86 93.259C176.558 95.0655 177.432 97.9161 179.802 99.6206C182.172 101.325 185.149 101.243 186.45 99.4361C187.752 97.6296 186.878 94.779 184.508 93.0744Z" stroke="black" stroke-width="0.57" stroke-miterlimit="22.93"/>
<path d="M114.534 50.3328L111.498 53.9848C111.352 54.1601 111.376 54.4204 111.552 54.5661L111.757 54.7369C111.932 54.8826 112.192 54.8587 112.338 54.6834L115.375 51.0313C115.52 50.856 115.496 50.5957 115.321 50.45L115.116 50.2792C114.94 50.1335 114.68 50.1575 114.534 50.3328Z" fill="#999999" stroke="black" stroke-width="0.57" stroke-miterlimit="22.93"/>
<path d="M117.813 52.9242L114.776 56.5757C114.63 56.751 114.654 57.0112 114.829 57.157L115.034 57.3278C115.21 57.4736 115.47 57.4497 115.616 57.2744L118.653 53.6228C118.798 53.4476 118.774 53.1873 118.599 53.0415L118.394 52.8707C118.219 52.725 117.958 52.7489 117.813 52.9242Z" fill="#999999" stroke="black" stroke-width="0.57" stroke-miterlimit="22.93"/>
<path fill-rule="evenodd" clip-rule="evenodd" d="M95.3811 64.3935C95.9153 63.9856 96.8088 63.4368 97.5324 63.3154C98.256 63.194 98.8096 63.5096 98.9407 64.5829C99.0718 65.6561 98.7756 67.4966 98.3871 68.9341C97.9986 70.3715 97.5178 71.4107 97.2216 72.8968C96.9205 74.3828 96.804 76.3156 97.7752 77.4034C98.7465 78.4912 100.806 78.7437 102.811 78.4086C104.817 78.0735 106.774 77.1605 107.837 76.1067C108.901 75.0529 109.076 73.868 108.983 72.1877C108.891 70.5075 108.532 68.327 108.143 66.6711C107.755 65.0151 107.337 63.8787 107.133 63.1406C106.929 62.4024 106.934 62.0722 107.065 61.8294C107.201 61.5866 107.463 61.436 107.75 61.3729C108.036 61.3098 108.342 61.3243 108.527 61.3972C108.711 61.47 108.779 61.5914 109.139 62.8443C109.503 64.0972 110.159 66.4817 110.605 68.7981C111.052 71.1145 111.29 73.363 110.805 75.1112C110.314 76.8643 109.1 78.1172 107.721 79.0156C106.337 79.9092 104.788 80.4385 103.326 80.6328C101.859 80.8221 100.48 80.6765 99.2904 80.4094C98.1006 80.1423 97.105 79.7635 96.3183 79.0933C95.5316 78.4232 94.9586 77.4713 94.842 76.2476C94.7255 75.0286 95.0654 73.5426 95.5122 72.0226C95.959 70.5026 96.5126 68.9535 96.7554 67.8074C96.9982 66.6613 96.9351 65.9183 96.8574 65.4181C96.7797 64.918 96.6923 64.6654 96.3523 64.6654C96.0172 64.6654 95.4296 64.9131 95.08 65.0636C94.7303 65.2142 94.6089 65.2627 94.6381 65.1608C94.6672 65.0539 94.8469 64.7965 95.3811 64.3886V64.3935Z" fill="#D83232" stroke="black" stroke-width="0.57" stroke-miterlimit="22.93"/>
<path fill-rule="evenodd" clip-rule="evenodd" d="M116.506 46.3328C115.899 46.3668 115.437 46.8913 115.471 47.508C115.505 48.1248 116.025 48.5958 116.632 48.5667C117.239 48.5327 117.7 48.0082 117.666 47.3915C117.632 46.7747 117.113 46.3037 116.51 46.3328H116.506Z" fill="black"/>
<path fill-rule="evenodd" clip-rule="evenodd" d="M179.899 94.6624C179.292 94.6964 178.831 95.2209 178.865 95.8376C178.899 96.4544 179.419 96.9254 180.026 96.8963C180.633 96.8623 181.094 96.3378 181.06 95.7211C181.026 95.1043 180.506 94.6333 179.904 94.6624H179.899Z" fill="black"/>
<path fill-rule="evenodd" clip-rule="evenodd" d="M121.192 48.013C120.585 48.047 120.124 48.5715 120.158 49.1882C120.192 49.805 120.711 50.276 121.318 50.2469C121.925 50.2129 122.387 49.6884 122.353 49.0717C122.319 48.4549 121.799 47.9839 121.197 48.013H121.192Z" fill="black"/>
<path fill-rule="evenodd" clip-rule="evenodd" d="M184.338 96.265C183.731 96.2989 183.27 96.8234 183.304 97.4402C183.338 98.0569 183.857 98.528 184.464 98.4988C185.071 98.4648 185.533 97.9404 185.499 97.3236C185.465 96.7069 184.945 96.2358 184.343 96.265H184.338Z" fill="black"/>
<path fill-rule="evenodd" clip-rule="evenodd" d="M131.288 47.9456C131.308 47.6105 131.312 47.5037 131.332 47.4551C131.356 47.4066 131.39 47.4114 141.365 52.2143C151.34 57.0171 171.245 66.6179 181.322 71.4547C191.399 76.2915 191.651 76.3644 191.719 76.3789C191.792 76.3983 191.68 76.3595 191.637 76.3449C191.593 76.3304 191.617 76.3449 191.705 71.6684C191.792 66.9967 191.938 57.6435 192.016 52.933C192.088 48.2224 192.093 48.1593 192.268 48.2127C192.443 48.2661 192.793 48.4312 193.196 48.6255C193.599 48.8197 194.045 49.0334 194.288 49.15C194.531 49.2665 194.57 49.2859 194.507 54.4821C194.444 59.6783 194.283 70.0561 194.186 76.3984C194.089 82.7406 194.065 85.0425 194.041 86.7859C194.021 88.5293 194.007 89.7093 193.997 90.2629C193.992 90.8165 193.992 90.7486 193.594 90.4912C193.196 90.2338 191.593 89.6025 191.593 89.6025L191.622 87.9611C191.651 86.3197 191.71 82.9057 191.748 81.1866C191.787 79.4675 191.807 79.4384 191.782 79.4044C191.758 79.3704 191.68 79.3364 182.308 74.7958C172.935 70.2552 154.268 61.2129 144.191 56.3761C134.119 51.5344 132.638 50.8982 131.9 50.5826C131.408 50.3689 131.164 50.2151 131.167 50.1212C131.176 49.9804 131.191 49.6939 131.21 49.2714C131.23 48.8489 131.264 48.2855 131.278 47.9505L131.288 47.9456Z" fill="#D83232" stroke="black" stroke-width="0.57" stroke-miterlimit="22.93"/>
<path fill-rule="evenodd" clip-rule="evenodd" d="M182.822 115.117L162.533 105.167L162.465 119.313L179.637 127.787L195.949 120.304L196.148 109.382L182.822 115.117Z" fill="#B68560" stroke="black" stroke-width="0.57" stroke-miterlimit="22.93"/>
<path d="M182.823 115.117L182.585 126.52" stroke="black" stroke-width="0.57" stroke-miterlimit="22.93"/>
<path fill-rule="evenodd" clip-rule="evenodd" d="M24.6062 84.8918L24.8587 49.3635L89.0097 20.396L88.8446 55.8709L24.6062 84.8918Z" fill="white"/>
<path fill-rule="evenodd" clip-rule="evenodd" d="M40.8357 46.0903L28.6854 51.5779L28.3698 79.2488L40.5201 73.7564L40.8357 46.0903Z" fill="#87C1D8"/>
<path fill-rule="evenodd" clip-rule="evenodd" d="M67.1275 34.2168L43.701 44.7986L43.5067 72.5811L66.8021 61.9314L67.1275 34.2168Z" fill="#87C1D8"/>
<path fill-rule="evenodd" clip-rule="evenodd" d="M86.193 25.5576L72.8966 31.6959L72.5858 59.4493L85.8385 53.3888L86.193 25.5576Z" fill="#87C1D8"/>
<path fill-rule="evenodd" clip-rule="evenodd" d="M40.8358 46.0903L37.8929 47.4209L37.6112 75.0724L40.5201 73.7564L40.8358 46.0903Z" fill="#EDEBE8"/>
<path fill-rule="evenodd" clip-rule="evenodd" d="M69.9586 32.9395L67.1274 34.2166L66.802 62.0623L69.5361 60.722L69.9586 32.9395Z" fill="#EDEBE8"/>
<path fill-rule="evenodd" clip-rule="evenodd" d="M86.1932 25.5576L83.5319 26.6843L83.2114 54.5931L85.8387 53.3888L86.1932 25.5576Z" fill="#EDEBE8"/>
<path fill-rule="evenodd" clip-rule="evenodd" d="M45.6384 77.5833C45.0362 77.7824 44.6477 78.166 44.4098 78.4817C44.1718 78.7973 44.0796 79.0499 43.8367 79.2295C43.5939 79.4092 43.2006 79.5209 42.8946 79.6666C42.5887 79.8074 42.3702 79.9823 42.1905 80.2105C42.0108 80.4387 41.87 80.7204 41.7777 81.0118C41.6854 81.2983 41.6466 81.5897 41.6417 81.8762C41.6417 82.1627 41.6806 82.4395 41.7874 82.726C41.8942 83.0174 42.0739 83.3185 42.3119 83.5225C42.5498 83.7264 42.8509 83.8381 43.0015 83.8964C43.1018 83.932 43.1585 84.832 43.1714 86.5965C43.1909 89.2383 43.2249 94.5267 43.2443 97.3579C43.2637 100.194 43.2637 100.573 43.4774 100.869C43.6911 101.165 44.1136 101.379 44.4681 101.296C44.8177 101.214 45.0994 100.84 45.653 100.932C46.2066 101.024 47.0419 101.588 47.5712 101.894C48.1005 102.2 48.3191 102.258 48.5327 102.175C48.7464 102.093 48.9504 101.874 49.3 101.083C49.6497 100.296 50.145 98.9362 50.5141 98.4263C50.8832 97.9164 51.1308 98.2466 51.3834 98.6497C51.6359 99.0527 51.8933 99.5335 52.1555 99.8637C52.4129 100.194 52.6751 100.378 52.9034 100.461C53.1316 100.544 53.3404 100.529 53.6706 100.223C54.0057 99.9171 54.4671 99.3247 54.8361 98.6982C55.2052 98.0766 55.482 97.421 55.7248 96.9111C55.9676 96.4012 56.1716 96.0321 56.4484 95.9059C56.7252 95.7796 57.0797 95.901 57.4682 96.3138C57.8567 96.7266 58.2841 97.4307 58.5997 97.7755C58.9154 98.1203 59.1194 98.1009 59.4059 97.8581C59.6924 97.6104 60.0615 97.1345 60.4063 96.5081C60.751 95.8767 61.0618 95.09 61.3241 94.4781C61.5815 93.8663 61.7854 93.4195 62.0477 93.4292C62.305 93.434 62.6207 93.8905 62.8441 94.2596C63.0675 94.6287 63.1937 94.9152 63.4365 95.1532C63.6794 95.3911 64.029 95.5854 64.5923 95.1386C65.1557 94.6918 65.9375 93.6089 66.4523 92.7348C66.967 91.8606 67.2293 91.1905 67.6372 91.0788C68.0451 90.9719 68.5987 91.4236 69.0164 91.7975C69.434 92.1714 69.7108 92.4628 69.9682 92.6279C70.2256 92.793 70.4684 92.827 70.7452 92.5745C71.022 92.322 71.3377 91.7732 71.697 91.0593C72.0564 90.3455 72.4643 89.4568 72.7363 88.9809C73.0034 88.505 73.1345 88.437 73.5618 88.7381C73.9892 89.0343 74.7127 89.6996 75.2129 90.0395C75.7131 90.3795 75.9899 90.394 76.3153 90.1075C76.6407 89.821 77.0097 89.2334 77.2768 88.7041C77.5439 88.1747 77.7139 87.694 77.7576 84.0324C77.8062 80.3707 77.7285 73.5234 77.5828 69.9201C77.4322 66.3216 77.2137 65.9671 76.9272 65.7049C76.6407 65.4427 76.2862 65.2678 75.6937 65.2144C75.1012 65.161 74.266 65.229 73.6638 65.3747C73.0616 65.5155 72.6926 65.734 72.2749 66.1128C71.8621 66.4965 71.4008 67.0452 71.0754 67.3317C70.7501 67.6183 70.5607 67.6425 70.1527 67.6134C69.7448 67.5843 69.1135 67.5066 68.6667 67.4823C68.2199 67.458 67.9626 67.4774 67.6663 67.5357C67.3701 67.5988 67.035 67.7008 66.6271 68.0893C66.2192 68.4827 65.7384 69.1625 65.4956 69.5025C65.3337 69.7291 65.1767 69.857 65.0245 69.8861C64.7914 69.9298 64.3301 70.0124 63.7473 70.027C63.1646 70.0415 62.4604 69.9881 61.8583 70.26C61.2561 70.532 60.7559 71.1293 60.4111 71.4838C60.0663 71.8383 59.8818 71.9452 59.707 72.0034C59.5321 72.0666 59.3622 72.0763 59.1048 72.1103C58.8474 72.1394 58.4929 72.188 58.051 72.2705C57.6042 72.3531 57.07 72.4745 56.7349 72.6979C56.3999 72.9213 56.2639 73.2515 55.9725 73.64C55.6811 74.0285 55.2295 74.4753 54.4816 74.6695C53.7338 74.8589 52.6897 74.7909 51.8884 74.8346C51.0871 74.8783 50.5335 75.0386 50.077 75.4125C49.6205 75.7865 49.2612 76.3789 48.9067 76.7431C48.557 77.1074 48.2122 77.2385 47.6295 77.3113C47.0516 77.3842 46.2357 77.3939 45.6336 77.593L45.6384 77.5833Z" fill="white" stroke="black" stroke-width="0.57" stroke-miterlimit="22.93"/>
<path fill-rule="evenodd" clip-rule="evenodd" d="M43.1472 79.5548C42.2925 79.6276 41.598 80.6669 41.598 81.8809C41.598 83.095 42.2925 84.0225 43.1472 83.9497C44.0019 83.8768 44.6963 82.8376 44.6963 81.6236C44.6963 80.4095 44.0019 79.482 43.1472 79.5548Z" stroke="black" stroke-width="0.57" stroke-miterlimit="22.93"/>
<path d="M43.1472 79.5549C43.7057 79.3849 44.2642 79.2149 44.8275 79.0498" stroke="black" stroke-width="0.57" stroke-miterlimit="22.93"/>
<path d="M43.6183 83.8089C44.5167 83.4107 45.42 83.0076 46.3184 82.6094" stroke="black" stroke-width="0.57" stroke-miterlimit="22.93"/>
<path d="M44.2642 83.5225C44.405 88.976 44.541 94.4296 44.6818 99.8831" stroke="black" stroke-width="0.57" stroke-miterlimit="22.93"/>
<path d="M46.2892 77.3838C46.8816 77.6315 47.4741 77.8791 47.8335 78.1268C48.1928 78.3745 48.324 78.6221 48.3968 82.5071C48.4696 86.3873 48.4891 93.9047 48.5085 101.422" stroke="black" stroke-width="0.57" stroke-miterlimit="22.93"/>
<path d="M49.5234 78.1123C49.7808 78.428 50.0382 78.7436 50.1936 79.1127C50.3441 79.4769 50.3927 79.8945 50.451 82.9783C50.5093 86.0668 50.5724 91.8263 50.6355 97.5858" stroke="black" stroke-width="0.57" stroke-miterlimit="22.93"/>
<path d="M50.8298 75.3057C51.5874 75.4514 52.345 75.597 52.85 75.801C53.3551 76.0001 53.6125 76.2526 53.7436 76.4517C53.8747 76.6508 53.8747 76.7965 53.8019 80.6572C53.729 84.518 53.5833 92.0986 53.4376 99.6791" stroke="black" stroke-width="0.57" stroke-miterlimit="22.93"/>
<path d="M54.6079 75.6846C54.8653 75.9225 55.1275 76.1605 55.3121 76.4713C55.4966 76.7821 55.6083 77.1609 55.6811 80.4485C55.754 83.7411 55.7928 89.9376 55.8268 96.1391" stroke="black" stroke-width="0.57" stroke-miterlimit="22.93"/>
<path d="M56.1376 73.5716C56.8806 73.5474 57.6187 73.5231 58.1723 73.6979C58.726 73.8727 59.0999 74.2515 59.2941 74.5575C59.4884 74.8634 59.5078 75.1062 59.4884 78.8941C59.469 82.682 59.4155 90.0197 59.3573 97.3575" stroke="black" stroke-width="0.57" stroke-miterlimit="22.93"/>
<path d="M60.2557 73.8486C60.7025 74.2031 61.1444 74.5528 61.3192 77.7725C61.4941 80.9922 61.4018 87.0722 61.3095 93.1522" stroke="black" stroke-width="0.57" stroke-miterlimit="22.93"/>
<path d="M61.8 71.0271C62.3634 70.8086 62.9267 70.5901 63.4415 70.6726C63.9562 70.7503 64.4224 71.1291 64.6798 71.4788C64.9372 71.8236 64.9857 72.1392 64.9469 76.0873C64.908 80.0355 64.7866 87.6112 64.6652 95.1918" stroke="black" stroke-width="0.57" stroke-miterlimit="22.93"/>
<path d="M65.9618 71.5176C66.2192 71.9012 66.4814 72.2897 66.6465 75.6162C66.8116 78.9476 66.8893 85.217 66.9622 91.4913" stroke="black" stroke-width="0.57" stroke-miterlimit="22.93"/>
<path d="M68.1083 68.2642C68.895 68.6867 69.6866 69.114 70.1188 69.4491C70.5558 69.7842 70.6384 70.0318 70.6724 73.8246C70.7064 77.6124 70.6821 84.9405 70.6627 92.2686" stroke="black" stroke-width="0.57" stroke-miterlimit="22.93"/>
<path d="M71.3668 68.7593C71.7068 69.478 72.0467 70.1919 72.1972 73.5233C72.3478 76.8546 72.3041 82.7987 72.2604 88.7476" stroke="black" stroke-width="0.57" stroke-miterlimit="22.93"/>
<path d="M73.6638 65.8843C74.4311 66.3116 75.1984 66.739 75.5917 67.3023C75.9851 67.8656 76.0045 68.5649 75.9851 72.1488C75.9657 75.7279 75.8977 82.1867 75.8346 88.6455" stroke="black" stroke-width="0.57" stroke-miterlimit="22.93"/>
<path d="M48.9067 76.9613C49.4555 76.7671 50.0091 76.5728 50.4073 76.5048C50.8055 76.4369 51.0483 76.4903 51.2523 76.6554C51.4611 76.8254 51.6262 77.107 51.7136 77.3353C51.7962 77.5684 51.7962 77.748 51.6991 77.9132C51.5971 78.0783 51.398 78.2337 51.1649 78.3648C50.9318 78.4959 50.6647 78.6027 50.4025 78.7096" stroke="black" stroke-width="0.57" stroke-miterlimit="22.93"/>
<path d="M54.7827 74.9172C55.312 74.7375 55.8414 74.553 56.2444 74.5336C56.6475 74.5093 56.9243 74.6453 57.0651 74.8104C57.206 74.9755 57.2205 75.1649 57.2303 75.3252C57.24 75.4903 57.2497 75.6262 57.172 75.7574C57.0943 75.8933 56.9243 76.0196 56.6572 76.175C56.3901 76.3304 56.0308 76.5052 55.6714 76.6849" stroke="black" stroke-width="0.57" stroke-miterlimit="22.93"/>
<path d="M60.348 72.596C60.8239 72.4309 61.2999 72.2609 61.7126 72.2318C62.1254 72.2026 62.4751 72.3095 62.6742 72.5134C62.8733 72.7126 62.9267 73.0039 62.917 73.2079C62.9073 73.4118 62.8344 73.5235 62.4993 73.7178C62.1643 73.9169 61.5718 74.1986 60.9793 74.4802" stroke="black" stroke-width="0.57" stroke-miterlimit="22.93"/>
<path d="M65.2675 69.8425C66.0299 69.5269 66.7923 69.2063 67.3362 69.2549C67.8801 69.2986 68.2103 69.7065 68.39 70.0076C68.5697 70.3087 68.6037 70.5078 68.4483 70.7652C68.2929 71.0226 67.9578 71.3334 67.6227 71.5422C67.2877 71.751 66.9623 71.853 66.6321 71.9501" stroke="black" stroke-width="0.57" stroke-miterlimit="22.93"/>
<path d="M70.9492 67.5935C71.532 67.4381 72.1147 67.2827 72.6003 67.2924C73.086 67.3021 73.4793 67.4672 73.6347 67.7003C73.7901 67.9334 73.7027 68.2248 73.4502 68.5113C73.1977 68.7979 72.7703 69.0747 72.3478 69.3563" stroke="black" stroke-width="0.57" stroke-miterlimit="22.93"/>
<path fill-rule="evenodd" clip-rule="evenodd" d="M39.8597 86.8782C36.5817 88.3254 30.0258 91.1808 25.1744 93.2107C20.323 95.2407 17.1665 96.445 16.0981 97.5717C15.0297 98.6983 16.0544 99.7473 17.1276 100.553C18.2009 101.36 19.3227 101.923 21.0223 102.787C22.7269 103.652 25.0093 104.807 31.842 108.115C38.6748 111.417 50.053 116.861 55.7542 119.59C61.4554 122.319 61.4797 122.329 68.4873 125.616C75.4948 128.899 89.4808 135.46 97.3042 139.112C105.123 142.764 106.774 143.502 107.76 143.988C108.746 144.473 109.076 144.701 109.26 144.891C109.445 145.085 109.484 145.241 109.43 148.824C109.372 152.413 109.217 159.43 109.158 162.932C109.095 166.433 109.129 166.419 109.45 166.312C109.77 166.205 110.377 166.006 110.678 165.87C110.984 165.734 110.984 165.656 111.018 162.577C111.057 159.498 111.13 153.418 111.203 149.859C111.276 146.304 111.344 145.275 111.305 144.614C111.266 143.954 111.111 143.672 110.518 143.342C109.926 143.012 108.886 142.638 102.602 139.709C96.3184 136.781 84.78 131.303 71.2748 124.864C57.7695 118.42 42.2927 111.019 33.5029 106.808C24.7131 102.603 22.6055 101.593 20.9689 100.752C19.3372 99.9124 18.1766 99.2373 18.4728 98.5041C18.769 97.7659 20.5173 96.9695 24.8733 95.1338C29.2294 93.303 36.1932 90.433 39.6946 88.9907C43.196 87.5484 43.2397 87.5338 43.2397 87.4755C43.2397 87.4173 43.2105 87.325 43.1911 87.189C43.1717 87.0579 43.1717 86.8831 43.1717 86.5674C43.1717 86.2517 43.1668 85.7904 43.162 85.5816C43.1571 85.3728 43.1474 85.4165 39.8694 86.8685L39.8597 86.8782Z" fill="#005A4D" stroke="black" stroke-width="0.57" stroke-miterlimit="22.93"/>
<path d="M78.4327 104.107C91.5495 110.722 104.671 117.331 111.771 120.711C118.871 124.091 119.958 124.237 120.969 124.314C121.979 124.387 122.916 124.387 129.588 121.488C136.261 118.589 148.673 112.786 161.091 106.982" stroke="black" stroke-width="0.57" stroke-miterlimit="22.93"/>
<path d="M105.341 84.9209C121.173 92.2587 137.004 99.5965 145.153 103.681C153.297 107.765 153.758 108.6 154.04 109.931C154.321 111.261 154.423 113.092 154.52 114.918" stroke="black" stroke-width="0.57" stroke-miterlimit="22.93"/>
<path fill-rule="evenodd" clip-rule="evenodd" d="M122.27 77.6996C122.042 76.6653 122.115 74.8733 122.765 73.0474C123.416 71.2214 124.65 69.3566 125.878 68.1086C127.107 66.8605 128.34 66.2243 129.253 66.0398C130.166 65.8553 130.764 66.1126 133.857 67.8852C136.95 69.6577 142.54 72.9357 145.264 74.7422C147.984 76.5487 147.838 76.8838 147.333 78.3018C146.828 79.7198 145.973 82.2159 145.211 83.9059C144.448 85.5959 143.788 86.4846 143.162 87.1742C142.54 87.8638 141.952 88.3542 140.947 88.2377C139.942 88.126 138.509 87.4073 135.542 85.8144C132.575 84.2216 128.073 81.7595 125.553 80.3851C123.032 79.0108 122.498 78.7292 122.27 77.6948V77.6996Z" fill="white" stroke="black" stroke-width="0.57" stroke-miterlimit="22.93"/>
<path fill-rule="evenodd" clip-rule="evenodd" d="M150.023 77.0971C149.154 76.8543 148.382 76.932 147.62 77.3448C146.857 77.7527 146.095 78.4957 145.308 79.7438C144.516 80.9919 143.701 82.745 143.419 84.3475C143.137 85.9501 143.399 87.4021 143.579 88.3442C143.759 89.2863 143.861 89.7185 147.013 91.8407C150.164 93.9677 156.361 97.7847 159.629 99.7855C162.897 101.786 163.232 101.976 163.767 101.888C164.306 101.801 165.044 101.446 165.583 100.83C166.122 100.213 166.467 99.3436 166.841 97.9013C167.219 96.459 167.627 94.4436 168.05 93.0693C168.472 91.695 168.909 90.9617 169.332 89.9953C169.754 89.0289 170.153 87.8392 167.404 85.8772C164.65 83.9153 158.74 81.1861 155.302 79.5398C151.864 77.8936 150.893 77.3351 150.023 77.0971Z" fill="white" stroke="black" stroke-width="0.57" stroke-miterlimit="22.93"/>
<path d="M169.225 87.6061C168.744 87.4993 168.264 87.3924 167.652 87.6255C167.04 87.8538 166.297 88.4171 165.486 89.6506C164.67 90.8841 163.786 92.7829 163.276 94.638C162.766 96.493 162.64 98.2947 162.674 99.2951C162.708 100.295 162.897 100.49 163.067 100.655C163.237 100.825 163.383 100.971 163.529 101.116" stroke="black" stroke-width="0.57" stroke-miterlimit="22.93"/>
<path d="M147.552 76.7817C147.148 76.67 146.741 76.5583 146.08 76.6409C145.42 76.7234 144.502 76.9954 143.652 77.6267C142.807 78.2531 142.035 79.239 141.428 80.6084C140.826 81.9779 140.389 83.7358 140.204 84.8722C140.02 86.0086 140.083 86.5233 140.146 87.0381" stroke="black" stroke-width="0.57" stroke-miterlimit="22.93"/>
<path fill-rule="evenodd" clip-rule="evenodd" d="M139.835 81.3224C136.907 79.6081 133.964 78.2338 132.187 77.8162C130.409 77.3986 129.797 77.9376 128.816 79.2731C127.835 80.6085 126.485 82.7404 125.912 84.7509C125.339 86.7614 125.538 88.6408 125.713 89.6266C125.888 90.6075 126.043 90.6901 128.914 92.2149C131.779 93.7398 137.359 96.7021 140.267 98.2464C143.176 99.7907 143.409 99.9218 144.036 99.2905C144.662 98.6592 145.682 97.2752 146.639 95.3375C147.6 93.395 148.504 90.9038 148.819 89.4469C149.135 87.99 148.868 87.5724 147.275 86.3389C145.682 85.1005 142.764 83.0415 139.835 81.3273V81.3224Z" fill="white" stroke="black" stroke-width="0.57" stroke-miterlimit="22.93"/>
<path d="M148.649 87.6209C148.358 87.485 148.071 87.349 147.489 87.4607C146.911 87.5724 146.036 87.9269 145.167 88.733C144.298 89.5392 143.429 90.7969 142.909 92.0061C142.394 93.2153 142.234 94.376 142.166 95.2161C142.103 96.0562 142.132 96.571 142.253 97.0226C142.375 97.4743 142.584 97.8628 142.793 98.2464" stroke="black" stroke-width="0.57" stroke-miterlimit="22.93"/>
<path fill-rule="evenodd" clip-rule="evenodd" d="M106.851 61.353C106.759 60.3186 106.512 58.5995 106.385 57.7399C106.301 57.1669 106.505 56.6359 106.997 56.1471C107.735 55.4138 109.216 53.9472 109.964 53.2139C110.712 52.4806 110.727 52.4806 111.941 53.1653C113.155 53.8501 115.568 55.2195 116.792 55.9383C118.016 56.657 118.04 56.725 117.443 57.4243C116.841 58.1236 115.612 59.4493 114.966 60.1681C114.316 60.8868 114.248 60.9985 113.505 61.319C112.762 61.6395 111.343 62.1737 110.644 62.4845C109.945 62.7953 109.959 62.8973 109.586 63.0138C109.212 63.1304 108.449 63.2712 107.92 63.2858C107.391 63.3003 107.099 63.1935 106.987 62.9652C106.876 62.737 106.949 62.3825 106.856 61.3481L106.851 61.353Z" fill="#005A4D" stroke="black" stroke-width="0.57" stroke-miterlimit="22.93"/>
<path fill-rule="evenodd" clip-rule="evenodd" d="M108.444 58.022C109.484 58.5611 111.596 59.7557 112.655 60.3967C113.713 61.0378 113.713 61.13 113.611 61.164C113.505 61.198 113.291 61.164 112.252 60.5813C111.212 59.9985 109.343 58.8573 108.391 58.2309C107.439 57.6044 107.41 57.4878 108.449 58.0269L108.444 58.022Z" fill="#6AC1AC"/>
</svg>
