<svg width="181" height="157" viewBox="0 0 181 157" fill="none" xmlns="http://www.w3.org/2000/svg">
<path fill-rule="evenodd" clip-rule="evenodd" d="M20.7901 141.54C20.3101 141.51 20.0901 141.1 20.1401 140.33C17.2301 138.58 16.0101 134.7 16.4801 128.69C17.4201 71.7097 17.8901 43.2197 17.8901 43.2197C18.3901 38.4997 20.0901 35.8397 22.9901 35.2397C25.3101 32.5997 29.0401 31.8297 34.1901 32.9197C36.2101 33.7597 37.5901 34.8897 38.3501 36.3097C40.9701 34.2997 44.3701 33.7797 48.5601 34.7497C50.4201 35.4597 51.9601 36.6597 53.1801 38.3397C56.0201 36.3597 59.3401 35.9097 63.1401 36.9897C65.4301 37.7797 67.1301 38.9797 68.2301 40.5997C71.2601 38.7197 74.5901 38.3297 78.2201 39.4197C80.1801 39.9997 81.8601 41.1397 83.2701 42.8297C86.5501 41.0397 89.8901 40.6397 93.3001 41.6197C95.3101 42.5297 96.8201 43.8097 97.8301 45.4597C100.74 43.2997 104.26 42.7497 108.38 43.8197C111 45.0097 112.53 46.3697 112.98 47.9097C116.38 45.7997 119.8 45.2697 123.24 46.3097C126.14 47.4997 128.29 49.5397 129.7 52.4197C137.04 50.3897 140.71 49.3797 140.71 49.3797C144.14 49.8697 145.87 51.4597 145.91 54.1597C145.95 54.7197 145.91 54.9497 145.8 54.8597C162.26 57.5697 170.45 58.7997 170.37 58.5497C171.8 56.8497 172.51 55.9997 172.51 55.9997C175.3 56.1797 176.69 56.2797 176.69 56.2797C179.19 58.9897 180.44 60.3497 180.44 60.3497C180.5 65.9497 180.53 68.7497 180.53 68.7497C177.4 71.3397 175.83 72.6397 175.83 72.6397C171.03 70.3097 168.63 69.1497 168.63 69.1497C153.81 66.7097 146.4 65.4897 146.4 65.4897C145.28 118.44 144.73 144.92 144.73 144.92C146.49 145.04 147.37 145.09 147.37 145.09C148.95 146.8 149.74 147.66 149.74 147.66C149.78 151.2 149.8 152.96 149.8 152.96C147.82 154.59 146.83 155.41 146.83 155.41C143.8 153.94 142.28 153.21 142.28 153.21C142.29 152.66 142.3 152.38 142.3 152.38C140.4 151.88 138.47 151.61 136.51 151.56C132.82 154.79 129.38 156.16 126.18 155.68C124.1 153.62 123.07 152.59 123.07 152.59C122.95 151.75 122.84 150.24 122.84 150.24C118.39 149.33 115.91 149.05 115.91 149.05C115.58 151.14 113.27 152.76 110.69 153.37C110.74 154.43 110.53 154.96 110.05 154.96C109.37 154.99 109.07 154.42 109.14 153.26C107.42 152.08 106.45 150.07 106.23 147.24C104.18 146.73 102.47 146.33 101.09 146.03C100.2 149.11 98.4501 150.85 95.8501 151.25C95.6001 152.04 95.2501 152.49 94.7901 152.62C94.3401 152.4 94.1201 151.89 94.1201 151.09C92.6001 150.09 91.6201 147.97 91.1801 144.73C87.7001 144 85.9601 143.64 85.9601 143.64C85.2201 146.3 83.4101 148.02 80.5301 148.8C80.6401 149.78 80.3801 150.26 79.7601 150.25C79.1501 150.23 78.9601 149.6 79.2101 148.35C77.5701 147.28 76.4701 145.18 75.9401 142.03C72.8301 141.6 71.2701 141.38 71.2701 141.38C70.6201 143.79 68.6801 145.49 65.4601 146.48C65.7101 147.39 65.5001 147.91 64.8301 148.03C64.1301 147.88 63.8701 147.22 64.0401 146.06C62.4301 144.57 61.4901 142.48 61.2301 139.79C58.1501 139.18 56.6001 138.88 56.6001 138.88C55.7101 141.53 53.7101 143.38 50.6001 144.43C50.6601 145.19 50.4501 145.59 49.9701 145.63C49.2401 145.67 48.9801 145.05 49.2001 143.76C47.6501 142.82 46.6901 141.02 46.3301 138.36C43.2701 137.76 41.7401 137.45 41.7401 137.45C40.5301 140.01 38.6301 141.53 36.0301 142C36.0501 142.93 35.8401 143.39 35.4001 143.39C34.9601 143.43 34.7401 142.87 34.7401 141.71C33.1901 140.83 32.2101 138.92 31.8101 135.98C28.6401 135.54 27.0601 135.32 27.0601 135.32C26.5301 137.74 24.7501 139.43 21.7101 140.4C21.6101 141.21 21.3101 141.58 20.8101 141.52L20.7901 141.54Z" fill="#6AC1AC" stroke="#005A4D" stroke-width="0.57" stroke-miterlimit="22.93"/>
<path d="M33.98 32.8897C25.36 31.1297 21.44 34.8797 21 40.6497C19.62 171.35 20.02 122.41 20.14 141.27C20.48 141.68 20.9 141.64 21.4 141.15C22.11 75.5197 22.46 42.7097 22.46 42.7097C22.59 35.5497 26.5 32.2797 34.19 32.9197" stroke="#005A4D" stroke-width="0.57" stroke-miterlimit="22.93"/>
<path d="M48.5601 34.7598C39.9401 32.9998 36.0201 36.7498 35.5801 42.5198C34.2001 173.22 34.6001 124.28 34.7201 143.14C35.0601 143.55 35.4801 143.51 35.9801 143.02C36.6901 77.3898 37.0401 44.5798 37.0401 44.5798C37.1701 37.4198 41.0801 34.1498 48.7701 34.7898" stroke="#005A4D" stroke-width="0.57" stroke-miterlimit="22.93"/>
<path d="M63.1502 36.9898C54.5302 35.2298 50.6102 38.9798 50.1702 44.7498C48.7902 175.45 49.1902 126.51 49.3102 145.37C49.6502 145.78 50.0702 145.74 50.5702 145.25C51.2802 79.6198 51.6302 46.8098 51.6302 46.8098C51.7602 39.6498 55.6702 36.3798 63.3602 37.0198" stroke="#005A4D" stroke-width="0.57" stroke-miterlimit="22.93"/>
<path d="M78.01 39.3897C69.39 37.6297 65.47 41.3797 65.03 47.1497C63.65 177.85 64.05 128.91 64.17 147.77C64.51 148.18 64.93 148.14 65.43 147.65C66.14 82.0197 66.49 49.2097 66.49 49.2097C66.62 42.0497 70.53 38.7797 78.22 39.4197" stroke="#005A4D" stroke-width="0.57" stroke-miterlimit="22.93"/>
<path d="M93.0801 41.5899C84.4601 39.8299 80.5401 43.5799 80.1001 49.3499C78.7201 180.05 79.1201 131.11 79.2401 149.97C79.5801 150.38 80.0001 150.34 80.5001 149.85C81.2101 84.2199 81.5601 51.4099 81.5601 51.4099C81.6901 44.2499 85.6001 40.9799 93.2901 41.6199" stroke="#005A4D" stroke-width="0.57" stroke-miterlimit="22.93"/>
<path d="M108.16 43.7998C99.5402 42.0398 95.6202 45.7898 95.1802 51.5598C93.8002 182.26 94.2002 133.32 94.3202 152.18C94.6602 152.59 95.0802 152.55 95.5802 152.06C96.2902 86.4298 96.6402 53.6198 96.6402 53.6198C96.7702 46.4598 100.68 43.1898 108.37 43.8298" stroke="#005A4D" stroke-width="0.57" stroke-miterlimit="22.93"/>
<path d="M123.23 46.3199C114.61 44.5599 110.69 48.3099 110.25 54.0799C108.87 184.78 109.27 135.84 109.39 154.7C109.73 155.11 110.15 155.07 110.65 154.58C111.36 88.9499 111.71 56.1399 111.71 56.1399C111.84 48.9799 115.75 45.7099 123.44 46.3499" stroke="#005A4D" stroke-width="0.57" stroke-miterlimit="22.93"/>
<path d="M37.7202 36.9399C32.6002 38.4899 31.8602 47.7299 31.9702 63.4099C32.3002 108.69 31.4802 131.33 31.4802 131.33C31.4902 137.15 32.5702 140.61 34.7102 141.73" stroke="#005A4D" stroke-width="0.57" stroke-miterlimit="22.93"/>
<path d="M52.4802 38.6099C47.3602 40.1599 46.3202 49.7699 46.4402 65.4499C46.7702 110.73 45.9502 133.37 45.9502 133.37C45.9602 139.19 47.0402 142.65 49.1802 143.77" stroke="#005A4D" stroke-width="0.57" stroke-miterlimit="22.93"/>
<path d="M67.6202 41.1099C62.5002 42.6599 61.3302 51.8599 61.4502 67.5399C61.7802 112.82 60.9602 135.46 60.9602 135.46C60.9702 141.27 62.0502 144.74 64.1902 145.86" stroke="#005A4D" stroke-width="0.57" stroke-miterlimit="22.93"/>
<path d="M96.0802 47.8701C91.1002 49.3801 91.2902 59.5301 91.4002 74.7801C91.7202 118.83 90.9202 140.85 90.9202 140.85C90.9302 146.51 92.2202 150.12 94.3102 151.21" stroke="#005A4D" stroke-width="0.57" stroke-miterlimit="22.93"/>
<path d="M111.14 50.1802C106.16 51.6902 106.35 61.8402 106.46 77.0902C106.78 121.14 105.98 143.16 105.98 143.16C105.99 148.82 107.04 152.19 109.13 153.28" stroke="#005A4D" stroke-width="0.57" stroke-miterlimit="22.93"/>
<path d="M82.4402 43.5698C77.3202 45.1198 76.3502 54.3598 76.4602 70.0398C76.7902 115.32 75.9702 137.96 75.9702 137.96C75.9802 143.78 77.0602 147.24 79.2002 148.36" stroke="#005A4D" stroke-width="0.57" stroke-miterlimit="22.93"/>
<path d="M21.4102 140.53C22.8802 139.96 24.3402 139.39 25.4902 138.24C26.6402 137.09 27.4702 135.38 27.9202 129C28.3602 122.62 28.4102 111.58 28.7002 96.8802C28.9902 82.1802 29.5102 63.8202 30.0302 45.4702" stroke="#005A4D" stroke-width="0.57" stroke-miterlimit="22.93"/>
<path d="M36.28 142.01C37.75 141.44 39.21 140.87 40.36 139.72C41.51 138.57 42.34 136.86 42.79 130.48C43.23 124.1 43.28 113.06 43.57 98.3597C43.86 83.6597 44.38 65.2997 44.9 46.9497" stroke="#005A4D" stroke-width="0.57" stroke-miterlimit="22.93"/>
<path d="M50.6702 144.24C52.1402 143.67 53.6002 143.1 54.7502 141.95C55.9002 140.8 56.7302 139.09 57.1802 132.71C57.6202 126.33 57.6702 115.29 57.9602 100.59C58.2502 85.8902 58.7702 67.5302 59.2902 49.1802" stroke="#005A4D" stroke-width="0.57" stroke-miterlimit="22.93"/>
<path d="M65.7002 146.34C67.1702 145.77 68.6302 145.2 69.7802 144.05C70.9302 142.9 71.7602 141.19 72.2102 134.81C72.6502 128.43 72.7002 117.39 72.9902 102.69C73.2702 88.0899 73.7902 69.8799 74.3102 51.6499" stroke="#005A4D" stroke-width="0.57" stroke-miterlimit="22.93"/>
<path d="M80.3101 148.89C81.7801 148.32 83.2401 147.75 84.3901 146.6C85.5401 145.45 86.3701 143.74 86.8201 137.36C87.2601 130.98 87.3101 119.94 87.6001 105.24C87.8901 90.5401 88.4101 72.1801 88.9301 53.8301" stroke="#005A4D" stroke-width="0.57" stroke-miterlimit="22.93"/>
<path d="M95.5901 151.34C96.9701 150.9 98.3401 150.45 99.4401 149.37C100.54 148.29 101.38 146.57 101.82 140.19C102.26 133.81 102.31 122.77 102.6 108.07C102.89 93.3697 103.41 75.0097 103.93 56.6597" stroke="#005A4D" stroke-width="0.57" stroke-miterlimit="22.93"/>
<path d="M110.68 153.38C112.06 152.94 113.43 152.49 114.53 151.41C115.63 150.33 116.47 148.61 116.91 142.23C117.35 135.85 117.4 124.81 117.69 110.11C117.98 95.4097 118.5 77.0497 119.02 58.6997" stroke="#005A4D" stroke-width="0.57" stroke-miterlimit="22.93"/>
<path d="M129.69 52.44C124.03 51.5 118.62 50.6 113.45 49.75M111.67 49.45C109.2 49.04 106.78 48.64 104.43 48.25M96.5901 46.95C94.0101 46.52 91.5 46.11 89.07 45.7M80.9101 44.35C78.8801 44.01 76.9201 43.69 75.0201 43.37M66.0901 41.89C63.7701 41.51 61.5701 41.14 59.4701 40.79M50.9801 39.38C48.5501 38.98 46.3301 38.61 44.3301 38.28M37.55 37.16C32.88 36.39 30.5401 36 30.5401 36C28.1801 37.44 27.2801 40.15 27.8401 44.13C29.5401 44.41 31.23 44.68 32.89 44.95M42.46 46.5C44.14 46.77 45.7901 47.04 47.4101 47.3M57.2301 48.89C59.0001 49.18 60.74 49.46 62.45 49.73M72.31 51.32C74.05 51.6 75.74 51.87 77.38 52.14M87.07 53.71C88.8 53.99 90.4701 54.26 92.0801 54.52M102.49 56.2C104.13 56.46 105.67 56.71 107.12 56.95M111.71 57.69C118.17 58.73 122.08 59.37 123.46 59.59" stroke="#005A4D" stroke-width="0.57" stroke-miterlimit="22.93"/>
<path d="M29.98 44.48C29.23 41.6 30 38.88 32.3 36.29" stroke="#005A4D" stroke-width="0.57" stroke-miterlimit="22.93"/>
<path d="M42.44 46.4898C41.77 42.9198 42.39 40.1898 44.31 38.2798" stroke="#005A4D" stroke-width="0.57" stroke-miterlimit="22.93"/>
<path d="M44.5901 46.8397C44.4601 43.3897 45.2101 40.6797 46.8401 38.6997" stroke="#005A4D" stroke-width="0.57" stroke-miterlimit="22.93"/>
<path d="M57.2202 48.8798C57.0702 44.9698 57.8202 42.2698 59.4702 40.7998" stroke="#005A4D" stroke-width="0.57" stroke-miterlimit="22.93"/>
<path d="M60.0202 49.0602C59.8102 46.1602 60.4702 43.5502 62.0102 41.2202" stroke="#005A4D" stroke-width="0.57" stroke-miterlimit="22.93"/>
<path d="M72.29 51.3199C71.96 47.7899 72.86 45.1499 75 43.3799" stroke="#005A4D" stroke-width="0.57" stroke-miterlimit="22.93"/>
<path d="M75.1101 51.5301C74.9701 48.3301 75.8701 45.7601 77.8101 43.8301" stroke="#005A4D" stroke-width="0.57" stroke-miterlimit="22.93"/>
<path d="M87.06 53.6997C86.78 49.9197 87.52 47.1697 89.3 45.4497" stroke="#005A4D" stroke-width="0.57" stroke-miterlimit="22.93"/>
<path d="M89.5 54.0997C89.46 51.0597 90.23 48.4197 91.82 46.1597" stroke="#005A4D" stroke-width="0.57" stroke-miterlimit="22.93"/>
<path d="M102.48 56.2C101.77 52.75 102.42 50.1 104.43 48.25" stroke="#005A4D" stroke-width="0.57" stroke-miterlimit="22.93"/>
<path d="M104.72 56.5599C104.25 53.2299 105 50.5999 106.96 48.6699" stroke="#005A4D" stroke-width="0.57" stroke-miterlimit="22.93"/>
<path d="M117.02 58.5499C116.41 55.0799 116.87 52.4199 118.99 50.6699" stroke="#005A4D" stroke-width="0.57" stroke-miterlimit="22.93"/>
<path d="M120.01 59.0299C118.9 56.6899 119.49 53.6399 121.91 51.1499" stroke="#005A4D" stroke-width="0.57" stroke-miterlimit="22.93"/>
<path d="M27.9202 129L31.5402 129.56M42.7302 131.3L46.0002 131.81M57.1202 133.54L60.9902 134.14M72.1302 135.87L76.0202 136.47M86.7602 138.14L90.9902 138.8M101.81 140.48L106.05 141.14M116.88 142.82L122.51 143.69" stroke="#005A4D" stroke-width="0.57" stroke-miterlimit="22.93"/>
<path d="M28.05 126.7L31.6001 127.25M42.8801 129L46.0601 129.49M57.2701 131.23L61.0501 131.82M72.28 133.56L76.07 134.15M86.9001 135.83L91.0401 136.47M101.94 138.16L106.1 138.8M117.02 140.49L122.34 141.31" stroke="#005A4D" stroke-width="0.57" stroke-miterlimit="22.93"/>
<path d="M145.9 54.1701C145.62 51.2101 143.88 49.6201 140.7 49.3901C133.36 51.4201 129.69 52.4301 129.69 52.4301C127.7 53.6101 126.72 57.2801 126.74 63.4301C126.36 124.93 126.17 155.68 126.17 155.68C129.6 156.09 133.04 154.71 136.5 151.56C137.38 92.2601 137.82 62.6101 137.82 62.6101C137.65 56.5201 139.43 53.7901 143.16 54.4501C161.01 57.2201 169.93 58.6101 169.93 58.6101" stroke="#005A4D" stroke-width="0.57" stroke-miterlimit="22.93"/>
<path d="M137.81 63.11C138.23 64.3 139 64.76 140.13 64.46C139.48 59.13 140.49 55.8 143.15 54.46" stroke="#005A4D" stroke-width="0.57" stroke-miterlimit="22.93"/>
<path d="M140.14 64.46C159.13 67.59 168.63 69.1599 168.63 69.1599" stroke="#005A4D" stroke-width="0.57" stroke-miterlimit="22.93"/>
<path d="M146.08 65.4399C145.56 111.08 145.26 137.58 145.18 144.95" stroke="#005A4D" stroke-width="0.57" stroke-miterlimit="22.93"/>
<path d="M136.61 144.4C140.1 145.09 143 145.5 144.12 145.65" stroke="#005A4D" stroke-width="0.57" stroke-miterlimit="22.93"/>
<path d="M136.5 151.57C139.8 151.64 142.29 152.39 142.29 152.39" stroke="#005A4D" stroke-width="0.57" stroke-miterlimit="22.93"/>
<path fill-rule="evenodd" clip-rule="evenodd" d="M176.69 56.2898C173.9 56.1098 172.51 56.0098 172.51 56.0098C170 58.9998 168.75 60.4898 168.75 60.4898C168.75 65.0298 168.63 69.1497 168.63 69.1497C173.43 71.4797 175.83 72.6398 175.83 72.6398C178.96 70.0498 180.53 68.7498 180.53 68.7498C180.47 63.1498 180.44 60.3498 180.44 60.3498C177.94 57.6398 176.69 56.2798 176.69 56.2798V56.2898Z" fill="#6AC1AC" stroke="#005A4D" stroke-width="0.57" stroke-miterlimit="22.93"/>
<path fill-rule="evenodd" clip-rule="evenodd" d="M147.36 145.1C145.6 144.98 144.72 144.93 144.72 144.93C143.14 146.82 142.34 147.76 142.34 147.76C142.34 150.63 142.27 153.23 142.27 153.23C145.3 154.7 146.82 155.43 146.82 155.43C148.8 153.8 149.79 152.98 149.79 152.98C149.75 149.44 149.73 147.68 149.73 147.68C148.15 145.97 147.36 145.11 147.36 145.11V145.1Z" fill="#6AC1AC" stroke="#005A4D" stroke-width="0.57" stroke-miterlimit="22.93"/>
<path d="M176.69 56.29C174.07 59.51 172.76 61.12 172.76 61.12C172.55 67.71 172.45 71 172.45 71" stroke="#005A4D" stroke-width="0.57" stroke-miterlimit="22.93"/>
<path d="M147.36 145.1C145.71 147.13 144.88 148.15 144.88 148.15C144.75 152.31 144.68 154.39 144.68 154.39" stroke="#005A4D" stroke-width="0.57" stroke-miterlimit="22.93"/>
<path fill-rule="evenodd" clip-rule="evenodd" d="M1.76007 3.87012H9.52007C9.50007 6.37012 9.46007 13.3401 9.38007 24.7801C9.72007 31.6301 14.2501 35.1201 22.9801 35.2501C20.0101 35.7301 18.1401 38.3401 17.8801 43.2301C7.63007 41.3001 2.11007 35.8201 1.32007 26.7801C1.32007 26.7801 1.46007 19.1401 1.75007 3.87012H1.76007Z" fill="#6AC1AC" stroke="#005A4D" stroke-width="0.57" stroke-miterlimit="22.93"/>
<path d="M10.36 1H1V3.87H10.36V1Z" fill="#6AC1AC" stroke="#005A4D" stroke-width="0.57" stroke-miterlimit="22.93"/>
<path d="M129.69 52.4399C124.83 53.9199 122.81 56.9899 123.63 61.6599C123.1 120.72 122.83 150.25 122.83 150.25C123.06 152.6 124.18 154.42 126.17 155.69" stroke="#005A4D" stroke-width="0.57" stroke-miterlimit="22.93"/>
</svg>
