<svg width="172" height="156" viewBox="0 0 172 156" fill="none" xmlns="http://www.w3.org/2000/svg">
<path fill-rule="evenodd" clip-rule="evenodd" d="M133.533 23.35C135.873 23.71 137.133 24.97 137.313 27.11L137.843 128.03C137.233 145.06 144.503 153.97 159.653 154.75H171.453V132.24L163.433 132.43C161.093 132.07 159.833 130.81 159.653 128.67L159.123 27.74C159.733 10.71 152.463 1.80002 137.313 1.02002L120.203 1C105.053 1.78 97.7832 10.68 98.3932 27.72L98.7132 128.84C98.5332 130.98 97.2732 132.24 94.9332 132.6L88.8832 132.54C86.5432 132.18 85.2832 130.92 85.1032 128.78L84.9032 40.96C85.5132 23.93 78.2432 15.02 63.0932 14.24L45.9832 14.22C30.8332 15 23.5632 23.9 24.1732 40.94L24.2332 129.51C24.0532 131.65 22.7932 132.91 20.4532 133.27C20.4532 133.27 17.2332 133.29 10.7832 133.34C7.42321 136.79 7.71322 149.12 10.2432 154.46C10.2432 154.46 14.7432 154.58 23.7332 154.82C38.8832 154.04 46.6632 145.91 46.0532 128.88L45.9932 40.31C46.1732 38.17 47.4332 36.91 49.7732 36.55L59.3132 36.57C61.6532 36.93 62.9132 38.19 63.0932 40.33L63.2932 128.15C62.6832 145.18 69.9532 154.09 85.1032 154.87L98.7232 154.93C113.873 154.15 121.143 145.25 120.533 128.21L120.213 27.09C120.393 24.95 121.653 23.69 123.993 23.33L133.533 23.35Z" fill="#6AC1AC" stroke="#005A4D" stroke-width="0.57" stroke-miterlimit="22.93"/>
<path fill-rule="evenodd" clip-rule="evenodd" d="M3.14329 155.54C8.33329 155.42 10.9233 155.36 10.9233 155.36C8.5133 144.74 8.6233 139.5 11.9533 132.63C6.3533 132.72 3.55329 132.76 3.55329 132.76C0.293289 138.46 0.153286 146.06 3.14329 155.54Z" fill="#6AC1AC" stroke="#005A4D" stroke-width="0.57" stroke-miterlimit="22.93"/>
<path d="M46.9333 116.44H23.3533V124.87H46.9333V116.44Z" fill="#6AC1AC" stroke="#005A4D" stroke-width="0.57" stroke-miterlimit="22.93"/>
<path d="M46.7533 45.7998H23.1733V54.2298H46.7533V45.7998Z" fill="#6AC1AC" stroke="#005A4D" stroke-width="0.57" stroke-miterlimit="22.93"/>
<path d="M85.5832 116.44H62.0032V124.87H85.5832V116.44Z" fill="#6AC1AC" stroke="#005A4D" stroke-width="0.57" stroke-miterlimit="22.93"/>
<path d="M85.3932 45.7998H61.8132V54.2298H85.3932V45.7998Z" fill="#6AC1AC" stroke="#005A4D" stroke-width="0.57" stroke-miterlimit="22.93"/>
<path d="M121.153 116.44H97.5735V124.87H121.153V116.44Z" fill="#6AC1AC" stroke="#005A4D" stroke-width="0.57" stroke-miterlimit="22.93"/>
<path d="M120.853 31.8101H97.2732V40.2401H120.853V31.8101Z" fill="#6AC1AC" stroke="#005A4D" stroke-width="0.57" stroke-miterlimit="22.93"/>
<path d="M160.523 116.44H136.943V124.87H160.523V116.44Z" fill="#6AC1AC" stroke="#005A4D" stroke-width="0.57" stroke-miterlimit="22.93"/>
<path d="M160.223 31.8101H136.643V40.2401H160.223V31.8101Z" fill="#6AC1AC" stroke="#005A4D" stroke-width="0.57" stroke-miterlimit="22.93"/>
<path d="M24.2234 129.51L46.0534 129.67M63.2434 129.8L85.3334 129.96M98.4634 130.06L120.563 130.22M137.813 130.35L160.203 130.52" stroke="#005A4D" stroke-width="0.57" stroke-miterlimit="22.93"/>
<path d="M24.1333 39.5L46.0933 39.57M62.9833 39.62L84.9333 39.69" stroke="#005A4D" stroke-width="0.57" stroke-miterlimit="22.93"/>
<path d="M98.363 25.77L120.293 26.48M137.313 27.03L159.133 27.74" stroke="#005A4D" stroke-width="0.57" stroke-miterlimit="22.93"/>
<path d="M69.5432 148.98C78.3932 145.36 84.4232 139.77 87.6432 132.23" stroke="#005A4D" stroke-width="0.57" stroke-miterlimit="22.93"/>
<path d="M105.643 5.6001C114.493 9.2201 120.773 15.7801 123.993 23.3301" stroke="#005A4D" stroke-width="0.57" stroke-miterlimit="22.93"/>
<path d="M31.8333 18.8604C40.6833 22.4804 46.5632 28.8703 49.7832 36.4203" stroke="#005A4D" stroke-width="0.57" stroke-miterlimit="22.93"/>
<path d="M115.853 147.68C107.003 144.06 100.973 138.47 97.7532 130.93" stroke="#005A4D" stroke-width="0.57" stroke-miterlimit="22.93"/>
<path d="M144.594 149.12C153.444 145.5 159.474 139.91 162.694 132.37" stroke="#005A4D" stroke-width="0.57" stroke-miterlimit="22.93"/>
<path d="M152.123 6.2002C143.273 9.8202 137.073 16.1102 133.853 23.6602" stroke="#005A4D" stroke-width="0.57" stroke-miterlimit="22.93"/>
<path d="M77.9133 19.29C69.0633 22.91 62.8633 29.2001 59.6433 36.7501" stroke="#005A4D" stroke-width="0.57" stroke-miterlimit="22.93"/>
</svg>
