<svg width="263" height="189" viewBox="0 0 263 189" fill="none" xmlns="http://www.w3.org/2000/svg">
<g clip-path="url(#clip0_358_8574)">
<path fill-rule="evenodd" clip-rule="evenodd" d="M76.7054 171.617L82.9571 187.821C173.645 135.423 215.24 111.552 215.24 111.552C220.554 108.755 223.658 105.795 224.57 102.671C224.854 95.7867 224.991 44.1458 224.983 43.0357C218.817 42.8205 215.738 42.7173 215.738 42.7173C215.661 49.3951 215.618 100.391 215.618 100.391C214.818 102.344 212.178 104.383 207.681 106.5C114.826 152.926 77.6943 171.566 76.6882 171.609L76.7054 171.617Z" fill="#6AC1AC" stroke="white" stroke-width="0.57" stroke-miterlimit="22.93"/>
<path fill-rule="evenodd" clip-rule="evenodd" d="M145.113 124.683C153.454 121.104 157.625 119.314 157.625 119.314C157.625 119.314 157.521 123.986 157.306 133.34C157.728 139.708 151.459 143.28 145.113 138.013V124.683Z" fill="#6AC1AC" stroke="#005A4D" stroke-width="0.57" stroke-miterlimit="22.93"/>
<path d="M145.113 135.19C150.384 137.746 154.46 136.782 157.332 132.299" stroke="#005A4D" stroke-width="0.57" stroke-miterlimit="22.93"/>
<path fill-rule="evenodd" clip-rule="evenodd" d="M79.7496 189C84.032 189 87.5233 184.921 87.5233 179.921C87.5233 174.921 84.032 170.843 79.7496 170.843C75.4671 170.843 71.9758 174.921 71.9758 179.921C71.9758 184.921 75.4671 189 79.7496 189Z" fill="#005A4D"/>
<path d="M81.3405 169.5C84.5566 169.664 86.8956 171.385 88.3403 174.646C89.6989 178.39 89.6645 181.815 88.2543 184.921" stroke="#005A4D" stroke-width="0.57" stroke-miterlimit="22.93"/>
<path d="M206.322 107.197C209.9 108.454 211.267 110.837 210.441 114.331" stroke="#005A4D" stroke-width="0.57" stroke-miterlimit="22.93"/>
<path d="M209.134 105.795C212.161 106.371 213.571 108.643 213.374 112.627" stroke="#005A4D" stroke-width="0.57" stroke-miterlimit="22.93"/>
<path d="M215.635 100.39C218.619 102.06 221.62 102.284 224.647 101.053" stroke="#005A4D" stroke-width="0.57" stroke-miterlimit="22.93"/>
<path d="M215.498 93.4373C218.482 95.1067 221.483 95.3304 224.51 94.0999" stroke="#005A4D" stroke-width="0.57" stroke-miterlimit="22.93"/>
<path d="M215.936 98.3767C218.92 100.046 221.921 100.27 224.948 99.0393" stroke="#005A4D" stroke-width="0.57" stroke-miterlimit="22.93"/>
<path d="M215.799 91.415C218.783 93.0845 221.784 93.3082 224.811 92.0777" stroke="#005A4D" stroke-width="0.57" stroke-miterlimit="22.93"/>
<path d="M215.635 58.0691C218.619 59.7385 221.62 59.9623 224.647 58.7317" stroke="#005A4D" stroke-width="0.57" stroke-miterlimit="22.93"/>
<path d="M215.498 51.1074C218.482 52.7769 221.483 53.0006 224.51 51.77" stroke="#005A4D" stroke-width="0.57" stroke-miterlimit="22.93"/>
<path d="M215.936 56.0469C218.92 57.7163 221.921 57.9401 224.948 56.7095" stroke="#005A4D" stroke-width="0.57" stroke-miterlimit="22.93"/>
<path d="M215.799 49.0938C218.783 50.7632 221.784 50.9869 224.811 49.7564" stroke="#005A4D" stroke-width="0.57" stroke-miterlimit="22.93"/>
<path fill-rule="evenodd" clip-rule="evenodd" d="M132.824 53.6717C44.441 62.9999 0.24939 67.664 0.24939 67.664C0.636357 105.597 0.83414 124.563 0.83414 124.563C0.877136 128.341 3.26773 131.18 7.98873 133.082C42.4116 146.885 59.6273 153.787 59.6273 153.787C65.9994 157.564 73.5925 156.928 82.3896 151.868C154.967 120.733 191.248 105.166 191.248 105.166C192.916 105.399 193.81 102.972 193.922 97.8947C194.051 71.0546 194.111 57.6388 194.111 57.6388C153.256 54.9883 132.833 53.6631 132.833 53.6631L132.824 53.6717Z" fill="#CCCCCC" stroke="#999999" stroke-width="0.57" stroke-miterlimit="22.93"/>
<path fill-rule="evenodd" clip-rule="evenodd" d="M27 72C52.385 77.3353 65.0776 80.003 65.0776 80.003C70.9767 81.552 74.4164 88.5568 75.3967 101.009C76.205 89.9078 79.7651 83.2472 86.0684 81.027C107.223 75.3217 117.791 72.4733 117.791 72.4733C89.5597 78.9962 58.1637 78.6089 27 72.0086V72Z" fill="white"/>
<path fill-rule="evenodd" clip-rule="evenodd" d="M115.316 58.3444C97.7737 60.0569 65.1309 63.4818 48.904 65.6332C32.6772 67.7845 32.875 68.6623 39.9608 69.7896C47.0466 70.9169 61.0204 72.2851 68.7082 73.3092C76.3873 74.3418 77.7804 75.0302 93.7578 72.8789C109.735 70.7276 140.306 65.7364 156.378 63.1892C172.441 60.642 174.006 60.5474 174.746 60.2548C175.477 59.9622 175.382 59.4717 169.079 58.8349C162.776 58.1981 150.264 57.415 142.791 57.0278C135.318 56.6405 132.867 56.6405 115.325 58.3444H115.316Z" fill="#B3B3B3"/>
<path fill-rule="evenodd" clip-rule="evenodd" d="M142.103 67.9481C141.613 67.3629 162.827 63.4475 174.066 61.494C185.306 59.5406 186.578 59.5406 187.696 59.5836C188.823 59.6353 189.794 59.7299 190.431 60.2204C191.067 60.711 191.359 61.5887 191.454 67.2166C191.549 72.8445 191.454 83.2054 191.256 88.1019C191.058 92.9897 190.766 92.4046 190.328 87.5683C189.889 82.7235 189.304 73.6276 188.711 68.8344C188.126 64.0412 187.541 63.5507 176.156 64.678C164.771 65.8053 142.584 68.5418 142.094 67.9567L142.103 67.9481Z" fill="white"/>
<path fill-rule="evenodd" clip-rule="evenodd" d="M222.841 44.2059L254.22 26.083L262.682 18.0542L262.751 15.266L213.047 13.02L156.18 22.4085L156.412 27.761L160.342 27.9504L168.339 42.3299L222.841 44.2059Z" fill="#B3B3B3" stroke="white" stroke-width="0.57" stroke-miterlimit="22.93"/>
<path fill-rule="evenodd" clip-rule="evenodd" d="M234.889 26.2635L155.526 22.4599L155.759 27.8125L233.367 30.7211C233.247 31.0911 232.997 31.5386 232.567 32.0807C231.019 34.0256 227.081 37.2784 227.287 37.3989C227.494 37.5193 231.845 34.4989 234.192 32.8036C236.531 31.1083 236.867 30.7297 240.676 28.6988C244.486 26.668 251.769 22.9849 256.009 20.9282C260.257 18.8801 261.469 18.4584 262.088 17.7872C262.708 17.116 262.733 16.1866 262.742 15.7219C262.748 15.4121 261.22 15.8682 258.159 17.0902C253.558 18.9231 244.365 22.5976 239.395 24.5252C237.159 25.3944 235.775 25.9107 234.898 26.2549L234.889 26.2635Z" fill="#E6E6E6" stroke="#E6E6E6" stroke-width="0.57" stroke-miterlimit="22.93"/>
<path fill-rule="evenodd" clip-rule="evenodd" d="M205.445 16.4619C197.689 17.615 182.15 19.775 175.339 20.8162C168.528 21.8489 170.455 21.7542 181.806 21.9865C193.157 22.2189 213.933 22.7782 224.449 23.0364C234.958 23.2946 235.207 23.2429 237.907 22.1759C240.608 21.1088 245.767 19.0263 248.398 17.9248C251.021 16.8147 251.116 16.6942 244.821 16.3758C238.527 16.0574 225.843 15.5497 219.514 15.3604C213.184 15.1711 213.219 15.3088 205.462 16.4619H205.445Z" fill="#999999"/>
<path d="M233.771 5.91211H232.713C231.797 5.91211 231.054 6.65569 231.054 7.57295V13.6483C231.054 14.5656 231.797 15.3092 232.713 15.3092H233.771C234.688 15.3092 235.431 14.5656 235.431 13.6483V7.57295C235.431 6.65569 234.688 5.91211 233.771 5.91211Z" fill="#005A4D"/>
<path d="M234.098 3.91553H232.206V7.58142H234.098V3.91553Z" fill="#005A4D" stroke="#005A4D" stroke-width="0.57" stroke-miterlimit="22.93"/>
<path fill-rule="evenodd" clip-rule="evenodd" d="M234.021 3.51118C234.322 3.52839 234.786 3.55421 234.984 2.96904C235.181 2.38387 235.095 1.19633 235.061 0.60256C235.032 0.206713 234.167 0.00878906 232.464 0.00878906C229.91 0.00878906 224.794 0.00878906 222.231 0.112054C219.668 0.215318 219.651 0.413242 221.405 0.80909C223.16 1.20494 226.677 1.7901 228.594 2.28922C230.512 2.78833 230.813 3.18418 231.148 3.44234C231.484 3.7005 231.845 3.81237 232.18 3.87261C232.516 3.93284 232.834 3.93284 233.04 3.85539C233.247 3.78655 233.341 3.64887 233.462 3.58002C233.582 3.51118 233.711 3.51118 234.012 3.51978L234.021 3.51118Z" fill="#005A4D"/>
<path fill-rule="evenodd" clip-rule="evenodd" d="M229.454 6.81564C226.066 7.11683 219.926 8.23553 216.684 8.95838C213.434 9.68123 213.081 9.99963 212.901 10.8774C212.72 11.7465 212.72 13.175 213.064 14.0183C213.399 14.8617 214.079 15.1198 215.506 15.1629C216.934 15.1973 219.101 15.008 220.33 14.5002C221.56 13.9925 221.835 13.1578 222.644 12.4952C223.443 11.8326 224.768 11.3507 226.616 11.0667C228.474 10.7827 230.864 10.6967 232.146 10.3266C233.427 9.948 233.599 9.28538 233.745 8.77766C233.891 8.26995 234.003 7.92573 233.745 7.48686C233.487 7.04798 232.86 6.52305 229.471 6.81564H229.454Z" fill="#005A4D"/>
</g>
<defs>
<clipPath id="clip0_358_8574">
<rect width="263" height="189" fill="white"/>
</clipPath>
</defs>
</svg>
