<svg width="232" height="133" viewBox="0 0 232 133" fill="none" xmlns="http://www.w3.org/2000/svg">
<path fill-rule="evenodd" clip-rule="evenodd" d="M0 37.4996L124.186 1.03516L232 49.3619L94.4162 110.709L0 37.4996Z" fill="#EDEBE8"/>
<path fill-rule="evenodd" clip-rule="evenodd" d="M5.38721 35.2709L126.985 1L229.473 47.1771L97.3993 103.444L5.38721 35.2709Z" stroke="#999999" stroke-width="0.57" stroke-miterlimit="22.93"/>
<path d="M12.5818 33.2439L105.568 99.9608" stroke="#999999" stroke-width="0.57" stroke-miterlimit="22.93"/>
<path d="M19.917 31.1731L113.851 96.4335" stroke="#999999" stroke-width="0.57" stroke-miterlimit="22.93"/>
<path d="M68.4365 17.5034L167.459 73.5951" stroke="#999999" stroke-width="0.57" stroke-miterlimit="22.93"/>
<path d="M74.71 15.731L174.233 70.7083" stroke="#999999" stroke-width="0.57" stroke-miterlimit="22.93"/>
<path d="M41.6147 25.0579L138.075 86.1156" stroke="#999999" stroke-width="0.57" stroke-miterlimit="22.93"/>
<path d="M48.3794 23.1538L145.542 82.9305" stroke="#999999" stroke-width="0.57" stroke-miterlimit="22.93"/>
<path d="M93.3108 10.4844L194.149 62.2242" stroke="#999999" stroke-width="0.57" stroke-miterlimit="22.93"/>
<path d="M99.1367 8.84375L200.326 59.6009" stroke="#999999" stroke-width="0.57" stroke-miterlimit="22.93"/>
<path d="M105.077 7.16748L206.6 56.9244" stroke="#999999" stroke-width="0.57" stroke-miterlimit="22.93"/>
<path d="M110.692 5.58838L212.504 54.4065" stroke="#999999" stroke-width="0.57" stroke-miterlimit="22.93"/>
<path d="M27.3923 29.0676L122.238 92.854" stroke="#999999" stroke-width="0.57" stroke-miterlimit="22.93"/>
<path d="M34.429 27.0847L130.1 89.5112" stroke="#999999" stroke-width="0.57" stroke-miterlimit="22.93"/>
<path d="M81.1062 13.9326L181.12 67.7782" stroke="#999999" stroke-width="0.57" stroke-miterlimit="22.93"/>
<path d="M87.1426 12.23L187.578 65.0227" stroke="#999999" stroke-width="0.57" stroke-miterlimit="22.93"/>
<path d="M55.2847 21.2061L153.123 79.7018" stroke="#999999" stroke-width="0.57" stroke-miterlimit="22.93"/>
<path d="M61.7949 19.3721L160.238 76.6745" stroke="#999999" stroke-width="0.57" stroke-miterlimit="22.93"/>
<path d="M116.43 3.97412L218.506 51.8534" stroke="#999999" stroke-width="0.57" stroke-miterlimit="22.93"/>
<path d="M121.852 2.44727L224.156 49.4492" stroke="#999999" stroke-width="0.57" stroke-miterlimit="22.93"/>
<path d="M91.5032 99.0745L223.2 44.3516" stroke="#999999" stroke-width="0.57" stroke-miterlimit="22.93"/>
<path d="M85.5632 94.6699L216.83 41.4824" stroke="#999999" stroke-width="0.57" stroke-miterlimit="22.93"/>
<path d="M47.7566 66.6638L175.4 22.8118" stroke="#999999" stroke-width="0.57" stroke-miterlimit="22.93"/>
<path d="M43.0625 63.1806L170.135 20.4429" stroke="#999999" stroke-width="0.57" stroke-miterlimit="22.93"/>
<path d="M68.3401 81.9128L198.159 33.0684" stroke="#999999" stroke-width="0.57" stroke-miterlimit="22.93"/>
<path d="M63.0759 78.0173L192.386 30.4626" stroke="#999999" stroke-width="0.57" stroke-miterlimit="22.93"/>
<path d="M29.3489 53.0201L154.623 13.4497" stroke="#999999" stroke-width="0.57" stroke-miterlimit="22.93"/>
<path d="M25.1287 49.8972L149.806 11.2832" stroke="#999999" stroke-width="0.57" stroke-miterlimit="22.93"/>
<path d="M20.8557 46.7294L144.901 9.07178" stroke="#999999" stroke-width="0.57" stroke-miterlimit="22.93"/>
<path d="M16.8462 43.7549L140.286 6.99219" stroke="#999999" stroke-width="0.57" stroke-miterlimit="22.93"/>
<path d="M79.5708 90.2307L210.372 38.5698" stroke="#999999" stroke-width="0.57" stroke-miterlimit="22.93"/>
<path d="M73.9817 86.0981L204.31 35.8411" stroke="#999999" stroke-width="0.57" stroke-miterlimit="22.93"/>
<path d="M38.3071 59.6625L164.783 18.0303" stroke="#999999" stroke-width="0.57" stroke-miterlimit="22.93"/>
<path d="M33.8586 56.363L159.747 15.7573" stroke="#999999" stroke-width="0.57" stroke-miterlimit="22.93"/>
<path d="M57.7588 74.0691L186.516 27.8218" stroke="#999999" stroke-width="0.57" stroke-miterlimit="22.93"/>
<path d="M52.7839 70.3839L181.006 25.3386" stroke="#999999" stroke-width="0.57" stroke-miterlimit="22.93"/>
<path d="M12.7837 40.7457L135.583 4.87793" stroke="#999999" stroke-width="0.57" stroke-miterlimit="22.93"/>
<path d="M8.96704 37.9205L131.161 2.87744" stroke="#999999" stroke-width="0.57" stroke-miterlimit="22.93"/>
<path fill-rule="evenodd" clip-rule="evenodd" d="M94.4162 110.709L0 37.4995L1.56176 51.2746L95.9867 132.854L94.4162 110.709Z" fill="#D9D7D5"/>
<path fill-rule="evenodd" clip-rule="evenodd" d="M95.9865 132.855L94.416 110.709L232 49.3621L231.201 63.3565L95.9865 132.855Z" fill="#B3B3B3"/>
<path fill-rule="evenodd" clip-rule="evenodd" d="M114.719 59.0223C76.6052 36.1136 58.1887 25.111 58.1887 25.111C56.0128 22.5754 56.3725 20.3819 59.2855 18.5306C63.962 16.3196 68.3314 16.7232 72.3849 19.7326C114.351 43.51 135.329 55.3899 135.329 55.3899C140.488 58.2852 145.191 58.8292 149.42 56.9955C155.86 54.5125 158.764 50.4238 151.964 46.8265C114.298 26.664 95.4604 16.5828 95.4604 16.5828C91.363 14.7315 90.6435 12.6959 93.3196 10.4761C94.1618 9.92339 95.4954 9.4496 97.4959 8.86175C103.138 7.2298 106.647 6.61562 108.972 7.75623C153.123 29.3225 175.198 40.1057 175.198 40.1057C183.498 42.3957 189.21 41.0269 192.316 35.9995C193.333 34.3675 195.36 33.9288 198.387 34.6746C205.161 37.7455 208.547 39.2897 208.547 39.2897C212.373 42.2026 212.487 44.8875 208.89 47.3442C139.777 76.07 105.217 90.4329 105.217 90.4329C100.874 92.1964 98.154 91.9859 97.0397 89.7924V73.6133C97.8995 73.4202 99.47 73.7537 99.47 73.7537V87.2304C99.6367 88.722 100.628 89.3098 102.444 89.0027C128.652 78.2722 141.752 72.9026 141.752 72.9026C183.989 55.6355 205.117 47.002 205.117 47.002C209.284 45.1945 210.136 43.2292 207.652 41.1235C201.528 37.9999 198.466 36.447 198.466 36.447C196.053 35.5432 194.544 36.017 193.93 37.8683C190.71 42.3255 185.753 44.0364 179.058 42.9835C176.698 42.6677 174.733 42.2202 171.776 40.6146C130.46 20.5311 109.797 10.4849 109.797 10.4849C107.165 9.16884 104.629 8.81788 102.181 9.4496C98.1013 10.599 96.057 11.1693 96.057 11.1693C93.0388 12.538 94.39 14.0471 98.347 15.9072C134.794 35.2712 153.017 44.9489 153.017 44.9489C157.562 47.2564 159.536 50.6081 157.211 54.0123C154.219 58.3905 149.139 59.9962 143.541 60.0488C140.435 60.1453 137.391 59.1539 134.399 57.0657C91.5121 32.6215 70.0687 20.4082 70.0687 20.4082C67.34 18.8114 64.7604 18.4078 62.3125 19.2062C59.5399 20.1275 58.6362 21.5225 59.6013 23.4089C64.9885 26.8834 67.6821 28.6206 67.6821 28.6206C102.19 49.2481 119.51 59.6101 119.641 59.6803C123.054 62.5494 122.66 66.1554 118.448 70.4898C117.141 71.8322 115.509 72.7798 113.71 73.2799C106.445 75.2979 98.6716 74.4907 90.3803 70.867C54.1791 46.8879 39.6144 37.2366 36.0785 34.894C33.7621 33.3585 32.1741 32.3934 30.3053 32.6566C27.3309 33.5779 26.0324 34.0166 26.0324 34.0166C24.2425 34.5957 24.4969 35.4731 26.8045 36.6488C68.3139 65.7343 89.0642 80.2815 89.0642 80.2815C90.7137 81.5449 91.5297 81.2378 91.5033 79.3426C91.6262 78.9654 91.3542 72.613 91.7227 72.613C93.2845 72.613 93.846 72.1831 93.9776 72.2796C93.9776 82.3697 93.7056 83.4401 93.7056 83.4401C93.5477 84.063 92.8896 85.3528 90.0468 83.677C44.5102 51.9066 21.7419 36.0258 21.7419 36.0258C20.6364 34.9027 20.7592 33.9903 22.1016 33.2883C27.9977 31.5511 30.9457 30.6825 30.9457 30.6825C32.8409 30.4895 34.157 30.9983 35.2625 31.7441C72.1305 56.4778 90.7312 68.5858 90.7312 68.5858C98.8559 72.4727 106.305 73.4115 113.061 71.4023C113.947 71.139 114.781 70.7267 115.544 70.2002C118.834 67.9541 120.001 65.5062 119.036 62.8565C118.571 61.9527 117.141 60.6718 114.754 59.0223H114.719Z" fill="#D83232" stroke="black" stroke-width="0.57" stroke-miterlimit="22.93"/>
<path d="M93.916 67.4011H91.4856V76.7366H93.916V67.4011Z" fill="#D83232"/>
<path d="M99.4784 71.5774H97.0481V76.2276H99.4784V71.5774Z" fill="#D83232"/>
<path d="M97.0481 76.2276V71.6125" stroke="black" stroke-width="0.57" stroke-miterlimit="22.93"/>
<path d="M99.4785 76.2278V71.6829" stroke="black" stroke-width="0.57" stroke-miterlimit="22.93"/>
<path d="M91.4856 76.7366V67.5679" stroke="black" stroke-width="0.57" stroke-miterlimit="22.93"/>
<path d="M93.916 76.7365V67.6292" stroke="black" stroke-width="0.57" stroke-miterlimit="22.93"/>
<path fill-rule="evenodd" clip-rule="evenodd" d="M92.6879 67.9451C93.5038 67.9451 94.1707 67.796 94.1707 67.6117C94.1707 67.4275 93.5038 67.2783 92.6879 67.2783C91.8719 67.2783 91.2051 67.4275 91.2051 67.6117C91.2051 67.796 91.8719 67.9451 92.6879 67.9451Z" fill="black"/>
<path fill-rule="evenodd" clip-rule="evenodd" d="M98.2589 72.0247C99.0749 72.0247 99.7417 71.8756 99.7417 71.6913C99.7417 71.5071 99.0749 71.3579 98.2589 71.3579C97.4429 71.3579 96.7761 71.5071 96.7761 71.6913C96.7761 71.8756 97.4429 72.0247 98.2589 72.0247Z" fill="black"/>
</svg>
