<svg width="164" height="145" viewBox="0 0 164 145" fill="none" xmlns="http://www.w3.org/2000/svg">
<path d="M43.05 1.75977H0V32.7197H43.05V1.75977Z" fill="#CCCCCC"/>
<path d="M12.9998 5.53027H30.0498C33.0398 5.53027 35.4598 7.96031 35.4598 10.9403V24.7503C35.4598 27.7403 33.0298 30.1603 30.0498 30.1603H12.9998C10.0098 30.1603 7.58984 27.7303 7.58984 24.7503V10.9503C7.58984 7.96032 10.0198 5.54028 12.9998 5.54028V5.53027Z" stroke="#666666" stroke-width="0.57" stroke-miterlimit="22.93"/>
<path d="M28.24 8.41016H14.23C12.0098 8.41016 10.21 10.21 10.21 12.4302V22.6802C10.21 24.9004 12.0098 26.7002 14.23 26.7002H28.24C30.4601 26.7002 32.26 24.9004 32.26 22.6802V12.4302C32.26 10.21 30.4601 8.41016 28.24 8.41016Z" stroke="#666666" stroke-width="0.57" stroke-miterlimit="22.93"/>
<path fill-rule="evenodd" clip-rule="evenodd" d="M14.86 9.97974H27.61C29.62 9.97974 31.27 11.6298 31.27 13.6398V22.9697C31.27 24.9797 29.95 25.6498 28.24 26.6998L23.61 29.5497L20.15 29.7197L14.86 26.6198C13.13 25.5998 11.2 24.9698 11.2 22.9598V13.6298C11.2 11.6198 12.85 9.96973 14.86 9.96973V9.97974Z" fill="#005A4D" stroke="black" stroke-width="0.57" stroke-miterlimit="22.93"/>
<path fill-rule="evenodd" clip-rule="evenodd" d="M3.01 0L0 1.76001H43.06L40.72 0.179993L3.01 0Z" fill="#EDEBE8"/>
<path d="M21.53 30.1599C20.81 61.0399 20.09 91.9199 20.52 109.37C20.94 126.82 22.5 130.84 25.13 134.62C27.76 138.4 31.46 141.94 48.11 143.04C64.76 144.13 94.35 142.78 110.67 141.68C126.99 140.58 130.14 140.53 132 139.5C133.86 138.47 134.42 136.47 134.89 130.32C135.36 124.17 135.6 113.08 135.29 103.8C134.98 94.5199 134.11 87.0499 133.11 81.8099C132.11 76.5799 130.99 73.5899 129.25 71.9099C127.51 70.2299 125.14 69.8499 123.52 70.7299C121.9 71.5999 121.03 73.7199 121.34 77.0199C121.65 80.3199 123.15 84.8099 124.45 89.0999C125.76 93.3999 126.88 97.5099 127.5 102.3C128.12 107.1 128.25 112.58 127.62 117.19C127 121.8 126.12 125.83 125 128.5C123 131.5 122.51 132.5 112.05 133.19C101.59 133.88 81.53 133.63 67.58 133.13C53.63 132.63 45.78 131.88 41.11 130.39C36.44 128.9 34.94 126.65 34.13 110.83C33.32 95.0099 33.2 65.6099 34.32 50.7299C35.44 35.8399 37.81 35.4699 39.47 34.8799C41.13 34.2899 42.09 33.4999 43.03 34.3699C43.96 35.2399 44.87 37.7799 45.58 40.9199C46.28 44.0599 46.78 47.7999 47.28 59.8199C47.78 71.8399 48.28 92.1499 49.34 102.98C50.4 113.82 52.02 115.19 53.51 116.25C55 117.31 56.37 118.06 63.6 118.62C70.82 119.18 83.9 119.55 92.62 119.12C101.34 118.68 105.7 117.44 108.07 116.26C110.44 115.08 110.81 113.96 111 103.43C111.19 92.8999 111.19 72.9699 110.5 60.5799C109.81 48.1899 108.44 43.3299 107.26 40.3399C106.08 37.3499 105.08 36.2299 103.21 36.3499C101.34 36.4699 98.6 37.8499 98.29 42.1999C97.98 46.5599 100.1 53.9099 101.28 63.9999C102.46 74.0899 102.71 86.9199 102.46 95.1399C102.21 103.36 101.46 106.97 99.66 109.15C97.85 111.33 94.99 112.08 92.75 111.14C90.51 110.21 88.89 107.59 88.52 101.98C88.15 96.3699 89.02 87.7799 89.02 77.0699C89.02 66.3599 88.15 53.5299 86.9 46.6799C85.65 39.8299 84.04 38.9599 82.35 39.7699C80.67 40.5799 78.92 43.0699 78.92 49.9799C78.92 56.8899 80.66 68.2299 81.6 78.2599C82.53 88.2899 82.66 97.0099 81.91 102.18C81.16 107.35 79.54 108.97 76.62 109.97C73.69 110.97 69.46 111.34 66.65 109.47C63.85 107.6 62.48 103.49 62.1 90.4698C61.73 77.4498 62.35 55.5299 63.22 43.4499C64.09 31.3699 65.21 29.1199 67.33 27.3199C69.45 25.5099 72.56 24.1399 82.59 23.2699C92.62 22.3999 109.56 22.0199 126.5 21.6499" stroke="#FF333D" stroke-width="3" stroke-miterlimit="22.93"/>
<path d="M23.37 16.7998H19.71C18.9258 16.7998 18.29 17.4355 18.29 18.2198V29.1698C18.29 29.954 18.9258 30.5898 19.71 30.5898H23.37C24.1543 30.5898 24.79 29.954 24.79 29.1698V18.2198C24.79 17.4355 24.1543 16.7998 23.37 16.7998Z" fill="#005A4D" stroke="black" stroke-width="0.57" stroke-miterlimit="22.93"/>
<path d="M18.7399 17.1897L12.1599 11.1797" stroke="black" stroke-width="0.57" stroke-miterlimit="22.93"/>
<path d="M24.1599 17.03L29.9499 10.8301" stroke="black" stroke-width="0.57" stroke-miterlimit="22.93"/>
<path fill-rule="evenodd" clip-rule="evenodd" d="M151.81 22.3L151.62 23.0201C151.51 23.4501 151.82 23.82 152.32 23.85L162.54 24.4601C163.04 24.4901 163.55 24.17 163.66 23.74L163.85 23.0201C163.96 22.5901 163.65 22.2201 163.15 22.1901L152.94 21.5801C152.44 21.5501 151.93 21.87 151.82 22.3H151.81Z" fill="#999999"/>
<path fill-rule="evenodd" clip-rule="evenodd" d="M147.26 17.49L147.07 18.21C146.96 18.64 147.27 19.01 147.77 19.04L157.99 19.65C158.49 19.68 159 19.36 159.11 18.93L159.3 18.21C159.41 17.78 159.1 17.41 158.6 17.38L148.38 16.77C147.88 16.74 147.37 17.06 147.26 17.49Z" fill="#999999"/>
<path fill-rule="evenodd" clip-rule="evenodd" d="M125.72 20.8103C125.65 19.5003 125.98 18.9603 126.15 18.6803C126.263 18.5003 126.687 18.167 127.42 17.6803C128.52 16.9503 130.73 15.5003 131.82 14.7703C132.91 14.0403 132.89 14.0303 135.49 14.0303C138.09 14.0303 143.3 14.0303 145.9 14.0303C147.64 14.0303 148.943 14.6436 149.81 15.8703C151.11 17.7103 153.71 21.4003 155.01 23.2403C155.877 24.467 156.153 25.3003 155.84 25.7403C155.37 26.4003 154.43 27.7303 153.96 28.3903C153.647 28.8303 152.713 29.0703 151.16 29.1103C148.83 29.1603 144.16 29.2703 141.83 29.3303C140.277 29.3637 138.807 29.207 137.42 28.8603C135.34 28.3403 131.19 27.2903 129.07 26.7703C126.95 26.2403 126.85 26.2403 126.56 25.2003C126.27 24.1603 125.79 22.1003 125.72 20.7903V20.8103Z" fill="#6AC1AC" stroke="#005A4D" stroke-width="0.57" stroke-miterlimit="22.93"/>
<path fill-rule="evenodd" clip-rule="evenodd" d="M156.09 25.36C156.04 25.48 155.96 25.6 155.84 25.76C155.37 26.42 154.43 27.75 153.96 28.41C153.647 28.85 152.713 29.09 151.16 29.13C148.83 29.18 144.16 29.29 141.83 29.35C140.277 29.3833 138.807 29.2267 137.42 28.88C135.34 28.36 131.19 27.31 129.07 26.79C127.8 26.48 127.26 26.35 126.96 26.07C127.32 25.42 127.66 24.8 127.9 24.36C128.32 23.6 129.317 23.3533 130.89 23.62C133.25 24.03 137.96 24.84 140.45 25.22C142.94 25.6 143.2 25.54 145.67 25.48C148.14 25.42 152.82 25.37 155.29 25.36C155.59 25.36 155.85 25.36 156.09 25.36Z" fill="#005A4D"/>
<path fill-rule="evenodd" clip-rule="evenodd" d="M143.2 22.4197C144.58 22.4197 146.37 22.4398 147.26 22.4498C148.15 22.4598 148.15 22.4497 147.56 21.4697C146.97 20.4797 145.78 18.5098 145.19 17.5198C144.6 16.5298 144.6 16.5297 143.82 16.4797C143.04 16.4297 141.48 16.3198 140.7 16.2698L139.92 16.2197L140.64 16.3298C141.36 16.4398 142.81 16.6598 143.54 16.7698C144.02 16.8431 144.42 17.1631 144.74 17.7297C145.22 18.5797 146.18 20.2798 146.66 21.1298C146.98 21.6964 146.737 22.0031 145.93 22.0497C144.72 22.1197 142.3 22.2698 141.08 22.3398C140.273 22.3864 140.033 22.4097 140.36 22.4097C140.85 22.4097 141.82 22.4097 143.2 22.4097V22.4197Z" fill="#005A4D"/>
<path fill-rule="evenodd" clip-rule="evenodd" d="M129.96 22.9197C131.04 22.2897 132.83 21.1997 133.83 20.5897C134.82 19.9797 135.01 19.8497 133.92 19.5697C132.83 19.2897 130.45 18.8597 129.19 18.6297C127.93 18.3997 127.8 18.3797 127.73 18.3697C127.683 18.363 128.12 18.4196 129.04 18.5396C130.42 18.7197 133.17 19.0897 134.54 19.2697C135.453 19.3897 135.91 19.463 135.91 19.4897C135.91 19.4897 135.89 19.6097 135.06 20.3697C134.23 21.1197 132.58 22.5497 131.56 23.2597C130.55 23.9797 130.18 23.9797 129.69 23.9997C129.21 24.0197 128.62 24.0597 128.35 24.0497C128.08 24.0397 128.12 23.9697 128.32 23.8397C128.52 23.7197 128.88 23.5396 129.95 22.9096L129.96 22.9197Z" fill="#005A4D"/>
</svg>
