<svg width="147" height="179" viewBox="0 0 147 179" fill="none" xmlns="http://www.w3.org/2000/svg">
<path fill-rule="evenodd" clip-rule="evenodd" d="M4.7092 1.79688L137.753 46.101L128.177 152.344L1.71399 96.5597L4.7092 1.79688Z" stroke="#B3B3B3" stroke-width="0.57" stroke-miterlimit="22.93"/>
<path d="M14.4579 5.03809L11.0278 100.671" stroke="#B3B3B3" stroke-width="0.57" stroke-miterlimit="22.93"/>
<path d="M2.00928 81.1077L129.481 135.095" stroke="#B3B3B3" stroke-width="0.57" stroke-miterlimit="22.93"/>
<path d="M34.6118 11.7505L30.2709 109.156" stroke="#B3B3B3" stroke-width="0.57" stroke-miterlimit="22.93"/>
<path d="M2.50171 65.6396L131.032 117.813" stroke="#B3B3B3" stroke-width="0.57" stroke-miterlimit="22.93"/>
<path d="M55.693 18.7749L50.351 118.018" stroke="#B3B3B3" stroke-width="0.57" stroke-miterlimit="22.93"/>
<path d="M2.99426 49.9663L132.616 100.253" stroke="#B3B3B3" stroke-width="0.57" stroke-miterlimit="22.93"/>
<path d="M77.759 26.1194L71.3419 127.275" stroke="#B3B3B3" stroke-width="0.57" stroke-miterlimit="22.93"/>
<path d="M3.49475 34.071L134.216 82.4207" stroke="#B3B3B3" stroke-width="0.57" stroke-miterlimit="22.93"/>
<path d="M100.892 33.825L93.2928 136.958" stroke="#B3B3B3" stroke-width="0.57" stroke-miterlimit="22.93"/>
<path d="M4.00342 17.9546L135.849 64.2938" stroke="#B3B3B3" stroke-width="0.57" stroke-miterlimit="22.93"/>
<path d="M24.42 8.36182L20.5468 104.864" stroke="#B3B3B3" stroke-width="0.57" stroke-miterlimit="22.93"/>
<path d="M2.25562 73.4023L130.253 126.487" stroke="#B3B3B3" stroke-width="0.57" stroke-miterlimit="22.93"/>
<path d="M36.1382 18.5205L32.2486 54.7172M31.8876 58.0734L28.8842 86.023" stroke="#B3B3B3" stroke-width="0.57" stroke-miterlimit="22.93"/>
<path d="M2.74792 57.8274L131.82 109.066" stroke="#B3B3B3" stroke-width="0.57" stroke-miterlimit="22.93"/>
<path d="M66.599 22.4023L60.7317 122.589" stroke="#B3B3B3" stroke-width="0.57" stroke-miterlimit="22.93"/>
<path d="M3.24841 42.0474L133.412 91.3736" stroke="#B3B3B3" stroke-width="0.57" stroke-miterlimit="22.93"/>
<path d="M125.181 41.637L116.294 146.854" stroke="#B3B3B3" stroke-width="0.57" stroke-miterlimit="22.93"/>
<path d="M1.77161 88.7639L128.71 143.637" stroke="#B3B3B3" stroke-width="0.57" stroke-miterlimit="22.93"/>
<path d="M89.1899 29.927L82.1902 132.059" stroke="#B3B3B3" stroke-width="0.57" stroke-miterlimit="22.93"/>
<path d="M3.74902 26.0374L135.028 73.3941" stroke="#B3B3B3" stroke-width="0.57" stroke-miterlimit="22.93"/>
<path d="M112.881 37.8208L104.65 141.971" stroke="#B3B3B3" stroke-width="0.57" stroke-miterlimit="22.93"/>
<path d="M4.26611 9.80591L136.678 55.1276" stroke="#B3B3B3" stroke-width="0.57" stroke-miterlimit="22.93"/>
<path fill-rule="evenodd" clip-rule="evenodd" d="M1.71399 96.5597L4.7092 1.79688L137.753 46.101L128.177 152.344L1.71399 96.5597Z" stroke="black" stroke-width="0.57" stroke-miterlimit="22.93"/>
<path d="M137.753 46.1011L142.677 42.868L13.5142 0.894287L4.70923 1.79695" stroke="black" stroke-width="0.57" stroke-miterlimit="22.93"/>
<path d="M128.176 152.344L133.404 147.215L142.676 42.8679" stroke="black" stroke-width="0.57" stroke-miterlimit="22.93"/>
<path fill-rule="evenodd" clip-rule="evenodd" d="M107.768 53.2484C105.446 52.5017 102.705 56.0385 101.655 61.1426C100.604 66.2467 101.638 70.9898 103.961 71.7365C106.283 72.4833 109.024 68.9465 110.074 63.8424C111.124 58.7383 110.091 53.9952 107.768 53.2484Z" stroke="black" stroke-width="0.57" stroke-miterlimit="22.93"/>
<path d="M26.5947 44.1315C26.3075 43.7622 25.9628 43.4997 25.5771 43.3766C23.7308 42.7857 21.5644 45.584 20.7274 49.6378C19.8904 53.6915 20.711 57.4499 22.5573 58.0407C22.9266 58.1638 23.3123 58.1392 23.6979 57.9997" stroke="black" stroke-width="0.57" stroke-miterlimit="22.93"/>
<path fill-rule="evenodd" clip-rule="evenodd" d="M99.9726 94.1062C98.2247 93.5481 96.165 96.1987 95.3772 100.039C94.5895 103.879 95.3608 107.449 97.1169 108.007C98.8648 108.565 100.924 105.915 101.712 102.074C102.5 98.2338 101.729 94.6642 99.9726 94.1062Z" stroke="black" stroke-width="0.57" stroke-miterlimit="22.93"/>
<path d="M20.1201 82.027C18.323 81.4526 16.214 84.0785 15.4017 88.0256C14.5893 91.9726 15.3852 95.6489 17.1906 96.2316C17.4942 96.33 17.806 96.33 18.1178 96.248" stroke="black" stroke-width="0.57" stroke-miterlimit="22.93"/>
<path d="M30.5747 64.7368C30.2711 64.9912 30.0906 65.303 30.0577 65.6559C29.9265 67.1822 32.6672 68.9711 36.1794 69.644C39.6916 70.3169 42.6457 69.6276 42.777 68.0931C42.8017 67.7648 42.7032 67.4202 42.4816 67.0837" stroke="black" stroke-width="0.57" stroke-miterlimit="22.93"/>
<path d="M68.6011 105.57C68.3139 105.841 68.1416 106.169 68.1087 106.53C67.961 108.253 71.0465 110.272 75.0018 111.027C78.957 111.79 82.2887 111.01 82.4364 109.279C82.4692 108.926 82.3625 108.565 82.141 108.204" stroke="black" stroke-width="0.57" stroke-miterlimit="22.93"/>
<path fill-rule="evenodd" clip-rule="evenodd" d="M48.7836 33.3407C48.6195 34.7849 51.9511 36.4672 56.2101 37.1072C60.469 37.7473 64.055 37.0908 64.2191 35.6466C64.3832 34.2023 61.0516 32.5201 56.7927 31.88C52.5338 31.24 48.9478 31.8964 48.7836 33.3407Z" stroke="black" stroke-width="0.57" stroke-miterlimit="22.93"/>
<path d="M102.754 51.5659C102.754 51.5659 102.722 51.5577 102.705 51.5495C100.383 50.8027 97.6421 54.3395 96.5918 59.4436C95.5414 64.5478 96.5754 69.2908 98.8977 70.0376" stroke="black" stroke-width="0.57" stroke-miterlimit="22.93"/>
<path d="M21.5969 42.0392C21.5969 42.0392 21.5723 42.031 21.5559 42.0228C19.7095 41.432 17.5432 44.2302 16.7061 48.284C15.8691 52.3295 16.6897 56.0961 18.5361 56.6869" stroke="black" stroke-width="0.57" stroke-miterlimit="22.93"/>
<path d="M96.1979 92.8425C96.1979 92.8425 96.1733 92.8343 96.1569 92.8261C94.409 92.2681 92.3493 94.9187 91.5616 98.7591C90.7738 102.599 91.5451 106.169 93.3012 106.727" stroke="black" stroke-width="0.57" stroke-miterlimit="22.93"/>
<path d="M16.247 80.6151C16.247 80.6151 16.2224 80.6069 16.206 80.5987C14.4088 80.0243 12.2835 82.7569 11.4711 86.7122C10.6587 90.6675 11.4547 94.3356 13.26 94.9182" stroke="black" stroke-width="0.57" stroke-miterlimit="22.93"/>
<path d="M42.4405 71.4325C42.3092 72.9588 39.355 73.6563 35.8429 72.9834C32.3307 72.3105 29.5899 70.5216 29.7212 68.9953C29.7212 68.9871 29.7212 68.9707 29.7212 68.9624C29.9428 66.7632 30.0494 65.6554 30.0494 65.6472" stroke="black" stroke-width="0.57" stroke-miterlimit="22.93"/>
<path d="M67.7392 110.247C67.7392 110.247 67.7392 110.272 67.7392 110.288C67.5915 112.012 70.677 114.03 74.6322 114.785C78.5875 115.548 81.9192 114.769 82.0669 113.046" stroke="black" stroke-width="0.57" stroke-miterlimit="22.93"/>
<path d="M48.3814 36.4504C48.3814 36.4504 48.3814 36.4751 48.3814 36.4833C48.2173 37.9275 51.5489 39.6098 55.8078 40.2498C60.0667 40.8899 63.6528 40.2334 63.8169 38.7892" stroke="black" stroke-width="0.57" stroke-miterlimit="22.93"/>
<path d="M102.705 51.5496L107.793 53.2564" stroke="black" stroke-width="0.57" stroke-miterlimit="22.93"/>
<path d="M21.5642 42.0222L25.6016 43.3762" stroke="black" stroke-width="0.57" stroke-miterlimit="22.93"/>
<path d="M96.1567 92.8259L99.9889 94.1061" stroke="black" stroke-width="0.57" stroke-miterlimit="22.93"/>
<path d="M16.2059 80.5991L20.1202 82.027" stroke="black" stroke-width="0.57" stroke-miterlimit="22.93"/>
<path d="M67.7313 110.28L68.1088 106.505" stroke="black" stroke-width="0.57" stroke-miterlimit="22.93"/>
<path d="M48.3816 36.4835L48.7837 33.3242" stroke="black" stroke-width="0.57" stroke-miterlimit="22.93"/>
<path d="M98.8977 70.03L103.944 71.7205" stroke="black" stroke-width="0.57" stroke-miterlimit="22.93"/>
<path d="M18.5444 56.6865L22.5407 58.0241" stroke="black" stroke-width="0.57" stroke-miterlimit="22.93"/>
<path d="M93.3009 106.735L97.0921 108.007" stroke="black" stroke-width="0.57" stroke-miterlimit="22.93"/>
<path d="M13.2598 94.9185L17.7977 96.3545" stroke="black" stroke-width="0.57" stroke-miterlimit="22.93"/>
<path d="M42.4404 71.4329L42.7769 68.1177" stroke="black" stroke-width="0.57" stroke-miterlimit="22.93"/>
<path d="M82.0669 113.037L82.4362 109.295" stroke="black" stroke-width="0.57" stroke-miterlimit="22.93"/>
<path d="M63.8086 38.7893L64.2107 35.6628" stroke="black" stroke-width="0.57" stroke-miterlimit="22.93"/>
<path d="M105.906 53.5767C107.883 54.9881 108.458 58.5987 107.309 63.9244C105.971 68.0766 104.412 70.3333 102.631 70.7026" stroke="black" stroke-width="0.57" stroke-miterlimit="22.93"/>
<path d="M21.6127 57.1875C21.6127 57.1875 21.5393 57.2038 21.4985 57.212" stroke="black" stroke-width="0.57" stroke-miterlimit="22.93"/>
<path d="M98.5694 94.3521C100.055 95.4106 100.49 98.1268 99.6197 102.131C98.6186 105.258 97.4451 106.956 96.0994 107.227" stroke="black" stroke-width="0.57" stroke-miterlimit="22.93"/>
<path d="M99.48 52.9201C84.1594 47.6765 71.6945 43.4176 62.0853 40.127M48.5126 35.4824C41.3651 33.037 37.7873 31.8143 37.7873 31.8143C33.2823 31.1907 31.1405 35.3757 31.3456 44.3695C31.0338 52.6739 30.6645 61.241 30.4594 66.5174M30.3527 70.4399C30.1476 75.8312 30.0491 78.531 30.0491 78.531" stroke="black" stroke-width="0.57" stroke-miterlimit="22.93"/>
<path d="M19.7751 81.9041C24.3049 83.8735 26.0035 85.0798 27.9073 85.4162C30.0819 85.2603 29.8931 81.6907 30.049 78.5232" stroke="black" stroke-width="0.57" stroke-miterlimit="22.93"/>
<path d="M97.4288 68.8069C81.7307 63.0053 69.6597 58.5412 61.2157 55.4147M48.1682 50.5896C47.0358 50.1711 46.4613 49.9578 46.4613 49.9578C44.5411 50.048 43.4169 51.6482 43.0887 54.7337C42.8671 59.1895 42.4732 65.0076 42.2845 68.7823M42.2435 71.9991C41.3818 89.5681 40.9469 98.3567 40.9469 98.3567C39.6504 102.386 36.2121 103.346 30.6238 101.237C26.3895 99.5466 22.1552 97.8643 17.9209 96.1739" stroke="black" stroke-width="0.57" stroke-miterlimit="22.93"/>
<path d="M68.4286 107.794C68.7651 103.543 69.0605 99.801 69.3231 96.5679M70.3652 83.4465C70.4883 81.8791 70.554 81.0914 70.554 81.0914C71.0299 77.7187 69.2 75.3718 65.0642 74.0506C63.464 73.4352 61.8803 72.8197 60.3293 72.2125M46.9371 67.0181C45.2467 66.3616 44.2374 65.9677 42.7193 65.3851M30.8616 60.7979C30.7303 60.7487 30.7959 60.7733 30.6647 60.7241C24.4691 58.3279 21.5642 57.2119 21.5642 57.2119" stroke="black" stroke-width="0.57" stroke-miterlimit="22.93"/>
<path d="M82.0179 110.174C83.5524 87.6974 84.3238 76.4634 84.3238 76.4634C84.9556 69.595 82.8631 65.0899 78.0462 62.9399C71.9245 60.6997 66.3198 58.6564 61.2239 56.7936M47.9958 51.9603C46.8306 51.5336 45.7063 51.1233 44.6232 50.7294M31.2966 45.855C28.1373 44.698 25.8889 43.8774 24.5431 43.385" stroke="black" stroke-width="0.57" stroke-miterlimit="22.93"/>
<path d="M48.9886 37.7065C47.2407 62.6692 46.3709 75.1505 46.3709 75.1505C45.5667 83.4303 49.5302 89.1007 58.2532 92.1533C78.2758 100.146 89.5591 104.643 92.1029 105.66" stroke="black" stroke-width="0.57" stroke-miterlimit="22.93"/>
<path d="M62.0856 40.1274C60.8875 63.2437 60.2803 74.7978 60.2803 74.7978C60.2803 78.1212 62.3892 80.4927 66.6071 81.9206C85.1937 89.4701 94.4828 93.2448 94.4828 93.2448" stroke="black" stroke-width="0.57" stroke-miterlimit="22.93"/>
<path d="M46.9043 67.4858C49.9323 70.1446 54.5605 71.7776 60.7888 72.393" stroke="black" stroke-width="0.57" stroke-miterlimit="22.93"/>
<path d="M46.6663 70.9077C50.6133 74.1901 55.1513 75.4867 60.28 74.8056" stroke="black" stroke-width="0.57" stroke-miterlimit="22.93"/>
<path d="M58.245 92.153C57.3423 86.2857 58.9917 82.3222 63.2096 80.2625" stroke="black" stroke-width="0.57" stroke-miterlimit="22.93"/>
<path d="M61.2241 93.3346C61.019 86.3759 62.8161 82.5683 66.6073 81.9119" stroke="black" stroke-width="0.57" stroke-miterlimit="22.93"/>
<path fill-rule="evenodd" clip-rule="evenodd" d="M25.6426 115.655L107.703 165.867L87.6389 175.452L3.67517 116.229L25.6426 115.655Z" fill="#D89F77" stroke="black" stroke-width="0.57" stroke-miterlimit="22.93"/>
<path fill-rule="evenodd" clip-rule="evenodd" d="M3.67516 116.229L87.6389 175.452L85.4889 178.152L1 116.754L3.67516 116.229Z" fill="#D89F77" stroke="black" stroke-width="0.57" stroke-miterlimit="22.93"/>
<path fill-rule="evenodd" clip-rule="evenodd" d="M87.6388 175.452L107.702 165.867L106.997 167.369L85.4888 178.152L87.6388 175.452Z" fill="#D89F77" stroke="black" stroke-width="0.57" stroke-miterlimit="22.93"/>
<path d="M22.3273 116.82L98.7825 165.047" stroke="black" stroke-width="0.57" stroke-miterlimit="22.93"/>
<path d="M101.523 162.01L94.0314 165.17" stroke="black" stroke-width="0.57" stroke-miterlimit="22.93"/>
<path d="M95.8202 158.54L88.1722 161.412" stroke="black" stroke-width="0.57" stroke-miterlimit="22.93"/>
<path d="M90.3715 155.224L82.584 157.834" stroke="black" stroke-width="0.57" stroke-miterlimit="22.93"/>
<path d="M85.1688 152.048L77.2582 154.42" stroke="black" stroke-width="0.57" stroke-miterlimit="22.93"/>
<path d="M80.1795 149.012L72.1704 151.162" stroke="black" stroke-width="0.57" stroke-miterlimit="22.93"/>
<path d="M75.4039 146.099L67.3127 148.044" stroke="black" stroke-width="0.57" stroke-miterlimit="22.93"/>
<path d="M70.8247 143.309L62.6598 145.057" stroke="black" stroke-width="0.57" stroke-miterlimit="22.93"/>
<path d="M66.4264 140.626L58.2122 142.201" stroke="black" stroke-width="0.57" stroke-miterlimit="22.93"/>
<path d="M62.2002 138.057L53.9368 139.469" stroke="black" stroke-width="0.57" stroke-miterlimit="22.93"/>
<path d="M58.1384 135.579L49.8422 136.835" stroke="black" stroke-width="0.57" stroke-miterlimit="22.93"/>
<path d="M54.2321 133.2L45.9113 134.316" stroke="black" stroke-width="0.57" stroke-miterlimit="22.93"/>
<path d="M50.4738 130.91L42.1283 131.894" stroke="black" stroke-width="0.57" stroke-miterlimit="22.93"/>
<path d="M46.8469 128.702L38.4932 129.564" stroke="black" stroke-width="0.57" stroke-miterlimit="22.93"/>
<path d="M43.3593 126.569L34.9974 127.316" stroke="black" stroke-width="0.57" stroke-miterlimit="22.93"/>
<path d="M39.9867 124.518L31.6248 125.158" stroke="black" stroke-width="0.57" stroke-miterlimit="22.93"/>
<path d="M36.7289 122.531L28.3752 123.073" stroke="black" stroke-width="0.57" stroke-miterlimit="22.93"/>
<path d="M33.5862 120.62L25.2407 121.063" stroke="black" stroke-width="0.57" stroke-miterlimit="22.93"/>
<path d="M30.5497 118.765L22.2206 119.126" stroke="black" stroke-width="0.57" stroke-miterlimit="22.93"/>
<path d="M27.612 116.976L19.2993 117.247" stroke="black" stroke-width="0.57" stroke-miterlimit="22.93"/>
<path d="M143.44 147.896H46.3136C44.8996 147.896 43.7533 149.042 43.7533 150.456V152.491C43.7533 153.905 44.8996 155.052 46.3136 155.052H143.44C144.854 155.052 146 153.905 146 152.491V150.456C146 149.042 144.854 147.896 143.44 147.896Z" fill="#6AC1AC" stroke="black" stroke-width="0.57" stroke-miterlimit="22.93"/>
<path fill-rule="evenodd" clip-rule="evenodd" d="M46.2315 151.499C47.5855 149.496 47.4378 148.544 45.6325 147.995C38.3866 150.629 34.6775 151.613 34.6775 151.613C41.8741 153.804 45.5094 154.921 45.5668 154.945C46.8059 153.739 47.0275 152.59 46.2233 151.499H46.2315Z" fill="#D89F77" stroke="black" stroke-width="0.57" stroke-miterlimit="22.93"/>
<path fill-rule="evenodd" clip-rule="evenodd" d="M38.4029 150.481C35.9329 151.277 34.6855 151.613 34.6855 151.613L38.6983 152.836C38.7885 152.024 38.6983 151.236 38.411 150.481H38.4029Z" fill="black" stroke="black" stroke-width="0.57" stroke-miterlimit="22.93"/>
</svg>
