<svg width="167" height="159" viewBox="0 0 167 159" fill="none" xmlns="http://www.w3.org/2000/svg">
<path fill-rule="evenodd" clip-rule="evenodd" d="M18.5017 105.69L0 115.081L79.7915 154.351L167 112.035L96.2907 79.3484L18.5017 105.69Z" fill="#999999"/>
<path fill-rule="evenodd" clip-rule="evenodd" d="M120.272 0L44.2083 36.9539L86.0113 95.8928L161.76 58.939L120.272 0Z" fill="#633A34"/>
<path fill-rule="evenodd" clip-rule="evenodd" d="M149.478 69.0168L81.6363 102.248L80.8582 143.728L149.875 109.92L149.478 69.0168Z" fill="#B3B3B3"/>
<path fill-rule="evenodd" clip-rule="evenodd" d="M86.0114 95.8928L44.2083 36.9539L10.9487 58.9231L14.2355 63.7664L42.0806 46.2227L82.4852 101.646L86.0114 95.8928Z" fill="#EDEBE8"/>
<path fill-rule="evenodd" clip-rule="evenodd" d="M42.0805 46.2227L18.186 61.2812L18.5615 113.928L80.858 143.728L81.6688 100.53L42.0805 46.2227Z" fill="#EDEBE8"/>
<path fill-rule="evenodd" clip-rule="evenodd" d="M82.4851 101.646L86.0113 95.8928L161.76 58.939L152.226 66.9071L82.4851 101.646Z" fill="#999999"/>
<path fill-rule="evenodd" clip-rule="evenodd" d="M18.186 61.2812L42.0805 46.2227L81.6688 100.53L81.6035 103.972L41.4329 48.491L18.2024 63.1794L18.186 61.2812Z" fill="#808080"/>
<path fill-rule="evenodd" clip-rule="evenodd" d="M81.6688 100.53L81.6035 103.972L149.499 69.7464L149.456 68.2871L82.4851 101.646L81.6688 100.53Z" fill="#808080"/>
<path fill-rule="evenodd" clip-rule="evenodd" d="M34.93 121.759L32.1765 120.443L32.4377 73.8708L62.0024 88.4589L62.1711 134.793L59.0857 133.312L58.9496 90.5897L35.2946 78.7512L34.93 121.759Z" fill="#6AC1AC"/>
<path fill-rule="evenodd" clip-rule="evenodd" d="M35.2948 78.751L34.9302 121.759L37.6728 123.07L38.3911 80.3055L35.2948 78.751Z" fill="#005A4D"/>
<path fill-rule="evenodd" clip-rule="evenodd" d="M58.9499 90.5894L38.3912 80.3054L37.6729 123.07L59.0859 133.312L58.9499 90.5894Z" fill="#6AC1AC" stroke="#005A4D" stroke-width="0.57" stroke-miterlimit="22.93"/>
<path fill-rule="evenodd" clip-rule="evenodd" d="M41.2045 107.113C42.0208 107.113 42.6846 106.399 42.6846 105.526C42.6846 104.654 42.0208 103.94 41.2045 103.94C40.3883 103.94 39.7244 104.654 39.7244 105.526C39.7244 106.399 40.3883 107.113 41.2045 107.113Z" fill="white"/>
<path fill-rule="evenodd" clip-rule="evenodd" d="M134.611 80.4639L102.821 95.459L102.717 123.356L134.714 107.557L134.611 80.4639Z" fill="#6AC1AC"/>
<path fill-rule="evenodd" clip-rule="evenodd" d="M102.821 95.4593L102.717 123.356L101.803 123.107V94.9094L133.55 80.094L134.611 80.4641L102.821 95.4593Z" fill="#005A4D"/>
<path fill-rule="evenodd" clip-rule="evenodd" d="M118.825 89.9075L105.128 96.6384L105.318 118.782L118.667 112.21L118.825 89.9075Z" fill="#005A4D"/>
<path fill-rule="evenodd" clip-rule="evenodd" d="M132.217 83.4673L120.942 88.9451L120.92 111.078L132.467 105.516L132.217 83.4673Z" fill="#005A4D"/>
<path fill-rule="evenodd" clip-rule="evenodd" d="M105.128 96.6384L116.882 90.9226L116.855 111.136L105.302 116.783L105.128 96.6384Z" fill="#87C1D8"/>
<path fill-rule="evenodd" clip-rule="evenodd" d="M130.203 84.4456L120.941 88.9452L120.925 109.148L130.6 104.421L130.203 84.4456Z" fill="#87C1D8"/>
<path fill-rule="evenodd" clip-rule="evenodd" d="M37.0633 122.779L26.8167 127.126L49.3833 138.927L59.0859 133.312L37.0633 122.779Z" fill="#005A4D"/>
<path fill-rule="evenodd" clip-rule="evenodd" d="M0.103392 118.407L0 115.081L79.7915 154.351L79.6119 158.2L0.103392 118.407Z" fill="#666666"/>
<path fill-rule="evenodd" clip-rule="evenodd" d="M79.6118 158.2L79.7914 154.351L167 112.035V115.858L79.6118 158.2Z" fill="#666666"/>
</svg>
