<svg width="165" height="168" viewBox="0 0 165 168" fill="none" xmlns="http://www.w3.org/2000/svg">
<path fill-rule="evenodd" clip-rule="evenodd" d="M18.3287 113.83L0.048584 123.376L78.8613 163.296L165 120.275L95.1581 87.0471L18.3287 113.83Z" fill="#999999"/>
<path fill-rule="evenodd" clip-rule="evenodd" d="M118.797 6.19238L43.666 43.7578L84.9563 103.672L159.775 66.1068L118.797 6.19238Z" fill="#633A34"/>
<path fill-rule="evenodd" clip-rule="evenodd" d="M147.01 118.453C147.693 118.109 148.036 117.937 148.036 117.937C149.197 115.997 149.197 114.191 148.047 112.508C149.149 110.374 149.111 108.472 147.929 106.8C149.128 104.602 149.068 102.769 147.752 101.312C149.009 99.1408 148.999 97.2596 147.714 95.6686C148.724 93.7337 148.746 91.8901 147.773 90.1378C148.821 88.09 148.805 86.2356 147.719 84.5855C148.918 82.5215 148.902 80.8123 147.671 79.4525C148.445 77.7809 148.66 76.3834 148.316 75.2546C147.112 75.8728 146.505 76.1791 146.505 76.1791C146.838 104.36 147.005 118.453 147.005 118.453H147.01Z" fill="#C98F68"/>
<path fill-rule="evenodd" clip-rule="evenodd" d="M147.644 76.3513L80.6402 110.133L79.8662 152.299L148.042 117.932L147.644 76.3513Z" fill="#C98F68"/>
<path fill-rule="evenodd" clip-rule="evenodd" d="M84.9563 103.672L43.666 43.7576L10.8145 66.0904L14.0663 71.0138L41.5698 53.1798L81.4733 109.52L84.9563 103.672Z" fill="#D89F77"/>
<path fill-rule="evenodd" clip-rule="evenodd" d="M41.5698 53.1799L17.9685 68.4877L18.3394 122.006L79.8663 152.299L80.6725 108.381L41.5698 53.1799Z" fill="#D89F77"/>
<path fill-rule="evenodd" clip-rule="evenodd" d="M81.4734 109.52L84.9563 103.672L159.775 66.1067L150.364 74.2013L81.4734 109.52Z" fill="#D89F77"/>
<path fill-rule="evenodd" clip-rule="evenodd" d="M17.9685 68.4877L41.5698 53.1799L80.6725 108.381L80.608 111.885L40.9248 55.4858L17.9792 70.4174L17.9685 68.4877Z" fill="#B68560" stroke="#B68560" stroke-width="0.57" stroke-miterlimit="22.93"/>
<path fill-rule="evenodd" clip-rule="evenodd" d="M80.6727 108.381L80.6082 111.885L147.666 77.0931L147.623 75.6042L81.4735 109.52L80.6727 108.381Z" fill="#B68562"/>
<path fill-rule="evenodd" clip-rule="evenodd" d="M0.102125 126.553L0 123.177L78.8127 163.097L78.6353 167.01L0.102125 126.553Z" fill="#666666"/>
<path fill-rule="evenodd" clip-rule="evenodd" d="M78.6353 167.01L78.8126 163.097L164.951 120.082V123.968L78.6353 167.01Z" fill="#666666"/>
<path d="M18.447 116.905L79.9739 147.204" stroke="#B68560" stroke-miterlimit="22.93"/>
<path d="M18.4792 110.992L80.0061 141.286" stroke="#B68560" stroke-miterlimit="22.93"/>
<path d="M18.5061 105.08L50.9599 121.06M56.6735 123.871L80.0384 135.373" stroke="#B68560" stroke-miterlimit="22.93"/>
<path d="M18.5383 99.1624L50.9976 115.142M62.559 120.834L80.0706 129.455" stroke="#B68560" stroke-miterlimit="22.93"/>
<path d="M18.5652 93.25L51.0244 109.235M68.4338 117.808L80.0921 123.549" stroke="#B68560" stroke-miterlimit="22.93"/>
<path d="M18.5974 87.3374L51.062 103.322M70.4279 112.858L80.1243 117.631" stroke="#B68560" stroke-miterlimit="22.93"/>
<path d="M18.6243 81.4199L51.0889 97.405M70.4924 106.956L80.1511 111.713" stroke="#B68560" stroke-miterlimit="22.93"/>
<path d="M18.6565 75.5073L78.1248 104.79" stroke="#B68560" stroke-miterlimit="22.93"/>
<path d="M18.6885 69.5947L71.6746 95.6847" stroke="#B68560" stroke-miterlimit="22.93"/>
<path d="M22.4998 65.5422L65.2251 86.5797" stroke="#B68560" stroke-miterlimit="22.93"/>
<path d="M27.6973 62.1721L58.7805 77.4746" stroke="#B68560" stroke-miterlimit="22.93"/>
<path d="M32.8948 58.802L52.3305 68.3748" stroke="#B68560" stroke-miterlimit="22.93"/>
<path d="M38.092 55.4319L45.8803 59.2696" stroke="#B68560" stroke-miterlimit="22.93"/>
<path d="M79.8499 141.119L148.02 106.752" stroke="#B68560" stroke-miterlimit="22.93"/>
<path d="M79.9951 135.47L147.757 101.307" stroke="#B68560" stroke-miterlimit="22.93"/>
<path d="M79.5439 130.031L147.72 95.6633" stroke="#B68560" stroke-miterlimit="22.93"/>
<path d="M80.2803 124.161L147.779 90.1323" stroke="#B68560" stroke-miterlimit="22.93"/>
<path d="M80.4253 118.507L147.725 84.5801" stroke="#B68560" stroke-miterlimit="22.93"/>
<path d="M80.5706 112.853L147.671 79.0281" stroke="#B68560" stroke-miterlimit="22.93"/>
<path d="M79.8772 146.87L148.053 112.503" stroke="#B68560" stroke-miterlimit="22.93"/>
<path fill-rule="evenodd" clip-rule="evenodd" d="M148.824 1.4624C150.189 1.48928 151.802 1.79563 153.645 2.85449C155.494 3.91335 157.569 5.72472 158.816 7.6382C160.063 9.55167 160.461 11.5834 160.488 13.9322C160.514 16.2811 160.165 18.9524 158.88 21.3067C157.596 23.6609 155.381 25.6819 154.274 26.6924C153.536 27.366 153.199 29.292 153.264 32.4704C153.36 37.238 153.549 46.7677 153.656 51.589C153.764 56.4103 153.79 56.5178 153.334 57.0392C152.877 57.5606 151.931 58.5012 151.458 58.9742C151.142 59.286 150.935 58.1339 150.834 55.5181C150.684 51.589 150.388 43.7363 150.184 37.9743C149.98 32.2124 149.872 28.5413 150.06 26.3537C150.248 24.1661 150.737 23.462 151.64 21.5216C152.543 19.5759 153.871 16.3886 154.14 13.5399C154.409 10.6912 153.629 8.18104 152.629 6.43956C151.63 4.69809 150.415 3.72525 149.173 3.17163C147.932 2.61801 146.663 2.48362 146.002 2.34925C145.341 2.21487 145.287 2.08051 145.814 1.88701C146.346 1.69351 147.459 1.44088 148.824 1.46775V1.4624Z" fill="#666666" stroke="black" stroke-width="0.57" stroke-miterlimit="22.93"/>
<path fill-rule="evenodd" clip-rule="evenodd" d="M151.721 26.3912C156 24.2789 158.972 19.6618 158.972 14.3083C158.972 6.96081 153.382 1 146.486 1C139.59 1 134 8.04117 134 14.3083C134 20.5755 136.779 23.9779 140.832 26.1762C140.821 26.9179 140.81 27.6597 140.805 28.0306C140.805 28.2778 140.606 28.3907 140.208 28.3692C139.617 28.3369 138.429 28.2778 137.838 28.2455C137.444 28.224 137.241 28.5466 137.23 29.2131C137.214 30.2128 137.182 32.2122 137.16 33.212C137.15 33.8785 137.331 34.2207 137.703 34.2386C138.268 34.2655 139.391 34.3246 139.972 34.3568C140.552 34.3837 140.579 34.3837 140.643 35.0072C140.708 35.6307 140.799 36.8777 140.848 37.5012C140.88 37.9169 140.978 38.1552 141.143 38.2161C141.391 38.3074 141.89 38.4956 142.159 38.6084C142.423 38.7159 142.455 38.7482 142.234 39.0008C142.014 39.248 141.546 39.7157 141.315 39.9522C141.158 40.1098 141.213 40.3105 141.482 40.5542C141.88 40.9197 142.681 41.656 143.084 42.0215C143.349 42.2652 143.483 42.473 143.487 42.645C143.487 42.903 143.503 43.4136 143.508 43.6878C143.508 43.9619 143.508 43.9887 143.121 44.2091C142.729 44.4295 141.95 44.8326 141.563 45.0368C141.176 45.2411 141.17 45.2411 141.579 45.4131C141.982 45.5851 142.793 45.9291 143.202 46.1011C143.471 46.2158 143.605 46.4397 143.605 46.773V48.767C143.605 49.1003 143.474 49.3027 143.213 49.3744C142.82 49.4819 142.041 49.7023 141.654 49.8098C141.392 49.8814 141.272 50.0785 141.294 50.401C141.326 50.8848 141.385 51.8523 141.417 52.336C141.439 52.6585 141.584 52.8556 141.853 52.9273C142.256 53.0348 143.068 53.2551 143.476 53.3626C143.745 53.4343 143.884 53.6117 143.895 53.8947C143.911 54.314 143.944 55.1579 143.96 55.5771C143.97 55.8566 143.888 56.0286 143.713 56.0931C143.449 56.1845 142.917 56.3726 142.654 56.4693C142.478 56.5302 142.702 56.8725 143.325 57.496C144.261 58.4312 146.131 60.3017 147.066 61.2369C147.69 61.8604 148.245 61.9482 148.733 61.5003C149.464 60.8284 150.931 59.4901 151.694 58.8021C152.458 58.1141 152.522 58.0872 152.409 52.7929C152.296 47.4986 152.006 36.9476 151.861 31.6694L151.716 26.3912H151.721ZM146.067 6.16534C149.292 6.16534 151.904 9.83639 151.904 14.3675C151.904 18.8985 149.292 22.5696 146.067 22.5696C142.842 22.5696 140.23 18.8985 140.23 14.3675C140.23 9.83639 142.842 6.16534 146.067 6.16534Z" fill="#CCCCCC" stroke="black" stroke-width="0.57" stroke-miterlimit="22.93"/>
<path fill-rule="evenodd" clip-rule="evenodd" d="M145.615 6.18677C142.605 6.51464 140.235 10.0513 140.235 14.3674C140.235 18.6835 142.562 22.1557 145.529 22.5373C143.976 20.9786 142.922 17.9202 142.922 14.405C142.922 10.8898 144.013 7.71863 145.615 6.19215V6.18677Z" fill="#666666" stroke="black" stroke-width="0.57" stroke-miterlimit="22.93"/>
<path fill-rule="evenodd" clip-rule="evenodd" d="M143.105 26.0312C143.116 26.2247 143.154 26.6332 143.17 26.8321C143.18 26.9682 143.455 27.0345 143.992 27.0309C144.793 27.0309 146.4 27.0202 147.206 27.0148C148.012 27.0148 148.023 27.0148 148.034 26.8267C148.045 26.644 148.066 26.2731 148.072 26.085C148.079 25.9631 148.082 25.9022 148.082 25.9022C148.082 25.9022 148.093 25.913 147.679 26.0097C147.265 26.1011 146.427 26.2785 145.599 26.2731C144.771 26.2677 143.949 26.0742 143.53 25.9667C143.111 25.8592 143.089 25.8377 143.1 26.0312H143.105Z" fill="#666666"/>
<path fill-rule="evenodd" clip-rule="evenodd" d="M142.594 34.6687C142.573 33.4701 142.584 31.5889 142.611 30.6106C142.637 29.6324 142.675 29.5518 143.734 29.5518C144.793 29.5518 146.857 29.6324 147.889 29.67C148.577 29.6951 148.944 31.2252 148.991 34.2602C149.06 38.8128 149.189 47.9125 149.238 52.6317C149.286 57.3509 149.243 57.6842 149.157 57.8347C149.071 57.9798 148.937 57.9422 148.733 53.4487C148.534 48.9607 148.265 40.0168 148.088 35.4642C147.916 30.9116 147.835 30.7504 147.728 30.6536C147.62 30.5515 147.486 30.5139 146.782 30.4816C146.077 30.4494 144.804 30.4225 144.11 30.4333C143.417 30.444 143.309 30.4978 143.229 30.5784C143.148 30.659 143.094 30.7665 143.019 31.8254C142.944 32.8842 142.842 34.8945 142.761 35.6416C142.68 36.3887 142.621 35.8673 142.594 34.6633V34.6687Z" fill="#666666"/>
<path fill-rule="evenodd" clip-rule="evenodd" d="M145.411 35.6629C145.47 40.0704 145.637 48.4767 145.739 52.7713C145.846 57.0659 145.889 57.254 145.959 57.3722C146.029 57.4905 146.126 57.5389 146.099 54.5289C146.077 51.5243 145.932 45.4668 145.889 41.3926C145.841 37.3184 145.889 35.2275 145.83 33.7333C145.771 32.2391 145.604 31.3361 145.502 31.0888C145.395 30.8416 145.352 31.2501 145.411 35.6575V35.6629Z" fill="#666666"/>
<path fill-rule="evenodd" clip-rule="evenodd" d="M79.8718 118.222C80.7586 118.222 81.4789 116.964 81.4789 115.422C81.4789 113.879 80.7533 112.621 79.8718 112.621C78.9903 112.621 78.2646 113.879 78.2646 115.422C78.2646 116.964 78.9849 118.222 79.8718 118.222Z" fill="#F0D290"/>
<path fill-rule="evenodd" clip-rule="evenodd" d="M18.6564 88.203C19.5433 88.203 20.2635 86.9453 20.2635 85.4026C20.2635 83.86 19.5379 82.6023 18.6564 82.6023C17.7749 82.6023 17.0493 83.86 17.0493 85.4026C17.0493 86.9453 17.7696 88.203 18.6564 88.203Z" fill="#F0D290"/>
<path fill-rule="evenodd" clip-rule="evenodd" d="M17.2537 68.9499C17.4794 70.0141 18.0707 70.772 18.764 70.772C19.6509 70.772 20.3711 69.5196 20.3711 67.9717C20.3711 67.6277 20.3335 67.2998 20.269 66.9934L17.2537 68.9499Z" fill="#F0D290"/>
<path fill-rule="evenodd" clip-rule="evenodd" d="M79.7692 124C80.6561 124 81.3763 122.742 81.3763 121.199C81.3763 119.657 80.6507 118.399 79.7692 118.399C78.8878 118.399 78.1621 119.657 78.1621 121.199C78.1621 122.742 78.8878 124 79.7692 124Z" fill="#F0D290"/>
<path fill-rule="evenodd" clip-rule="evenodd" d="M18.5544 93.9808C19.4412 93.9808 20.1615 92.7231 20.1615 91.1805C20.1615 89.6379 19.4359 88.3801 18.5544 88.3801C17.6729 88.3801 16.9473 89.6379 16.9473 91.1805C16.9473 92.7231 17.6675 93.9808 18.5544 93.9808Z" fill="#F0D290"/>
<path fill-rule="evenodd" clip-rule="evenodd" d="M18.6564 76.5499C19.5433 76.5499 20.2635 75.2922 20.2635 73.7496C20.2635 72.207 19.5379 70.9492 18.6564 70.9492C17.7749 70.9492 17.0493 72.207 17.0493 73.7496C17.0493 75.2922 17.7696 76.5499 18.6564 76.5499Z" fill="#F0D290"/>
<path fill-rule="evenodd" clip-rule="evenodd" d="M79.6674 129.778C80.5543 129.778 81.2745 128.52 81.2745 126.978C81.2745 125.435 80.5489 124.177 79.6674 124.177C78.7859 124.177 78.0603 125.435 78.0603 126.978C78.0603 128.52 78.7805 129.778 79.6674 129.778Z" fill="#F0D290"/>
<path fill-rule="evenodd" clip-rule="evenodd" d="M18.4469 99.7591C19.3338 99.7591 20.054 98.5014 20.054 96.9588C20.054 95.4162 19.3284 94.1584 18.4469 94.1584C17.5655 94.1584 16.8398 95.4162 16.8398 96.9588C16.8398 98.5014 17.5655 99.7591 18.4469 99.7591Z" fill="#F0D290"/>
<path fill-rule="evenodd" clip-rule="evenodd" d="M18.5544 82.3282C19.4412 82.3282 20.1615 81.0705 20.1615 79.5279C20.1615 77.9853 19.4359 76.7275 18.5544 76.7275C17.6729 76.7275 16.9473 77.9853 16.9473 79.5279C16.9473 81.0705 17.6729 82.3282 18.5544 82.3282Z" fill="#F0D290"/>
<path fill-rule="evenodd" clip-rule="evenodd" d="M79.5651 135.556C80.452 135.556 81.1722 134.298 81.1722 132.756C81.1722 131.213 80.4466 129.955 79.5651 129.955C78.6836 129.955 77.958 131.213 77.958 132.756C77.958 134.298 78.6836 135.556 79.5651 135.556Z" fill="#F0D290"/>
<path fill-rule="evenodd" clip-rule="evenodd" d="M18.3449 105.537C19.2318 105.537 19.952 104.279 19.952 102.737C19.952 101.194 19.2264 99.9365 18.3449 99.9365C17.4634 99.9365 16.7378 101.194 16.7378 102.737C16.7378 104.279 17.458 105.537 18.3449 105.537Z" fill="#F0D290"/>
<path fill-rule="evenodd" clip-rule="evenodd" d="M79.4631 141.334C80.3499 141.334 81.0702 140.076 81.0702 138.534C81.0702 136.991 80.3445 135.733 79.4631 135.733C78.5816 135.733 77.856 136.991 77.856 138.534C77.856 140.076 78.5762 141.334 79.4631 141.334Z" fill="#F0D290"/>
<path fill-rule="evenodd" clip-rule="evenodd" d="M18.2426 111.315C19.1295 111.315 19.8497 110.058 19.8497 108.515C19.8497 106.972 19.1241 105.715 18.2426 105.715C17.3611 105.715 16.6355 106.972 16.6355 108.515C16.6355 110.058 17.3611 111.315 18.2426 111.315Z" fill="#F0D290"/>
<path fill-rule="evenodd" clip-rule="evenodd" d="M79.361 147.112C80.2479 147.112 80.9681 145.854 80.9681 144.312C80.9681 142.769 80.2425 141.511 79.361 141.511C78.4795 141.511 77.7539 142.769 77.7539 144.312C77.7539 145.854 78.4741 147.112 79.361 147.112Z" fill="#F0D290"/>
<path fill-rule="evenodd" clip-rule="evenodd" d="M18.1403 117.093C19.0272 117.093 19.7474 115.836 19.7474 114.293C19.7474 112.75 19.0218 111.493 18.1403 111.493C17.2588 111.493 16.5332 112.75 16.5332 114.293C16.5332 115.836 17.2534 117.093 18.1403 117.093Z" fill="#F0D290"/>
<path fill-rule="evenodd" clip-rule="evenodd" d="M79.2587 152.89C80.1456 152.89 80.8658 151.632 80.8658 150.09C80.8658 148.547 80.1402 147.29 79.2587 147.29C78.3772 147.29 77.6516 148.547 77.6516 150.09C77.6516 151.632 78.3718 152.89 79.2587 152.89Z" fill="#F0D290"/>
<path fill-rule="evenodd" clip-rule="evenodd" d="M18.0385 122.871C18.9254 122.871 19.6456 121.613 19.6456 120.071C19.6456 118.528 18.92 117.271 18.0385 117.271C17.157 117.271 16.4314 118.528 16.4314 120.071C16.4314 121.613 17.157 122.871 18.0385 122.871Z" fill="#F0D290"/>
<path fill-rule="evenodd" clip-rule="evenodd" d="M50.9275 126.972L51.1264 91.4978L70.5675 101.065L70.1536 136.438L50.9275 126.972Z" stroke="#B68560" stroke-width="0.57" stroke-miterlimit="22.93"/>
<path fill-rule="evenodd" clip-rule="evenodd" d="M70.1541 136.438L50.6484 126.978L70.3852 116.803L70.1541 136.438Z" fill="#633A34"/>
<path fill-rule="evenodd" clip-rule="evenodd" d="M50.933 126.833L44.5852 129.773L60.2263 137.48L66.6117 134.718L50.933 126.833Z" fill="#C98F68" stroke="#C98F68" stroke-width="0.57" stroke-miterlimit="22.93"/>
<path fill-rule="evenodd" clip-rule="evenodd" d="M44.9667 134.831L38.6189 137.776L54.2653 145.478L60.6507 142.721L44.9667 134.831Z" fill="#C98F68" stroke="#C98F68" stroke-width="0.57" stroke-miterlimit="22.93"/>
<path fill-rule="evenodd" clip-rule="evenodd" d="M47.4768 126.107C47.4768 126.994 48.7292 127.714 50.2772 127.714C51.8251 127.714 53.0775 126.994 53.0775 126.107C53.0775 125.989 53.056 125.876 53.013 125.768V92.6909H47.4768V126.107Z" fill="#D89F77" stroke="#B68560" stroke-miterlimit="22.93"/>
<path fill-rule="evenodd" clip-rule="evenodd" d="M66.6116 135.637C66.6116 136.524 67.8639 137.244 69.4119 137.244C70.9599 137.244 72.2123 136.524 72.2123 135.637C72.2123 135.519 72.1908 135.406 72.1478 135.298V102.221H66.6116V135.637Z" fill="#D89F77" stroke="#B68560" stroke-miterlimit="22.93"/>
<path fill-rule="evenodd" clip-rule="evenodd" d="M47.4446 92.9006C47.4446 93.7875 48.697 94.5077 50.2449 94.5077C51.7929 94.5077 53.0453 93.7875 53.0453 92.9006C53.0453 92.0137 51.7929 91.2935 50.2449 91.2935C48.697 91.2935 47.4446 92.0137 47.4446 92.9006Z" fill="#F0D290"/>
<path fill-rule="evenodd" clip-rule="evenodd" d="M66.6978 102.5C66.6978 103.387 67.9501 104.107 69.4981 104.107C71.0461 104.107 72.2984 103.387 72.2984 102.5C72.2984 101.613 71.0461 100.893 69.4981 100.893C67.9501 100.893 66.6978 101.613 66.6978 102.5Z" fill="#F0D290"/>
<path d="M53.1958 120.044L65.8161 113.54" stroke="#B68560" stroke-width="0.57" stroke-miterlimit="22.93"/>
<path d="M53.5344 114.309L66.1548 107.805" stroke="#B68560" stroke-width="0.57" stroke-miterlimit="22.93"/>
<path d="M53.873 108.574L66.4934 102.065" stroke="#B68560" stroke-width="0.57" stroke-miterlimit="22.93"/>
<path d="M54.2117 102.833L63.9564 97.8132" stroke="#B68560" stroke-width="0.57" stroke-miterlimit="22.93"/>
<path d="M54.5503 97.0984L58.4364 95.0936M66.0365 91.1752L67.1707 90.5894" stroke="#B68560" stroke-width="0.57" stroke-miterlimit="22.93"/>
<path fill-rule="evenodd" clip-rule="evenodd" d="M44.6121 134.943L44.5852 129.773L60.2263 137.341L60.2854 142.662L44.6121 134.943Z" fill="#B68560"/>
<path fill-rule="evenodd" clip-rule="evenodd" d="M38.4092 142.63L38.3179 137.76L54.2653 145.344L54.3244 150.66L38.4092 142.63Z" fill="#B68560"/>
<path fill-rule="evenodd" clip-rule="evenodd" d="M54.3245 150.66L66.1708 145.134L66.6116 134.691L60.2262 137.48L60.2853 142.662L54.2654 145.478L54.3245 150.66Z" fill="#B68560"/>
<path fill-rule="evenodd" clip-rule="evenodd" d="M107.16 121.769L129.988 110.116L129.767 101.586C129.821 101.205 129.848 100.834 129.837 100.479C129.724 96.0879 124.64 95.0075 118.41 98.0766C112.1 101.183 106.978 107.381 107.037 111.901C107.037 112.191 107.064 112.465 107.112 112.723L107.047 112.756L107.166 121.775L107.16 121.769Z" fill="#B68560" stroke="#B68562" stroke-width="0.57" stroke-miterlimit="22.93"/>
<path fill-rule="evenodd" clip-rule="evenodd" d="M107.16 121.769L125.838 112.234L125.817 103.828C125.881 103.446 125.914 103.075 125.914 102.715C125.903 98.6356 121.603 97.3348 115.97 99.5708C110.826 102.936 106.983 108.09 107.031 111.976C107.031 112.266 107.058 112.541 107.107 112.799L107.042 112.831L107.16 121.769Z" fill="#633A34"/>
<path fill-rule="evenodd" clip-rule="evenodd" d="M107.134 119.695C107.15 121.082 107.16 121.77 107.16 121.77C107.16 121.77 114.771 117.883 129.988 110.117C129.988 110.117 128.778 110.197 126.365 110.359C126.365 110.359 119.953 113.471 107.134 119.695Z" fill="#B68560"/>
</svg>
