<?xml version="1.0" standalone="no"?>
<!DOCTYPE svg PUBLIC "-//W3C//DTD SVG 20010904//EN"
 "http://www.w3.org/TR/2001/REC-SVG-20010904/DTD/svg10.dtd">
<svg version="1.0" xmlns="http://www.w3.org/2000/svg"
 width="180.000000pt" height="180.000000pt" viewBox="0 0 180.000000 180.000000"
 preserveAspectRatio="xMidYMid meet">
<metadata>
Created by potrace 1.14, written by Peter Selinger 2001-2017
</metadata>
<g transform="translate(0.000000,180.000000) scale(0.100000,-0.100000)"
fill="#000000" stroke="none">
<path d="M805 1183 c-77 -53 -93 -68 -84 -79 9 -12 25 -4 90 41 43 30 82 55
87 55 5 0 45 -25 89 -54 65 -44 84 -52 92 -42 9 10 -10 28 -83 79 l-95 65 -96
-65z"/>
<path d="M0 793 c0 -58 3 -73 15 -73 10 0 15 10 15 30 0 17 5 30 13 31 6 0 20
2 29 4 19 4 29 -15 23 -45 -3 -14 1 -20 14 -20 15 0 17 10 17 72 -1 48 -5 73
-13 76 -7 2 -14 -1 -14 -7 -1 -6 -3 -15 -4 -21 -1 -5 -3 -14 -4 -18 0 -4 -14
-9 -31 -10 -27 -2 -30 1 -30 26 0 19 -5 29 -15 29 -12 0 -15 -15 -15 -74z"/>
<path d="M1190 796 c0 -61 3 -76 15 -76 10 0 15 10 15 29 0 19 6 30 18 33 30
8 48 -5 47 -34 -1 -20 3 -28 14 -28 14 0 17 12 16 72 0 47 -5 73 -13 76 -7 2
-13 -1 -13 -7 -1 -6 -3 -15 -4 -21 -1 -5 -3 -13 -4 -18 0 -4 -14 -8 -30 -8
-25 -1 -30 3 -33 24 -2 14 -9 27 -15 30 -10 3 -13 -16 -13 -72z"/>
<path d="M264 818 c-11 -13 -20 -30 -19 -38 1 -8 3 -21 3 -27 3 -20 54 -40 86
-34 21 4 33 15 43 39 12 30 12 34 -11 57 -32 32 -76 33 -102 3z m84 -34 c4
-27 -18 -45 -45 -38 -47 13 -32 68 16 62 17 -2 27 -10 29 -24z"/>
<path d="M502 782 c3 -52 5 -56 32 -63 19 -5 39 -4 55 4 23 11 26 19 27 63 2
37 -2 51 -12 51 -8 0 -14 -5 -15 -11 0 -6 -2 -23 -3 -38 -4 -66 -56 -60 -56 6
0 32 -4 43 -15 43 -13 0 -15 -11 -13 -55z"/>
<path d="M758 833 c-33 -8 -32 -62 1 -64 39 -3 45 -5 49 -17 3 -9 -4 -11 -25
-6 -44 10 -48 10 -48 -6 0 -16 47 -29 78 -22 10 3 22 13 28 24 14 26 -5 47
-44 50 -15 1 -27 6 -27 11 0 5 13 7 30 4 35 -7 49 8 21 22 -20 11 -33 12 -63
4z"/>
<path d="M965 832 c-3 -3 -5 -29 -5 -59 l0 -53 60 0 c43 0 60 4 60 13 0 7 -10
13 -22 14 -53 1 -68 3 -68 12 0 4 10 8 23 7 31 -1 33 18 2 22 -34 4 -32 24 3
22 43 -3 52 -1 52 13 0 9 -16 13 -50 13 -27 1 -52 -1 -55 -4z"/>
<path d="M1440 791 c0 -59 23 -82 73 -74 40 6 47 17 47 74 0 34 -4 46 -15 46
-11 0 -15 -12 -15 -44 0 -23 -4 -44 -10 -44 -43 -6 -45 -4 -50 41 -7 64 -30
64 -30 1z"/>
<path d="M1689 836 c-1 -1 -2 -27 -4 -58 l-3 -58 53 0 c36 0 55 4 58 14 9 22
-4 96 -17 97 -18 2 -86 5 -87 5z m71 -35 c0 -6 -9 -9 -20 -8 -11 1 -20 5 -20
9 0 4 9 8 20 8 11 0 20 -4 20 -9z m5 -42 c4 -5 -8 -9 -25 -9 -17 0 -29 4 -26
8 7 11 45 12 51 1z"/>
<path d="M604 584 c4 -9 1 -23 -5 -30 -8 -9 -8 -14 -1 -14 6 0 14 5 18 11 4 8
9 7 15 -2 7 -12 9 -12 9 0 0 10 3 11 14 2 11 -10 14 -7 12 14 0 14 -5 23 -11
21 -5 -2 -21 1 -34 6 -19 7 -22 6 -17 -8z"/>
<path d="M827 574 c-2 -13 0 -27 4 -30 5 -3 9 0 9 5 0 6 7 11 15 11 8 0 15 -5
15 -11 0 -5 4 -8 8 -5 5 3 8 15 6 28 -4 34 -5 35 -13 14 -6 -17 -9 -17 -23 -3
-14 15 -16 14 -21 -9z"/>
<path d="M941 571 l-1 -34 22 19 c12 10 18 14 15 7 -4 -6 -3 -14 3 -18 6 -4
10 5 10 19 0 27 -14 34 -26 14 -5 -8 -10 -6 -15 8 -6 15 -8 11 -8 -15z"/>
<path d="M1054 591 c-13 -9 -16 -39 -4 -46 5 -3 10 -1 10 4 0 6 9 11 20 11 11
0 20 6 20 14 0 15 -33 27 -46 17z"/>
<path d="M1261 568 c0 -18 3 -27 6 -20 2 6 11 12 19 12 8 0 14 -6 14 -12 0
-10 3 -9 9 1 5 7 6 23 3 34 -5 19 -6 19 -12 3 -6 -17 -7 -17 -23 -2 -16 16
-17 15 -16 -16z"/>
<path d="M1368 569 c-3 -16 -1 -29 4 -29 4 0 8 9 8 20 0 14 7 20 22 20 25 0
19 9 -10 15 -16 3 -21 -3 -24 -26z"/>
<path d="M380 571 c0 -24 16 -36 23 -19 4 10 8 10 15 -1 10 -14 19 -5 18 18
-1 17 -26 28 -26 12 0 -6 -5 -11 -11 -11 -5 0 -7 5 -4 10 3 6 1 10 -4 10 -6 0
-11 -9 -11 -19z"/>
<path d="M490 563 c0 -13 5 -23 11 -23 5 0 7 5 4 10 -3 6 1 10 9 10 9 0 16 -5
16 -12 0 -17 10 -4 14 19 4 16 -1 20 -25 19 -23 -1 -29 -6 -29 -23z"/>
<path d="M720 572 c0 -26 11 -34 27 -21 10 9 13 8 14 -2 0 -8 4 -5 9 6 4 12 4
24 -2 30 -7 7 -12 6 -15 -2 -3 -7 -9 -13 -14 -13 -6 0 -7 5 -4 10 3 6 1 10 -4
10 -6 0 -11 -8 -11 -18z"/>
<path d="M1150 565 c0 -14 4 -25 9 -25 12 0 19 21 13 38 -8 21 -22 13 -22 -13z"/>
<path d="M1184 565 c0 -14 4 -25 8 -25 9 0 16 23 10 38 -8 21 -20 13 -18 -13z"/>
</g>
</svg>
