<svg width="33" height="32" viewBox="0 0 33 32" fill="none" xmlns="http://www.w3.org/2000/svg">
<path d="M11.5536 8.26935C11.3058 8.23329 11.0531 8.28316 10.8376 8.41069H10.819C10.319 8.70402 9.8683 9.07335 9.4843 9.50802C9.1643 9.87735 8.99097 10.2507 8.94564 10.6107C8.91897 10.824 8.93764 11.04 9.0003 11.244L9.0243 11.2574C9.3843 12.3147 9.85364 13.332 10.427 14.2894C11.1662 15.634 12.076 16.8776 13.1336 17.9894L13.1656 18.0347L13.2163 18.072L13.247 18.108L13.2843 18.14C14.3999 19.2009 15.6465 20.1149 16.9936 20.86C18.5336 21.6987 19.4683 22.0947 20.0296 22.26V22.268C20.1936 22.3187 20.343 22.3414 20.4936 22.3414C20.9717 22.306 21.4242 22.1117 21.779 21.7894C22.2123 21.4054 22.579 20.9534 22.8643 20.4507V20.4414C23.1323 19.9347 23.0416 19.4574 22.655 19.1334C21.8783 18.4547 21.0385 17.852 20.147 17.3334C19.5496 17.0094 18.943 17.2054 18.6976 17.5334L18.1736 18.1947C17.9043 18.5227 17.4163 18.4774 17.4163 18.4774L17.403 18.4854C13.7616 17.556 12.7896 13.8694 12.7896 13.8694C12.7896 13.8694 12.7443 13.368 13.0816 13.112L13.7376 12.584C14.0523 12.328 14.271 11.7227 13.9336 11.1254C13.4184 10.233 12.8169 9.39346 12.1376 8.61869C11.9895 8.43635 11.7817 8.31216 11.551 8.26802L11.5536 8.26935ZM17.707 6.66669C17.5302 6.66669 17.3606 6.73693 17.2356 6.86195C17.1105 6.98697 17.0403 7.15654 17.0403 7.33335C17.0403 7.51016 17.1105 7.67973 17.2356 7.80476C17.3606 7.92978 17.5302 8.00002 17.707 8.00002C19.3923 8.00002 20.7923 8.55069 21.9003 9.60669C22.4696 10.184 22.9136 10.868 23.2043 11.6174C23.4963 12.368 23.6296 13.1694 23.595 13.972C23.5875 14.1488 23.6507 14.3214 23.7704 14.4516C23.8902 14.5819 24.0568 14.6593 24.2336 14.6667C24.4105 14.6741 24.583 14.611 24.7132 14.4912C24.8435 14.3715 24.9209 14.2048 24.9283 14.028C24.9697 13.0407 24.8058 12.0555 24.447 11.1347C24.0866 10.2095 23.5402 9.36818 22.8416 8.66269L22.8283 8.64935C21.4536 7.33602 19.715 6.66669 17.707 6.66669Z" fill="white"/>
<path d="M17.6603 8.85869C17.4835 8.85869 17.3139 8.92893 17.1889 9.05396C17.0639 9.17898 16.9937 9.34855 16.9937 9.52536C16.9937 9.70217 17.0639 9.87174 17.1889 9.99677C17.3139 10.1218 17.4835 10.192 17.6603 10.192H17.683C18.899 10.2787 19.7843 10.684 20.4043 11.3494C21.0403 12.0347 21.3697 12.8867 21.3443 13.94C21.3403 14.1168 21.4066 14.288 21.5287 14.4159C21.6509 14.5438 21.8188 14.618 21.9957 14.622C22.1725 14.6261 22.3436 14.5598 22.4715 14.4376C22.5994 14.3155 22.6736 14.1475 22.6777 13.9707C22.7097 12.588 22.2643 11.3947 21.3817 10.4427V10.44C20.479 9.47203 19.2403 8.96003 17.7497 8.86003L17.727 8.85736L17.6603 8.85869Z" fill="white"/>
<path d="M17.6349 11.092C17.5457 11.0841 17.4558 11.0943 17.3706 11.1219C17.2854 11.1496 17.2067 11.1941 17.1391 11.2528C17.0715 11.3116 17.0164 11.3834 16.9771 11.4639C16.9379 11.5444 16.9152 11.632 16.9106 11.7214C16.9059 11.8108 16.9193 11.9003 16.95 11.9845C16.9807 12.0686 17.028 12.1457 17.0891 12.2112C17.1503 12.2766 17.224 12.3291 17.3058 12.3654C17.3877 12.4017 17.476 12.4212 17.5656 12.4227C18.1229 12.452 18.4789 12.62 18.7029 12.8453C18.9283 13.072 19.0963 13.436 19.1269 14.0053C19.1286 14.0948 19.1483 14.183 19.1847 14.2647C19.2212 14.3464 19.2738 14.42 19.3393 14.4809C19.4048 14.5419 19.4819 14.589 19.566 14.6196C19.6501 14.6501 19.7395 14.6634 19.8288 14.6587C19.9182 14.6539 20.0057 14.6312 20.0861 14.592C20.1665 14.5527 20.2382 14.4976 20.2968 14.4301C20.3555 14.3625 20.4 14.2838 20.4276 14.1987C20.4552 14.1136 20.4654 14.0238 20.4576 13.9347C20.4149 13.1347 20.1643 12.428 19.6509 11.908C19.1349 11.388 18.4323 11.1347 17.6349 11.092Z" fill="white"/>
<path fill-rule="evenodd" clip-rule="evenodd" d="M10.3562 3.17864C14.599 2.23025 18.9988 2.23025 23.2416 3.17864L23.6936 3.27864C24.9338 3.55591 26.073 4.17161 26.9843 5.05734C27.8957 5.94307 28.5437 7.06413 28.8562 8.29598C29.9332 12.5398 29.9332 16.9855 28.8562 21.2293C28.5437 22.4612 27.8957 23.5822 26.9843 24.4679C26.073 25.3537 24.9338 25.9694 23.6936 26.2466L23.2402 26.3466C20.5829 26.9409 17.8562 27.1648 15.1376 27.012L11.6002 30.1773C11.4669 30.2967 11.3039 30.3781 11.1284 30.4131C10.9528 30.448 10.7711 30.4352 10.6022 30.3759C10.4333 30.3167 10.2834 30.2132 10.1681 30.0762C10.0528 29.9392 9.97646 29.7739 9.94692 29.5973L9.36158 26.1013C8.23916 25.7521 7.22506 25.1208 6.41621 24.2678C5.60736 23.4148 5.03078 22.3687 4.74158 21.2293C3.66459 16.9855 3.66459 12.5398 4.74158 8.29598C5.05414 7.06413 5.70211 5.94307 6.6135 5.05734C7.52488 4.17161 8.66399 3.55591 9.90425 3.27864L10.3562 3.17864ZM22.8056 5.12931C18.85 4.24505 14.7479 4.24505 10.7922 5.12931L10.3389 5.23064C9.45988 5.42752 8.65261 5.86418 8.00675 6.49215C7.36089 7.12012 6.90173 7.91481 6.68025 8.78798C5.6852 12.7089 5.6852 16.8163 6.68025 20.7373C6.90184 21.6106 7.3612 22.4055 8.00731 23.0334C8.65341 23.6614 9.46096 24.098 10.3402 24.2946L10.4602 24.3213C10.6544 24.3647 10.8311 24.4651 10.9679 24.6095C11.1048 24.7539 11.1954 24.9358 11.2283 25.132L11.6203 27.476L14.1162 25.2426C14.2159 25.1532 14.3326 25.0847 14.4592 25.0412C14.5859 24.9976 14.72 24.98 14.8536 24.9893C17.519 25.1784 20.1977 24.9785 22.8056 24.396L23.2576 24.2946C24.1369 24.098 24.9444 23.6614 25.5905 23.0334C26.2366 22.4055 26.696 21.6106 26.9176 20.7373C27.9122 16.8173 27.9122 12.7093 26.9176 8.78798C26.696 7.91464 26.2366 7.11983 25.5905 6.49185C24.9444 5.86387 24.1369 5.4273 23.2576 5.23064L22.8056 5.12931Z" fill="white"/>
</svg>
