<svg width="27" height="28" viewBox="0 0 27 28" fill="none" xmlns="http://www.w3.org/2000/svg">
<path d="M23.0668 4.54671C21.8444 3.31194 20.3884 2.33293 18.7837 1.66677C17.1789 1.00062 15.4576 0.660652 13.7201 0.666705C6.44015 0.666705 0.506813 6.60004 0.506813 13.88C0.506813 16.2134 1.12015 18.48 2.26681 20.48L0.400146 27.3334L7.40015 25.4934C9.33348 26.5467 11.5068 27.1067 13.7201 27.1067C21.0001 27.1067 26.9335 21.1734 26.9335 13.8934C26.9335 10.36 25.5601 7.04004 23.0668 4.54671ZM13.7201 24.8667C11.7468 24.8667 9.81348 24.3334 8.12015 23.3334L7.72015 23.0934L3.56015 24.1867L4.66681 20.1334L4.40015 19.72C3.30381 17.9693 2.72167 15.9457 2.72015 13.88C2.72015 7.8267 7.65348 2.89337 13.7068 2.89337C16.6401 2.89337 19.4001 4.04004 21.4668 6.12004C22.4901 7.13866 23.3011 8.35026 23.8527 9.68461C24.4043 11.019 24.6855 12.4495 24.6801 13.8934C24.7068 19.9467 19.7735 24.8667 13.7201 24.8667ZM19.7468 16.6534C19.4135 16.4934 17.7868 15.6934 17.4935 15.5734C17.1868 15.4667 16.9735 15.4134 16.7468 15.7334C16.5201 16.0667 15.8935 16.8134 15.7068 17.0267C15.5201 17.2534 15.3201 17.28 14.9868 17.1067C14.6535 16.9467 13.5868 16.5867 12.3335 15.4667C11.3468 14.5867 10.6935 13.5067 10.4935 13.1734C10.3068 12.84 10.4668 12.6667 10.6401 12.4934C10.7868 12.3467 10.9735 12.1067 11.1335 11.92C11.2935 11.7334 11.3601 11.5867 11.4668 11.3734C11.5735 11.1467 11.5201 10.96 11.4401 10.8C11.3601 10.64 10.6935 9.01337 10.4268 8.34671C10.1601 7.70671 9.88015 7.78671 9.68015 7.77337H9.04015C8.81348 7.77337 8.46681 7.85337 8.16015 8.18671C7.86681 8.52004 7.01348 9.32004 7.01348 10.9467C7.01348 12.5734 8.20015 14.1467 8.36015 14.36C8.52015 14.5867 10.6935 17.92 14.0001 19.3467C14.7868 19.6934 15.4001 19.8934 15.8801 20.04C16.6668 20.2934 17.3868 20.2534 17.9601 20.1734C18.6001 20.08 19.9201 19.3734 20.1868 18.6C20.4668 17.8267 20.4668 17.1734 20.3735 17.0267C20.2801 16.88 20.0801 16.8134 19.7468 16.6534Z" fill="white"/>
</svg>
