<svg class="social__link" width="35" height="35" viewBox="0 0 35 35" fill="none" xmlns="http://www.w3.org/2000/svg">
<path d="M17.4001 0C8.1216 0 0.600098 7.64865 0.600098 17.084C0.600098 26.5193 8.1216 34.168 17.4001 34.168C26.6786 34.168 34.2001 26.5193 34.2001 17.084C34.2001 7.64865 26.6786 0 17.4001 0ZM24.2339 13.9946C24.2409 14.1406 24.2426 14.2865 24.2426 14.4289C24.2426 18.8778 20.9159 24.0048 14.8294 24.0048C13.0309 24.0078 11.2698 23.4826 9.75785 22.4922C10.0151 22.5242 10.2793 22.5366 10.5471 22.5366C12.0976 22.5366 13.5239 22.001 14.6561 21.097C13.9661 21.0832 13.2975 20.8508 12.7435 20.4323C12.1896 20.0138 11.7778 19.4299 11.5656 18.7621C12.0611 18.858 12.5716 18.8379 13.0583 18.7034C12.3094 18.5494 11.6359 18.1368 11.1521 17.5354C10.6682 16.9341 10.4038 16.1811 10.4036 15.4041V15.3631C10.8498 15.6141 11.3608 15.7671 11.9033 15.7849C11.2012 15.3096 10.7042 14.5795 10.5139 13.744C10.3236 12.9084 10.4544 12.0304 10.8796 11.2897C11.7108 12.329 12.7473 13.1791 13.9221 13.7852C15.0969 14.3913 16.3837 14.7397 17.6994 14.8079C17.5321 14.0859 17.6041 13.328 17.9041 12.652C18.2042 11.9759 18.7154 11.4196 19.3585 11.0695C20.0015 10.7194 20.7403 10.5951 21.4599 10.7161C22.1796 10.837 22.8397 11.1963 23.3379 11.7381C24.0784 11.5891 24.7886 11.3129 25.4379 10.9213C25.191 11.701 24.6743 12.3631 23.9836 12.7845C24.6396 12.7042 25.2801 12.5248 25.8841 12.2524C25.4405 12.9285 24.8816 13.5185 24.2339 13.9946Z" fill="#005A4D"/>
</svg>
