<svg class="social__link" width="34" height="35" viewBox="0 0 34 35" fill="none" xmlns="http://www.w3.org/2000/svg">
<path d="M22.2502 17.084C22.2502 18.4999 21.6971 19.8579 20.7125 20.8591C19.7279 21.8603 18.3926 22.4227 17.0002 22.4227C15.6078 22.4227 14.2725 21.8603 13.2879 20.8591C12.3033 19.8579 11.7502 18.4999 11.7502 17.084C11.7502 16.7797 11.7817 16.4825 11.8359 16.1942H10.0002V23.3072C10.0002 23.8019 10.3939 24.2023 10.8804 24.2023H23.1217C23.3549 24.2019 23.5783 24.1073 23.743 23.9395C23.9077 23.7717 24.0002 23.5443 24.0002 23.3072V16.1942H22.1644C22.2187 16.4825 22.2502 16.7797 22.2502 17.084ZM17.0002 20.6432C17.4599 20.643 17.9152 20.5508 18.3399 20.3718C18.7646 20.1928 19.1504 19.9305 19.4754 19.5998C19.8004 19.2692 20.0582 18.8766 20.234 18.4447C20.4099 18.0127 20.5003 17.5497 20.5002 17.0822C20.5001 16.6147 20.4094 16.1518 20.2334 15.7199C20.0573 15.288 19.7994 14.8956 19.4742 14.5651C19.149 14.2346 18.763 13.9725 18.3382 13.7937C17.9135 13.6149 17.4582 13.5229 16.9984 13.5231C16.07 13.5233 15.1796 13.8986 14.5232 14.5664C13.8668 15.2342 13.4982 16.1398 13.4984 17.084C13.4987 18.0282 13.8677 18.9336 14.5244 19.6011C15.1812 20.2685 16.0717 20.6434 17.0002 20.6432ZM21.2002 13.3469H23.2984C23.4378 13.3469 23.5716 13.2907 23.6703 13.1906C23.769 13.0905 23.8247 12.9548 23.8252 12.813V10.6793C23.8252 10.5372 23.7697 10.401 23.6709 10.3005C23.5721 10.2001 23.4382 10.1436 23.2984 10.1436H21.2002C21.0605 10.1436 20.9265 10.2001 20.8277 10.3005C20.7289 10.401 20.6734 10.5372 20.6734 10.6793V12.813C20.6752 13.1066 20.9114 13.3469 21.2002 13.3469ZM17.0002 0C12.5446 0 8.27141 1.79992 5.1208 5.00379C1.97019 8.20766 0.200195 12.553 0.200195 17.084C0.200195 21.615 1.97019 25.9603 5.1208 29.1642C8.27141 32.3681 12.5446 34.168 17.0002 34.168C19.2064 34.168 21.391 33.7261 23.4293 32.8676C25.4676 32.009 27.3196 30.7506 28.8796 29.1642C30.4396 27.5778 31.6771 25.6945 32.5214 23.6218C33.3657 21.549 33.8002 19.3275 33.8002 17.084C33.8002 14.8405 33.3657 12.619 32.5214 10.5462C31.6771 8.47351 30.4396 6.59018 28.8796 5.00379C27.3196 3.41739 25.4676 2.15899 23.4293 1.30044C21.391 0.441891 19.2064 0 17.0002 0ZM25.7502 24.0048C25.7502 25.0921 24.8752 25.9819 23.8059 25.9819H10.1944C9.1252 25.9819 8.2502 25.0921 8.2502 24.0048V10.1632C8.2502 9.07587 9.1252 8.18608 10.1944 8.18608H23.8059C24.8752 8.18608 25.7502 9.07587 25.7502 10.1632V24.0048Z" fill="#005A4D"/>
</svg>
