<svg class="social__link" width="34" height="34" viewBox="0 0 34 34" fill="none" xmlns="http://www.w3.org/2000/svg">
<circle cx="17" cy="17" r="17" fill="#005A4D"/>
<path fill-rule="evenodd" clip-rule="evenodd" d="M11.989 9.89005C15.3245 9.6291 18.6754 9.6291 22.011 9.89005L24.251 10.066C24.8577 10.1133 25.4311 10.3624 25.8798 10.7734C26.3285 11.1844 26.6267 11.7338 26.727 12.334C27.244 15.424 27.244 18.5771 26.727 21.666C26.6268 22.2661 26.3287 22.8154 25.8802 23.2264C25.4316 23.6374 24.8585 23.8865 24.252 23.934L22.012 24.109C18.6761 24.3701 15.3249 24.3701 11.989 24.109L9.74896 23.934C9.14227 23.8868 8.56887 23.6377 8.12014 23.2267C7.67141 22.8157 7.37318 22.2663 7.27296 21.666C6.75683 18.5768 6.75683 15.4233 7.27296 12.334C7.37313 11.734 7.67122 11.1847 8.11975 10.7737C8.56828 10.3627 9.14145 10.1136 9.74796 10.066L11.988 9.89105L11.989 9.89005ZM15 19.47V14.53C15 14.477 15.0142 14.425 15.0409 14.3792C15.0676 14.3334 15.106 14.2956 15.1522 14.2694C15.1983 14.2433 15.2505 14.2299 15.3036 14.2305C15.3566 14.2312 15.4085 14.2458 15.454 14.273L19.571 16.743C19.6153 16.7697 19.6519 16.8074 19.6774 16.8524C19.7028 16.8975 19.7162 16.9483 19.7162 17C19.7162 17.0518 19.7028 17.1026 19.6774 17.1476C19.6519 17.1927 19.6153 17.2304 19.571 17.257L15.454 19.727C15.4085 19.7543 15.3566 19.7689 15.3036 19.7696C15.2505 19.7702 15.1983 19.7568 15.1522 19.7307C15.106 19.7045 15.0676 19.6667 15.0409 19.6209C15.0142 19.5751 15 19.5231 15 19.47Z" fill="white"/>
</svg>
