<svg width="192" height="244" viewBox="0 0 192 244" fill="none" xmlns="http://www.w3.org/2000/svg">
<path fill-rule="evenodd" clip-rule="evenodd" d="M80.2818 172.994C82.4918 169.352 87.5318 164.592 89.8818 160.604C97.3718 161.158 102.742 161.702 110.602 161.564C111.272 162.168 110.982 161.871 111.632 162.662L115.412 168.204C116.842 170.312 118.832 172.895 119.722 174.973C132.772 173.597 139.832 168.115 147.962 165.186L146.292 148.996L150.532 145.493C151.962 144.365 152.762 143.435 154.122 142.306C156.692 140.169 159.062 138.19 160.722 135.32C164.662 135.231 166.462 140.11 170.182 140.891C172.022 141.277 175.202 139.041 177.652 137.873C181.642 132.994 189.012 118.922 189.922 111.52C186.742 109.135 180.192 103.198 177.672 101.961L178.342 80.8035C182.052 78.6561 188.772 74.3316 191.832 71.5904C190.532 59.4283 185.872 50.9574 182.132 44.3371L164.962 46.059C163.582 43.1793 161.042 40.4579 158.722 38.1324C148.452 27.8703 151.622 34.7282 154.662 14.8473C148.312 11.166 142.502 7.6431 134.182 4.67433C125.322 1.51753 126.062 1.0821 113.682 14.5207C110.402 14.491 110.902 14.3624 107.522 14.2436C104.002 14.1249 100.462 14.3426 96.9718 14.2239C94.7718 11.9577 89.0718 3.2493 87.8718 0.854492C77.2318 2.16075 68.0618 6.68317 59.9018 10.8691C60.2118 14.6197 61.6118 22.5958 61.4418 25.6635C61.2918 28.3651 59.3118 28.7213 57.5418 30.1068C53.3418 33.412 52.9618 34.3917 48.8618 38.0928C46.8718 39.8839 47.3118 40.8735 44.1318 40.3886C39.5318 39.686 34.5218 38.1027 29.9518 37.8157C27.1818 38.9636 24.5218 38.9042 23.0018 40.8339C17.7818 47.4444 16.7118 58.132 18.0018 64.1982L30.0718 74.4008C30.0718 74.4008 29.4218 92.639 29.5418 95.2218C26.9518 96.3698 17.9118 102.268 15.8718 104.098C17.7818 117.151 22.2118 122.228 25.6118 131.431L42.3518 129.917C44.6918 132.163 46.0518 134.845 47.9018 136.725C59.1518 148.155 56.2718 141.07 53.1618 160.574C55.9518 163.662 64.8018 174.211 73.0018 175.943C74.8918 176.339 79.2318 172.845 80.2918 172.964L80.2818 172.994Z" fill="#005A4D"/>
<path fill-rule="evenodd" clip-rule="evenodd" d="M73.3319 176.012C75.5419 172.37 80.5819 167.61 82.9319 163.622C90.4219 164.176 95.7919 164.721 103.652 164.582C104.322 165.186 104.032 164.889 104.682 165.681L108.462 171.222C109.892 173.33 111.882 175.913 112.772 177.991C125.822 176.616 132.882 171.133 141.012 168.204L139.342 152.014L143.582 148.511C145.012 147.383 145.812 146.453 147.172 145.325C149.742 143.187 152.112 141.208 153.772 138.338C159.662 138.21 165.032 140.98 170.702 140.891C174.692 136.013 182.062 121.941 182.972 114.539C179.792 112.154 173.242 106.216 170.722 104.979L171.392 83.8217C175.102 81.6743 181.822 77.3498 184.882 74.6087C183.582 62.4466 178.702 53.758 175.182 47.3553L158.012 49.0772C156.632 46.1975 154.092 43.4761 151.772 41.1506C141.502 30.8886 144.672 37.7464 147.712 17.8655C141.362 14.1843 135.552 10.6514 127.232 7.69256C118.372 4.53577 122.872 4.6644 110.502 18.103C107.222 18.0734 103.952 17.3806 100.572 17.2619C97.0519 17.1431 93.5119 17.3609 90.0219 17.2421C87.8219 14.9759 82.1219 6.26753 80.9219 3.87273C70.2819 5.17899 61.1119 9.70144 52.9519 13.8874C53.2619 17.638 54.6619 25.614 54.4919 28.6818C54.3419 31.3833 52.3619 31.7396 50.5919 33.125C46.3919 36.4303 46.0119 37.4099 41.9119 41.111C39.9219 42.9022 40.3619 43.8918 37.1819 43.4069C32.5819 42.7043 27.5719 41.1209 23.0019 40.8339C19.6319 47.1772 11.8119 58.1814 11.0519 67.2164L23.1219 77.4191C23.1219 77.4191 22.4719 95.6572 22.5919 98.2401C20.0019 99.388 10.9619 105.286 8.92188 107.117C10.8319 120.169 15.2619 125.246 18.6619 134.449L35.4019 132.935C37.7419 135.181 39.1019 137.863 40.9519 139.743C52.2019 151.173 49.3219 144.088 46.2119 163.593C49.4919 167.214 66.2219 175.22 73.3419 175.982L73.3319 176.012Z" fill="#6AC1AC"/>
<path fill-rule="evenodd" clip-rule="evenodd" d="M78.6618 148.214C80.1718 145.721 83.6218 142.475 85.2218 139.744C90.3418 140.12 94.0118 140.496 99.3918 140.397C99.8518 140.812 99.6518 140.604 100.092 141.149L102.672 144.939C103.642 146.374 105.012 148.145 105.612 149.57C114.532 148.63 119.362 144.879 124.912 142.88L123.772 131.817L126.672 129.422C127.642 128.65 128.202 128.017 129.122 127.245C130.882 125.78 132.502 124.435 133.632 122.475C137.662 122.386 141.332 124.286 145.202 124.217C147.932 120.882 152.972 111.263 153.592 106.206C151.412 104.583 146.942 100.516 145.212 99.675L145.672 85.2171C148.212 83.7525 152.802 80.7936 154.892 78.9233C154.002 70.6107 150.662 64.6732 148.262 60.2992L136.522 61.4768C135.582 59.5075 133.842 57.6471 132.252 56.0638C125.232 49.0476 127.402 53.7382 129.482 40.1413C125.142 37.6277 121.172 35.2131 115.482 33.1844C109.422 31.0271 112.502 31.1162 104.042 40.2996C101.802 40.2798 99.5718 39.8048 97.2518 39.7256C94.8518 39.6366 92.4218 39.7949 90.0418 39.7157C88.5318 38.172 84.6418 32.2146 83.8218 30.5818C76.5518 31.4724 70.2818 34.5698 64.7018 37.4298C64.9118 39.9928 65.8718 45.4454 65.7618 47.5434C65.6618 49.3939 64.3018 49.6314 63.0918 50.5814C60.2218 52.8377 59.9618 53.5106 57.1518 56.044C55.7918 57.271 56.0918 57.944 53.9218 57.6174C50.7818 57.1424 47.3518 56.0539 44.2318 55.8658C41.9218 60.2002 36.5818 67.7211 36.0618 73.9061L44.3118 80.8827C44.3118 80.8827 43.8618 93.3515 43.9418 95.113C42.1718 95.8948 35.9918 99.9323 34.6018 101.179C35.9018 110.105 38.9418 113.569 41.2618 119.863L52.7018 118.824C54.3018 120.357 55.2318 122.188 56.5018 123.475C64.1918 131.283 62.2218 126.443 60.1018 139.773C62.3418 142.247 73.7818 147.72 78.6518 148.244L78.6618 148.214Z" stroke="#005A4D" stroke-width="2" stroke-miterlimit="22.93"/>
<path fill-rule="evenodd" clip-rule="evenodd" d="M120.962 64.7622C121.792 63.931 125.442 61.3284 126.082 60.5169C126.412 60.0914 129.072 56.9841 129.202 56.6971C128.692 56.2518 127.622 55.0643 127.242 54.8169L124.642 56.9148C122.732 58.4091 122.732 58.5278 121.182 60.4674L119.062 63.0305L94.5119 87.2952C93.2419 88.552 90.9519 90.7291 89.8619 91.9067C89.5719 91.7781 89.4019 91.501 89.1419 91.3031C87.7519 90.2343 88.7419 90.5213 86.7919 89.8286C85.6319 89.413 85.8519 89.2744 85.1519 89.977C84.8219 90.3036 84.2119 90.9765 83.8819 91.1942C83.9619 92.5203 83.7219 93.2427 83.1119 94.0739C82.6219 94.737 81.9719 95.3505 81.2919 95.8354C80.5919 96.3401 80.0019 96.825 79.0719 97.201C77.2419 97.9432 78.0419 97.0229 76.6619 98.3885L60.3819 114.469C59.6319 115.212 59.2119 115.311 59.2319 116.884C59.2419 117.923 59.6419 118.873 60.0619 119.615C61.1419 121.545 63.8519 123.989 66.5019 124.009C67.0119 124.009 67.6619 123.969 67.9919 123.722L85.1419 106.721C86.5819 105.296 85.4619 106.533 86.3519 104.356C86.8919 103.05 88.4519 101.149 89.5419 100.368C90.6019 99.6057 90.9319 99.675 92.3619 99.6057L94.1619 97.8146C94.0619 97.4286 93.8919 97.0031 93.7419 96.6073C93.6519 96.35 93.6119 96.2115 93.5219 95.9641C93.2819 95.301 92.1219 94.3609 91.6919 93.7375L120.982 64.7622H120.962Z" fill="#EDEBE8" stroke="#999999" stroke-width="0.57" stroke-miterlimit="22.93"/>
<path fill-rule="evenodd" clip-rule="evenodd" d="M89.8119 91.8771C89.5519 91.7385 89.3819 91.4812 89.1319 91.2932C87.7419 90.2244 88.7319 90.5114 86.7819 89.8187C85.6219 89.4031 85.8419 89.2645 85.1419 89.9671C84.8119 90.2937 84.2019 90.9666 83.8719 91.1843C83.9519 92.5104 83.7119 93.2328 83.1019 94.064C82.6119 94.7271 81.9619 95.3406 81.2819 95.8255C80.5819 96.3302 79.9919 96.8151 79.0619 97.1911C77.2319 97.9333 78.0319 97.013 76.6519 98.3786L60.3719 114.459C59.6219 115.202 59.2019 115.301 59.2219 116.874C59.2319 117.913 59.6319 118.863 60.0519 119.605C61.1319 121.535 63.8419 123.979 66.4919 123.999C67.0019 123.999 67.6519 123.96 67.9819 123.712L85.1319 106.711C86.5719 105.286 85.4519 106.523 86.3419 104.346C86.8819 103.04 88.4419 101.14 89.5319 100.358C90.5919 99.5958 90.9219 99.6651 92.3519 99.5958L94.1519 97.8047C94.0519 97.4187 93.8819 96.9932 93.7319 96.5974C93.6419 96.3401 93.6019 96.2016 93.5119 95.9542C93.2719 95.2911 92.1119 94.351 91.6819 93.7276L91.7219 93.688L89.8119 91.8671V91.8771Z" fill="#666666"/>
<path fill-rule="evenodd" clip-rule="evenodd" d="M64.5719 55.8064C64.3919 55.9548 64.2619 55.9449 64.0119 56.034C63.7819 56.123 63.6619 56.2121 63.5019 56.3209C63.3919 56.7069 63.8719 56.9642 64.1219 57.1522C64.4319 57.3798 64.7319 57.5678 65.0619 57.7756C65.3519 57.9637 66.8319 58.785 66.9419 58.9335C67.3819 59.0819 67.9119 59.4481 68.3019 59.6757C68.9119 60.0319 69.0219 60.0517 69.1519 60.883L69.2819 62.11C69.2819 62.4465 69.3419 63.0205 69.1819 63.2481C69.3119 64.1882 68.6219 65.2669 68.1219 65.6825C67.7619 65.9695 66.4719 66.8799 65.7919 66.8205C65.5219 66.9986 65.1019 67.058 64.8119 66.87C64.6419 66.7611 64.6819 66.771 64.5919 66.6622L64.2419 66.5038C64.1119 66.4247 64.0719 66.3851 63.9719 66.3059C63.0419 65.6033 60.4919 63.5846 59.5019 63.733C59.0519 65.4153 60.8219 67.5033 60.8919 67.9981L63.6319 71.145C64.4319 71.907 64.2619 71.5903 64.7219 71.9466C65.5619 72.3127 66.0819 72.5008 67.0419 72.7383C68.2119 72.9065 69.4219 73.1242 70.6419 73.2726C71.1319 73.332 73.6019 73.6289 74.0019 74.0049C75.5119 73.9357 77.8219 76.5284 78.7819 77.4784C81.4719 80.1404 84.4819 83.0399 87.0919 85.7019C87.4319 86.0482 90.9019 89.5316 91.2619 89.7592L95.3019 85.7612C94.9919 85.2467 93.7019 84.2868 93.2119 83.7524L87.9319 78.6659C87.5919 78.2701 87.2619 78.0029 86.9119 77.6565C86.5519 77.3003 86.1819 77.0232 85.8119 76.657C85.4519 76.3008 85.1619 75.9742 84.8019 75.6378L82.7019 73.6091C81.3719 72.382 79.6419 70.8877 78.8019 69.2549C78.4419 68.8788 77.9119 67.5429 77.7019 66.9096C77.4419 66.0585 76.5619 62.971 76.5619 62.2288C76.5219 62.1892 75.7119 60.121 75.6619 59.9231C75.6219 59.8934 75.0419 58.9335 74.9019 58.7454C74.6319 58.3793 74.3019 57.9637 74.0319 57.6668C72.7619 56.2121 70.3119 55.6777 68.3019 55.5787C66.3119 55.4798 65.1919 55.8064 64.5919 55.7866L64.5719 55.8064Z" fill="#EDEBE8" stroke="#999999" stroke-width="0.57" stroke-miterlimit="22.93"/>
<path fill-rule="evenodd" clip-rule="evenodd" d="M124.672 114.895C125.022 114.905 124.802 115.023 125.222 114.895C125.482 114.816 125.382 114.776 125.702 114.756C125.852 114.558 125.912 114.568 126.162 114.499C127.112 115.617 126.312 115.4 128.072 115.597C128.222 115.983 128.092 116.577 128.332 116.874C128.482 117.062 128.792 117.191 129.012 117.369L129.232 117.577C128.622 118.833 128.682 118.507 129.232 119.754C129.152 119.843 129.202 119.793 129.102 119.882L128.792 120.12C127.822 120.763 128.372 120.862 128.082 121.743C126.222 121.951 127.062 121.842 126.162 122.861L125.722 122.643C125.542 122.584 125.382 122.495 125.232 122.445C124.812 122.327 125.032 122.445 124.672 122.445L124.582 122.525C124.582 122.525 124.502 122.584 124.482 122.594L123.882 122.841C123.482 122.238 123.332 121.921 122.952 121.832C122.872 121.812 122.692 121.802 122.602 121.792C122.392 121.772 122.192 121.743 121.972 121.723C121.832 121.337 121.922 120.694 121.702 120.437C121.582 120.298 120.972 119.902 120.792 119.843L121.132 119.091C121.242 118.764 121.352 118.824 121.242 118.487C121.192 118.339 121.072 118.111 120.982 118.032L120.812 117.567L121.252 117.201C121.422 117.082 121.582 117.022 121.702 116.874C121.942 116.597 121.822 115.973 121.972 115.588C122.722 115.469 122.992 115.588 123.262 115.31C123.402 115.172 123.802 114.598 123.862 114.459C124.112 114.529 124.492 114.697 124.682 114.875L124.672 114.895ZM118.182 118.002C118.342 118.141 118.262 118.042 118.372 118.289C118.422 118.388 118.442 118.457 118.482 118.566C118.582 118.824 118.632 118.962 118.702 119.209C118.802 119.318 119.002 119.882 119.122 120.11C119.752 121.357 120.732 122.574 120.762 122.653C121.272 122.95 121.732 123.455 122.452 123.801C122.762 123.95 123.102 124.098 123.452 124.207C123.792 124.306 124.262 124.365 124.542 124.484H125.582C126.042 124.276 127.532 124.306 129.102 122.663C130.822 120.872 130.592 119.714 130.862 119.081V117.844C130.632 117.359 130.542 116.538 130.222 115.884C130.062 115.568 129.942 115.35 129.772 115.093C129.552 114.776 129.412 114.687 129.232 114.351C128.982 114.262 128.922 114.153 128.652 113.945C128.482 113.806 128.312 113.697 128.102 113.559C127.902 113.44 127.002 112.985 126.942 112.926C126.512 112.827 126.052 112.589 125.622 112.451C125.302 112.342 124.652 112.154 124.422 111.966C124.082 111.966 122.322 111.263 122.152 111.065C121.712 110.877 121.582 110.798 121.212 110.521L112.872 102.565C112.442 102.09 111.342 101.199 110.802 100.655C110.532 100.387 110.412 100.19 110.122 99.9322L108.042 97.953C107.662 97.4978 107.082 97.0327 106.622 96.6369C105.982 96.0728 105.702 95.677 105.302 95.301C104.812 94.8457 104.352 94.4598 103.872 94.0046C103.472 93.6187 102.962 93.0546 102.542 92.6785C102.212 92.3817 100.012 90.3629 99.812 89.9869C99.392 89.8384 98.442 88.6608 97.912 88.2749C97.372 88.6608 93.902 92.1936 93.812 92.3816C94.242 92.6686 113.192 111.52 115.822 114.123C116.402 114.697 116.722 115.014 117.252 115.815C117.472 116.142 118.182 117.567 118.182 117.992V118.002Z" fill="#EDEBE8" stroke="#999999" stroke-width="0.57" stroke-miterlimit="22.93"/>
<path fill-rule="evenodd" clip-rule="evenodd" d="M117.632 69.7399L114.202 80.2493L103.042 80.2295L112.082 86.7014L108.612 97.201L117.632 90.6895L126.642 97.201L123.172 86.7014L132.212 80.2295L121.062 80.2493L117.632 69.7399Z" fill="#B68562"/>
<path fill-rule="evenodd" clip-rule="evenodd" d="M116.152 69.7795L112.722 80.2889L101.562 80.2692L110.602 86.7411L107.132 97.2406L116.152 90.7291L125.162 97.2406L121.702 86.7411L130.742 80.2692L119.582 80.2889L116.152 69.7795Z" fill="#F0D290"/>
<path fill-rule="evenodd" clip-rule="evenodd" d="M117.632 69.7399L116.152 69.7794L117.342 73.431L118.522 72.4711L117.632 69.7399Z" fill="#B68562"/>
<path fill-rule="evenodd" clip-rule="evenodd" d="M123.912 93.4405L125.162 97.2405L126.642 97.201L125.902 94.9546L123.912 93.4405Z" fill="#B68562"/>
<path fill-rule="evenodd" clip-rule="evenodd" d="M107.232 97.1713L108.612 97.201L111.082 95.4197L111.282 94.252L107.232 97.1713Z" fill="#B68562"/>
<path fill-rule="evenodd" clip-rule="evenodd" d="M71.7018 69.3044L68.2718 79.8138L57.1118 79.794L66.1518 86.2659L62.6818 96.7556L71.7018 90.254L80.7118 96.7556L77.2418 86.2659L86.2818 79.794L75.1218 79.8138L71.7018 69.3044Z" fill="#B68562"/>
<path fill-rule="evenodd" clip-rule="evenodd" d="M70.2218 69.344L66.7918 79.8535L55.6318 79.8337L64.6718 86.3056L61.2018 96.8052L70.2218 90.2937L79.2318 96.8052L75.7618 86.3056L84.8018 79.8337L73.6518 79.8535L70.2218 69.344Z" fill="#F0D290"/>
<path fill-rule="evenodd" clip-rule="evenodd" d="M71.7018 69.3044L70.2218 69.3439L71.4118 72.9955L72.5918 72.0356L71.7018 69.3044Z" fill="#B68562"/>
<path fill-rule="evenodd" clip-rule="evenodd" d="M77.9818 93.0051L79.2318 96.8051L80.7118 96.7556L79.9718 94.5191L77.9818 93.0051Z" fill="#B68562"/>
<path fill-rule="evenodd" clip-rule="evenodd" d="M61.3019 96.7358L62.6819 96.7556L65.1419 94.9842L65.3419 93.8165L61.3019 96.7358Z" fill="#B68562"/>
<path fill-rule="evenodd" clip-rule="evenodd" d="M95.7519 65.1085L90.1919 82.1493L72.1119 82.1097L86.7619 92.6092L81.1419 109.62L95.7519 99.0713L110.362 109.62L104.742 92.6092L119.402 82.1097L101.312 82.1493L95.7519 65.1085Z" fill="#F0D290"/>
<path fill-rule="evenodd" clip-rule="evenodd" d="M93.3519 65.1779L87.8019 82.2088L69.7119 82.1791L84.3619 92.6688L78.7419 109.69L93.3519 99.1407L107.972 109.69L102.342 92.6688L117.002 82.1791L98.9119 82.2088L93.3519 65.1779Z" fill="#FFFF66"/>
<path fill-rule="evenodd" clip-rule="evenodd" d="M95.7519 65.1085L93.3519 65.1778L95.2819 71.0956L97.1919 69.532L95.7519 65.1085Z" fill="#F0D290"/>
<path fill-rule="evenodd" clip-rule="evenodd" d="M105.932 103.534L107.972 109.69L110.362 109.62L109.162 105.979L105.932 103.534Z" fill="#F0D290"/>
<path fill-rule="evenodd" clip-rule="evenodd" d="M78.892 109.571L81.142 109.62L85.132 106.741L85.452 104.841L78.892 109.571Z" fill="#F0D290"/>
<path fill-rule="evenodd" clip-rule="evenodd" d="M59.002 196.724C58.082 197.199 56.942 198.238 56.372 198.763C55.992 199.112 57.2687 199.897 60.202 201.118C64.592 202.949 73.382 206.61 77.772 208.441C80.6987 209.661 83.922 210.229 87.442 210.143C92.722 210.014 103.272 209.767 111.932 209.104C120.592 208.441 127.362 207.352 132.472 206.749C137.582 206.145 141.022 206.016 142.752 205.957C143.899 205.917 143.962 205.446 142.942 204.542C141.412 203.186 138.342 200.485 134.932 198.634C131.522 196.783 127.782 195.784 123.012 195.517C118.242 195.25 112.442 195.705 104.052 196.388C95.662 197.07 84.692 197.991 79.232 198.446C73.772 198.901 73.812 198.901 71.752 198.486C69.692 198.07 65.532 197.239 63.092 196.784C60.652 196.328 59.942 196.239 59.012 196.724H59.002Z" fill="#EDEBE8" stroke="#999999" stroke-width="0.57" stroke-miterlimit="22.93"/>
<path fill-rule="evenodd" clip-rule="evenodd" d="M57.702 195.715C55.062 194.893 49.102 193.34 45.302 191.845C41.502 190.351 39.852 188.896 37.422 187.758C34.992 186.62 31.772 185.789 29.452 185.68C27.132 185.571 25.702 186.185 25.152 186.927C24.602 187.669 24.932 188.54 26.632 189.154C28.332 189.767 31.402 190.133 34.012 191.123C36.622 192.123 38.782 193.745 42.252 195.269C45.722 196.793 50.512 198.199 53.052 198.852C55.592 199.505 55.882 199.396 56.272 199.069C56.662 198.743 57.132 198.209 57.592 197.783C58.062 197.357 58.512 197.041 59.082 196.843C59.652 196.635 60.322 196.546 57.682 195.725L57.702 195.715Z" fill="#EDEBE8" stroke="#999999" stroke-width="0.57" stroke-miterlimit="22.93"/>
<path fill-rule="evenodd" clip-rule="evenodd" d="M104.562 194.141C99.2118 192.36 87.5518 188.857 81.2618 186.868C74.9718 184.879 74.0518 184.404 73.3018 184.255C72.5518 184.107 71.9718 184.305 71.0018 184.928C70.0318 185.552 68.6818 186.601 68.4118 187.442C68.1418 188.283 68.9718 188.896 73.0218 190.529C77.0718 192.152 84.3518 194.784 87.9918 196.101C90.4185 196.978 92.3218 197.361 93.7018 197.249C95.7718 197.08 99.9118 196.734 102.632 196.516C105.352 196.299 106.672 196.19 107.812 196.101C108.952 196.012 109.912 195.942 104.562 194.151V194.141Z" fill="#EDEBE8" stroke="#999999" stroke-width="0.57" stroke-miterlimit="22.93"/>
<path fill-rule="evenodd" clip-rule="evenodd" d="M70.352 183.572C68.982 182.603 65.872 180.851 62.512 179.673C59.152 178.486 55.532 177.862 52.132 177.298C48.722 176.734 45.532 176.24 43.282 175.804C41.032 175.369 39.732 174.993 38.892 175.052C38.052 175.111 37.672 175.616 37.782 176.279C37.882 176.942 38.472 177.773 39.952 178.674C41.422 179.565 43.782 180.524 46.952 181.257C50.122 181.989 54.122 182.484 57.402 183.315C60.682 184.146 63.242 185.314 64.962 186.056C66.682 186.798 67.552 187.125 68.072 187.145C68.592 187.175 68.762 186.907 69.192 186.492C69.622 186.076 70.322 185.502 70.852 185.116C71.382 184.73 71.742 184.542 70.372 183.572H70.352Z" fill="#EDEBE8" stroke="#999999" stroke-width="0.57" stroke-miterlimit="22.93"/>
<path fill-rule="evenodd" clip-rule="evenodd" d="M133.882 211.321C135.242 211.677 137.412 212.122 139.122 212.775C140.832 213.428 142.082 214.27 142.862 215.091C143.652 215.912 143.982 216.704 144.172 217.308C144.362 217.911 144.422 218.317 144.342 218.584C144.262 218.841 144.042 218.96 143.892 219.485C143.742 220.009 143.652 220.959 143.752 222.374C143.852 223.779 144.142 225.66 144.772 227.104C145.402 228.549 146.372 229.569 146.972 229.945C147.572 230.321 147.792 230.044 148.002 229.836C148.212 229.628 148.412 229.47 148.732 227.886C149.052 226.293 149.502 223.265 149.122 220.464C148.742 217.664 147.512 215.081 146.002 213.122C144.492 211.162 142.692 209.816 140.612 209.094C138.532 208.372 136.182 208.263 134.662 208.243C133.142 208.233 132.452 208.312 131.882 208.52C131.312 208.728 130.872 209.054 130.812 209.401C130.752 209.747 131.092 210.103 131.522 210.41C131.962 210.717 132.502 210.984 133.852 211.34L133.882 211.321Z" fill="#808080"/>
<path fill-rule="evenodd" clip-rule="evenodd" d="M117.702 211.41C120.842 213.933 127.672 218.94 131.672 221.523C135.672 224.106 136.852 224.274 137.752 224.383C138.652 224.492 139.282 224.531 139.712 224.611C140.132 224.69 140.342 224.818 140.262 224.066C140.182 223.314 139.802 221.691 139.612 220.88C139.485 220.339 138.975 219.861 138.082 219.445C136.732 218.822 134.042 217.575 132.532 216.536C131.022 215.497 130.682 214.665 130.762 213.725C130.842 212.785 131.352 211.746 133.072 211.231C134.792 210.707 137.742 210.707 139.802 211.083C141.862 211.459 143.042 212.211 143.922 212.914C144.802 213.616 145.392 214.289 145.712 214.992C146.032 215.694 146.072 216.447 145.772 217.11C145.482 217.773 144.842 218.356 144.492 218.732C144.132 219.109 144.052 219.277 144.392 220.068C144.732 220.86 145.482 222.275 145.902 223.067C146.322 223.859 146.402 224.027 147.182 223.483C147.962 222.938 149.432 221.691 150.292 220.385C151.152 219.079 151.402 217.703 151.282 216.476C151.152 215.249 150.652 214.17 149.382 212.379C148.112 210.588 146.062 208.104 145.042 206.857C144.362 206.026 143.318 205.683 141.912 205.828C139.802 206.046 135.592 206.471 131.362 206.946C127.122 207.431 122.862 207.956 120.242 208.273C117.622 208.589 116.652 208.688 115.892 208.757C115.132 208.837 114.572 208.886 117.712 211.41H117.702Z" fill="#EDEBE8" stroke="#999999" stroke-width="0.57" stroke-miterlimit="22.93"/>
<path fill-rule="evenodd" clip-rule="evenodd" d="M37.682 176.002C37.322 176.071 36.632 176.744 36.532 177.645C36.432 178.555 36.932 179.703 38.152 180.762C39.372 181.811 41.302 182.771 45.822 184.047C50.342 185.324 57.452 186.907 61.302 187.867C65.162 188.827 65.772 189.154 66.082 189.411C66.402 189.668 66.432 189.866 66.432 190.064C66.432 190.262 66.402 190.49 66.462 190.678C66.522 190.866 66.652 191.034 68.932 192.31C71.202 193.587 75.612 195.982 77.852 197.179C80.092 198.377 80.172 198.367 82.112 198.208C84.052 198.05 87.842 197.733 89.852 197.565C91.862 197.397 92.092 197.377 89.752 196.526C87.412 195.675 82.492 193.973 78.662 192.558C74.832 191.133 72.072 189.985 70.542 189.174C69.012 188.372 68.722 187.907 68.512 187.63C68.302 187.353 68.192 187.254 67.862 187.125C67.542 186.996 67.012 186.848 66.132 186.512C65.252 186.175 64.022 185.66 62.512 185.096C60.992 184.532 59.192 183.929 56.882 183.355C54.572 182.781 51.752 182.227 49.212 181.643C46.672 181.059 44.432 180.426 42.712 179.762C40.992 179.099 39.802 178.397 39.122 177.932C38.432 177.467 38.252 177.249 38.152 176.873C38.052 176.497 38.032 175.953 37.682 176.022V176.002Z" fill="#999999"/>
<path fill-rule="evenodd" clip-rule="evenodd" d="M24.8618 188.026C24.6718 188.293 24.4218 189.134 24.5418 189.856C24.6718 190.579 25.1718 191.172 26.7518 191.786C28.3218 192.399 30.9618 193.033 33.3518 193.953C35.7418 194.883 37.8718 196.11 40.5218 197.367C43.1818 198.624 46.3618 199.92 48.7918 200.781C51.2218 201.642 52.9118 202.088 53.7518 202.483C54.5918 202.879 54.5918 203.226 54.6918 203.552C54.7918 203.879 54.9818 204.195 59.3318 206.382C63.6918 208.569 72.2118 212.627 76.6918 214.675C81.1718 216.724 81.6218 216.753 81.9218 216.753C82.2218 216.753 82.3818 216.724 82.3318 216.348C82.2818 215.972 82.0318 215.249 81.8918 214.537C81.7518 213.824 81.7118 213.131 82.0718 212.409C82.4218 211.687 83.1618 210.925 83.6618 210.549C84.1718 210.173 84.4518 210.173 84.3418 210.173C84.2318 210.173 83.7218 210.153 82.9618 210.024C82.2118 209.896 81.2118 209.668 77.7518 208.312C74.2918 206.966 68.3518 204.502 64.4718 202.879C60.5918 201.256 58.7518 200.484 57.7318 199.99C56.7118 199.495 56.5018 199.277 56.1318 199.198C55.7618 199.119 55.2318 199.168 53.3018 198.703C51.3718 198.228 48.0418 197.239 45.6818 196.447C43.3218 195.655 41.9318 195.061 40.1618 194.201C38.3818 193.35 36.2118 192.241 34.3318 191.469C32.4518 190.697 30.8618 190.272 29.6318 189.945C28.4018 189.619 27.5318 189.391 26.8618 189.144C26.1918 188.896 25.7418 188.639 25.4518 188.352C25.1618 188.065 25.0518 187.768 24.8718 188.035L24.8618 188.026Z" fill="#999999"/>
<path fill-rule="evenodd" clip-rule="evenodd" d="M81.922 216.387C81.922 216.631 82.3986 216.714 83.352 216.635C84.772 216.516 87.622 216.278 92.832 216.12C98.042 215.962 105.612 215.882 109.542 215.833C113.472 215.793 113.772 215.793 114.022 215.665C114.272 215.536 114.482 215.289 114.632 214.131C114.782 212.973 114.872 210.905 114.922 209.866C114.972 208.827 114.972 208.827 110.052 209.054C105.132 209.282 95.282 209.727 90.062 209.935C84.842 210.153 84.252 210.133 83.692 210.499C83.132 210.875 82.602 211.637 82.312 212.369C82.022 213.102 81.962 213.814 81.932 214.537C81.912 215.259 81.922 216.001 81.932 216.367L81.922 216.387Z" fill="#CCCCCC" stroke="#999999" stroke-width="0.57" stroke-miterlimit="22.93"/>
<path fill-rule="evenodd" clip-rule="evenodd" d="M116.072 218.495C118.762 220.544 123.772 224.304 127.672 226.798C131.572 229.291 134.352 230.528 136.472 231.182C138.592 231.835 140.052 231.904 140.822 231.686C141.592 231.469 141.662 230.964 141.522 229.717C141.382 228.47 141.022 226.471 140.762 225.501C140.512 224.522 140.372 224.561 140.302 224.581C140.255 224.594 140.049 224.581 139.682 224.541C139.132 224.482 138.022 224.363 135.962 223.413C133.892 222.463 130.872 220.692 127.542 218.455C124.212 216.219 120.582 213.507 118.402 211.825C116.222 210.153 115.482 209.51 115.132 209.618C114.782 209.727 114.822 210.588 114.772 211.607C114.732 212.627 114.602 213.804 114.472 214.507C114.332 215.21 114.182 215.447 113.882 215.576C113.582 215.714 113.122 215.754 113.072 215.942C113.022 216.13 113.392 216.447 116.082 218.495H116.072Z" fill="#999999"/>
<path fill-rule="evenodd" clip-rule="evenodd" d="M146.322 224.205C146.322 225.204 146.742 227.342 146.952 228.51C147.162 229.687 147.162 229.905 147.342 229.974C147.522 230.044 147.882 229.964 148.632 229.321C149.382 228.678 150.512 227.471 151.232 226.065C151.952 224.65 152.252 223.037 152.192 221.404C152.132 219.772 151.702 218.129 151.462 217.139C151.222 216.16 151.152 215.843 151.132 216.179C151.102 216.516 151.122 217.515 150.742 218.604C150.372 219.692 149.622 220.88 148.962 221.701C148.302 222.533 147.742 223.008 147.242 223.166C146.742 223.334 146.322 223.196 146.312 224.195L146.322 224.205Z" fill="#999999" stroke="#999999" stroke-width="0.57" stroke-miterlimit="22.93"/>
<path fill-rule="evenodd" clip-rule="evenodd" d="M3.03201 202.642C2.46201 203.829 1.62201 206.917 1.22201 208.629C0.822006 210.341 0.862006 210.667 2.19201 211.608C3.52201 212.548 6.13201 214.091 7.54201 214.863C8.95201 215.635 9.16201 215.635 11.022 215.427C12.882 215.22 16.372 214.804 18.392 214.487C20.412 214.171 20.962 213.963 22.312 212.637C23.662 211.301 25.812 208.847 26.882 207.59C27.952 206.343 27.952 206.293 27.322 205.066C26.692 203.839 25.422 201.415 24.692 200.059C23.952 198.703 23.742 198.416 20.922 198.119C18.102 197.823 12.662 197.536 9.95201 197.387C8.13867 197.288 7.34534 197.552 7.57201 198.179C7.91201 199.119 8.58201 200.989 9.17201 202.177C9.76201 203.364 10.272 203.869 10.622 204.176C10.982 204.492 11.192 204.611 10.752 204.68C10.312 204.74 9.21201 204.74 8.16201 204.601C7.11201 204.453 6.10201 204.166 5.44201 203.849C4.79201 203.532 4.49201 203.206 4.20201 202.681C3.91201 202.157 3.61201 201.454 3.04201 202.642H3.03201Z" fill="#CCCCCC" stroke="#666666" stroke-width="0.57" stroke-miterlimit="22.93"/>
<path fill-rule="evenodd" clip-rule="evenodd" d="M21.3919 214.131C22.0319 214.418 23.5119 214.873 25.0619 215.447C26.6119 216.021 28.2219 216.714 29.1119 217.05C30.0019 217.387 30.1719 217.357 30.3519 217.03C30.5319 216.694 30.7219 216.051 31.6419 214.715C32.5619 213.379 34.1919 211.35 35.1819 210.212C36.1719 209.064 36.5019 208.807 36.6919 208.639C36.8719 208.47 36.8919 208.401 35.3719 208.045C33.8519 207.689 30.7819 207.055 29.2419 206.729C28.2152 206.518 27.4019 206.755 26.8019 207.441C25.9019 208.48 24.1019 210.549 23.0019 211.746C21.9119 212.943 21.5319 213.28 21.2419 213.498C20.9519 213.715 20.7419 213.834 21.3819 214.121L21.3919 214.131Z" fill="#CCCCCC" stroke="#666666" stroke-width="0.57" stroke-miterlimit="22.93"/>
<path fill-rule="evenodd" clip-rule="evenodd" d="M30.5218 216.852C30.3518 217.307 30.3518 217.594 33.5918 219.257C36.8318 220.919 43.3018 223.987 49.4718 226.6C55.6418 229.212 61.5018 231.389 64.5418 232.478C67.5818 233.566 67.8018 233.566 69.2618 232.24C70.7218 230.914 73.4218 228.262 75.3218 226.253C77.2318 224.244 78.3418 222.879 78.8918 222.176C79.4418 221.474 79.4218 221.434 79.3718 221.375C79.3118 221.315 79.2218 221.236 72.4018 219C65.5818 216.763 52.0418 212.36 44.9718 210.271C37.9018 208.183 37.3018 208.401 37.0018 208.51C36.8018 208.583 36.5152 208.83 36.1418 209.252C35.5918 209.886 34.4818 211.142 33.5818 212.241C32.6918 213.329 32.0118 214.25 31.5118 215.022C31.0118 215.793 30.6818 216.407 30.5218 216.852Z" fill="#B3B3B3" stroke="#666666" stroke-width="0.57" stroke-miterlimit="22.93"/>
<path fill-rule="evenodd" clip-rule="evenodd" d="M1.22197 211.588C1.10197 211.924 1.30197 212.755 1.62197 213.339C1.95197 213.923 2.40197 214.26 3.64197 214.982C4.88197 215.714 6.91197 216.833 8.23197 217.426C9.56197 218.02 10.182 218.089 12.052 217.852C13.922 217.614 17.032 217.06 18.812 216.793C20.592 216.516 21.052 216.516 21.702 216.575C22.352 216.635 23.192 216.753 24.452 217.218C25.702 217.684 27.372 218.495 28.352 218.97C29.342 219.445 29.652 219.594 29.872 219.534C30.092 219.475 30.212 219.208 30.272 218.762C30.332 218.307 30.342 217.664 30.372 217.317C30.402 216.971 30.452 216.912 30.252 216.922C30.042 216.922 29.582 216.991 28.172 216.575C26.762 216.17 24.422 215.279 23.072 214.725C21.722 214.171 21.362 213.943 21.022 213.893C20.682 213.854 20.362 213.992 18.542 214.289C16.722 214.586 13.412 215.041 11.482 215.239C9.55197 215.437 9.00197 215.368 7.94197 214.893C6.88197 214.418 5.31197 213.517 4.26197 212.894C3.21197 212.271 2.70197 211.934 2.23197 211.677C1.76197 211.42 1.34197 211.251 1.22197 211.578V211.588Z" fill="#666666"/>
<path fill-rule="evenodd" clip-rule="evenodd" d="M18.5319 197.031C15.6619 199.96 10.2919 205.512 7.5319 208.362C4.7619 211.202 4.6019 211.33 4.4819 211.627C4.3719 211.934 4.3119 212.419 4.5019 212.795C4.6819 213.171 5.1019 213.438 5.4119 213.616C5.7119 213.795 5.9019 213.874 7.5119 212.666C9.1219 211.459 12.1519 208.965 13.7119 207.709C15.2719 206.452 15.3519 206.412 15.2319 206.284C15.1019 206.145 14.7719 205.907 14.6919 205.581C14.6119 205.254 14.7919 204.829 14.9419 204.403C15.0919 203.978 15.2019 203.542 16.1919 202.503C17.1819 201.454 19.0519 199.792 20.0319 198.97C21.0219 198.149 21.1219 198.159 21.4319 198.565C21.7419 198.97 22.2719 199.772 22.5319 200.207C22.7919 200.643 22.7919 200.702 21.1019 202.068C19.4119 203.434 16.0419 206.115 13.2519 208.312C10.4719 210.509 8.2719 212.231 7.2519 213.339C6.2319 214.438 6.4019 214.913 6.6819 215.259C6.9619 215.596 7.3619 215.803 7.8019 215.833C8.2419 215.863 8.7219 215.704 11.5619 213.765C14.4019 211.825 19.6019 208.104 22.6319 205.858C25.6619 203.612 26.5219 202.85 26.9019 202.226C27.2819 201.603 27.1719 201.128 26.3819 199.663C25.5819 198.199 24.1019 195.754 23.2819 194.567C22.4619 193.379 22.3219 193.468 22.0519 193.656C21.7919 193.844 21.4119 194.131 18.5419 197.061L18.5319 197.031Z" fill="#EDEBE8" stroke="#666666" stroke-width="0.57" stroke-miterlimit="22.93"/>
<path fill-rule="evenodd" clip-rule="evenodd" d="M18.8819 202.731C18.6919 202.424 18.5919 201.721 18.8619 201.187C19.1419 200.663 19.7919 200.306 20.4619 200.128C21.1319 199.96 21.8219 199.97 22.4219 200.247C23.0319 200.524 23.5519 201.078 23.9419 201.702C24.3319 202.325 24.5719 203.018 24.5619 203.651C24.5519 204.285 24.2819 204.849 23.9719 205.284C23.6519 205.719 23.2919 206.016 22.8719 206.204C22.4519 206.382 21.9619 206.452 21.7719 206.382C21.5719 206.323 21.6619 206.135 21.7719 205.828C21.8719 205.522 21.9919 205.086 21.8919 204.651C21.8019 204.215 21.4919 203.78 21.2019 203.503C20.9119 203.226 20.6319 203.097 20.3819 203.028C20.1319 202.949 19.8919 202.919 19.6319 202.949C19.3719 202.978 19.0819 203.057 18.8819 202.751V202.731Z" fill="#EDEBE8" stroke="#666666" stroke-width="0.57" stroke-miterlimit="22.93"/>
<path fill-rule="evenodd" clip-rule="evenodd" d="M17.722 203.909C17.532 203.602 17.432 202.899 17.702 202.365C17.982 201.84 18.632 201.484 19.302 201.306C19.972 201.138 20.662 201.148 21.262 201.425C21.872 201.702 22.392 202.256 22.782 202.879C23.172 203.503 23.412 204.196 23.402 204.829C23.392 205.462 23.122 206.026 22.812 206.462C22.492 206.897 22.132 207.194 21.712 207.382C21.292 207.56 20.802 207.629 20.612 207.56C20.412 207.501 20.502 207.313 20.612 207.006C20.712 206.699 20.832 206.264 20.732 205.828C20.642 205.393 20.332 204.958 20.042 204.68C19.752 204.403 19.472 204.275 19.222 204.205C18.972 204.126 18.732 204.097 18.472 204.126C18.212 204.156 17.922 204.235 17.722 203.928V203.909Z" fill="#EDEBE8" stroke="#666666" stroke-width="0.57" stroke-miterlimit="22.93"/>
<path fill-rule="evenodd" clip-rule="evenodd" d="M16.182 205.225C15.982 204.918 15.892 204.215 16.162 203.681C16.442 203.156 17.092 202.8 17.762 202.622C18.432 202.454 19.122 202.464 19.722 202.741C20.332 203.018 20.852 203.572 21.242 204.195C21.632 204.819 21.872 205.512 21.862 206.145C21.852 206.778 21.582 207.342 21.272 207.778C20.952 208.213 20.592 208.51 20.172 208.698C19.752 208.876 19.262 208.945 19.072 208.876C18.872 208.817 18.962 208.629 19.072 208.322C19.172 208.015 19.292 207.58 19.192 207.144C19.102 206.709 18.792 206.274 18.502 205.996C18.212 205.719 17.932 205.591 17.682 205.521C17.432 205.442 17.192 205.413 16.932 205.442C16.672 205.472 16.382 205.551 16.182 205.244V205.225Z" fill="#EDEBE8" stroke="#666666" stroke-width="0.57" stroke-miterlimit="22.93"/>
<path fill-rule="evenodd" clip-rule="evenodd" d="M30.522 217.169C30.462 217.248 30.402 217.644 30.292 218.089C30.182 218.535 30.032 219.039 29.952 219.287C29.8986 219.452 30.7953 220.181 32.642 221.474C35.402 223.413 40.932 227.302 47.202 230.667C53.482 234.042 60.512 236.901 64.142 238.326C67.772 239.761 67.9919 239.761 68.0519 239.296C68.1219 238.841 68.022 237.931 68.012 236.822C67.992 235.714 68.052 234.408 67.892 233.774C67.732 233.141 67.3619 233.181 67.0219 233.171C66.6819 233.151 66.372 233.082 63.102 231.825C59.832 230.568 53.592 228.134 48.432 225.976C43.282 223.819 39.212 221.939 36.612 220.702C34.012 219.465 32.882 218.871 32.232 218.515C31.572 218.159 31.392 218.04 31.212 217.921C31.042 217.802 30.872 217.674 30.762 217.496C30.642 217.317 30.582 217.09 30.522 217.169Z" fill="#666666"/>
<path fill-rule="evenodd" clip-rule="evenodd" d="M67.5419 239.316C67.6219 239.563 67.7019 239.573 69.3219 240.197C70.9419 240.81 74.0919 242.037 76.7019 242.74C79.3119 243.433 81.3719 243.601 83.4319 243.334C85.4919 243.066 87.5519 242.354 88.8319 241.295C90.1119 240.236 90.6219 238.821 90.9019 237.505C91.1819 236.199 91.2519 234.991 91.2419 234.101C91.2319 233.22 91.1519 232.656 90.9519 233.101C90.7519 233.547 90.4319 235.001 89.7319 236.12C89.0319 237.228 87.9319 238 86.9119 238.406C85.8919 238.811 84.9419 238.851 82.6919 238.485C80.4419 238.119 76.8919 237.347 73.7919 236.317C70.7019 235.288 68.0619 233.992 66.6819 233.329C65.3019 232.656 65.1819 232.616 65.1119 232.785C65.0419 232.953 65.0219 233.339 65.3219 234.091C65.6219 234.843 66.2319 235.971 66.6019 236.694C66.9819 237.426 67.1319 237.752 67.2419 238.168C67.3619 238.584 67.4519 239.069 67.5319 239.326L67.5419 239.316Z" fill="#666666"/>
<path fill-rule="evenodd" clip-rule="evenodd" d="M68.4619 232.419C69.7519 231.399 71.8919 229.489 73.7119 227.718C75.5319 225.947 77.0319 224.284 77.9219 223.255C78.8119 222.226 79.0819 221.81 79.3319 221.662C79.5819 221.523 79.7919 221.662 79.9419 222.473C80.0919 223.295 80.1719 224.809 80.1419 225.689C80.1219 226.57 79.9919 226.818 78.6419 228.629C77.2919 230.439 74.7119 233.804 73.2919 235.833C71.8719 237.861 71.6019 238.554 71.2719 238.92C70.9419 239.286 70.5619 239.316 69.8519 238.752C69.1419 238.188 68.0919 237.04 67.3719 236.209C66.6519 235.378 66.2719 234.853 66.1519 234.497C66.0319 234.131 66.1719 233.933 66.4619 233.755C66.7519 233.576 67.1819 233.438 68.4619 232.419Z" fill="#666666"/>
<path fill-rule="evenodd" clip-rule="evenodd" d="M76.8019 225.996C77.3519 225.64 77.7919 225.432 78.4819 225.452C79.1719 225.472 80.1219 225.719 81.2519 225.858C82.3719 225.996 83.6819 226.016 85.1619 226.382C86.6419 226.748 88.3019 227.471 89.3719 228.332C90.4419 229.193 90.9319 230.202 91.1419 231.192C91.3519 232.181 91.2919 233.141 90.9919 234.121C90.6919 235.1 90.1419 236.09 89.4519 236.911C88.7719 237.733 87.9519 238.376 86.6119 238.811C85.2719 239.247 83.4119 239.465 81.3819 239.178C79.3519 238.891 77.1519 238.079 75.9519 237.555C74.7519 237.03 74.5519 236.773 73.8319 236.417C73.1119 236.06 71.8719 235.605 71.0019 235.269C70.1319 234.932 69.6319 234.715 69.4019 234.418C69.1619 234.121 69.1919 233.735 70.1619 232.547C71.1319 231.36 73.0419 229.361 74.3319 228.114C75.6119 226.867 76.2619 226.362 76.8119 226.016L76.8019 225.996Z" fill="#CCCCCC" stroke="#666666" stroke-width="0.57" stroke-miterlimit="22.93"/>
<path fill-rule="evenodd" clip-rule="evenodd" d="M82.902 227.599C79.262 227.599 76.322 229.588 76.322 232.052C76.322 234.516 79.272 236.505 82.902 236.505C86.532 236.505 89.482 234.516 89.482 232.052C89.482 229.588 86.532 227.599 82.902 227.599ZM82.262 231.657C84.412 231.657 86.162 232.715 86.162 234.032C86.162 235.348 84.422 236.407 82.262 236.407C80.102 236.407 78.362 235.348 78.362 234.032C78.362 232.715 80.102 231.657 82.262 231.657Z" fill="#666666" stroke="#666666" stroke-width="0.57" stroke-miterlimit="22.93"/>
<path fill-rule="evenodd" clip-rule="evenodd" d="M82.2518 236.397C84.4018 236.397 86.1518 235.328 86.1518 234.022C86.1518 232.715 84.4018 231.647 82.2518 231.647C80.1018 231.647 78.3518 232.715 78.3518 234.022C78.3518 235.328 80.1018 236.397 82.2518 236.397Z" stroke="#666666" stroke-width="0.57" stroke-miterlimit="22.93"/>
</svg>
