<svg width="215" height="231" viewBox="0 0 215 231" fill="none" xmlns="http://www.w3.org/2000/svg">
<path fill-rule="evenodd" clip-rule="evenodd" d="M130.897 104.233C146.276 96.7277 156.952 80.3042 156.952 61.246C156.952 35.0984 136.862 13.9081 112.068 13.9081C87.2743 13.9081 67.1836 38.9551 67.1836 61.246C67.1836 83.5369 77.1676 95.653 91.7496 103.47C91.7145 106.105 91.6795 108.74 91.662 110.057C91.6503 110.935 90.9351 111.337 89.5163 111.262C87.3881 111.149 83.1318 110.932 80.9948 110.82C79.5761 110.745 78.8462 111.892 78.8054 114.261C78.7441 117.814 78.6214 124.929 78.5601 128.483C78.5193 130.852 79.1732 132.071 80.5219 132.14C82.545 132.244 86.5912 132.452 88.6668 132.556C90.7424 132.66 90.8563 132.66 91.084 134.879C91.3117 137.097 91.6445 141.535 91.8109 143.753C91.9218 145.233 92.278 146.082 92.8793 146.302C93.7727 146.631 95.568 147.298 96.5226 147.688C97.4773 148.078 97.5911 148.191 96.8029 149.075C96.0147 149.959 94.3419 151.623 93.5012 152.455C92.9407 153.01 93.1392 153.723 94.0967 154.596C95.533 155.904 98.4144 158.513 99.8507 159.822C100.808 160.694 101.293 161.434 101.304 162.04C101.322 162.95 101.366 164.779 101.383 165.741C101.401 166.712 101.401 166.816 99.9995 167.596C98.5983 168.376 95.7957 169.814 94.3945 170.534C93.4603 171.013 93.4778 171.458 94.447 171.868C95.9008 172.475 98.8172 173.697 100.271 174.312C101.24 174.717 101.725 175.511 101.725 176.696V183.794C101.725 184.978 101.258 185.701 100.324 185.961C98.9223 186.351 96.1198 187.122 94.7185 187.512C93.7843 187.772 93.3552 188.474 93.4311 189.618C93.545 191.334 93.7639 194.775 93.8777 196.491C93.9537 197.635 94.4762 198.337 95.4454 198.597C96.8992 198.987 99.8156 199.758 101.269 200.148C102.239 200.408 102.744 201.038 102.785 202.037C102.837 203.537 102.951 206.527 103.012 208.026C103.047 209.026 102.75 209.635 102.119 209.855C101.164 210.184 99.2639 210.852 98.3093 211.19C97.6729 211.409 98.4757 212.628 100.718 214.847C104.081 218.175 110.807 224.831 114.17 228.159C116.412 230.378 118.412 230.693 120.169 229.104C122.805 226.72 128.069 221.954 130.819 219.51C133.569 217.066 133.788 216.962 133.385 198.129C132.982 179.305 131.94 141.76 131.423 122.997L130.906 104.224L130.897 104.233ZM110.57 32.2817C122.157 32.2817 131.546 45.3511 131.546 61.4626C131.546 77.5741 122.157 90.6436 110.57 90.6436C98.9836 90.6436 89.5951 77.5741 89.5951 61.4626C89.5951 45.3511 98.9836 32.2817 110.57 32.2817Z" fill="#666666" stroke="black" stroke-width="0.57" stroke-miterlimit="22.93"/>
<path fill-rule="evenodd" clip-rule="evenodd" d="M136.897 104.268C152.276 96.7624 162.952 80.3389 162.952 61.2807C162.952 35.133 142.861 13.9428 118.067 13.9428C93.2735 13.9428 73.1829 38.9898 73.1829 61.2807C73.1829 83.5716 83.1669 95.6877 97.7488 103.505C97.7138 106.14 97.6788 108.774 97.6613 110.092C97.6496 110.97 96.9344 111.372 95.5156 111.297C93.3874 111.184 89.131 110.967 86.9941 110.855C85.5753 110.779 84.8455 111.926 84.8046 114.295C84.7433 117.849 84.6207 124.964 84.5594 128.517C84.5185 130.886 85.1725 132.105 86.5212 132.175C88.5443 132.279 92.5904 132.487 94.6661 132.591C96.7417 132.695 96.8555 132.695 97.0832 134.913C97.3109 137.132 97.6438 141.57 97.8102 143.788C97.9211 145.267 98.2772 146.117 98.8786 146.336C99.7719 146.666 101.567 147.333 102.522 147.723C103.477 148.113 103.59 148.226 102.802 149.11C102.014 149.994 100.341 151.658 99.5004 152.49C98.9399 153.044 99.1384 153.758 100.096 154.63C101.532 155.939 104.414 158.548 105.85 159.856C106.807 160.729 107.292 161.468 107.304 162.075C107.321 162.985 107.365 164.814 107.383 165.776C107.4 166.746 107.4 166.85 105.999 167.63C104.598 168.41 101.795 169.849 100.394 170.568C99.4596 171.048 99.4771 171.493 100.446 171.903C101.9 172.51 104.816 173.732 106.27 174.347C107.24 174.752 107.724 175.546 107.724 176.731V183.829C107.724 185.013 107.257 185.735 106.323 185.995C104.922 186.385 102.119 187.157 100.718 187.547C99.7836 187.807 99.3545 188.509 99.4304 189.653C99.5442 191.369 99.7632 194.809 99.877 196.525C99.9529 197.669 100.475 198.371 101.445 198.631C102.899 199.021 105.815 199.793 107.269 200.183C108.238 200.443 108.743 201.073 108.784 202.072C108.836 203.572 108.95 206.562 109.012 208.061C109.047 209.06 108.749 209.67 108.118 209.89C107.164 210.219 105.263 210.886 104.309 211.224C103.672 211.444 104.475 212.663 106.717 214.882C110.08 218.21 116.806 224.866 120.169 228.194C122.411 230.412 124.411 230.727 126.168 229.138C128.804 226.755 134.068 221.988 136.818 219.544C139.568 217.1 139.787 216.996 139.384 198.172C138.981 179.348 137.939 141.804 137.422 123.04L136.906 104.268H136.897ZM116.57 32.3164C128.156 32.3164 137.545 45.3858 137.545 61.4973C137.545 77.6088 128.156 90.6783 116.57 90.6783C104.983 90.6783 95.5944 77.6088 95.5944 61.4973C95.5944 45.3858 104.983 32.3164 116.57 32.3164Z" fill="#CCCCCC" stroke="black" stroke-width="0.57" stroke-miterlimit="22.93"/>
<path fill-rule="evenodd" clip-rule="evenodd" d="M105.911 102.994C105.938 103.678 106.078 105.126 106.139 105.854C106.186 106.333 107.169 106.57 109.09 106.564C111.981 106.547 117.752 106.521 120.651 106.504C123.55 106.486 123.585 106.486 123.637 105.828C123.681 105.169 123.751 103.852 123.777 103.193C123.801 102.754 123.815 102.54 123.821 102.552C123.821 102.552 123.865 102.595 122.376 102.933C120.887 103.262 117.875 103.895 114.888 103.869C111.91 103.843 108.959 103.15 107.453 102.777C105.946 102.396 105.867 102.326 105.903 103.011L105.911 102.994Z" fill="#666666"/>
<path fill-rule="evenodd" clip-rule="evenodd" d="M104.09 133.709C104.002 129.436 104.054 122.754 104.151 119.27C104.247 115.786 104.396 115.5 108.179 115.5C111.963 115.5 119.398 115.786 123.112 115.933C125.587 116.026 126.907 121.468 127.07 132.261C127.316 148.451 127.797 180.83 127.964 197.609C128.13 214.396 127.99 215.584 127.675 216.112C127.359 216.641 126.878 216.494 126.151 200.521C125.424 184.548 124.46 152.741 123.83 136.551C123.199 120.362 122.91 119.79 122.525 119.435C122.14 119.079 121.658 118.932 119.127 118.811C116.596 118.689 112.007 118.594 109.528 118.646C107.041 118.689 106.656 118.889 106.367 119.175C106.078 119.461 105.885 119.842 105.605 123.612C105.333 127.382 104.974 134.532 104.685 137.184C104.396 139.836 104.177 137.981 104.09 133.717V133.709Z" fill="#666666"/>
<path fill-rule="evenodd" clip-rule="evenodd" d="M114.205 137.262C114.415 152.94 115.011 182.841 115.387 198.129C115.764 213.417 115.939 214.084 116.193 214.5C116.447 214.916 116.78 215.081 116.701 204.395C116.613 193.7 116.114 172.154 115.939 157.664C115.773 143.173 115.939 135.737 115.729 130.415C115.519 125.094 114.923 121.879 114.547 121.003C114.17 120.128 113.995 121.584 114.214 137.262H114.205Z" fill="#666666"/>
<path fill-rule="evenodd" clip-rule="evenodd" d="M15.477 0.0673047L83.3334 26.1369C78.2713 31.1376 71.0285 41.1217 68.9003 49.2598L13.6115 28.0176C13.6115 27.8789 7.69116 24.0482 7.69116 13.4488C7.69116 10.5281 9.65294 -0.981373 15.477 0.0673047ZM107.269 35.341L209.088 74.4628V103.132L95.6645 59.5473C95.9711 48.8785 99.807 41.3211 107.269 35.3323V35.341Z" fill="#6AC1AC"/>
<path fill-rule="evenodd" clip-rule="evenodd" d="M209.08 103.401C212.337 103.401 215 96.953 215 89.0489C215 81.1448 212.337 74.6968 209.08 74.6968C205.822 74.6968 203.159 81.1448 203.159 89.0489C203.159 96.953 205.822 103.401 209.08 103.401Z" fill="#005A4D"/>
<path d="M17.7102 29.5949C12.4992 17.5308 13.1823 8.23139 19.742 1.70532" stroke="#005A4D" stroke-width="0.57" stroke-miterlimit="22.93"/>
<path d="M202.082 72.2267C193.561 75.5548 192.764 95.8263 199.928 100.073" stroke="#005A4D" stroke-width="0.57" stroke-miterlimit="22.93"/>
<path fill-rule="evenodd" clip-rule="evenodd" d="M107.987 63.5253C120.151 72.2267 144.621 89.7423 157.346 98.8684C170.072 107.986 171.044 108.714 171.525 109.312C172.016 109.91 172.016 110.395 170.974 111.66C169.94 112.926 167.873 114.971 166.77 116.237C165.675 117.502 165.553 117.987 153.913 109.676C142.283 101.373 119.127 84.2822 107.558 75.7368C99.8389 70.0398 95.9592 66.8765 95.9183 66.2467C95.8482 65.2933 95.7169 63.3953 95.6731 61.9566C95.6205 60.5179 95.6643 59.5213 95.7431 58.4553C95.822 57.3806 95.9533 56.2192 95.9533 55.5866C95.9533 54.9452 95.8132 54.8326 107.978 63.534L107.987 63.5253Z" fill="#005A4D"/>
<path fill-rule="evenodd" clip-rule="evenodd" d="M166.201 117.294C166.963 118.013 169.143 119.287 169.546 119.409C169.949 119.53 168.557 118.507 167.803 117.779C167.05 117.06 166.919 116.644 167.348 116.661C167.777 116.679 168.776 117.129 169.117 117.077C169.459 117.025 169.143 116.479 168.977 116.15C168.802 115.821 168.767 115.725 170.221 116.393C171.674 117.06 174.617 118.499 176.281 119.339C177.945 120.18 178.322 120.414 177.131 119.443C175.94 118.464 173.163 116.271 171.876 114.772C170.588 113.273 170.781 112.458 171.237 112.337C171.683 112.215 172.393 112.787 173.768 113.619C175.143 114.451 177.183 115.552 176.955 115.075C176.728 114.607 174.232 112.571 172.988 111.409C171.744 110.257 171.771 109.979 171.779 109.849C171.785 109.757 171.704 109.866 171.534 110.178C171.272 110.647 170.755 111.574 170.098 112.467C169.441 113.359 168.644 114.209 168.066 114.824C167.488 115.439 167.138 115.829 166.621 116.107C166.113 116.384 165.439 116.557 166.201 117.277V117.294Z" fill="#0C0C17"/>
<path fill-rule="evenodd" clip-rule="evenodd" d="M62.8047 44.3285C54.9576 43.9211 39.3072 43.0024 30.3828 42.8204C21.4497 42.6298 19.2427 43.1844 17.9553 43.6785C16.6679 44.1811 16.3001 44.6318 15.652 45.6371C15.0039 46.6425 14.0843 48.1852 13.7603 56.3059C13.4362 64.418 13.7165 79.0995 13.9442 86.7089C14.1719 94.3183 14.3558 94.873 14.9076 95.3237C15.4593 95.783 16.3789 96.147 17.2547 96.0083C18.1305 95.8697 18.9625 95.237 19.6982 95.0983C20.4338 94.9597 21.0819 95.3237 21.4497 95.055C21.8176 94.7777 21.9139 93.8677 21.8176 87.0816C21.73 80.2868 21.4497 67.616 21.406 60.7346C21.3622 53.8532 21.5461 52.7612 21.8701 52.0245C22.1942 51.2965 22.6496 50.9325 30.4179 50.9499C38.1861 50.9672 53.2585 51.3745 60.7816 51.6519C68.3047 51.9292 68.2696 52.0765 68.366 51.6519C68.4623 51.2359 68.6812 50.2479 69.1016 48.9652C69.522 47.6825 70.1351 46.0965 70.4153 45.3598C70.7043 44.6231 70.6605 44.7358 62.8134 44.3285H62.8047Z" fill="#005A4D"/>
<path fill-rule="evenodd" clip-rule="evenodd" d="M23.1051 87.8183H12.3942C10.8878 90.1583 3.29468 99.3191 3.29468 99.9517V116.956C3.29468 118.897 4.89738 120.483 6.85915 120.483H28.3686C30.3304 120.483 31.9331 118.897 31.9331 116.956V99.9517C31.9331 99.4404 24.5414 90.1843 23.0963 87.8183H23.1051Z" fill="#6AC1AC" stroke="#005A4D" stroke-width="0.57" stroke-miterlimit="22.93"/>
<path d="M20.1272 81.5175H15.3892C14.18 81.5175 13.1997 82.4876 13.1997 83.6842V90.8256C13.1997 92.0222 14.18 92.9923 15.3892 92.9923H20.1272C21.3364 92.9923 22.3167 92.0222 22.3167 90.8256V83.6842C22.3167 82.4876 21.3364 81.5175 20.1272 81.5175Z" fill="#6AC1AC" stroke="#005A4D" stroke-width="0.57" stroke-miterlimit="22.93"/>
<path d="M9.36379 117.199H7.44581C6.53647 117.199 5.79932 117.928 5.79932 118.828V131.594C5.79932 132.494 6.53647 133.223 7.44581 133.223H9.36379C10.2731 133.223 11.0103 132.494 11.0103 131.594V118.828C11.0103 117.928 10.2731 117.199 9.36379 117.199Z" fill="#999999"/>
<path d="M27.6504 117.103H25.7324C24.8231 117.103 24.0859 117.833 24.0859 118.733V131.499C24.0859 132.399 24.8231 133.128 25.7324 133.128H27.6504C28.5597 133.128 29.2969 132.399 29.2969 131.499V118.733C29.2969 117.833 28.5597 117.103 27.6504 117.103Z" fill="#999999"/>
<path d="M14.0493 115.422H2.09474C1.49013 115.422 1 115.907 1 116.505V121.099C1 121.697 1.49013 122.182 2.09474 122.182H14.0493C14.6539 122.182 15.1441 121.697 15.1441 121.099V116.505C15.1441 115.907 14.6539 115.422 14.0493 115.422Z" fill="#6AC1AC" stroke="#005A4D" stroke-width="0.57" stroke-miterlimit="22.93"/>
<path d="M33.2378 115.309H21.2832C20.6786 115.309 20.1885 115.794 20.1885 116.393V120.986C20.1885 121.584 20.6786 122.069 21.2832 122.069H33.2378C33.8424 122.069 34.3325 121.584 34.3325 120.986V116.393C34.3325 115.794 33.8424 115.309 33.2378 115.309Z" fill="#6AC1AC" stroke="#005A4D" stroke-width="0.57" stroke-miterlimit="22.93"/>
<path fill-rule="evenodd" clip-rule="evenodd" d="M13.051 97.343H22.1943C22.5008 97.343 22.746 97.5857 22.746 97.889C22.746 98.1924 22.5008 98.435 22.1943 98.435H13.051C12.7445 98.435 12.4993 98.1924 12.4993 97.889C12.4993 97.5857 12.7445 97.343 13.051 97.343Z" fill="#005A4D"/>
<path fill-rule="evenodd" clip-rule="evenodd" d="M13.0859 100.151H22.2292C22.5357 100.151 22.781 100.394 22.781 100.697C22.781 101 22.5357 101.243 22.2292 101.243H13.0859C12.7794 101.243 12.5342 101 12.5342 100.697C12.5342 100.394 12.7794 100.151 13.0859 100.151Z" fill="#005A4D"/>
</svg>
