<svg width="249" height="182" viewBox="0 0 249 182" fill="none" xmlns="http://www.w3.org/2000/svg">
<path fill-rule="evenodd" clip-rule="evenodd" d="M238.266 28.9123L11.2552 0.640182C6.45554 0.0430747 2.5884 3.5081 2.65239 8.33924L4.53569 143.068C4.59969 147.899 8.5857 152.342 13.3854 152.939L240.396 181.211C245.196 181.808 249.063 178.343 248.999 173.512L247.116 38.7827C247.052 33.9515 243.066 29.5094 238.266 28.9123Z" fill="#005A4D"/>
<path fill-rule="evenodd" clip-rule="evenodd" d="M230.322 32.7121L8.32965 5.06421C3.68539 4.4852 -0.0720881 7.84166 0.00104989 12.519L1.82038 142.996C1.88437 147.673 5.74239 151.98 10.3867 152.559L232.379 180.207C237.023 180.786 240.771 177.429 240.707 172.752L238.888 42.2748C238.824 37.5975 234.966 33.2911 230.322 32.7121Z" fill="#6AC1AC"/>
<path fill-rule="evenodd" clip-rule="evenodd" d="M204.531 29.5004C212.019 26.2886 217.769 25.6463 221.353 26.8043C221.545 25.4835 220.101 25.3749 209.934 23.7645C200.116 22.4346 195.206 21.7651 195.206 21.7651C192.518 21.2494 186.585 22.5251 177.397 25.592C176.958 25.8272 176.684 26.3158 176.565 27.0576C177.991 69.3708 178.704 90.5229 178.704 90.5229C195.782 92.9837 204.321 94.2141 204.321 94.2141C202.822 53.3123 202.072 32.8659 202.072 32.8659C202.237 30.8665 203.187 30.1156 204.522 29.5004H204.531Z" fill="#EDEBE8"/>
<path fill-rule="evenodd" clip-rule="evenodd" d="M193.615 136.844C187.673 133.189 184.702 131.361 184.702 131.361C173.786 155.969 168.319 168.282 168.319 168.282C172.753 166.799 174.974 166.066 174.974 166.066C176.51 171.358 177.461 173.846 177.818 173.539C188.34 149.085 193.606 136.862 193.606 136.862L193.615 136.844Z" fill="#EDEBE8"/>
<path fill-rule="evenodd" clip-rule="evenodd" d="M191.001 136.373C196.861 134.184 199.787 133.089 199.787 133.089C211.434 160.511 217.257 174.226 217.257 174.226C212.759 171.63 210.51 170.336 210.51 170.336C209.121 175.258 208.234 177.52 207.859 177.122C196.614 149.953 190.992 136.373 190.992 136.373H191.001Z" fill="#EDEBE8"/>
<path fill-rule="evenodd" clip-rule="evenodd" d="M162.806 122.676C159.935 129.29 162.331 133.243 169.974 134.537C169.361 142.86 172.469 145.393 179.299 142.118C182.124 149.655 186.21 151.03 191.549 146.244C196.806 151.735 200.253 151.545 201.889 145.683C209.203 149.076 212.631 147.348 212.174 140.49C219.57 141.395 221.993 138.083 219.424 130.538C225.083 128.457 225.805 124.558 221.591 118.831C225.376 113.602 224.617 109.703 219.323 107.133L162.797 122.676H162.806ZM219.333 107.133L162.806 122.676C155.812 120.08 155.09 116.262 160.63 111.241C155.419 106.464 155.968 103.017 162.276 100.882C159.058 93.3003 161.133 89.9981 168.52 90.9752C168.749 83.249 172.177 81.1953 178.814 84.8142C180.542 79.2773 184.491 78.9426 190.672 83.828C196.12 80.0102 200.216 81.3853 202.941 87.9625C209.806 86.8588 213.152 89.6543 212.97 96.3673C219.598 97.2629 221.719 100.855 219.323 107.133H219.333ZM190.681 83.828C203.571 85.4294 214.716 95.0012 219.333 107.133C220.741 110.843 221.545 114.796 221.6 118.831C221.838 136.066 208.389 148.343 191.549 146.244C178.567 144.624 167.359 134.935 162.806 122.676C161.453 119.039 160.685 115.176 160.63 111.241C160.393 94.006 173.841 81.7291 190.681 83.828Z" fill="#005A4D"/>
<path fill-rule="evenodd" clip-rule="evenodd" d="M162.806 122.676C159.935 129.29 162.331 133.243 169.974 134.537C169.361 142.86 172.469 145.393 179.299 142.118C182.124 149.655 186.21 151.03 191.549 146.244C196.806 151.735 200.253 151.545 201.889 145.683C209.203 149.076 212.631 147.348 212.174 140.49C219.57 141.395 221.993 138.083 219.424 130.538C225.083 128.457 225.805 124.558 221.591 118.831C225.376 113.602 224.617 109.703 219.323 107.133M219.323 107.133C221.719 100.855 219.598 97.2629 212.97 96.3673C213.152 89.6634 209.806 86.8588 202.941 87.9625C200.216 81.3853 196.12 80.0102 190.672 83.828C184.491 78.9426 180.533 79.2773 178.814 84.8142C172.177 81.1953 168.749 83.249 168.52 90.9752C161.142 90.0072 159.058 93.3094 162.276 100.882C155.968 103.008 155.419 106.464 160.63 111.241C155.09 116.271 155.812 120.08 162.806 122.676M190.681 83.819C173.841 81.7201 160.393 93.9969 160.63 111.232C160.685 115.176 161.453 119.039 162.806 122.667C167.359 134.926 178.567 144.615 191.549 146.235C208.389 148.334 221.838 136.057 221.6 118.822C221.545 114.787 220.741 110.834 219.333 107.124C214.716 94.9921 203.58 85.4203 190.681 83.819Z" stroke="#005A4D" stroke-width="0.57" stroke-miterlimit="22.93"/>
<path fill-rule="evenodd" clip-rule="evenodd" d="M190.434 83.9457C173.649 81.8558 160.228 94.0965 160.475 111.295C160.713 128.493 174.517 144.127 191.303 146.217C208.088 148.307 221.509 136.066 221.262 118.867C221.024 101.669 207.219 86.0355 190.434 83.9457Z" fill="#005A4D" stroke="#005A4D" stroke-width="0.57" stroke-miterlimit="22.93"/>
<path fill-rule="evenodd" clip-rule="evenodd" d="M168.209 121.093C165.869 126.494 167.816 129.724 174.07 130.782C173.567 137.586 176.108 139.649 181.685 136.971C183.998 143.123 187.326 144.244 191.687 140.336C195.984 144.823 198.799 144.67 200.134 139.875C206.104 142.652 208.902 141.232 208.536 135.632C214.579 136.373 216.554 133.668 214.46 127.507C219.077 125.806 219.671 122.622 216.224 117.945C219.315 113.674 218.693 110.49 214.369 108.391L168.209 121.084V121.093ZM214.369 108.4L168.209 121.093C162.495 118.967 161.91 115.855 166.436 111.747C162.175 107.848 162.633 105.025 167.78 103.288C165.147 97.1001 166.847 94.4041 172.881 95.2002C173.064 88.8944 175.871 87.2117 181.292 90.161C182.7 85.6375 185.927 85.3661 190.983 89.3558C195.435 86.2346 198.772 87.3655 201.003 92.7304C206.607 91.8257 209.34 94.1146 209.194 99.5881C214.606 100.321 216.334 103.252 214.378 108.382L214.369 108.4ZM190.974 89.3649C201.505 90.6767 210.602 98.4934 214.369 108.4C215.52 111.431 216.179 114.66 216.224 117.954C216.416 132.031 205.437 142.055 191.687 140.345C181.082 139.024 171.93 131.108 168.209 121.102C167.103 118.135 166.481 114.977 166.436 111.756C166.244 97.6791 177.224 87.655 190.974 89.3649Z" fill="#F0D290"/>
<path d="M168.209 121.093C165.869 126.494 167.816 129.724 174.069 130.783C173.567 137.586 176.108 139.649 181.685 136.971C183.998 143.123 187.326 144.245 191.687 140.336C195.983 144.824 198.799 144.67 200.134 139.875C206.104 142.652 208.901 141.232 208.536 135.632C214.579 136.374 216.553 133.669 214.46 127.508C219.077 125.807 219.671 122.622 216.224 117.945C219.314 113.675 218.693 110.49 214.368 108.391C216.325 103.261 214.597 100.33 209.185 99.5974C209.331 94.1239 206.598 91.835 200.993 92.7397C198.763 87.3658 195.426 86.2439 190.973 89.3652C185.927 85.3754 182.7 85.6468 181.283 90.1704C175.861 87.221 173.064 88.8947 172.872 95.2096C166.847 94.4135 165.147 97.1095 167.77 103.298C162.614 105.035 162.166 107.857 166.427 111.757C161.901 115.864 162.495 118.976 168.2 121.102M190.964 89.3742C177.214 87.6643 166.225 97.6885 166.427 111.766C166.472 114.987 167.103 118.135 168.2 121.111C171.921 131.117 181.072 139.034 191.677 140.355C205.427 142.064 216.416 132.04 216.215 117.963C216.169 114.67 215.511 111.44 214.359 108.409C210.593 98.5027 201.496 90.6861 190.964 89.3742Z" stroke="#F0D290" stroke-width="0.57" stroke-miterlimit="22.93"/>
<path fill-rule="evenodd" clip-rule="evenodd" d="M190.772 89.4644C177.059 87.7545 166.107 97.7605 166.299 111.802C166.49 125.843 177.772 138.617 191.476 140.318C205.19 142.028 216.142 132.022 215.95 117.981C215.758 103.94 204.476 91.1652 190.772 89.4644Z" fill="#F0D290" stroke="#F0D290" stroke-width="0.57" stroke-miterlimit="22.93"/>
<path fill-rule="evenodd" clip-rule="evenodd" d="M38.0328 66.1229L38.8373 70.5107L35.5278 80.2454C35.3541 82.0548 34.6136 82.1181 36.7894 84.3618C41.2052 88.9125 41.1869 89.6634 43.4724 88.0621C44.6426 87.2388 45.6209 86.5512 46.6174 85.6736C47.9796 84.4704 48.2812 84.4071 47.815 81.7925C47.7876 81.6567 47.7693 81.521 47.7418 81.3853L44.3318 71.3159L45.0357 67.0005L38.0236 66.1229H38.0328ZM26.989 41.9853C27.9763 40.8002 27.894 39.226 31.7155 36.6566C32.6206 36.0504 33.9462 35.5076 35.0981 35.1729C37.1734 34.5667 38.9744 34.8381 39.4773 34.6934L41.8085 34.9829C42.9696 35.6071 47.1476 35.7428 51.4079 40.5468C53.4009 42.7996 55.915 46.545 55.9699 50.6886L55.9973 52.5342L55.9607 54.4341C55.6682 54.6603 55.7596 54.8322 55.6499 55.2845C55.5676 55.6193 55.467 55.9269 55.3573 56.2616C55.1105 56.9854 54.8271 57.5011 54.6259 58.1615C54.4797 58.2701 53.8854 59.3467 53.6843 59.609C53.2455 60.179 52.9347 60.5228 52.4775 61.0023C51.8467 61.6718 51.1519 62.2417 50.4205 62.7303C50.5394 62.7755 50.7039 62.7936 51.1428 62.866C53.794 63.2007 55.2476 64.2864 57.0212 66.3853C57.9537 67.489 58.9868 69.1356 59.709 70.4293C59.965 70.8817 60.2484 71.5783 60.5593 71.9583C60.6873 72.5192 61.9215 74.8172 62.3786 75.9661L67.0594 88.2702C67.1783 88.4782 67.1325 88.4059 67.2605 88.5506C67.2605 89.003 68.3485 92.0157 68.6044 92.658L68.7964 93.1556L14.7841 86.4336C15.1315 85.5289 15.4789 84.389 15.6251 83.9638C15.872 83.3124 16.2377 82.6067 16.2102 81.9372C16.2377 81.9101 16.2651 81.8377 16.2742 81.8558C16.2834 81.8739 16.3291 81.8015 16.3382 81.7744C16.3474 81.7563 16.384 81.7201 16.3931 81.6929C16.4114 81.6658 16.4297 81.6387 16.4388 81.6115L17.5359 78.5355C18.313 76.6447 18.8615 74.7086 19.6752 72.8449C20.7357 70.4203 20.9094 69.8322 22.1893 67.4347C23.5058 64.9649 26.9158 59.8804 30.463 60.2876C30.591 60.2966 30.7281 60.3237 30.8561 60.3056C31.3498 60.2423 30.9567 60.3056 31.1669 60.2152L31.5052 60.2604C29.8413 58.7315 28.4243 56.8497 27.3821 54.6422C26.5227 52.1271 25.9284 51.8104 25.8005 48.264C25.7547 47.0879 25.8187 45.8213 26.0564 44.7537C26.2941 43.6862 26.7056 42.9443 26.9615 42.0034L26.989 41.9853Z" fill="#005A4D"/>
<path fill-rule="evenodd" clip-rule="evenodd" d="M82.5007 54.2984L143.333 61.8708C144.339 61.9975 145.18 62.9293 145.189 63.9426C145.207 64.9558 144.394 65.6887 143.379 65.562L82.5464 57.9896C81.5407 57.8629 80.6996 56.9311 80.6905 55.9178C80.6722 54.9045 81.4859 54.1717 82.5007 54.2984Z" fill="#005A4D"/>
<path fill-rule="evenodd" clip-rule="evenodd" d="M82.6562 71.1441L143.489 78.7165C144.494 78.8431 145.335 79.775 145.344 80.7882C145.363 81.8015 144.549 82.5343 143.534 82.4077L82.7019 74.8353C81.6962 74.7086 80.8551 73.7768 80.846 72.7635C80.8277 71.7502 81.6414 71.0174 82.6562 71.1441Z" fill="#005A4D"/>
</svg>
