<svg width="255" height="251" viewBox="0 0 255 251" fill="none" xmlns="http://www.w3.org/2000/svg">
<path fill-rule="evenodd" clip-rule="evenodd" d="M56.3498 116.614L64.6855 116.255L64.2868 99.7072L63.8881 83.1591L56.1323 83.5321C55.9366 83.5106 55.7409 83.5106 55.5452 83.5178C55.3277 83.525 55.1175 83.5537 54.9073 83.5895C50.6163 84.4216 47.3835 91.4941 47.6009 100.417C47.8184 109.34 51.7325 116.808 56.3353 116.607L56.3498 116.614Z" fill="#6AC1AC" stroke="#005A4D" stroke-miterlimit="22.93"/>
<path fill-rule="evenodd" clip-rule="evenodd" d="M64.6927 116.262C120.39 110.495 142.86 107.576 142.86 107.576C155.914 105.496 162.662 99.3127 163.097 89.0338C162.112 41.7496 161.619 18.1075 161.619 18.1075C139.598 18.3227 128.588 18.4303 128.588 18.4303C129.428 53.2766 129.849 70.6926 129.849 70.6926C129.675 74.5444 127.08 76.7681 122.049 77.3706C80.3131 81.8465 62.511 83.4174 62.511 83.4174C55.8134 87.1617 55.4147 113.049 64.6927 116.255V116.262Z" fill="#005A4D"/>
<path d="M148.557 36.5779C173.202 9.93029 196.585 5.17459 216.823 26.2273" stroke="black" stroke-width="3" stroke-miterlimit="22.93"/>
<path fill-rule="evenodd" clip-rule="evenodd" d="M164.844 31.3058C127.928 39.2893 109.466 43.2775 109.466 43.2775C91.251 47.8969 79.6897 48.8365 75.4494 55.3711C73.1444 58.1973 71.9774 64.904 72.2456 71.6753C72.3326 151.919 72.3761 192.038 72.3761 192.038C71.7455 211.455 77.5732 223.011 89.8665 226.705C140.504 239.501 165.823 245.9 165.823 245.9C163.692 219.539 162.626 206.355 162.626 206.355C128.914 199.634 112.221 198.364 112.221 198.364C108.009 196.198 109.031 190.811 108.575 185.051V76.2947C109.416 73.2605 112.431 71.8116 117.635 71.9622C149.325 68.677 165.17 67.0272 165.17 67.0272C164.953 43.2129 164.844 31.313 164.844 31.313V31.3058Z" fill="#6AC1AC" stroke="#005A4D" stroke-width="0.57" stroke-miterlimit="22.93"/>
<path fill-rule="evenodd" clip-rule="evenodd" d="M53.4939 159.759L61.1627 159.429L60.793 144.208L60.4234 128.987L53.2909 129.332C53.1097 129.317 52.9357 129.31 52.7545 129.317C52.5588 129.324 52.3631 129.346 52.1674 129.389C48.217 130.149 45.2524 136.655 45.4481 144.868C45.6438 153.081 49.2463 159.939 53.4866 159.759H53.4939Z" fill="#6AC1AC" stroke="#005A4D" stroke-miterlimit="22.93"/>
<path fill-rule="evenodd" clip-rule="evenodd" d="M59.1477 159.515C50.7902 152.45 51.7325 134.79 58.3793 129.088C134.212 123.163 170.868 120.975 170.868 120.975C165.533 133.04 166.018 147.637 172.339 164.759C172.339 164.759 137.909 163.267 59.1477 159.515Z" fill="#005A4D" stroke="#005A4D" stroke-width="0.57" stroke-miterlimit="22.93"/>
<path d="M162.546 1H127.16C124.782 1 122.854 2.9076 122.854 5.26075V13.9759C122.854 16.329 124.782 18.2366 127.16 18.2366H162.546C164.924 18.2366 166.852 16.329 166.852 13.9759V5.26075C166.852 2.9076 164.924 1 162.546 1Z" fill="#6AC1AC" stroke="#005A4D" stroke-width="0.57" stroke-miterlimit="22.93"/>
<path fill-rule="evenodd" clip-rule="evenodd" d="M162.198 250.024H173.209L173.81 224.926L174.412 199.828L164.17 199.892C163.916 199.849 163.655 199.828 163.402 199.828C163.119 199.828 162.836 199.849 162.561 199.899C156.849 200.875 152.101 211.706 151.782 224.926C151.449 238.784 156.11 250.024 162.191 250.024H162.198Z" fill="#6AC1AC" stroke="#005A4D" stroke-width="0.57" stroke-miterlimit="22.93"/>
<path fill-rule="evenodd" clip-rule="evenodd" d="M173.39 165.842H184.4L185.002 140.744L185.604 115.646L175.362 115.71C175.108 115.667 174.847 115.646 174.593 115.646C174.311 115.646 174.028 115.667 173.753 115.717C168.041 116.693 163.3 127.201 162.974 140.744C162.648 154.279 167.301 165.842 173.383 165.842H173.39Z" fill="#6AC1AC" stroke="#005A4D" stroke-width="0.57" stroke-miterlimit="22.93"/>
<path fill-rule="evenodd" clip-rule="evenodd" d="M169.94 70.0183H180.95L180.421 48.1407L179.892 26.2632L169.65 26.3206C169.396 26.2847 169.135 26.2632 168.874 26.2632C168.592 26.2632 168.309 26.2847 168.033 26.3277C162.365 27.1813 158.103 36.3412 158.386 48.1407C158.669 59.9403 163.844 70.0183 169.925 70.0183H169.94Z" fill="#6AC1AC" stroke="#005A4D" stroke-width="0.57" stroke-miterlimit="22.93"/>
<path fill-rule="evenodd" clip-rule="evenodd" d="M174.419 199.835C168.338 199.835 163.134 211.068 162.8 224.933C162.467 238.791 167.128 250.031 173.209 250.031C179.29 250.031 184.495 238.798 184.828 224.933C185.162 211.075 180.501 199.835 174.419 199.835Z" fill="#005A4D"/>
<path fill-rule="evenodd" clip-rule="evenodd" d="M185.611 115.653C179.529 115.653 174.325 126.886 173.992 140.751C173.658 154.609 178.319 165.849 184.4 165.849C190.482 165.849 195.686 154.616 196.02 140.751C196.353 126.886 191.692 115.653 185.611 115.653Z" fill="#005A4D"/>
<path fill-rule="evenodd" clip-rule="evenodd" d="M179.899 26.2632C173.818 26.2632 169.121 36.0615 169.411 48.1407C169.701 60.22 174.869 70.0183 180.95 70.0183C187.032 70.0183 191.729 60.2272 191.439 48.1407C191.149 36.0615 185.981 26.2632 179.899 26.2632Z" fill="#005A4D"/>
<path d="M108.582 181.665C101.508 187.461 84.2418 187.755 72.3689 182.211" stroke="#005A4D" stroke-miterlimit="22.93"/>
<path d="M126.384 199.964C117.548 205.444 115.04 223.792 121.702 234.796" stroke="#005A4D" stroke-miterlimit="22.93"/>
<path d="M108.988 192.97C100.623 198.07 81.5815 199.376 72.376 192.038" stroke="#005A4D" stroke-miterlimit="22.93"/>
<path d="M119.179 199.038C110.619 204.354 108.191 222.121 114.649 232.787" stroke="#005A4D" stroke-miterlimit="22.93"/>
<path d="M72.26 87.2263C85.8146 89.8874 97.9194 89.2419 108.575 85.2824" stroke="#005A4D" stroke-miterlimit="22.93"/>
<path d="M118.57 71.8617C114.011 60.4208 112.967 50.4647 115.439 41.9935" stroke="#005A4D" stroke-miterlimit="22.93"/>
<path d="M112.931 72.3997C107.988 62.7449 106.835 53.0399 109.473 43.2846" stroke="#005A4D" stroke-miterlimit="22.93"/>
<path d="M140.663 69.344C141.627 81.5165 142.606 93.3878 148.542 108.437C163.126 139.108 160.046 161.94 139.576 179.004C131.19 185.998 118.353 179.793 123.195 162.535" stroke="black" stroke-width="3" stroke-miterlimit="22.93"/>
<path d="M129.341 123.773C119.998 118.988 112.358 121.807 106.415 132.237C103.254 138.463 101.674 145.449 101.681 153.203C100.913 179.126 91.1712 194.419 72.4558 199.074C56.4513 200.76 42.8387 199.16 31.6182 194.268" stroke="black" stroke-width="3" stroke-miterlimit="22.93"/>
<path fill-rule="evenodd" clip-rule="evenodd" d="M220.534 25.9978L214.612 29.9429C214.662 31.7935 213.909 39.6551 214.148 40.0066L220.548 49.4104C221.28 50.4863 222.766 50.7732 223.846 50.0488L235.741 42.1226C236.828 41.3981 237.118 39.9277 236.386 38.8517L229.986 29.448C229.79 29.1611 222.223 26.7725 220.534 25.9978Z" fill="#6AC1AC" stroke="#005A4D" stroke-width="0.57" stroke-miterlimit="22.93"/>
<path fill-rule="evenodd" clip-rule="evenodd" d="M32.4806 191.944L30.7193 198.787C28.9434 199.368 21.7095 202.711 21.3036 202.603L10.2062 199.806C8.93775 199.483 8.16217 198.199 8.48835 196.944L12.0328 183.193C12.359 181.938 13.6565 181.171 14.925 181.493L26.0223 184.291C26.3557 184.377 31.1832 190.625 32.4879 191.937L32.4806 191.944Z" fill="#6AC1AC" stroke="#005A4D" stroke-width="0.57" stroke-miterlimit="22.93"/>
<path d="M213.901 25.4054L216.517 23.6624C217.184 23.2177 218.09 23.3925 218.539 24.0529L221.223 27.9974C221.673 28.6578 221.496 29.5538 220.829 29.9986L218.208 31.7456C217.54 32.1904 216.635 32.0156 216.185 31.3552L213.501 27.4107C213.051 26.7503 213.228 25.8542 213.895 25.4094L213.901 25.4054Z" fill="#6AC1AC" stroke="#005A4D" stroke-width="0.57" stroke-miterlimit="22.93"/>
<path d="M27.8289 196.013L28.6077 192.989C28.8065 192.218 29.5998 191.752 30.3794 191.948L35.0362 193.123C35.8158 193.32 36.2868 194.105 36.0881 194.876L35.3075 197.907C35.1088 198.678 34.3155 199.144 33.5358 198.948L28.8791 197.773C28.0994 197.576 27.6284 196.791 27.8271 196.02L27.8289 196.013Z" fill="#6AC1AC" stroke="#005A4D" stroke-width="0.57" stroke-miterlimit="22.93"/>
<path d="M224.002 47.2939L222.932 48.0071C222.43 48.3413 222.298 49.0144 222.635 49.5105L227.442 56.5725C227.779 57.0687 228.459 57.2 228.961 56.8659L230.031 56.1526C230.532 55.8185 230.665 55.1454 230.327 54.6492L225.521 47.5872C225.183 47.091 224.503 46.9597 224.002 47.2939Z" fill="#999999"/>
<path d="M0.589028 193.246L0.270345 194.483C0.121039 195.063 0.474853 195.653 1.06061 195.801L9.3979 197.904C9.98365 198.051 10.5795 197.701 10.7288 197.122L11.0475 195.884C11.1968 195.305 10.843 194.715 10.2573 194.567L1.91998 192.464C1.33423 192.316 0.738334 192.667 0.589028 193.246Z" fill="#999999"/>
<path d="M234.073 40.4791L233.003 41.1925C232.502 41.5267 232.369 42.1998 232.707 42.6959L237.515 49.7571C237.852 50.2532 238.532 50.3844 239.034 50.0502L240.104 49.3368C240.605 49.0025 240.738 48.3294 240.4 47.8333L235.592 40.7721C235.255 40.276 234.574 40.1448 234.073 40.4791Z" fill="#999999"/>
<path d="M3.65437 181.556L3.33748 182.786C3.18817 183.366 3.54199 183.956 4.12774 184.103L12.465 186.206C13.0508 186.354 13.6467 186.004 13.796 185.424L14.1129 184.194C14.2622 183.614 13.9084 183.025 13.3226 182.877L4.98532 180.774C4.39957 180.626 3.80368 180.976 3.65437 181.556Z" fill="#999999"/>
<path d="M219.314 49.0314L225.921 44.6278C226.257 44.4034 226.71 44.4908 226.937 44.824L228.666 47.3644C228.893 47.6976 228.804 48.1456 228.468 48.37L221.86 52.7736C221.524 52.998 221.071 52.9106 220.844 52.5774L219.115 50.037C218.888 49.7038 218.977 49.2558 219.314 49.0314Z" fill="#6AC1AC" stroke="#005A4D" stroke-width="0.57" stroke-miterlimit="22.93"/>
<path d="M6.58976 199.709L8.55736 192.07C8.65762 191.681 9.05426 191.448 9.4476 191.547L12.4468 192.304C12.8401 192.403 13.0756 192.795 12.9754 193.185L11.0078 200.824C10.9075 201.213 10.5109 201.446 10.1175 201.347L7.11835 200.59C6.72502 200.491 6.4895 200.098 6.58976 199.709Z" fill="#6AC1AC" stroke="#005A4D" stroke-width="0.57" stroke-miterlimit="22.93"/>
<path d="M236.489 37.5057L229.882 41.9093C229.547 42.1328 229.458 42.583 229.684 42.9149L231.409 45.4494C231.635 45.7812 232.09 45.8691 232.425 45.6456L239.032 41.242C239.368 41.0185 239.456 40.5682 239.23 40.2364L237.506 37.7019C237.28 37.37 236.825 37.2822 236.489 37.5057Z" fill="#6AC1AC" stroke="#005A4D" stroke-width="0.57" stroke-miterlimit="22.93"/>
<path d="M11.7908 179.811L9.82316 187.45C9.72329 187.838 9.95995 188.232 10.3517 188.331L13.3439 189.086C13.7357 189.185 14.1342 188.95 14.2341 188.563L16.2017 180.924C16.3016 180.536 16.0649 180.142 15.6731 180.043L12.681 179.288C12.2892 179.189 11.8906 179.424 11.7908 179.811Z" fill="#6AC1AC" stroke="#005A4D" stroke-width="0.57" stroke-miterlimit="22.93"/>
<path fill-rule="evenodd" clip-rule="evenodd" d="M218.555 34.9711L223.607 31.5998C223.774 31.4851 224.006 31.5353 224.114 31.7003C224.23 31.8652 224.18 32.0948 224.013 32.2024L218.954 35.5737C218.787 35.6884 218.555 35.6382 218.446 35.4732C218.33 35.3083 218.381 35.0787 218.548 34.9711H218.555Z" fill="#005A4D"/>
<path fill-rule="evenodd" clip-rule="evenodd" d="M24.6089 196.801L26.1166 190.955C26.1673 190.761 26.0441 190.56 25.8484 190.51C25.6527 190.46 25.4497 190.582 25.399 190.775L23.8913 196.621C23.8406 196.815 23.9638 197.016 24.1595 197.066C24.3552 197.116 24.5582 196.994 24.6089 196.801Z" fill="#005A4D"/>
<path fill-rule="evenodd" clip-rule="evenodd" d="M219.635 36.5133L224.694 33.142C224.861 33.0273 225.093 33.0775 225.202 33.2425C225.318 33.4074 225.267 33.637 225.1 33.7446L220.041 37.1159C219.874 37.2306 219.642 37.1804 219.534 37.0154C219.418 36.8505 219.468 36.6209 219.635 36.5133Z" fill="#005A4D"/>
<path fill-rule="evenodd" clip-rule="evenodd" d="M22.7823 196.313L24.2899 190.467C24.3407 190.273 24.2174 190.072 24.0217 190.022C23.826 189.972 23.6231 190.094 23.5723 190.287L22.0647 196.133C22.0139 196.327 22.1371 196.528 22.3328 196.578C22.5286 196.628 22.7315 196.506 22.7823 196.313Z" fill="#005A4D"/>
<path fill-rule="evenodd" clip-rule="evenodd" d="M251.238 58.6562L200.18 63.6486L200.137 99.9654L251.528 96.9169L251.238 58.6562Z" fill="#EDEBE8" stroke="#999999" stroke-width="0.57" stroke-miterlimit="22.93"/>
<path fill-rule="evenodd" clip-rule="evenodd" d="M251.238 58.6562L251.528 96.9169L255 102.132L254.529 62.6803L251.238 58.6562Z" fill="#808080"/>
<path fill-rule="evenodd" clip-rule="evenodd" d="M255 102.132L208.197 104.893L200.137 99.9654L251.528 96.9169L255 102.132Z" fill="#666666"/>
<path fill-rule="evenodd" clip-rule="evenodd" d="M225.832 91.5587C233.117 91.5587 239.061 86.057 239.061 79.3073C239.061 72.5575 233.117 67.0558 225.832 67.0558C218.548 67.0558 212.604 72.5575 212.604 79.3073C212.604 86.057 218.548 91.5587 225.832 91.5587Z" fill="#B3B3B3"/>
<path fill-rule="evenodd" clip-rule="evenodd" d="M220.338 82.241C221.918 82.241 223.216 80.9355 223.216 79.3359C223.216 77.7363 221.926 76.4309 220.338 76.4309C218.751 76.4309 217.46 77.7363 217.46 79.3359C217.46 80.9355 218.751 82.241 220.338 82.241Z" fill="black"/>
<path fill-rule="evenodd" clip-rule="evenodd" d="M230.595 81.4448C232.175 81.4448 233.472 80.1393 233.472 78.5398C233.472 76.9402 232.182 75.6347 230.595 75.6347C229.007 75.6347 227.717 76.9402 227.717 78.5398C227.717 80.1393 229.007 81.4448 230.595 81.4448Z" fill="black"/>
</svg>
