<svg width="459" height="410" viewBox="0 0 459 410" fill="none" xmlns="http://www.w3.org/2000/svg">
<g clip-path="url(#clip0_682_11149)">
<path fill-rule="evenodd" clip-rule="evenodd" d="M162.879 75.4616C152.387 76.3727 142.633 79.8965 133.59 86.0063C108.461 104.738 99.2571 123.697 105.965 142.884C92.3743 156.751 85.2231 173.245 84.4718 192.338C84.928 206.97 92.978 223.49 108.622 241.913C106.69 249.966 106.784 258.287 108.904 266.862C113.707 286.076 126.359 296.017 146.86 296.674C148.537 299.823 152.924 303.333 157.741 305.852C163.496 331.578 195.67 338.076 228.554 320.376C253.496 342.712 284.059 339.965 320.606 315.231C351.545 318.232 361.098 300.412 361.635 262.48C380.713 242.811 390.011 216.188 389.542 182.624C384.282 156.537 375.481 138.945 363.111 129.833C364.774 115.135 361.447 104.162 353.142 96.9129C345.602 89.0612 335.311 85.3632 322.257 85.8187C321.492 80.9148 319.721 75.9305 316.93 70.8524C325.906 53.9165 341.094 43.7201 362.493 40.2498C372.194 26.8645 377.051 20.1652 377.051 20.1652C346.286 18.4099 320.284 30.8975 299.046 57.6279C288.715 53.0857 278.612 52.6704 268.737 56.3818C217.136 50.7008 183.608 59.4635 162.879 75.4616Z" fill="#6AC1AC" stroke="black" stroke-width="0.57" stroke-miterlimit="22.93"/>
<path fill-rule="evenodd" clip-rule="evenodd" d="M31.6233 18.1287L31.0061 20.0715C30.6439 21.2238 29.2888 21.8803 28.0008 21.5185L1.77103 14.2698C0.483027 13.9081 -0.281727 12.6754 0.0939415 11.5231L0.711111 9.58029C1.07336 8.428 2.42845 7.77147 3.71646 8.13323L29.9462 15.3819C31.2342 15.7437 31.9989 16.9764 31.6233 18.1287Z" fill="#999999"/>
<path fill-rule="evenodd" clip-rule="evenodd" d="M50.2189 10.0894L49.6017 12.0322C49.2395 13.1845 47.8844 13.841 46.5963 13.4792L20.38 6.24395C19.092 5.88219 18.3273 4.64951 18.703 3.49722L19.3201 1.55441C19.6824 0.402124 21.0375 -0.254411 22.3255 0.107353L48.5552 7.35605C49.8432 7.71781 50.608 8.95049 50.2323 10.1028L50.2189 10.0894Z" fill="#999999"/>
<path fill-rule="evenodd" clip-rule="evenodd" d="M98.4923 36.8198C100.666 33.6444 100.666 31.9963 100.666 31.1656C100.666 30.3349 100.666 30.3349 99.0424 27.5881C97.4189 24.8414 94.1721 19.3346 92.5889 16.5878C90.9923 13.8411 91.0594 13.8411 84.6328 11.6035C78.2062 9.37932 65.2993 4.91756 58.8458 2.67998C54.5435 1.19719 50.3843 1.60361 46.3682 3.89926C40.3441 7.35612 28.2825 14.2564 22.2584 17.7133C18.2423 20.0179 16.2834 21.849 16.3818 23.2068C16.5294 25.2568 16.838 29.3434 16.999 31.3934C17.0974 32.76 19.0473 34.1535 22.8487 35.5738C28.5374 37.7176 39.9148 41.9917 45.6035 44.1221C51.2922 46.2525 51.2922 46.2659 57.2224 46.7483C63.1526 47.2306 75.0264 48.2087 81.0908 48.7313C87.1417 49.2538 87.3966 49.3074 89.6909 46.9895C91.9851 44.6715 96.3322 39.9685 98.5057 36.7797L98.4923 36.8198Z" fill="#6AC1AC"/>
<path fill-rule="evenodd" clip-rule="evenodd" d="M16.3684 22.041C16.3013 22.3759 16.3415 22.7377 16.3684 23.2334C16.516 25.2834 16.8245 29.37 16.9855 31.42C17.0839 32.7867 19.0338 34.1802 22.8352 35.6004C28.5239 37.7442 39.9013 42.0184 45.59 44.1488C51.2787 46.2792 51.2787 46.2926 57.2089 46.7749C63.1391 47.2573 75.0129 48.2354 81.0773 48.7579C84.6998 49.0661 86.2427 49.2135 87.3832 48.7847C87.4905 46.8553 87.5844 45.0331 87.6649 43.72C87.7901 41.4691 85.7016 40.0041 81.3993 39.3253C74.9459 38.307 62.039 36.2704 55.3037 35.0779C48.5685 33.8854 48.0185 33.5102 41.9943 31.2459C35.9702 28.9815 24.4721 24.8279 18.3541 22.6975C17.6161 22.4429 16.9587 22.2151 16.3684 22.0142V22.041Z" fill="#005A4D"/>
<path fill-rule="evenodd" clip-rule="evenodd" d="M52.7547 25.806C49.32 24.6403 44.879 23.1397 42.6653 22.376C40.4515 21.6122 40.4381 21.6256 43.4166 19.6828C46.3951 17.74 52.3388 13.8678 55.3173 11.925C58.2958 9.98217 58.2958 9.98217 60.3083 10.5315C62.3208 11.0675 66.3458 12.1528 68.3583 12.7021L70.3709 13.2381L68.412 12.8897C66.4532 12.5413 62.5355 11.8446 60.5766 11.4962C58.6178 11.1479 58.6178 11.1479 56.1357 12.8361C53.6536 14.5243 48.6894 17.9142 46.1939 19.6158C44.5392 20.7413 44.6733 21.715 46.5964 22.5367C49.481 23.756 55.2502 26.208 58.1482 27.4273C60.0713 28.2401 60.6303 28.5081 59.8253 28.2312C58.6178 27.8158 56.2028 26.9717 52.7815 25.806H52.7547Z" fill="#005A4D"/>
<path fill-rule="evenodd" clip-rule="evenodd" d="M84.7937 38.4142C83.0898 35.9221 80.3125 31.6747 78.783 29.3031C77.2535 26.9315 76.9852 26.4492 80.1113 26.6904C83.2508 26.9315 89.7848 27.9097 93.2463 28.4188C96.6944 28.9413 97.07 28.9949 97.2445 29.0217C97.4189 29.0485 97.4323 29.0485 93.7427 28.325C90.0665 27.6015 82.7007 26.141 79.0111 25.4041C76.5603 24.9217 75.317 24.7163 75.2813 24.7878C75.241 24.8949 75.1471 25.1093 76.0594 27.6953C76.9718 30.2812 78.8904 35.2253 80.2991 37.8783C81.7079 40.5178 82.6336 40.8528 83.7875 41.3217C84.9413 41.7907 86.3501 42.407 87.0343 42.5946C87.732 42.7956 87.7186 42.5812 87.41 42.0989C87.1014 41.6299 86.4842 40.893 84.7803 38.4008L84.7937 38.4142Z" fill="#005A4D"/>
<path fill-rule="evenodd" clip-rule="evenodd" d="M366.344 22.523C364.64 23.2466 364.291 23.3806 363.768 26.1273C363.258 28.874 362.574 34.2201 362.292 36.94C361.997 39.66 362.091 39.7538 364.975 45.5152C367.86 51.2766 373.535 62.7191 376.38 68.4404C378.276 72.2545 381.147 75.4479 384.993 78.0204C390.762 81.8792 402.314 89.5969 408.083 93.4557L413.853 97.3145L419.528 92.893C425.203 88.4714 436.567 79.6417 442.242 75.2335C446.026 72.2858 447.81 69.9455 447.596 68.2126C447.274 65.6132 446.616 60.4011 446.294 57.7482C445.972 55.0953 445.972 55.0015 441.169 51.424C436.379 47.8466 426.786 40.7721 421.983 37.1946C417.193 33.6172 417.193 33.5234 410.015 31.0982C402.851 28.6864 388.508 23.9433 381.344 21.5717C376.568 19.9907 373.665 19.419 372.636 19.8567C371.107 20.5132 368.034 21.8129 366.317 22.5364L366.344 22.523Z" fill="#6AC1AC"/>
<path fill-rule="evenodd" clip-rule="evenodd" d="M268.858 288.327C274.211 288.286 283.724 288.126 291.76 287.188C299.797 286.25 306.371 284.548 314.301 280.261C322.216 275.96 331.474 269.073 336.183 265.629C340.892 262.186 341.053 262.186 341.335 259.627C341.617 257.067 342.019 251.963 341.939 247.903C341.858 243.843 341.295 240.842 341 239.341C340.812 238.341 339.864 238.153 338.155 238.778C335.593 239.716 330.481 241.579 327.919 242.503C326.21 243.128 325.155 244.022 324.752 245.183C324.148 246.925 322.927 250.408 322.351 252.15C321.787 253.892 321.868 253.892 317.158 254.294C312.449 254.696 302.95 255.513 296.899 255.915C290.848 256.317 288.245 256.317 286.783 256.357C285.32 256.397 284.998 256.478 284.837 256.518C284.73 256.545 283.581 258.153 281.389 261.342C278.102 266.125 271.528 275.692 267.583 280.971C263.639 286.236 262.351 287.214 262.311 287.737C262.27 288.26 263.491 288.34 268.845 288.3L268.858 288.327Z" fill="white" stroke="black" stroke-width="0.57" stroke-miterlimit="22.93"/>
<path fill-rule="evenodd" clip-rule="evenodd" d="M238.764 335.637C245.11 331.645 256.3 325.334 266.201 314.494C276.103 303.655 284.73 288.273 288.487 276.697C292.243 265.134 291.13 257.376 290.526 253.503C289.909 249.631 289.788 249.631 292.002 245.317C294.216 241.003 298.777 232.401 301.179 227.47C303.58 222.539 303.822 221.32 304.882 225.688C305.928 230.056 307.78 240.024 309.068 249.002C310.356 257.979 311.107 265.978 310.114 274.848C309.135 283.704 306.425 293.432 298.898 305.115C291.385 316.812 279.055 330.466 268.321 340.099C257.588 349.733 248.438 355.334 242.212 357.665C235.987 359.996 232.7 359.072 230.808 356.7C228.916 354.329 228.42 350.51 228.42 347.991C228.42 345.472 228.916 344.239 229.909 342.779C230.915 341.319 232.418 339.617 238.764 335.624V335.637Z" fill="white" stroke="black" stroke-width="0.57" stroke-miterlimit="22.93"/>
<path fill-rule="evenodd" clip-rule="evenodd" d="M239.61 341.787C241.152 342.819 241.461 343.033 241.434 345.82C241.407 348.607 241.045 353.98 240.804 356.713C240.562 359.433 240.455 359.514 236.51 364.619C232.566 369.723 224.784 379.853 220.893 384.918C218.299 388.294 214.865 390.876 210.589 392.662C204.176 395.342 191.363 400.688 184.95 403.368L178.537 406.047L173.814 400.621C169.091 395.194 159.646 384.341 154.923 378.915C151.775 375.297 150.473 372.658 151.019 370.996C151.837 368.504 153.488 363.52 154.319 360.988C155.151 358.455 155.165 358.361 160.558 355.762C165.952 353.176 176.725 348.085 182.119 345.485C187.512 342.899 187.526 342.805 195.039 341.814C202.539 340.822 217.526 338.92 225.012 337.982C230.003 337.348 232.959 337.343 233.881 337.969C235.263 338.906 238.026 340.769 239.569 341.814L239.61 341.787Z" fill="#6AC1AC"/>
<path fill-rule="evenodd" clip-rule="evenodd" d="M241.099 343.127C241.367 343.663 241.448 344.413 241.434 345.807C241.407 348.594 241.045 353.967 240.804 356.7C240.562 359.42 240.455 359.5 236.51 364.605C232.566 369.71 224.784 379.839 220.893 384.904C218.299 388.281 214.865 390.862 210.589 392.649C204.176 395.328 191.363 400.674 184.95 403.354L178.537 406.034L173.814 400.607C169.091 395.181 159.646 384.328 154.923 378.901C151.775 375.284 150.473 372.644 151.019 370.983C151.837 368.491 153.488 363.506 154.319 360.974C154.628 360.023 154.829 359.42 155.232 358.897L175.813 384.851L181.689 392.273L185.728 390.25C189.766 388.227 197.843 384.167 203.21 381.139C208.577 378.111 211.22 376.128 212.95 374.654C214.681 373.18 215.5 372.202 220.907 365.905C225.723 360.304 234.162 350.469 241.059 343.14L241.099 343.127Z" fill="#005A4D"/>
<path fill-rule="evenodd" clip-rule="evenodd" d="M364.613 23.5684C364.238 24.0373 364.023 24.7608 363.768 26.1409C363.258 28.8876 362.574 34.2337 362.292 36.9537C361.997 39.6736 362.091 39.7674 364.975 45.5288C367.86 51.2903 373.535 62.7327 376.38 68.454C378.276 72.2681 381.147 75.4615 384.993 78.034C390.762 81.8929 402.314 89.6105 408.083 93.4693L413.853 97.3282L419.528 92.9066C425.203 88.485 436.567 79.6553 442.242 75.2471C446.026 72.2994 447.81 69.9591 447.596 68.2262C447.274 65.6269 446.616 60.4148 446.294 57.7618C446.174 56.7703 446.093 56.1406 445.798 55.551L420.601 77.0559L413.396 83.2059L409.828 80.4324C406.259 77.6589 399.121 72.1252 394.439 68.1324C389.756 64.1396 387.542 61.6742 386.12 59.8922C384.698 58.1102 384.094 56.9981 380.002 49.7762C376.366 43.3448 369.967 32.0765 364.613 23.5684Z" fill="#005A4D"/>
<path fill-rule="evenodd" clip-rule="evenodd" d="M147.49 409.049L146.403 407.32C145.759 406.288 146.149 404.841 147.262 404.091L169.829 388.91C170.943 388.16 172.365 388.388 173.009 389.419L174.096 391.148C174.74 392.18 174.351 393.627 173.237 394.377L150.67 409.558C149.556 410.308 148.134 410.08 147.49 409.049Z" fill="#999999"/>
<path fill-rule="evenodd" clip-rule="evenodd" d="M136.77 394.725L135.683 392.997C135.039 391.965 135.429 390.518 136.542 389.768L159.109 374.587C160.223 373.837 161.645 374.065 162.289 375.096L163.376 376.825C164.02 377.856 163.631 379.303 162.517 380.054L139.95 395.234C138.836 395.985 137.414 395.757 136.77 394.725Z" fill="#999999"/>
<path fill-rule="evenodd" clip-rule="evenodd" d="M443.759 106.265L445.154 104.778C445.986 103.893 445.878 102.393 444.939 101.455L425.726 82.2143C424.787 81.2629 423.338 81.2227 422.506 82.1071L421.111 83.5943C420.279 84.4786 420.387 85.9793 421.326 86.9172L440.539 106.158C441.478 107.109 442.927 107.149 443.759 106.265Z" fill="#999999"/>
<path fill-rule="evenodd" clip-rule="evenodd" d="M191.833 397.633C192.758 394.98 193.657 390.371 194.1 388.066C194.404 386.53 193.067 384.082 190.088 380.724C185.634 375.686 176.712 365.61 172.217 360.492C167.723 355.373 167.642 355.186 167.615 355.105C167.588 355.043 168.505 356.217 170.366 358.629C173.156 362.234 178.738 369.455 182.857 374.775C186.976 380.094 189.619 383.524 190.853 385.909C192.087 388.294 191.926 389.634 191.336 391.938C190.746 394.243 189.726 397.512 189.27 399.294C188.814 401.076 188.921 401.371 189.444 401.184C189.968 400.996 190.92 400.299 191.833 397.66V397.633Z" fill="#005A4D"/>
<path fill-rule="evenodd" clip-rule="evenodd" d="M209.274 366.468C207.181 367.7 202.499 370.528 200.164 371.948C197.83 373.368 197.83 373.368 194.959 370.193C192.087 367.03 186.359 360.693 183.487 357.531C181.573 355.423 181.363 353.989 182.857 353.23C185.097 352.091 189.579 349.813 191.819 348.661C193.313 347.902 193.443 347.928 192.208 348.741C190.357 349.961 186.654 352.386 184.802 353.605C183.568 354.418 183.774 355.771 185.419 357.665C187.888 360.505 192.825 366.173 195.307 369C197.79 371.827 197.83 371.8 199.923 370.822C202.029 369.844 206.188 367.901 208.523 366.749C210.857 365.597 211.367 365.235 209.274 366.468Z" fill="#005A4D"/>
<path fill-rule="evenodd" clip-rule="evenodd" d="M457.041 94.26L458.437 92.7728C459.268 91.8885 459.161 90.3878 458.222 89.4499L439.009 70.2094C438.07 69.2581 436.621 69.2179 435.789 70.1022L434.394 71.5894C433.562 72.4737 433.669 73.9744 434.608 74.9123L453.821 94.1528C454.76 95.1041 456.209 95.1443 457.041 94.26Z" fill="#999999"/>
<path fill-rule="evenodd" clip-rule="evenodd" d="M402.448 86.5289C402.059 83.7554 402.059 79.0524 402.059 76.7077C402.059 75.1445 403.844 73.0007 407.413 70.2763C412.766 66.1897 423.459 58.0299 428.853 53.8629C434.26 49.6959 434.353 49.5351 434.407 49.4547C434.443 49.4011 433.316 50.3748 431.026 52.3756C427.591 55.377 420.722 61.393 415.664 65.8145C410.606 70.2495 407.345 73.1034 405.668 75.1936C403.991 77.2972 403.897 78.6371 404.032 81.0221C404.166 83.3936 404.541 86.7969 404.649 88.6325C404.756 90.4681 404.595 90.7361 404.112 90.4413C403.629 90.1466 402.837 89.289 402.448 86.5155V86.5289Z" fill="#005A4D"/>
<path fill-rule="evenodd" clip-rule="evenodd" d="M391.339 52.5898C393.151 54.1977 397.203 57.8823 399.228 59.7179C400.579 60.9417 402.395 60.705 404.676 59.0078C408.097 56.4487 414.953 51.3438 418.374 48.798C421.795 46.2523 421.795 46.2389 419.823 44.698C417.851 43.1438 413.893 40.0487 411.907 38.4944C410.592 37.4582 410.458 37.4582 411.505 38.4944C413.088 40.0487 416.254 43.1438 417.837 44.698C418.893 45.7342 418.432 47.0204 416.456 48.5568C413.49 50.8614 407.547 55.484 404.568 57.7885C401.59 60.0797 401.55 60.0529 399.685 58.6862C397.806 57.3196 394.103 54.613 392.024 53.032C389.958 51.4509 389.528 50.9954 391.339 52.6032V52.5898Z" fill="#005A4D"/>
<path fill-rule="evenodd" clip-rule="evenodd" d="M92.1193 47.793C95.2588 50.0306 100.827 53.0319 107.307 58.0698C113.787 63.1077 121.18 70.1688 126.909 77.0155C132.638 83.8623 136.717 90.4946 138.796 95.8943C140.889 101.294 140.996 105.474 139.977 110.177C138.957 114.88 136.81 120.133 134.248 125.425C131.685 130.717 128.68 136.077 125.836 142.12C122.991 148.163 120.321 154.902 120.482 165.233C120.643 175.563 123.649 189.471 126.158 197.497C128.68 205.522 130.706 207.666 131.779 208.725C132.853 209.783 132.96 209.797 132.853 202.414C132.745 195.031 132.423 180.266 134.463 168.502C136.502 156.738 140.889 147.962 144.485 140.9C148.067 133.839 150.858 128.493 152.307 124.152C153.756 119.824 153.863 116.501 154.131 111.155C154.4 105.809 154.829 98.4266 151.77 89.8113C148.711 81.1959 142.177 71.3613 133.765 62.21C125.353 53.0587 115.075 44.6041 109.132 40.0485C103.188 35.493 101.592 34.823 100.8 34.5015C100.272 34.2782 99.6282 34.2782 98.8679 34.5015C97.7409 34.8364 95.4735 35.493 93.4073 36.9132C91.3412 38.3335 89.4628 40.4907 88.8725 42.2995C88.2821 44.1083 88.9798 45.5822 92.1193 47.8064V47.793Z" fill="white" stroke="black" stroke-width="0.57" stroke-miterlimit="22.93"/>
<path fill-rule="evenodd" clip-rule="evenodd" d="M186.171 61.7277C188.156 59.6911 194.69 54.8809 203.049 51.5045C211.408 48.128 221.591 46.212 232.458 46.6943C243.339 47.1767 254.905 50.0708 266 55.0953C277.096 60.1198 287.695 67.2881 294.497 73.7195C301.3 80.1375 304.305 85.8051 306.009 89.0208C307.726 92.2365 308.156 92.9734 308.746 97.4218C309.336 101.857 310.088 109.99 310.463 114.224C310.839 118.458 310.839 118.766 310.785 118.605C310.732 118.444 310.624 117.801 308.102 114.653C305.58 111.49 300.656 105.823 293.424 98.3329C286.192 90.843 276.653 81.5309 266.792 75.0058C256.931 68.4806 246.761 64.729 237.114 62.4378C227.467 60.1332 218.357 59.2757 210.482 59.4901C202.606 59.7045 195.965 60.9908 191.363 62.0091C186.761 63.0274 184.185 63.7777 186.171 61.7411V61.7277Z" fill="white" stroke="black" stroke-width="0.57" stroke-miterlimit="22.93"/>
<path fill-rule="evenodd" clip-rule="evenodd" d="M147.839 216.858C146.779 211.968 146.202 203.339 146.913 193.772C147.624 184.219 149.61 173.741 153.058 164.389C156.506 155.037 161.43 146.823 166.113 140.097C170.795 133.371 175.236 128.132 180.495 124.246C185.755 120.361 191.859 117.802 195.764 116.18C199.668 114.546 201.358 113.849 202.284 113.568C203.21 113.286 203.344 113.42 204.203 114.988C205.061 116.555 206.618 119.517 207.463 121.218C208.308 122.92 208.456 123.349 208.523 123.55C208.568 123.692 207.409 124.684 205.048 126.524C201.506 129.284 194.409 134.804 187.324 144.438C180.24 154.072 173.143 167.805 168.89 180.333C164.637 192.861 163.215 204.196 163.362 212.544C163.51 220.904 165.2 226.277 166.059 228.97L166.904 231.664L164.422 230.391C161.94 229.118 156.976 226.572 153.716 224.723C150.455 222.887 148.899 221.749 147.826 216.858H147.839Z" fill="white" stroke="black" stroke-width="0.57" stroke-miterlimit="22.93"/>
<path fill-rule="evenodd" clip-rule="evenodd" d="M192.074 227.295C198.152 220.395 208.711 208.015 214.051 201.824C219.391 195.634 219.511 195.634 219.82 195.634C220.128 195.634 220.611 195.634 224.583 197.564C228.541 199.493 235.974 203.352 239.771 205.322C243.581 207.278 243.755 207.345 243.849 207.372C243.912 207.389 242.839 208.689 240.629 211.271C237.315 215.129 230.687 222.86 223.442 228.059C216.197 233.258 208.335 235.938 201.828 237.036C195.321 238.135 190.169 237.666 187.231 237.398C184.292 237.13 183.554 237.076 183.984 236.34C184.413 235.603 186.01 234.196 192.087 227.295H192.074Z" fill="white" stroke="black" stroke-width="0.57" stroke-miterlimit="22.93"/>
<path fill-rule="evenodd" clip-rule="evenodd" d="M169.829 94.5276C168.353 97.8504 166.743 104.121 166.126 112.924C165.509 121.727 165.885 133.049 166.676 143.379C167.468 153.71 168.715 163.062 172.338 176.045C175.974 189.029 182.011 205.643 188.358 218.372C194.704 231.114 201.358 239.97 205.048 244.888C208.751 249.805 209.489 250.797 209.918 251.346C210.348 251.895 210.468 252.029 210.535 252.083C210.603 252.136 210.603 252.15 213.554 250.301C216.506 248.452 222.423 244.767 225.388 242.918L228.339 241.069L224.274 236.581C220.209 232.092 212.078 223.101 204.874 210.734C197.669 198.367 191.376 182.611 187.995 168.033C184.601 153.455 184.118 140.043 185.218 128.292C186.318 116.542 189.042 106.452 190.947 100.423C192.852 94.3936 193.966 92.424 194.516 91.2583C195.066 90.0926 195.066 89.7174 195.066 89.5298C195.066 89.3423 195.066 89.3423 192.289 89.5298C189.511 89.7174 183.97 90.0792 180.455 90.2668C176.94 90.4544 175.464 90.4544 174.042 90.6419C172.62 90.8295 171.265 91.1913 169.789 94.5142L169.829 94.5276Z" fill="white" stroke="black" stroke-width="0.57" stroke-miterlimit="22.93"/>
<path fill-rule="evenodd" clip-rule="evenodd" d="M326.483 124.206C326.295 129.713 325.691 138.341 325.195 142.991C324.699 147.64 324.336 148.31 324.43 148.953C324.524 149.596 325.074 150.213 325.812 151.311C326.55 152.41 327.462 154.004 327.932 154.795C328.236 155.322 328.817 154.925 329.676 153.603C330.964 151.62 333.54 147.64 335.043 145.376C336.545 143.111 336.975 142.562 335.405 137.792C333.849 133.022 330.293 124.032 328.415 119.342C326.55 114.666 326.362 114.291 326.389 115.309C326.416 116.314 326.671 118.699 326.483 124.206Z" fill="white" stroke="black" stroke-width="0.57" stroke-miterlimit="22.93"/>
<path fill-rule="evenodd" clip-rule="evenodd" d="M339.9 176.072C341.308 179.409 343.764 185.894 345.132 189.618C346.514 193.357 346.823 194.335 346.97 189.927C347.118 185.518 347.118 175.737 347.118 170.78C347.118 165.822 347.118 165.702 346.501 166.318C345.884 166.934 344.663 168.274 343.777 169.199C342.892 170.123 342.342 170.606 341.389 171.075C340.436 171.544 339.095 171.972 338.612 172.281C338.115 172.589 338.491 172.763 339.9 176.099V176.072Z" fill="white" stroke="black" stroke-width="0.57" stroke-miterlimit="22.93"/>
<path fill-rule="evenodd" clip-rule="evenodd" d="M155.876 108.891C157.553 108.087 160.867 107.216 162.973 106.747C165.08 106.278 165.965 106.198 166.408 106.171C166.703 106.144 166.806 106.582 166.716 107.484C166.582 108.837 166.314 111.531 166.166 113.071C166.019 114.612 166.005 115.001 163.671 117.171C161.35 119.342 156.721 123.295 153.97 125.881C151.22 128.467 150.348 129.699 149.838 130.476C149.328 131.253 149.167 131.575 149.838 129.592C150.509 127.609 152.025 123.308 152.87 119.851C153.729 116.394 153.917 113.782 154.038 112.107C154.158 110.432 154.185 109.708 155.862 108.904L155.876 108.891Z" fill="white" stroke="black" stroke-width="0.57" stroke-miterlimit="22.93"/>
<path fill-rule="evenodd" clip-rule="evenodd" d="M134.919 261.998C136.998 265.053 140.071 270.144 142.459 273.199C144.847 276.254 146.564 277.299 147.544 278.036C148.523 278.773 148.765 279.202 148.886 279.416C148.966 279.559 149.896 279.479 151.676 279.175C154.346 278.72 159.673 277.795 162.49 277.219C165.308 276.643 165.616 276.388 165.764 276.268C165.862 276.187 164.543 275.544 161.806 274.338C157.7 272.529 149.489 268.925 144.887 266.687C140.285 264.45 139.306 263.592 137.535 262.186C135.764 260.779 133.188 258.822 132.45 258.367C131.712 257.911 132.812 258.943 134.905 262.011L134.919 261.998Z" fill="white" stroke="black" stroke-width="0.57" stroke-miterlimit="22.93"/>
<path fill-rule="evenodd" clip-rule="evenodd" d="M169.212 293.579C170.54 294.195 175.719 294.825 179.999 295.334C184.279 295.843 187.7 296.218 189.78 296.526C191.859 296.848 192.611 297.116 192.973 297.25C193.223 297.339 192.584 296.897 191.054 295.924C188.76 294.463 184.185 291.529 181.891 290.068C180.361 289.095 179.225 288.782 178.483 289.13C177.369 289.666 175.129 290.725 172.754 291.556C170.379 292.386 167.884 292.962 169.212 293.579Z" fill="white" stroke="black" stroke-width="0.57" stroke-miterlimit="22.93"/>
<path fill-rule="evenodd" clip-rule="evenodd" d="M200.54 287.402C205.048 290.524 213.501 295.977 217.727 298.697C220.544 300.51 222.423 301.042 223.362 300.291C224.771 299.166 227.588 296.888 229.037 295.763C230.473 294.624 230.54 294.624 225.629 293.137C220.732 291.636 210.857 288.635 204.914 286.652C198.97 284.669 196.944 283.677 196.206 283.597C195.468 283.516 196.019 284.307 200.527 287.429L200.54 287.402Z" fill="white" stroke="black" stroke-width="0.57" stroke-miterlimit="22.93"/>
<path fill-rule="evenodd" clip-rule="evenodd" d="M168.045 188.011C169.601 187.609 172.633 187.207 174.136 187.032C175.652 186.845 175.665 186.872 177.128 190.744C178.604 194.603 181.529 202.307 182.991 206.152C183.966 208.716 183.662 210.824 182.079 212.477C179.704 214.942 174.954 219.886 171.895 223.048C168.823 226.21 167.441 227.59 166.743 228.287C166.278 228.752 165.916 228.39 165.657 227.202C165.267 225.42 164.489 221.856 164.087 217.89C163.684 213.937 163.644 209.596 163.886 205.563C164.127 201.53 164.65 197.818 165.053 195.326C165.455 192.834 165.737 191.548 165.925 190.744C166.113 189.927 166.193 189.578 166.287 189.203C166.381 188.828 166.488 188.426 168.045 188.024V188.011Z" fill="white" stroke="black" stroke-width="0.57" stroke-miterlimit="22.93"/>
<path fill-rule="evenodd" clip-rule="evenodd" d="M206.779 120.736C211.273 127.891 220.276 142.227 231.68 156.966C243.084 171.718 256.877 186.898 263.961 195.407C271.045 203.928 271.421 205.791 271.608 206.997C271.796 208.202 271.796 208.765 271.796 209.047C271.796 209.328 271.796 209.328 274.735 206.26C277.673 203.191 283.549 197.041 286.488 193.973C289.426 190.905 289.426 190.905 283.321 184.527C277.217 178.149 265.007 165.394 254.556 152.96C244.118 140.526 235.437 128.427 230.553 121.392C225.656 114.358 224.543 112.402 223.979 111.383C223.416 110.365 223.416 110.271 220.813 110.405C218.196 110.539 212.977 110.915 209.462 111.477C205.947 112.04 204.122 112.804 203.21 113.179C202.602 113.429 203.8 115.943 206.806 120.722L206.779 120.736Z" fill="white" stroke="black" stroke-width="0.57" stroke-miterlimit="22.93"/>
<path fill-rule="evenodd" clip-rule="evenodd" d="M193.107 98.1455C194.65 97.6766 198.031 95.9481 202.633 94.97C207.235 94.0053 213.071 93.8177 217.096 93.8713C221.135 93.9249 223.362 94.2331 224.999 94.3537C226.635 94.4877 227.669 94.4341 224.019 93.657C220.37 92.8798 212.038 91.3792 206.323 90.5619C200.594 89.7311 197.481 89.5838 196.032 89.5168C194.583 89.4498 194.838 89.5034 194.878 89.8115C194.905 90.1197 194.73 90.6959 194.234 91.9419C193.738 93.188 192.933 95.0906 192.396 96.4439C191.859 97.7972 191.578 98.6011 193.134 98.1321L193.107 98.1455Z" fill="white" stroke="black" stroke-width="0.57" stroke-miterlimit="22.93"/>
<path fill-rule="evenodd" clip-rule="evenodd" d="M191.618 147.573C197.857 147.975 210.737 148.163 217.579 148.444C224.422 148.726 225.227 149.087 225.629 149.275C225.898 149.4 225.03 147.958 223.026 144.947C220.021 140.432 214.01 131.401 211.099 127.087C208.174 122.772 208.349 123.161 208.281 123.523C208.214 123.885 207.906 124.206 205.665 125.894C203.411 127.583 199.225 130.637 195.978 133.759C192.745 136.895 190.451 140.097 188.988 142.147C187.526 144.197 186.868 145.081 186.332 145.832C185.795 146.582 185.379 147.185 191.618 147.587V147.573Z" fill="white" stroke="black" stroke-width="0.57" stroke-miterlimit="22.93"/>
<path d="M204.605 148.069C205.343 156.416 206.094 164.777 206.832 173.124" stroke="black" stroke-width="0.57" stroke-miterlimit="22.93"/>
<path fill-rule="evenodd" clip-rule="evenodd" d="M206.524 169.011L206.832 173.124L204.002 172.749C201.171 172.374 195.522 171.637 192.49 171.249C189.458 170.86 189.069 170.82 188.867 170.793C188.666 170.766 188.666 170.753 188.358 169.346C188.049 167.939 187.432 165.125 186.882 162.111C186.332 159.096 185.862 155.867 185.567 153.536C185.272 151.204 185.138 149.744 185.191 148.752C185.245 147.761 185.473 147.225 185.607 146.943C185.741 146.662 185.755 146.635 185.795 146.582C185.835 146.528 185.889 146.448 188.371 146.675C190.867 146.903 195.79 147.426 198.903 147.707C202.016 147.988 203.317 148.029 204.015 148.042C204.726 148.055 204.833 148.069 204.9 148.122C204.968 148.189 204.981 148.31 205.303 152.49C205.612 156.671 206.229 164.898 206.537 168.998L206.524 169.011Z" fill="white" stroke="black" stroke-width="0.57" stroke-miterlimit="22.93"/>
<path fill-rule="evenodd" clip-rule="evenodd" d="M205.222 152.303C205.544 156.47 206.188 164.804 206.51 168.958C206.725 171.736 207.172 173.218 207.852 173.406C208.872 173.687 210.911 174.263 211.958 174.558C213.004 174.84 213.044 174.84 215.594 171.276C218.143 167.712 223.241 160.583 225.817 156.926C228.407 153.268 228.487 153.08 228.527 152.986C228.554 152.924 228.389 152.642 228.031 152.142C227.481 151.392 226.394 149.891 225.857 149.141C225.5 148.641 224.462 148.382 222.745 148.364C220.182 148.337 215.043 148.27 211.971 148.23C208.899 148.19 207.892 148.163 207.06 148.149C206.229 148.149 205.558 148.149 205.222 148.149C204.999 148.149 204.999 149.538 205.222 152.316V152.303Z" fill="white" stroke="black" stroke-width="0.57" stroke-miterlimit="22.93"/>
<path fill-rule="evenodd" clip-rule="evenodd" d="M227.159 270.774C230.204 273.226 235.477 278.023 238.228 280.448C240.978 282.873 241.193 282.927 241.3 282.954C241.372 282.971 242.199 282.065 243.782 280.234C246.157 277.487 250.906 271.993 253.281 269.26C254.864 267.429 254.891 265.794 253.362 264.356C251.067 262.199 246.479 257.885 244.185 255.727C242.655 254.289 240.813 254.379 238.657 255.995C235.423 258.421 228.97 263.271 225.75 265.696C223.594 267.313 222.651 268.139 222.919 268.175C223.322 268.228 224.113 268.336 227.159 270.788V270.774Z" fill="white" stroke="black" stroke-width="0.57" stroke-miterlimit="22.93"/>
<path fill-rule="evenodd" clip-rule="evenodd" d="M216.399 277.125C219.551 278.465 225.267 281.024 229.842 282.19C234.417 283.369 237.865 283.155 239.583 283.061L241.3 282.954L238.442 280.274C235.584 277.594 229.855 272.248 226.984 269.582C224.113 266.915 224.127 266.902 222.101 268.336C220.088 269.769 216.063 272.637 214.346 274.137C212.628 275.638 213.232 275.772 216.399 277.125Z" fill="white" stroke="black" stroke-width="0.57" stroke-miterlimit="22.93"/>
<path fill-rule="evenodd" clip-rule="evenodd" d="M165.576 248.372C168.313 250.783 172.029 254.495 175.316 256.987C178.617 259.492 181.488 260.792 183.97 261.743C186.452 262.695 188.545 263.298 189.578 263.592C190.276 263.789 191.452 263.441 193.107 262.547C195.589 261.207 200.553 258.514 203.357 256.987C206.162 255.459 206.819 255.084 207.141 254.897C207.356 254.772 206.349 254.803 204.122 254.99C200.781 255.272 194.1 255.821 187.459 254.87C180.817 253.919 174.23 251.467 169.547 249.35C164.865 247.233 162.074 245.477 161.564 245.156C161.055 244.834 162.812 245.946 165.549 248.358L165.576 248.372Z" fill="white" stroke="black" stroke-width="0.57" stroke-miterlimit="22.93"/>
<path d="M210.67 205.75C215.419 212.812 220.169 219.886 224.905 226.947" stroke="black" stroke-width="0.57" stroke-miterlimit="22.93"/>
<path fill-rule="evenodd" clip-rule="evenodd" d="M232.955 178.739C234.229 176.514 237.597 172.508 239.274 170.512C240.392 169.172 241.886 169.596 243.755 171.785C246.559 175.067 252.181 181.633 254.985 184.915C256.854 187.104 258.178 188.654 258.956 189.565C260.124 190.931 262.445 193.665 265.276 196.679C268.093 199.694 271.407 202.977 273.071 204.611L274.735 206.259L274.6 206.407C274.466 206.554 274.184 206.836 270.012 210.266C265.839 213.696 257.749 220.288 253.711 223.544C249.672 226.8 249.672 226.746 250.866 222.82C252.06 218.894 254.462 211.11 255.656 205.898C256.85 200.686 256.85 198.046 256.877 196.425C256.904 194.804 256.971 194.187 256.998 193.879L257.024 193.571L253.348 191.668C249.659 189.766 242.306 185.974 238.335 184.004C234.377 182.048 233.827 181.914 233.143 181.646C232.472 181.365 231.667 180.936 232.955 178.725V178.739Z" fill="white" stroke="black" stroke-width="0.57" stroke-miterlimit="22.93"/>
<path d="M256.998 193.892C256.662 191.293 256.327 188.694 256.005 186.094" stroke="black" stroke-width="0.57" stroke-miterlimit="22.93"/>
<path fill-rule="evenodd" clip-rule="evenodd" d="M225.67 110.847C227.964 110.445 233.331 110.512 241.206 111.651C249.082 112.777 259.48 114.974 265.853 116.595C272.226 118.217 274.574 119.275 275.795 119.798C277.015 120.32 277.096 120.32 276.559 122.022C276.036 123.724 274.896 127.127 274.332 128.828C273.956 129.963 274.784 130.856 276.814 131.508C279.86 132.486 285.951 134.429 289.037 135.394C292.123 136.372 292.203 136.372 294.887 139.815C297.57 143.259 302.843 150.159 305.486 153.603C307.248 155.898 307.749 158.48 306.988 161.347C305.848 165.648 303.581 174.237 302.44 178.538C301.68 181.405 300.477 183.455 298.831 184.688C296.362 186.55 291.425 190.261 288.956 192.11C287.311 193.352 286.591 193.834 286.796 193.558C287.105 193.142 287.722 192.325 287.87 191.481C288.017 190.637 287.682 189.779 285.83 187.555C283.979 185.331 280.611 181.74 278.921 179.944C277.794 178.748 277.852 176.907 279.095 174.424C280.96 170.699 284.676 163.263 286.528 159.552L288.393 155.827L285.911 155.385C283.429 154.942 278.478 154.045 276.009 153.603L273.527 153.16L273.809 156.081C274.091 159.002 274.668 164.844 274.922 168.623C275.191 172.414 275.137 174.156 275.137 175.054C275.137 175.952 275.177 175.992 274.104 174.84C273.031 173.687 270.844 171.329 266.711 166.666C262.579 161.99 256.515 155.009 251.081 148.377C245.647 141.745 240.844 135.474 236.966 130.209C233.089 124.943 230.111 120.709 228.246 118.016C226.381 115.323 225.643 114.17 224.878 113.152C224.127 112.134 223.362 111.263 225.656 110.861L225.67 110.847Z" fill="white" stroke="black" stroke-width="0.57" stroke-miterlimit="22.93"/>
<path d="M237.141 111.129C240.119 117.815 243.084 124.487 245.258 130.155C247.418 135.823 248.773 140.485 249.471 143.259C250.182 146.032 250.236 146.917 250.289 147.801" stroke="black" stroke-width="0.57" stroke-miterlimit="22.93"/>
<path d="M260.446 115.296C263.813 122.853 267.194 130.41 269.368 136.72C271.555 143.031 272.534 148.096 273.057 150.869C273.581 153.643 273.621 154.125 273.675 154.621" stroke="black" stroke-width="0.57" stroke-miterlimit="22.93"/>
<path d="M236.108 129.016C239.046 129.123 241.984 129.217 244.936 129.324" stroke="black" stroke-width="0.57" stroke-miterlimit="22.93"/>
<path d="M266.98 130.396C269.556 130.517 272.118 130.637 274.694 130.758" stroke="black" stroke-width="0.57" stroke-miterlimit="22.93"/>
<path d="M288.393 155.827C294.766 156.979 301.125 158.145 307.498 159.297" stroke="black" stroke-width="0.57" stroke-miterlimit="22.93"/>
<path fill-rule="evenodd" clip-rule="evenodd" d="M304.265 220.127C305.928 215.652 308.853 207.519 310.289 203.486C311.724 199.453 311.657 199.507 313.898 197.604C316.139 195.701 320.687 191.843 322.954 189.913C324.466 188.627 325.714 189.27 326.698 191.843C328.173 195.701 331.112 203.432 332.681 207.599C334.251 211.766 334.426 212.383 334.587 212.838C334.734 213.294 334.868 213.602 333.017 215.076C331.179 216.55 327.368 219.189 321.841 221.226C316.313 223.263 309.054 224.71 305.432 225.433C301.796 226.17 301.783 226.183 301.984 225.795C302.185 225.406 302.588 224.589 304.265 220.114V220.127Z" fill="white" stroke="black" stroke-width="0.57" stroke-miterlimit="22.93"/>
<path d="M270.616 276.831C272.749 277.822 274.882 278.8 277.592 279.537C280.302 280.274 283.576 280.743 286.85 281.212" stroke="black" stroke-width="0.57" stroke-miterlimit="22.93"/>
<path d="M322.364 252.15C320.311 256.076 318.272 260.002 316.273 263.164C314.287 266.326 312.355 268.724 310.423 271.122" stroke="black" stroke-width="0.57" stroke-miterlimit="22.93"/>
<path fill-rule="evenodd" clip-rule="evenodd" d="M248.344 256.987C250.719 256.572 255.965 256.21 258.916 255.875C261.868 255.54 262.512 255.205 262.834 255.044C263.049 254.937 262.704 255.545 261.801 256.867C260.446 258.85 257.749 262.816 256.407 264.799C255.504 266.121 254.918 266.607 254.65 266.259C254.234 265.736 253.415 264.678 252.074 263.271C250.732 261.864 248.854 260.096 247.673 258.983C246.492 257.871 245.996 257.402 248.371 256.987H248.344Z" fill="white" stroke="black" stroke-width="0.57" stroke-miterlimit="22.93"/>
<path d="M108.622 241.914C114.659 246.215 120.697 250.529 124.668 253.262C128.64 256.009 130.545 257.175 132.463 258.354" stroke="black" stroke-width="0.57" stroke-miterlimit="22.93"/>
<path d="M139.91 99.271C134.047 104.068 128.184 108.878 122.535 116.14C116.873 123.415 111.426 133.143 108.702 138.02C106.887 141.263 105.827 144.081 105.523 146.475C105.066 150.052 104.154 157.22 103.47 162.298C102.786 167.377 102.316 170.364 103.805 177.56C105.308 184.755 108.756 196.144 112.03 204.598C115.303 213.053 118.389 218.56 121.14 223.088C123.904 227.617 126.332 231.168 127.633 232.936C128.948 234.705 129.123 234.705 129.311 234.705" stroke="black" stroke-width="0.57" stroke-miterlimit="22.93"/>
<path d="M105.013 182.638C104.516 185.518 104.02 188.399 104.342 191.789C104.65 195.192 105.777 199.105 107.602 203.821C109.427 208.537 111.949 214.044 114.901 218.948C117.853 223.852 121.207 228.14 124.024 231.047C126.828 233.941 129.069 235.442 135.71 239.22C142.352 242.999 153.38 249.068 161.417 252.86C169.44 256.652 174.471 258.166 178.979 259.546C183.487 260.926 187.472 262.186 191.457 263.432" stroke="black" stroke-width="0.57" stroke-miterlimit="22.93"/>
<path d="M161.591 245.169C153.622 237.183 145.639 229.184 140.674 223.115C135.71 217.045 133.751 212.878 131.793 208.725" stroke="black" stroke-width="0.57" stroke-miterlimit="22.93"/>
<path d="M185.272 237.197C179.154 235.348 173.036 233.499 166.904 231.65" stroke="black" stroke-width="0.57" stroke-miterlimit="22.93"/>
<path d="M153.716 224.723C148.738 221.279 143.747 217.836 140.098 215.169C136.448 212.503 134.114 210.614 131.793 208.725" stroke="black" stroke-width="0.57" stroke-miterlimit="22.93"/>
<path d="M153.125 94.4208C156.801 93.7777 160.491 93.1345 163.523 92.7192C166.569 92.3038 168.984 92.1296 170.634 91.8214C172.284 91.5133 173.183 91.0845 174.069 90.6558" stroke="black" stroke-width="0.57" stroke-miterlimit="22.93"/>
<path d="M162.879 75.4613C172.217 74.778 181.542 74.1081 192.02 74.175C202.499 74.242 214.131 75.0594 224.623 76.9218C235.115 78.7842 244.466 81.7185 254.261 86.3813C264.055 91.0574 274.305 97.462 281.832 102.741C289.359 108.02 294.149 112.16 298.375 116.997C302.601 121.834 306.264 127.354 309.927 132.875" stroke="black" stroke-width="0.57" stroke-miterlimit="22.93"/>
<path d="M294.886 139.815C290.07 134.094 285.24 128.373 282.248 125.171C279.242 121.968 278.075 121.298 274.989 119.007C271.904 116.716 266.926 112.804 258.447 108.395C249.967 103.974 237.986 99.0565 226.005 94.1392" stroke="black" stroke-width="0.57" stroke-miterlimit="22.93"/>
<path d="M120.549 250.14C120.133 253.195 119.704 256.263 120.63 260.229C121.556 264.195 123.81 269.072 126.399 272.422C128.975 275.772 131.887 277.621 135.912 278.532C139.937 279.443 145.102 279.43 150.267 279.416" stroke="black" stroke-width="0.57" stroke-miterlimit="22.93"/>
<path d="M165.777 276.254C174.324 271.98 182.884 267.706 191.43 263.432" stroke="black" stroke-width="0.57" stroke-miterlimit="22.93"/>
<path d="M207.154 254.91C208.281 253.972 209.422 253.034 210.549 252.11" stroke="black" stroke-width="0.57" stroke-miterlimit="22.93"/>
<path d="M228.353 241.082C235.826 235.978 243.286 230.859 250.759 225.754" stroke="black" stroke-width="0.57" stroke-miterlimit="22.93"/>
<path d="M195.804 192.204C202.74 192.713 209.69 193.236 213.782 193.825C217.888 194.415 219.162 195.085 221.752 196.358C224.341 197.631 228.259 199.52 232.163 201.463C236.067 203.405 239.958 205.388 243.487 207.559C247.016 209.73 250.195 212.074 253.375 214.406" stroke="black" stroke-width="0.57" stroke-miterlimit="22.93"/>
<path d="M157.995 306.911C164.1 309.282 170.218 311.667 176.698 312.86C183.179 314.052 190.048 314.052 197.655 311.868C205.263 309.698 213.621 305.343 218.035 303.052C222.449 300.761 222.906 300.519 223.362 300.278" stroke="black" stroke-width="0.57" stroke-miterlimit="22.93"/>
<path d="M229.869 294.771C233.679 290.832 237.49 286.893 241.287 282.954" stroke="black" stroke-width="0.57" stroke-miterlimit="22.93"/>
<path d="M146.86 296.674C152.602 295.964 158.331 295.24 162.262 294.517C166.193 293.793 168.313 293.056 170.433 292.333" stroke="black" stroke-width="0.57" stroke-miterlimit="22.93"/>
<path d="M180.267 289.077C185.58 287.241 190.893 285.406 196.864 282.686C202.821 279.966 209.435 276.362 216.05 272.757" stroke="black" stroke-width="0.57" stroke-miterlimit="22.93"/>
<path d="M240.428 254.709C249.967 247.099 259.493 239.475 266.846 233.298C274.198 227.121 279.363 222.391 284.529 217.662" stroke="black" stroke-width="0.57" stroke-miterlimit="22.93"/>
<path d="M301.367 182.062C298.522 187.863 295.665 193.651 292.861 199.587C290.057 205.523 287.293 211.592 282.235 220.985C277.176 230.391 269.837 243.119 262.485 255.862" stroke="black" stroke-width="0.57" stroke-miterlimit="22.93"/>
<path d="M228.554 320.376C236.779 314.454 244.99 308.532 250.88 302.757C256.77 296.982 260.312 291.341 263.854 285.714" stroke="black" stroke-width="0.57" stroke-miterlimit="22.93"/>
<path d="M284.851 256.531C286.823 253.637 288.782 250.743 290.754 247.849" stroke="black" stroke-width="0.57" stroke-miterlimit="22.93"/>
<path d="M244.077 308.759C248.29 311.56 252.516 314.347 255.777 315.74C259.05 317.133 261.358 317.12 263.679 317.12" stroke="black" stroke-width="0.57" stroke-miterlimit="22.93"/>
<path d="M287.749 319.988C298.388 317.603 309.028 315.218 315.656 313.02C322.283 310.823 324.886 308.826 327.489 306.83" stroke="black" stroke-width="0.57" stroke-miterlimit="22.93"/>
<path d="M320.606 315.231C322.901 312.431 325.195 309.63 328.254 305.437C331.313 301.243 335.123 295.669 337.431 287.804C339.739 279.939 340.53 269.769 341.322 259.6" stroke="black" stroke-width="0.57" stroke-miterlimit="22.93"/>
<path d="M311.55 200.203C313.777 193.37 316.004 186.537 317.829 179.435C319.64 172.334 321.049 164.951 322.082 159.82C323.115 154.701 323.773 151.834 324.444 148.967" stroke="black" stroke-width="0.57" stroke-miterlimit="22.93"/>
<path d="M310.785 118.592C310.436 126.068 310.101 133.531 309.578 139.963C309.055 146.394 308.357 151.794 308.008 154.487C307.775 156.282 307.65 157.301 307.632 157.542C307.605 157.89 307.552 158.6 307.498 159.297" stroke="black" stroke-width="0.57" stroke-miterlimit="22.93"/>
<path d="M322.257 85.8188C323.571 91.2855 324.886 96.7388 325.571 101.656C326.255 106.573 326.322 110.941 326.389 115.309" stroke="black" stroke-width="0.57" stroke-miterlimit="22.93"/>
<path d="M325.074 98.5605C329.757 100.825 334.439 103.089 337.485 105.287C340.53 107.497 341.952 109.641 342.744 112.013C343.549 114.384 343.723 116.957 343.576 120.615C343.428 124.273 342.932 129.002 341.657 132.888C340.383 136.774 338.343 139.829 336.304 142.87" stroke="black" stroke-width="0.57" stroke-miterlimit="22.93"/>
<path d="M309.658 246.683C315.065 245.571 320.472 244.459 325.879 243.347" stroke="black" stroke-width="0.57" stroke-miterlimit="22.93"/>
<path d="M249.551 304.03C254.757 304.794 259.949 305.544 264.055 305.624C268.147 305.705 271.152 305.102 274.144 304.485" stroke="black" stroke-width="0.57" stroke-miterlimit="22.93"/>
<path d="M300.173 303.092C305.7 301.511 311.215 299.93 317.547 296.928C323.88 293.927 331.018 289.506 338.155 285.084" stroke="black" stroke-width="0.57" stroke-miterlimit="22.93"/>
<path d="M327.409 116.836C331.662 119.074 335.928 121.312 338.531 122.973C341.134 124.634 342.087 125.72 343.026 126.805" stroke="black" stroke-width="0.57" stroke-miterlimit="22.93"/>
<path d="M359.998 137.417C366.451 145.644 372.918 153.871 376.621 161.347C380.324 168.824 381.25 175.563 380.968 185.8C380.687 196.036 379.184 209.783 375.763 223.142C372.341 236.514 366.988 249.497 364.305 255.995L361.621 262.494" stroke="black" stroke-width="0.57" stroke-miterlimit="22.93"/>
<path d="M327.918 154.809C331.487 160.624 335.056 166.452 336.908 169.681C338.759 172.91 338.907 173.54 339.054 174.17" stroke="black" stroke-width="0.57" stroke-miterlimit="22.93"/>
<path d="M326.094 190.302C324.081 186.416 322.069 182.517 320.821 180.199C319.573 177.881 319.077 177.131 318.58 176.38" stroke="black" stroke-width="0.57" stroke-miterlimit="22.93"/>
<path d="M340.718 238.336C339.054 231.221 337.391 224.12 336.371 219.872C335.351 215.625 334.962 214.232 334.587 212.852" stroke="black" stroke-width="0.57" stroke-miterlimit="22.93"/>
<path d="M361.635 262.494C360.28 252.204 358.938 241.9 356.684 230.953C354.43 220.007 351.277 208.403 349.399 201.918C347.534 195.433 346.957 194.053 346.38 192.673" stroke="black" stroke-width="0.57" stroke-miterlimit="22.93"/>
<path d="M346.527 166.318C349.721 161.575 352.914 156.832 355.154 152.008C357.395 147.198 358.696 142.308 359.877 138.596C361.044 134.885 362.091 132.366 363.124 129.833" stroke="black" stroke-width="0.57" stroke-miterlimit="22.93"/>
<path d="M353.813 157.609C356.805 164.161 359.81 170.699 361.353 178.042C362.896 185.384 362.99 193.517 362.574 201.235C362.158 208.953 361.219 216.242 360.078 220.784C358.938 225.326 357.596 227.108 356.255 228.89" stroke="black" stroke-width="0.57" stroke-miterlimit="22.93"/>
<path d="M350.579 206.099C353.571 202.803 356.563 199.506 358.589 197.135C360.615 194.763 361.688 193.33 362.762 191.896" stroke="black" stroke-width="0.57" stroke-miterlimit="22.93"/>
<path d="M356.738 164.134C357.543 170.552 358.348 176.956 358.455 182.597C358.562 188.238 357.985 193.088 357.556 195.781C357.127 198.461 356.832 198.984 356.55 199.493" stroke="black" stroke-width="0.57" stroke-miterlimit="22.93"/>
<path d="M192.477 297.089C196.877 299.943 201.291 302.811 203.948 304.459C206.604 306.12 207.53 306.576 208.442 307.031" stroke="black" stroke-width="0.57" stroke-miterlimit="22.93"/>
<path d="M299.046 57.6279C302.547 59.6645 306.036 61.6877 308.397 63.3358C310.758 64.9838 311.979 66.2299 313.214 67.4224C314.448 68.6149 315.696 69.727 316.93 70.8524" stroke="black" stroke-width="0.57" stroke-miterlimit="22.93"/>
</g>
<defs>
<clipPath id="clip0_682_11149">
<rect width="459" height="410" fill="white"/>
</clipPath>
</defs>
</svg>
