<?xml version="1.0" encoding="utf-8"?>
<svg version="1.1" id="Layer_1" xmlns="http://www.w3.org/2000/svg" xmlns:xlink="http://www.w3.org/1999/xlink" x="0px" y="0px"
	 viewBox="0 0 704.1 566.4" style="enable-background:new 0 0 704.1 566.4;" xml:space="preserve">
<style type="text/css">
	.st0{fill-rule:evenodd;clip-rule:evenodd;fill:#6AC1AC;}
	.st1{fill-rule:evenodd;clip-rule:evenodd;fill:#005A4D;}
	.st2{fill-rule:evenodd;clip-rule:evenodd;fill:#999999;}
	.st3{fill-rule:evenodd;clip-rule:evenodd;fill:#D9D7D5;stroke:#000000;stroke-width:0.57;stroke-miterlimit:22.93;}
	.st4{fill:none;stroke:#000000;stroke-width:0.57;stroke-miterlimit:22.93;}
	.st5{fill-rule:evenodd;clip-rule:evenodd;fill:#CCCCCC;stroke:#000000;stroke-width:0.57;stroke-miterlimit:22.93;}
	.st6{fill-rule:evenodd;clip-rule:evenodd;fill:#87C1D8;stroke:#000000;stroke-width:0.57;stroke-miterlimit:22.93;}
	.st7{fill-rule:evenodd;clip-rule:evenodd;fill:#52A7C4;stroke:#000000;stroke-width:0.57;stroke-miterlimit:22.93;}
	.st8{fill-rule:evenodd;clip-rule:evenodd;fill:#005A4D;stroke:#000000;stroke-width:0.57;stroke-miterlimit:22.93;}
	.st9{fill-rule:evenodd;clip-rule:evenodd;fill:#0C0C17;}
	.st10{fill-rule:evenodd;clip-rule:evenodd;fill:#6AC1AC;stroke:#005A4D;stroke-width:0.57;stroke-miterlimit:22.93;}
	.st11{fill:none;stroke:#005A4D;stroke-width:0.57;stroke-miterlimit:22.93;}
</style>
<path class="st0" d="M611.7,223.3c2.8,2.4,3.3,2.9,8.7,1.5c5.3-1.5,15.5-4.8,20.6-6.7c5.1-1.8,5.2-2.1,13-12.1
	c7.8-10,23.3-29.9,31.1-39.8c5.2-6.6,8.4-14.4,9.6-23.5c1.9-13.5,5.6-40.6,7.5-54.1l1.9-13.5l-12.8-6.2c-12.8-6.2-38.5-18.7-51.3-25
	c-8.5-4.2-14.3-5.3-17.2-3.4c-4.4,2.8-13.1,8.4-17.6,11.3c-4.5,2.8-4.6,2.9-6.8,14.5c-2.2,11.5-6.5,34.6-8.8,46.1
	c-2.2,11.5-2.4,11.6-0.5,26.4c1.9,14.7,5.9,44.2,7.9,58.9c1.3,9.8,2.8,15.4,4.5,16.9C604,216.6,609,220.9,611.7,223.3L611.7,223.3z"
	/>
<path class="st1" id="st1" d="M615.1,225.4c1.2,0.3,2.6,0,5.3-0.7c5.3-1.5,15.5-4.8,20.6-6.7c5.1-1.8,5.2-2.1,13-12.1
	c7.8-10,23.3-29.9,31.1-39.8c5.2-6.6,8.4-14.4,9.6-23.4c1.9-13.5,5.6-40.6,7.5-54.1l1.9-13.5l-12.8-6.2c-12.8-6.2-38.5-18.7-51.3-25
	c-8.5-4.2-14.3-5.3-17.2-3.4c-4.4,2.8-13.1,8.4-17.6,11.3c-1.7,1.1-2.7,1.7-3.5,2.8l60.3,26.1l17.2,7.5l-1.9,8.7
	c-1.9,8.7-5.5,26.1-8.6,37.8c-3.1,11.7-5.6,17.7-7.5,21.8c-1.9,4-3.4,6.1-12.8,19.5C640.2,187.7,625.7,208.7,615.1,225.4z"/>
<path class="st2" d="M694.2,14.5l-3.9-1.2c-2.3-0.7-4.9,0.8-5.7,3.2l-17.7,50.5c-0.9,2.5,0.3,5.1,2.6,5.8l3.9,1.2
	c2.3,0.7,4.9-0.8,5.7-3.2l17.7-50.5C697.6,17.8,696.5,15.2,694.2,14.5z"/>
<path class="st2" d="M661.2,1.4l-3.9-1.2c-2.3-0.7-4.9,0.8-5.7,3.2l-17.7,50.5c-0.9,2.5,0.3,5.1,2.6,5.8l3.9,1.2
	c2.3,0.7,4.9-0.8,5.7-3.2l17.7-50.5C664.7,4.7,663.5,2.1,661.2,1.4z"/>
<path class="st1" d="M694.7,104.5c-4.6,3.1-13,7.1-17.2,9.1c-2.8,1.3-8.2,0-16.1-3.9c-11.9-6-35.8-17.8-47.9-23.8
	c-12.1-6-12.5-6-12.7-6c-0.1,0,2.6,1.1,8.2,3.5c8.3,3.5,25,10.5,37.3,15.6c12.3,5.1,20.2,8.4,25.4,9.6c5.2,1.2,7.7,0.2,11.8-2.1
	c4.1-2.3,9.9-5.9,13.1-7.6c3.2-1.8,3.8-1.7,3.7-0.6C700.2,99.3,699.3,101.4,694.7,104.5L694.7,104.5z"/>
<path class="st1" d="M643.8,153.3c1.3-4.6,4.4-14.9,5.9-20.1c1-3.4-1-6.4-6-9c-7.5-3.9-22.6-11.6-30.1-15.4c-7.5-3.9-7.5-3.9-8.6,1
	c-1.1,4.8-3.2,14.5-4.2,19.3c-0.7,3.2-0.6,3.5,0.3,0.7c1.4-4.1,4.2-12.4,5.6-16.5c0.9-2.8,3.6-3,8.1-0.9c6.7,3.3,20.1,9.8,26.8,13.1
	c6.7,3.3,6.7,3.4,5.8,7.9c-0.8,4.5-2.4,13.4-3.5,18.4C642.9,156.7,642.5,157.9,643.8,153.3L643.8,153.3z"/>
<path class="st3" d="M142.1,210.2c-4.7-16.8-11.1-47.4-11.1-47.4c-43.4,3.9-87,15-130.6,33.2c9.7,31.4,14.5,47.1,14.5,47.1
	C58.9,232.6,103.4,220.7,142.1,210.2L142.1,210.2z"/>
<path class="st3" d="M139.4,210.4L18.6,241.6L64,411.1l120.4-38.4L139.4,210.4z"/>
<path class="st4" d="M23.3,259.1l119.6-33.7"/>
<path class="st3" d="M186.3,387.6c-1.3-20.4-4.7-36.2-11.1-47.9c-24,27-70,40.8-117.9,44.4c0.5,13.6,4.9,28.9,13.2,46
	C112.2,427.6,158.7,414.8,186.3,387.6L186.3,387.6z"/>
<path class="st5" d="M183.8,389.3c-30.4,25.1-68.5,38.7-114.3,40.8c33.3,77.4,71.5,127.8,127.8,134.2c85.7,9.9,119.7-21.8,160-57.2
	c-29.9-37.5-66-59.4-108.2-65.6c-13.2,8.8-26.1,10.2-38.7,4.4C194,431.5,185.1,412.6,183.8,389.3L183.8,389.3z"/>
<path class="st5" d="M515.4,140.2c-1.5,50-16.5,90.4-45.1,121.1c10.1,7.3,15.1,11,15.1,11c34.1-11.7,62.6-43.7,85.3-95.9
	C557.5,158.4,539.1,146.3,515.4,140.2z"/>
<path class="st5" d="M469.2,261.2c-7-1.3-10.5-2-10.5-2c-12.4-53.8-25.2-93.4-38.4-118.7c34.8-15.8,66.1-15.9,93.9-0.3
	C514.8,185.3,499.7,225.6,469.2,261.2L469.2,261.2z"/>
<path class="st5" d="M421.7,140.7c-31.5,9.7-53.8,22.7-67,38.9c62.3,58.8,93.5,88.2,93.5,88.2c8.1-5.6,12.2-8.5,12.2-8.5
	C448.8,208.1,435.9,168.6,421.7,140.7L421.7,140.7z"/>
<path class="st5" d="M278.1,395.4c46.7,6.8,85.9,22.9,108.2,51.5c15.8-74.8,36.9-136.5,60.9-180c0,0-28.9-28.2-86.7-84.7
	C323,212.2,295.5,283.2,278.1,395.4z"/>
<path class="st6" d="M85.1,461.9c29.9,59.3,64.7,96.8,112.7,102.4c85.5,9.9,119.4-21.8,159.6-57.3c-29.9-37.5-65.9-59.4-107.9-65.7
	c-13.1,8.8-26,10.3-38.6,4.4c-9.6-8.4-16.5-18.2-21-29.6C157,441.5,122.1,456.7,85.1,461.9L85.1,461.9z"/>
<path class="st6" d="M278.1,395.5c46.7,6.8,85.8,22.9,108.1,51.4c6.6-31.3,14.2-60.4,22.5-86.7l-124.6,0.5
	C282,371.8,280,383.4,278.1,395.5L278.1,395.5z"/>
<path class="st7" d="M346.6,368.1c34.1,0.5,62-2.4,62.1-6.4c0.1-4.1-27.7-7.9-61.9-8.4c-34.1-0.5-62,2.3-62.1,6.4
	C284.7,363.8,312.5,367.6,346.6,368.1z"/>
<path class="st4" d="M443.5,249.9c2.2,0,4-1.9,4.1-4.4c0-2.5-1.7-4.5-3.9-4.5c-2.2,0-4,1.9-4.1,4.4
	C439.6,247.9,441.3,249.9,443.5,249.9z"/>
<path class="st4" d="M493.4,258.6c2.8,0,5-1.9,5.1-4.4c0-2.5-2.2-4.5-4.9-4.5c-2.8,0-5,1.9-5.1,4.4
	C488.4,256.6,490.6,258.6,493.4,258.6z"/>
<path class="st4" d="M179.8,417.9c2.2,0,4-1.7,4.1-3.9c0-2.2-1.7-4-3.9-4s-4,1.7-4.1,3.9C175.8,416.1,177.5,417.9,179.8,417.9z"/>
<path class="st5" d="M262.8,408.4c-9.8,12-14.3,23.1-13.2,33.4c41.5,6,77.4,27.7,107.5,65.1c10.8-9,20.4-21.3,28.9-37
	C354.3,432.3,313.3,411.8,262.8,408.4z"/>
<path class="st4" d="M359.5,495c2.8,0,5-2.1,5.1-4.9c0-2.7-2.2-5-4.9-5c-2.7,0-5,2.1-5.1,4.9C354.6,492.7,356.8,495,359.5,495z"/>
<path class="st5" d="M382.8,465.7c-34.1-35.9-73.1-55-116.8-57.3c3.8-8.5,5.7-12.8,5.7-12.8c58,8.1,97.2,26.8,117.6,55.9
	C384.9,461,382.8,465.7,382.8,465.7L382.8,465.7z"/>
<path class="st8" d="M68.6,305.7c17.5,9.2,33.2,14.9,47,17.2c24.1-88.7,59.7-134.3,106.8-136.7c42.7,7,72.3,31.3,88.6,73.1
	c8.9-22.6,18-40.2,27.3-52.8c-33.5-42.8-71.9-65.1-115.1-67C156.3,138.6,104.9,194,68.6,305.7z"/>
<path class="st9" d="M70,308.3c-1,1.7-1.7,5.7-3.3,11.1c-1.6,5.5-4.2,12.3-5.8,16.4c-1.6,4-2.3,5.2-2.7,6.5
	c-0.4,1.2-0.5,2.5,1.7-2.4c2.2-4.9,6.6-15.9,10.3-21.4c3.7-5.5,6.7-5.5,8.7-5c2,0.5,3,1.5,3.2,2.9c0.2,1.4-0.4,3.3-2.8,8.9
	c-2.5,5.6-6.8,14.8-8.3,18.4c-1.5,3.6,0,1.5,1.5-0.6c1.5-2,3.1-4,3.6-4.2c0.5-0.2,0.1,1.5-1,4c-1,2.6-2.6,6-1.4,4.4
	c1.2-1.6,5.3-8.1,8.2-14c2.9-5.9,4.7-11.2,6.7-13.6c1.9-2.4,3.9-1.9,4.9-1.1c1,0.8,1,1.8-0.3,5.6c-1.2,3.7-3.7,10.2-4.1,11.3
	c-0.4,1.1,1.2-3.1,3-6.5c1.8-3.4,3.8-5.9,3.1-3.6c-0.6,2.3-3.9,9.4-5.6,13.4c-1.7,4-1.9,5-0.4,2.8c1.5-2.3,4.6-7.8,6.7-11.8
	c2.2-4,3.5-6.5,5.1-7.3s3.4-0.3,4.9,0.3c1.4,0.6,2.4,1.1,2.9,1.9c0.5,0.8,0.5,1.8-2.1,6.8c-2.6,5-7.6,14.2-10.1,18.8
	c-2.4,4.6-2.2,4.7-2.5,6c-0.3,1.3-1.1,3.8-1,4.6s0.8-0.1,3.5-5.2c2.7-5,7.3-14.1,10.9-20.3c3.5-6.2,6-9.3,7.3-10.9
	c0.8-1,0.5-1.8-1.1-2.1c-2.3-0.5-6.9-1.6-12.4-3.4c-5.5-1.7-11.7-4.1-16.5-6c-4.8-1.9-7.9-3.4-10.2-4.6
	C72.4,307.4,71,306.7,70,308.3L70,308.3z"/>
<path class="st3" d="M570.5,175.7c-19.5,48.7-47.9,80.7-85.3,96c25.9,27.8,48.9,73.3,69.1,136.4c50.2-3.9,87.1-20.8,110.6-50.6
	C643.9,286.4,612.5,225.8,570.5,175.7z"/>
<path class="st4" d="M538.7,363.3c57.7-16.1,94-34.6,108.9-55.7"/>
<path class="st4" d="M531.9,348.3c53.3-17.3,90-35.9,109.9-55.6"/>
<path class="st8" d="M410.4,357.2c-13.2,49.8-20.9,78.1-20.9,78.1c15.4,42.2,50,66.4,103.4,62.2c65.9-5.2,113.5-93.3,143.8-253.9
	c-11.5-14.5-28.5-19.1-56.3-20.2c-13.6,54.5-34.6,231.5-113.3,219.9C439.2,439.8,422.8,411.1,410.4,357.2L410.4,357.2z"/>
<path class="st10" d="M590.8,192.6c-6.5,21.1-9.8,31.6-9.8,31.6c31.7,2.6,50.3,9.2,55.8,19.9c10-24,14.9-34,14.9-34
	c3.6-4.4,7.1-10.8,7.1-10.8c-43.4-8.2-61.5-14.8-61.5-14.8C599.5,192.1,590.8,192.5,590.8,192.6L590.8,192.6z"/>
<path class="st11" d="M590.5,192c19.7-0.4,37.7,3.2,53.8,10.7"/>
<path class="st11" d="M584.2,212.1c23.7-1.9,43.3,3.8,58.7,17.3"/>
<path class="st4" d="M418.2,168.6c2.2,0,4-1.8,4-4s-1.8-4-4-4s-4,1.8-4,4S416,168.6,418.2,168.6z"/>
<path class="st4" d="M525.2,166.6c2.2,0,4-2,4-4.5s-1.8-4.5-4-4.5s-4,2-4,4.5S523,166.6,525.2,166.6z"/>
</svg>
